<svg xmlns="http://www.w3.org/2000/svg" version="1" width="995" height="1070">
    <path d="M438 479l-1 109-64-37V442z" fill="#48b8c2"/>
    <path d="M539 506v108l-28 17V522z" fill="#48b8c2"/>
    <path d="M511 522v109l-46-27 1-109z" fill="#48b8c2"/>
    <path d="M539 506l-28 16-45-27-63 37-93-53 28-16 64 37 36-21-65-37 28-16z" fill="#30afbb"/>
    <path d="M466 495l-1 109-63 37 1-109z" fill="#48b8c2"/>
    <path d="M403 532l-1 109-92-53V479z" fill="#48b8c2"/>
    <path d="M280 530l-1 108-35 21 1-109z" fill="#5fc0ca"/>
    <path d="M361 577v108l-82-47 1-108z" fill="#48b8c2"/>
    <path d="M326 597l35-20-81-47-35 20 81 47m-47-100l138 80-91 53-138-80z" fill="#30afbb"/>
    <path d="M417 577v108l-91 53V630z" fill="#5fc0ca"/>
    <path d="M326 630v108l-138-79V550z" fill="#48b8c2"/>
    <path d="M189 624v108l-64-37V587z" fill="#5fc0ca"/>
    <path d="M291 650v109l-28 16V666z" fill="#30afbb"/>
    <path d="M263 666v109l-46-27V640z" fill="#5fc0ca"/>
    <path d="M291 650l-28 16-46-26-63 36-92-53 28-16 64 37 35-20-64-37 28-17z" fill="#1da8b5"/>
    <path d="M217 640v108l-63 37V676z" fill="#30afbb"/>
    <path d="M154 676v109l-92-53V623zM506 382l-1 109-35-20V362z" fill="#5fc0ca"/>
    <path d="M470 362v109l-81 47V409z" fill="#48b8c2"/>
    <path d="M425 429l81-47-36-20-81 47 36 20m45-100l92 53-137 80-92-53z" fill="#30afbb"/>
    <path d="M562 382v109l-137 79V462z" fill="#48b8c2"/>
    <path d="M425 462v108l-92-52V409z" fill="#5fc0ca"/>
    <path d="M622 417l-1 108-63 37V453z" fill="#48b8c2"/>
    <path d="M565 490v109l-63-37V453z" fill="#48b8c2"/>
    <path d="M685 453l-137 80-28-16 45-27-63-37 91-53 29 17-64 36 35 21 64-37z" fill="#1da8b5"/>
    <path d="M685 453v109l-137 79V533z" fill="#48b8c2"/>
    <path d="M548 533v108l-28-16V517z" fill="#48b8c2"/>
    <path d="M247 128l66-38 35 20-65 38z" fill="#48b8c2"/>
    <path d="M285 0l-66 38 29 16 65-38-28-16z" fill="#1da8b5"/>
    <path d="M248 54l65-38v74l-66 38z" fill="#5fc0ca"/>
    <path d="M311 91v159l-29-17 1-52-64-37V38l29 16-1 74 36 20V75z" fill="#30afbb"/>
    <path d="M311 91l66-38-1 158-65 39z" fill="#5fc0ca"/>
    <path d="M283 75l66-38 28 16-66 38z" fill="#1da8b5"/>
    <path d="M374 254l66-38 35 20-66 38z" fill="#48b8c2"/>
    <path d="M374 160l66-38v94l-66 38z" fill="#30afbb"/>
    <path d="M409 274l1-93-36-21v94l35 20m-63-163l92 53-1 159-91-53z" fill="#48b8c2"/>
    <path d="M346 111l66-38 92 53-66 38z" fill="#30afbb"/>
    <path d="M438 164l66-38-1 159-66 38z" fill="#30afbb"/>
    <path d="M497 272l66-38 35 21-65 38z" fill="#5fc0ca"/>
    <path d="M469 183l66-39 28 17-66 38z" fill="#1da8b5"/>
    <path d="M497 199l66-38v73l-66 38z" fill="#48b8c2"/>
    <path d="M561 235l-1 159-28-16v-53l-63-37V183l28 16v73l36 21v-74z" fill="#48b8c2"/>
    <path d="M561 235l66-38-1 159-66 38z" fill="#48b8c2"/>
    <path d="M533 219l66-38 28 16-66 38z" fill="#1da8b5"/>
    <path d="M664 249v109l-64 37 1-109z" fill="#48b8c2"/>
    <path d="M608 323v109l-64-37V286z" fill="#30afbb"/>
    <path d="M728 286l-137 80-29-17 46-26-64-37 92-53 28 16-63 37 35 21 64-37z" fill="#1da8b5"/>
    <path d="M728 286l-1 109-137 79 1-108z" fill="#48b8c2"/>
    <path d="M591 366l-1 108-28-16V349z" fill="#30afbb"/>
    <path d="M798 359v109l-35-20V339z" fill="#5fc0ca"/>
    <path d="M763 339v109l-81 47V386z" fill="#48b8c2"/>
    <path d="M717 407l81-48-35-20-81 47 35 21m46-101l92 53-138 80-91-53z" fill="#30afbb"/>
    <path d="M855 359l-1 109-137 80V439z" fill="#5fc0ca"/>
    <path d="M717 439v109l-91-53V386zM914 394v108l-64 37 1-108z" fill="#48b8c2"/>
    <path d="M858 467v109l-64-37V431z" fill="#48b8c2"/>
    <path d="M978 430l-137 80-29-16 46-27-64-36 92-53 28 16-63 37 35 20 63-37z" fill="#1da8b5"/>
    <path d="M978 430l-1 109-137 80 1-109z" fill="#48b8c2"/>
    <path d="M841 510l-1 109-28-17V494zM681 610v109l-64 37 1-109z" fill="#48b8c2"/>
    <path d="M625 684v109l-64-37 1-109z" fill="#30afbb"/>
    <path d="M745 647l-137 80-28-17 45-26-63-37 91-53 28 16-63 37 35 21 64-37z" fill="#48b8c2"/>
    <path d="M745 647l-1 109-137 79 1-108z" fill="#48b8c2"/>
    <path d="M608 727l-1 108-28-16 1-109z" fill="#30afbb"/>
    <path d="M815 720v109l-35-20V700z" fill="#5fc0ca"/>
    <path d="M780 700v109l-81 47V747z" fill="#48b8c2"/>
    <path d="M734 767l81-47-35-20-81 47 35 20m46-100l92 53-137 80-92-53z" fill="#30afbb"/>
    <path d="M872 720l-1 109-137 79 1-108z" fill="#48b8c2"/>
    <path d="M735 800l-1 108-91-52V747z" fill="#5fc0ca"/>
    <path d="M931 755v108l-64 37 1-108z" fill="#48b8c2"/>
    <path d="M875 828v109l-64-37V792z" fill="#48b8c2"/>
    <path d="M811 792l64 36-46 27 29 16 137-80-29-16-63 37-35-20 63-37-28-17z" fill="#1da8b5"/>
    <path d="M858 871l-1 108 137-79 1-109z" fill="#48b8c2"/>
    <path d="M858 871l-1 108-28-16V855z" fill="#48b8c2"/>
    <path d="M613 536l65-38 36 20-66 39z" fill="#48b8c2"/>
    <path d="M585 446l66-38 28 17-66 38z" fill="#1da8b5"/>
    <path d="M613 463l66-38-1 73-65 38z" fill="#5fc0ca"/>
    <path d="M676 499v159l-28-16v-53l-64-37 1-106 28 17v73l35 21v-74z" fill="#30afbb"/>
    <path d="M676 499l66-38v159l-66 38z" fill="#48b8c2"/>
    <path d="M648 483l66-38 28 16-66 38z" fill="#1da8b5"/>
    <path d="M739 662l66-38 35 20-65 39z" fill="#48b8c2"/>
    <path d="M740 569l65-39v94l-66 38z" fill="#30afbb"/>
    <path d="M775 683v-94l-35-20-1 93 36 21m-63-163l91 53v158l-92-53z" fill="#5fc0ca"/>
    <path d="M712 520l65-38 92 52-66 39z" fill="#30afbb"/>
    <path d="M803 573l66-39v159l-66 38z" fill="#48b8c2"/>
    <path d="M863 681l65-39 36 21-66 38z" fill="#5fc0ca"/>
    <path d="M835 591l65-38 29 16-66 38z" fill="#1da8b5"/>
    <path d="M863 607l66-38-1 73-65 39z" fill="#48b8c2"/>
    <path d="M926 644v158l-28-16v-53l-64-36 1-106 28 16v74l35 20v-74z" fill="#48b8c2"/>
    <path d="M926 644l66-39v159l-66 38z" fill="#48b8c2"/>
    <path d="M898 627l66-38 28 16-66 39z" fill="#1da8b5"/>
    <path d="M173 161l-1 109-35-20V141z" fill="#5fc0ca"/>
    <path d="M137 141v109l-81 47V188z" fill="#48b8c2"/>
    <path d="M0 188l92 53 137-80-92-53zm56 0l81-47 36 20-81 47z" fill="#30afbb"/>
    <path d="M229 161v109L92 349V241z" fill="#48b8c2"/>
    <path d="M0 297l92 52V241L0 188z" fill="#5fc0ca"/>
    <path d="M289 195l-1 109-63 37V232z" fill="#48b8c2"/>
    <path d="M232 269v109l-63-37V232z" fill="#48b8c2"/>
    <path d="M352 232l-137 80-28-16 45-27-63-37 91-53 29 16-64 37 35 21 64-37z" fill="#1da8b5"/>
    <path d="M352 232v109l-137 79V312z" fill="#48b8c2"/>
    <path d="M215 312v108l-29-16 1-108z" fill="#48b8c2"/>
    <path d="M483 240l-1 109-64-37 1-109z" fill="#48b8c2"/>
    <path d="M584 267v108l-28 17V283z" fill="#48b8c2"/>
    <path d="M556 283v109l-46-27 1-108z" fill="#48b8c2"/>
    <path d="M584 267l-28 16-45-26-63 36-92-53 27-16 65 37 35-21-64-37 27-16z" fill="#30afbb"/>
    <path d="M511 257l-1 108-63 37 1-109z" fill="#48b8c2"/>
    <path d="M448 293l-1 109-92-53 1-109zM325 291l-1 108-35 21 1-109z" fill="#5fc0ca"/>
    <path d="M406 338v108l-82-47 1-108z" fill="#48b8c2"/>
    <path d="M371 358l35-20-81-47-35 20 81 47m-47-100l138 80-91 53-138-80z" fill="#30afbb"/>
    <path d="M462 338v108l-91 53V391z" fill="#5fc0ca"/>
    <path d="M371 391v108l-138-79V311z" fill="#48b8c2"/>
    <path d="M234 385v108l-64-37V348z" fill="#5fc0ca"/>
    <path d="M336 411v109l-28 16V427zM308 427v109l-46-27V401z" fill="#30afbb"/>
    <path d="M336 411l-28 16-46-26-63 36-92-53 28-16 64 37 35-20-64-37 28-17z" fill="#1da8b5"/>
    <path d="M262 401v108l-63 37V437z" fill="#48b8c2"/>
    <path d="M199 437v109l-92-53V384z" fill="#5fc0ca"/>
    <path d="M203 501v109l-36-20 1-109z" fill="#5fc0ca"/>
    <path d="M168 481l-1 109-81 47 1-109z" fill="#48b8c2"/>
    <path d="M122 548l81-47-35-20-81 47 35 20m46-100l91 53-137 80-91-53z" fill="#30afbb"/>
    <path d="M259 501v109l-137 80V581z" fill="#48b8c2"/>
    <path d="M122 581v109l-92-53 1-109z" fill="#5fc0ca"/>
    <path d="M319 536v108l-64 37V573z" fill="#48b8c2"/>
    <path d="M263 609l-1 109-63-37V573z" fill="#5fc0ca"/>
    <path d="M382 572l-137 80-28-16 46-27-64-36 92-54 28 17-64 37 36 20 63-37z" fill="#48b8c2"/>
    <path d="M382 572v109l-137 80V652z" fill="#48b8c2"/>
    <path d="M245 652v109l-28-17V636z" fill="#48b8c2"/>
    <path d="M581 521v109l-64-37V484z" fill="#48b8c2"/>
    <path d="M683 548v109l-28 16V564z" fill="#30afbb"/>
    <path d="M655 564v109l-46-27V538z" fill="#48b8c2"/>
    <path d="M683 548l-28 16-46-26-63 36-92-53 28-16 64 37 35-21-64-37 28-16z" fill="#1da8b5"/>
    <path d="M609 538v108l-63 37V574z" fill="#30afbb"/>
    <path d="M546 574v109l-92-53V521z" fill="#48b8c2"/>
    <path d="M423 572v109l-35 20V592z" fill="#5fc0ca"/>
    <path d="M505 619l-1 109-81-47V572z" fill="#48b8c2"/>
    <path d="M470 639l35-20-82-47-35 20 82 47m-47-100l138 80-91 53-138-80z" fill="#30afbb"/>
    <path d="M561 619l-1 109-91 52 1-108z" fill="#5fc0ca"/>
    <path d="M470 672l-1 108-138-79 1-109z" fill="#48b8c2"/>
    <path d="M333 666l-1 108-64-37 1-108z" fill="#48b8c2"/>
    <path d="M435 692l-1 109-28 16 1-109z" fill="#30afbb"/>
    <path d="M407 708l-1 109-45-26V682z" fill="#48b8c2"/>
    <path d="M435 692l-28 16-46-26-63 37-92-54 28-16 64 37 35-20-64-37 28-17z" fill="#1da8b5"/>
    <path d="M361 682v109l-63 36V719z" fill="#30afbb"/>
    <path d="M298 719v108l-93-53 1-109z" fill="#48b8c2"/>
    <path d="M585 197l66-38 35 20-65 38zM557 107l66-38 28 16-65 38z" fill="#1da8b5"/>
    <path d="M586 123l65-38v74l-66 38z" fill="#30afbb"/>
    <path d="M649 160v159l-29-17 1-52-64-37V107l29 16-1 74 36 20v-73z" fill="#5fc0ca"/>
    <path d="M649 160l66-38-1 158-65 39z" fill="#48b8c2"/>
    <path d="M621 144l66-38 28 16-66 38z" fill="#1da8b5"/>
    <path d="M712 323l66-38 35 20-66 38z" fill="#48b8c2"/>
    <path d="M712 229l66-38v94l-66 38z" fill="#5fc0ca"/>
    <path d="M747 343l1-93-36-21v94l35 20m-63-163l92 53-1 159-91-53z" fill="#30afbb"/>
    <path d="M684 180l66-38 92 53-66 38z" fill="#48b8c2"/>
    <path d="M776 233l66-38-1 159-66 38z" fill="#1da8b5"/>
    <path d="M835 341l66-38 35 20-65 39z" fill="#5fc0ca"/>
    <path d="M807 251l66-38 28 16-66 39z" fill="#30afbb"/>
    <path d="M835 268l66-39v74l-66 38z" fill="#48b8c2"/>
    <path d="M899 304l-1 159-28-16v-53l-63-37V251l28 17v73l36 21v-74z" fill="#48b8c2"/>
    <path d="M899 304l66-38-1 159-66 38z" fill="#48b8c2"/>
    <path d="M871 288l66-38 28 16-66 38z" fill="#1da8b5"/>
    <path d="M493 785l66-39 35 21-65 38zM465 695l66-38 28 16-66 38z" fill="#48b8c2"/>
    <path d="M493 711l66-38v73l-66 39z" fill="#5fc0ca"/>
    <path d="M557 748l-1 158-28-16v-53l-63-36V695l28 16v74l36 20v-74z" fill="#30afbb"/>
    <path d="M557 748l66-39-1 159-66 38z" fill="#5fc0ca"/>
    <path d="M529 731l66-38 28 16-66 39z" fill="#48b8c2"/>
    <path d="M620 911l66-39 35 21-66 38z" fill="#48b8c2"/>
    <path d="M620 817l66-38v93l-66 39z" fill="#30afbb"/>
    <path d="M655 931l1-94-36-20v94l35 20m-63-163l92 53-1 158-91-52z" fill="#48b8c2"/>
    <path d="M592 768l66-38 92 53-66 38z" fill="#1da8b5"/>
    <path d="M684 821l66-38-1 158-66 38z" fill="#30afbb"/>
    <path d="M743 929l66-38 35 20-66 38z" fill="#5fc0ca"/>
    <path d="M715 839l66-38 28 16-66 38z" fill="#1da8b5"/>
    <path d="M743 855l66-38v74l-66 38z" fill="#48b8c2"/>
    <path d="M807 892l-1 159-28-17v-52l-63-37V839l28 16v74l35 20 1-73z" fill="#48b8c2"/>
    <path d="M807 892l66-38-1 158-66 39z" fill="#48b8c2"/>
    <path d="M779 876l65-38 29 16-66 38z" fill="#1da8b5"/>
    <path d="M485 764l-1 109-64-37 1-109z" fill="#48b8c2"/>
    <path d="M587 791l-1 109-28 16 1-109z" fill="#48b8c2"/>
    <path d="M559 807l-1 109-45-27V781z" fill="#48b8c2"/>
    <path d="M587 791l-28 16-46-26-63 36-92-53 28-16 64 37 35-21-64-37 28-16z" fill="#1da8b5"/>
    <path d="M513 781v108l-63 37V817z" fill="#48b8c2"/>
    <path d="M450 817v109l-93-53 1-109z" fill="#48b8c2"/>
    <path d="M327 815v109l-36 20 1-109z" fill="#5fc0ca"/>
    <path d="M408 862v109l-81-47V815z" fill="#48b8c2"/>
    <path d="M373 882l35-20-81-47-35 20 81 47m-47-100l138 80-91 53-138-80z" fill="#30afbb"/>
    <path d="M464 862v109l-91 52V915z" fill="#5fc0ca"/>
    <path d="M373 915v108l-138-79V835z" fill="#48b8c2"/>
    <path d="M236 909v108l-64-37V872z" fill="#5fc0ca"/>
    <path d="M338 935v109l-28 16V951z" fill="#30afbb"/>
    <path d="M310 951v109l-46-26 1-109z" fill="#5fc0ca"/>
    <path d="M338 935l-28 16-45-26-63 37-93-54 28-16 64 37 35-20-64-37 28-17z" fill="#1da8b5"/>
    <path d="M202 962l-1 108 63-36 1-109z" fill="#30afbb"/>
    <path d="M109 1017l92 53 1-108-93-54z" fill="#5fc0ca"/>
    <path d="M275 905l-66-38v-53l66 39z" fill="#48b8c2"/>
    <path d="M240 841l-66-39 35-20 66 38z" fill="#48b8c2"/>
    <path d="M275 820l-66-38v-74l66 39z" fill="#5fc0ca"/>
    <path d="M275 747l-66-39 28-16 66 38zM211 783l-66-38 29-16 65 38z" fill="#30afbb"/>
    <path d="M211 889l-65-38-1-106 66 38z" fill="#48b8c2"/>
    <path d="M303 730v159l-28 16v-52l-64 36V783l28-16 1 74 35-21v-73z" fill="#30afbb"/>
</svg>
