<svg version="1" id="Isolation_Mode" xmlns="http://www.w3.org/2000/svg" viewBox="0 0 294 258"><style>.st0{fill:silver}.st1{fill:#ececec}.st2{fill:#f8f8f8}</style><path class="st0" d="M274 154l-47-28V88l47 28z"/><path class="st1" d="M248 107l-47-27 25-15 48 28z"/><path class="st0" d="M274 93l-48-28V12l48 27z"/><path class="st1" d="M274 39l-48-27 21-12 47 28zM228 66l-48-28 21-12 47 28z"/><path class="st0" d="M228 142l-47-27-1-77 48 28z"/><path class="st2" d="M294 28v114l-20 12v-38l-46 26V66l20-12v53l26-14V39z"/><path class="st1" d="M162 195l-47-27 25-15 48 28z"/><path class="st0" d="M188 181l-48-28V85l47 28z"/><path class="st2" d="M141 116l67-38v114l-66 38-1-114zm47 65l-1-68-25 15v67l26-14"/><path class="st1" d="M141 116L94 88l66-38 48 28z"/><path class="st0" d="M142 230l-48-27V88l47 28zM94 258l-48-28v-38l48 28z"/><path class="st1" d="M68 211l-47-27 25-15 48 28z"/><path class="st0" d="M94 197l-48-28v-53l47 28z"/><path class="st1" d="M93 144l-47-28 20-12 48 28zM48 170L0 142l20-11 48 27z"/><path class="st0" d="M48 247L0 219v-77l48 28z"/><path class="st2" d="M114 132v114l-20 12v-38l-46 27v-77l20-12v53l26-14-1-53z"/></svg>