<svg xmlns="http://www.w3.org/2000/svg" id="add_avatar.svg" viewBox="0 0 479.1 484.1"><path d="M228 396.5c-41.6 0-79.6-15.1-109-40.2-7.2-6.1-11.3-15-11.3-24.4 0-42.2 34.2-76.1 76.5-76.1H272c23.1 0 43.7 10.1 57.7 26.2 15.5-7.7 32.9-12 51.4-12 24.7 0 47.5 7.7 66.3 20.8 5.7-19.9 8.7-41 8.7-62.8.1-125.9-102-228-228-228S0 102.1 0 228.1s102.1 228.1 228.1 228.1c19.2 0 37.9-2.4 55.7-6.9-10.8-16.5-17.4-36-18.6-56.9-12 2.7-24.4 4.1-37.2 4.1zm.1-328.3c41.7 0 75.5 33.8 75.5 75.4 0 41.7-33.8 75.4-75.5 75.4s-75.4-33.8-75.4-75.4c0-41.6 33.7-75.4 75.4-75.4z" fill="#434a53"/><path d="M381.1 288.1c-54 0-98 44-98 98s44 98 98 98 98-44 98-98c0-54.1-44-98-98-98zm47.1 105.5h-39.6v41.5c0 4.2-3.4 7.5-7.5 7.5s-7.5-3.4-7.5-7.5v-41.5H334c-4.2 0-7.5-3.4-7.5-7.5 0-4.2 3.4-7.5 7.5-7.5h39.6v-37.7c0-4.2 3.4-7.5 7.5-7.5s7.5 3.4 7.5 7.5v37.7h39.6c4.2 0 7.5 3.4 7.5 7.5s-3.3 7.5-7.5 7.5z"/></svg>