<?xml version="1.0" encoding="utf-8"?>
<!-- Generator: Adobe Illustrator 19.2.0, SVG Export Plug-In . SVG Version: 6.00 Build 0)  -->
<svg version="1.1" id="Слой_1" xmlns="http://www.w3.org/2000/svg" xmlns:xlink="http://www.w3.org/1999/xlink" x="0px" y="0px"
	 viewBox="0 0 602 464.7" style="enable-background:new 0 0 602 464.7;" xml:space="preserve">
<style type="text/css">
	.st0{fill:none;stroke:#FFFFFF;stroke-width:1.691;stroke-linecap:round;stroke-linejoin:round;stroke-miterlimit:10;}
	.st1{clip-path:url(#SVGID_2_);fill:#FFFFFF;}
</style>
<polygon class="st0" points="403.8,87.5 241.2,6.9 292.1,175.1 "/>
<polygon class="st0" points="394.3,218.5 403.8,87.5 292.1,175.1 254.3,283.8 "/>
<polygon class="st0" points="241.2,6.9 8.6,154.3 292.1,175.1 "/>
<polygon class="st0" points="254.3,283.8 44.1,383.4 292.1,175.1 "/>
<polygon class="st0" points="8.6,154.3 44.1,383.4 292.1,175.1 "/>
<polygon class="st0" points="394.3,218.5 296.8,459.8 254.3,283.8 "/>
<polygon class="st0" points="44.1,383.4 296.8,459.8 254.3,283.8 "/>
<polygon class="st0" points="394.3,218.5 447.7,385.2 296.8,459.8 "/>
<polygon class="st0" points="403.8,87.5 571.3,113.2 478.9,193.7 394.3,218.5 "/>
<polygon class="st0" points="447.7,385.2 596.9,276.5 413.4,281.3 "/>
<polygon class="st0" points="571.3,113.2 596.9,276.5 478.9,193.7 "/>
<g>
	<defs>
		<rect id="SVGID_1_" x="-99" y="-80" width="800" height="800"/>
	</defs>
	<clipPath id="SVGID_2_">
		<use xlink:href="#SVGID_1_"  style="overflow:visible;"/>
	</clipPath>
	<path class="st1" d="M297,171.7c1.9,2.7,1.2,6.4-1.5,8.2c-2.7,1.9-6.4,1.2-8.2-1.5c-1.9-2.7-1.2-6.4,1.5-8.2
		C291.4,168.4,295.1,169.1,297,171.7"/>
	<path class="st1" d="M408.7,84.1c1.9,2.7,1.2,6.4-1.5,8.2c-2.7,1.9-6.4,1.2-8.2-1.5c-1.9-2.7-1.2-6.4,1.5-8.2
		C403.1,80.8,406.8,81.4,408.7,84.1"/>
	<path class="st1" d="M399.2,215.1c1.9,2.7,1.2,6.4-1.5,8.2c-2.7,1.9-6.4,1.2-8.2-1.5c-1.9-2.7-1.2-6.4,1.5-8.2
		C393.6,211.7,397.3,212.4,399.2,215.1"/>
	<path class="st1" d="M483.8,190.3c1.9,2.7,1.2,6.4-1.5,8.2c-2.7,1.9-6.4,1.2-8.2-1.5c-1.9-2.7-1.2-6.4,1.5-8.2
		C478.2,186.9,481.9,187.6,483.8,190.3"/>
	<path class="st1" d="M576.2,109.8c1.9,2.7,1.2,6.4-1.5,8.2c-2.7,1.9-6.4,1.2-8.2-1.5s-1.2-6.4,1.5-8.2
		C570.6,106.5,574.3,107.2,576.2,109.8"/>
	<path class="st1" d="M601.7,273.1c1.9,2.7,1.2,6.4-1.5,8.2c-2.7,1.9-6.4,1.2-8.2-1.5c-1.9-2.7-1.2-6.4,1.5-8.2
		C596.2,269.8,599.8,270.4,601.7,273.1"/>
	<path class="st1" d="M452.6,381.8c1.9,2.7,1.2,6.4-1.5,8.2c-2.7,1.9-6.4,1.2-8.2-1.5c-1.9-2.7-1.2-6.4,1.5-8.2
		C447,378.5,450.7,379.1,452.6,381.8"/>
	<path class="st1" d="M419.3,278.2c1.9,2.7,1.2,6.4-1.5,8.2c-2.7,1.9-6.4,1.2-8.2-1.5c-1.9-2.7-1.2-6.4,1.5-8.2
		C413.7,274.9,417.4,275.5,419.3,278.2"/>
	<path class="st1" d="M301.6,456.4c1.9,2.7,1.2,6.4-1.5,8.2c-2.7,1.9-6.4,1.2-8.2-1.5c-1.9-2.7-1.2-6.4,1.5-8.2
		C296.1,453.1,299.8,453.7,301.6,456.4"/>
	<path class="st1" d="M259.2,280.4c1.9,2.7,1.2,6.4-1.5,8.2c-2.7,1.9-6.4,1.2-8.2-1.5c-1.9-2.7-1.2-6.4,1.5-8.2
		C253.6,277.1,257.3,277.7,259.2,280.4"/>
	<path class="st1" d="M48.9,380c1.9,2.7,1.2,6.4-1.5,8.2c-2.7,1.9-6.4,1.2-8.2-1.5c-1.9-2.7-1.2-6.4,1.5-8.2
		C43.3,376.6,47,377.3,48.9,380"/>
	<path class="st1" d="M13.5,150.9c1.9,2.7,1.2,6.4-1.5,8.2c-2.7,1.9-6.4,1.2-8.2-1.5c-1.9-2.7-1.2-6.4,1.5-8.2
		C7.9,147.6,11.6,148.2,13.5,150.9"/>
	<path class="st1" d="M246.1,3.5c1.9,2.7,1.2,6.4-1.5,8.2c-2.7,1.9-6.4,1.2-8.2-1.5c-1.9-2.7-1.2-6.4,1.5-8.2
		C240.5,0.2,244.2,0.8,246.1,3.5"/>
</g>
</svg>
