<svg xmlns="http://www.w3.org/2000/svg" id="brand.svg" viewBox="0 0 512 512">
	<path id="path12" d="M508.4 99.8a12.5 12.5 0 0 0-9.1-3.6c-5.4 0-19.7 0-106.7 74l-5.3 4.5A232 232 0 0 0 170.3 26C136.1 26 94.7 37.9 62 57.1c-40 23.5-62 55-62 88.6 0 40.6 22.9 57.5 41.3 71.2 15 11.1 26.8 19.9 26.8 39.1 0 19.2-11.8 28-26.8 39.1C22.9 308.7 0 325.7.1 366.2c0 33.6 22.1 65.1 62.1 88.6A227.5 227.5 0 0 0 170.4 486h.1c61.9 0 120.1-23.9 163.9-67.3a227.2 227.2 0 0 0 67.9-160.1 2402 2402 0 0 0 41.9-48.9 927 927 0 0 0 50.7-65.6c15.1-22.3 21.8-36 13.5-44.3zM321 405.3a212.3 212.3 0 0 1-150.6 61.8h-.1c-61 0-151.4-42.4-151.4-100.9 0-31 16.3-43.1 33.6-56C68.7 298.3 87 284.7 87 256c0-28.8-18.3-42.3-34.5-54.3-17.3-12.8-33.6-24.9-33.6-56 0-35.9 33-60.7 52.7-72.3a211.1 211.1 0 0 1 98.6-28.5 212.8 212.8 0 0 1 201.7 143c-41 35.8-85.4 77.1-118.4 110.2-54.9 7.1-62.4 43.7-67.9 70.6-4.7 22.9-7.7 34-25.3 35.4a9.4 9.4 0 0 0-8.6 7.9 9.5 9.5 0 0 0 5.7 10.2c1.1.5 28.2 11.5 59.7 11.5 22 0 40.9-5.3 56.1-15.9 18.8-13 31.5-33.5 37.9-61.1 21.6-21.9 46.3-48.2 70.7-75.4a208.6 208.6 0 0 1-60.8 124zm-28.8-50.2c-10 39.7-35.2 59.8-75 59.8-10.5 0-20.5-1.4-29-3.2 10.1-10.3 13.2-25.8 16-39.2 5.2-25.5 10.1-49.7 50.3-55.4zm130.5-149.3a2540.4 2540.4 0 0 1-120.1 132.9l-5.8-5.8-25.5-25.7a2436 2436 0 0 1 117.8-109l14-12.1c47-40.1 71.7-57.5 84.2-65.1-7.5 12.5-24.8 37.4-64.6 84.8zm-300.8-13.5a41.2 41.2 0 0 0-25.8-73.5c-9.3 0-18.5 3.2-25.8 8.9a40.8 40.8 0 0 0-6.6 57.9 41.5 41.5 0 0 0 32.4 15.5c9.3.1 18.5-3.1 25.8-8.8zm-43.6-18.4a22.1 22.1 0 0 1 3.5-31.3 22.8 22.8 0 0 1 31.8 3.5A22.3 22.3 0 0 1 96 182.3c-6.9 0-13.4-3.1-17.7-8.4zm118.7-5.2a41.2 41.2 0 1 0 9-81.3 41.3 41.3 0 0 0-35.1 63 42 42 0 0 0 26.1 18.3zm-12.9-45.1a22.4 22.4 0 0 1 27.1-16.8 22.2 22.2 0 0 1 14.1 10c3.2 5 4.2 11 2.9 16.7a22.6 22.6 0 0 1-41.2 6.7 21.6 21.6 0 0 1-2.9-16.6zm115.7 111.9a41.2 41.2 0 0 0 39.1-27.7c3.6-10.4 3-21.5-1.8-31.4a41.8 41.8 0 0 0-76.6 4.4 40.8 40.8 0 0 0 1.8 31.4 42.2 42.2 0 0 0 37.5 23.3zM278.4 187a22.6 22.6 0 0 1 42.7 14.6 22.3 22.3 0 0 1-21.3 15c-8.7 0-16.7-5-20.4-12.7-2.6-5.3-3-11.4-1-16.9zM133.6 332.3a41.7 41.7 0 0 0-58.2 6.5 40.8 40.8 0 0 0 6.6 58 41.7 41.7 0 0 0 58.2-6.5 40.9 40.9 0 0 0-6.6-58zm-8.1 46.1a22.5 22.5 0 0 1-17.7 8.4 22.6 22.6 0 0 1-22.4-19.9c-.7-5.9 1-11.7 4.8-16.3a22.8 22.8 0 0 1 31.8-3.5c4.7 3.7 7.7 9 8.3 15 .6 5.8-1.1 11.6-4.8 16.3z"/>
</svg>
