<svg xmlns="http://www.w3.org/2000/svg" viewBox="0 0 557.3 192.8"><linearGradient id="a" gradientUnits="userSpaceOnUse" x1="278.667" y1="22.486" x2="278.667" y2="280.478"><stop offset="0" stop-color="#b6e2e9"/><stop offset=".746" stop-color="#e0fafa"/></linearGradient><path d="M545.7 84.4V42.2H538c-8.6 0-15.5 7-15.5 15.5v26.7h-3.9V13.7l-38.7.4V68h-9.7V0H449v22.5c0 7-5.7 12.7-12.7 12.7h-10.5V21.1h-21.3v63.3c-5.3 0-9.7-4.3-9.7-9.7v-9.1h-23.2V37.5h-15.5v16.4h-7.7V23.4h-5.8v-4.7h-34.8v79.7h-27.1V14.1h-31v9.4H240v70.3h-17.4V77.4H211V37.2l-25.2.3v35.3c0 6.4-5.2 11.6-11.6 11.6V42.2H151v42.2h-3.9v-51c0-10.7-8.7-19.4-19.4-19.4s-19.3 8.7-19.3 19.4V68h-9.7V0H77.4v35.2H54.2V21.1H32.9v63.3h-9.7V65.7H0v112.5H557.4V84.4h-11.7z" fill="url(#a)"/><linearGradient id="b" gradientUnits="userSpaceOnUse" x1="317.77" y1="60.52" x2="317.77" y2="279.71" gradientTransform="matrix(-1 0 0 1 599.446 0)"><stop offset="0" stop-color="#9bd9e3"/><stop offset=".746" stop-color="#e0fafa"/></linearGradient><path d="M54.8 113.1V77.3h19.7v35.9h3.3V53.1l32.9.3v45.8h8.2V41.4H137v19.1c0 5.9 4.8 10.8 10.8 10.8h9v-12h18.1v53.8c4.5 0 8.2-3.7 8.2-8.2v-7.7h19.7V73.3H216v13.9h6.6V61.3h4.9v-4H257V125h23V53.4h26.3v8h8.2v59.8h14.8v-13.9h9.9V73.1l21.4.2v30c0 5.4 4.4 9.9 9.9 9.9V77.3h19.7v35.9h3.3v-20l32.9-22v28h8.2V41.4h18.1v29.9h19.7v-12h18.1v53.8h8.2V97.2h19.7v95.6H44.9v-79.7h9.9z" fill="url(#b)"/></svg>