<svg xmlns="http://www.w3.org/2000/svg" viewBox="0 0 121.66 95.88">
    <defs>
        <clipPath id="a">
            <path d="M0 71.91h91.24V0H0z"/>
        </clipPath>
    </defs>
    <g clip-path="url(#a)" transform="matrix(1.33333 0 0 -1.33333 0 95.88)">
        <path d="M17.39 1.93H73.5V33H17.4zM74.43.1H16.47c-.5 0-.91.4-.91.91v32.9c0 .51.4.92.91.92h57.96c.5 0 .91-.41.91-.91V1.02c0-.51-.4-.92-.91-.92" fill="#494949"/>
        <path d="M18.56 34.87h53.78l-9.09 9.9h-35.6zm55.87-1.83H16.47a.91.91 0 0 0-.67 1.53L26.57 46.3c.17.19.42.3.67.3h36.42c.25 0 .5-.11.67-.3L75.1 34.57a.91.91 0 0 0-.67-1.53M24.7 13.27h10.68v8.39H24.71zm11.6-1.83H23.8c-.51 0-.92.4-.92.91v10.22c0 .5.4.92.91.92h12.5c.51 0 .92-.41.92-.92V12.35c0-.5-.4-.91-.91-.91M51.82 1.98h10.67v19.68H51.82zM63.4.15H50.9c-.51 0-.92.41-.92.92v21.5c0 .5.4.92.91.92h12.5c.51 0 .92-.41.92-.92V1.07c0-.5-.4-.92-.91-.92M24.78 26.46h-8.35a.92.92 0 0 0 0 1.83h8.35a.92.92 0 0 0 0-1.83" fill="#494949"/>
        <path d="M51.4 39.12H22.38a.92.92 0 0 0 0 1.83H51.4a.92.92 0 0 0 0-1.83M70.54 36.22H59.02a.92.92 0 0 0 0 1.83h11.52a.92.92 0 0 0 0-1.83M44.69 7.47h-4.7a.92.92 0 0 0 0 1.83h4.7a.92.92 0 0 0 0-1.83M74.2 28.63h-4.46a.92.92 0 0 0 0 1.84h4.46a.92.92 0 0 0 0-1.84M80.83 0H10.98a.92.92 0 0 0 0 1.83h69.85a.92.92 0 0 0 0-1.83M90.33 0H83.5a.92.92 0 0 0 0 1.83h6.83a.92.92 0 0 0 0-1.83M50.63 46.75h4.43v2.9h-4.43zm5.34-1.83h-6.25c-.5 0-.92.4-.92.91v4.73c0 .5.42.91.92.91h6.25c.5 0 .92-.4.92-.91v-4.73c0-.5-.41-.91-.92-.91" fill="#494949"/>
        <path d="M85.56.38h-.03c-.5.02-.9.44-.89.94v.36c0 5.43-4.41 9.95-9.85 10.06-.5.01-.9.43-.9.93.02.51.42.89.94.9a11.96 11.96 0 0 0 11.64-12.3.92.92 0 0 0-.91-.9M37.52 70.08h-15.4a.92.92 0 0 0 0 1.83h15.4a.92.92 0 0 0 0-1.83M9.46 57.73H.92a.92.92 0 0 0 0 1.83h8.54a.92.92 0 0 0 0-1.83M87.54 44.92H79a.92.92 0 0 0 0 1.83h8.54a.92.92 0 0 0 0-1.83" fill="#494949"/>
    </g>
</svg>
