<svg xmlns="http://www.w3.org/2000/svg" viewBox="0 0 133.5 143.8">
    <defs>
        <clipPath id="a">
            <path d="M0 107.85h100.13V0H0z"/>
        </clipPath>
    </defs>
    <g clip-path="url(#a)" transform="matrix(1.33333 0 0 -1.33333 0 143.8)">
        <path d="M19.6 1.93h56.12V33H19.6zM76.64.1H18.68c-.5 0-.91.4-.91.91v32.9c0 .51.4.92.91.92h57.96c.5 0 .92-.41.92-.92V1.01c0-.5-.41-.91-.92-.91" fill="#494949"/>
        <path d="M76.64 33.32c-.5 0-.91.41-.91.92v27.58H19.6V34.58a.91.91 0 1 0-1.83 0v28.16c0 .5.4.92.91.92h57.96c.5 0 .92-.41.92-.92v-28.5c0-.5-.41-.92-.92-.92" fill="#494949"/>
        <path d="M76.64 53c-.5 0-.91.4-.91.91V81.5H19.6V54.26a.92.92 0 1 0-1.83 0V82.4c0 .51.4.92.91.92h57.96c.5 0 .92-.41.92-.92v-28.5c0-.5-.41-.91-.92-.91M26.92 13.27h10.67v8.39H26.92zm11.59-1.83h-12.5c-.51 0-.92.4-.92.91v10.22c0 .5.4.92.91.92h12.51c.5 0 .92-.41.92-.92V12.35c0-.5-.41-.91-.92-.91" fill="#494949"/>
        <path d="M26.92 43.92h10.67v8.4H26.92zM38.5 42.1h-12.5c-.51 0-.92.41-.92.92v10.22c0 .5.4.91.91.91h12.51c.5 0 .92-.4.92-.91V43c0-.5-.41-.92-.92-.92M26.92 69.32h10.67v6.1H26.92zm11.59-1.83h-12.5c-.51 0-.92.4-.92.91v7.93c0 .5.4.92.91.92h12.51c.5 0 .92-.41.92-.92V68.4c0-.5-.41-.91-.92-.91M56.66 69.32h10.68v6.1H56.66zm11.6-1.83H55.73c-.5 0-.91.4-.91.91v7.93c0 .5.4.92.92.92h12.5c.5 0 .92-.41.92-.92V68.4c0-.5-.41-.91-.92-.91M56.66 43.92h10.68v8.4H56.66zm11.6-1.83H55.73c-.5 0-.91.41-.91.92v10.22c0 .5.4.91.92.91h12.5c.5 0 .92-.4.92-.91V43c0-.5-.41-.92-.92-.92M54.03 1.98H64.7v19.68H54.03zM65.63.15H53.1c-.5 0-.91.41-.91.92v21.5c0 .5.4.92.91.92h12.51c.5 0 .92-.41.92-.92V1.07c0-.5-.42-.92-.92-.92M27 26.46h-8.36a.92.92 0 0 0 0 1.83H27a.92.92 0 0 0 0-1.83M46.9 7.47h-4.7a.92.92 0 1 0 0 1.83h4.7a.92.92 0 0 0 0-1.83M76.41 28.63h-4.46a.91.91 0 1 0 0 1.84h4.46a.92.92 0 0 0 0-1.84M76.41 77.67h-4.46a.91.91 0 1 0 0 1.83h4.46a.91.91 0 1 0 0-1.83" fill="#494949"/>
        <path d="M83.05 0H13.19a.91.91 0 1 0 0 1.83h69.86a.91.91 0 1 0 0-1.83M9.46 0H.9a.91.91 0 1 0 0 1.83h8.55a.92.92 0 0 0 0-1.83M99.21 0h-13.5a.92.92 0 1 0 0 1.83h13.5a.91.91 0 1 0 0-1.83M20.77 83.52h53.79l-9.1 9.9h-35.6zm55.87-1.83H18.68a.91.91 0 0 0-.67 1.54l10.77 11.72c.18.19.42.3.68.3h36.4c.26 0 .5-.11.68-.3l10.77-11.72a.92.92 0 1 0-.67-1.53" fill="#494949"/>
        <path d="M53.61 87.77H24.59a.92.92 0 0 0 0 1.83h29.02a.91.91 0 1 0 0-1.83M52.85 95.4h4.42v2.9h-4.42zm5.33-1.83h-6.25c-.5 0-.91.4-.91.91v4.73c0 .5.4.92.91.92h6.26c.5 0 .91-.41.91-.92v-4.73c0-.5-.4-.91-.92-.91M87.77.38h-.04c-.5.02-.9.44-.88.95v.35c0 5.43-4.41 9.95-9.85 10.06-.5.01-.9.43-.9.93.02.51.46.9.94.9a11.96 11.96 0 0 0 11.64-12.3.92.92 0 0 0-.91-.9M7.4.38c-.49 0-.9.39-.9.88l-.02.42c0 6.42 5.23 11.76 11.65 11.9.51-.02.92-.4.93-.9a.92.92 0 0 0-.9-.94A10.12 10.12 0 0 1 8.33 1.32a.92.92 0 0 0-.89-.94H7.4M23 40.3h-3.82a.92.92 0 0 0 0 1.83h3.81a.92.92 0 0 0 0-1.83M22.15 65.58h-2.97a.92.92 0 0 0 0 1.83h2.97a.92.92 0 1 0 0-1.83M34.74 93.83c-.5 0-.92.41-.92.92v11.1a.92.92 0 0 0 1.83 0v-11.1c0-.5-.4-.92-.91-.92" fill="#494949"/>
        <path d="M29.99 102.3h3.83v3.72H30zm4.75-1.83h-5.67c-.5 0-.91.4-.91.91v5.55c0 .5.4.92.91.92h5.67c.5 0 .91-.41.91-.92v-5.55c0-.5-.4-.91-.91-.91M42.86 42.07h-9.21a.92.92 0 0 0 0 1.83h9.2a.92.92 0 0 0 0-1.83M97.08 80.76h-15.4a.91.91 0 1 0 0 1.83h15.4a.91.91 0 1 0 0-1.83M11.06 84.87H2.52a.92.92 0 0 0 0 1.83h8.54a.92.92 0 0 0 0-1.83M14.72 105.62H6.18a.92.92 0 0 0 0 1.83h8.54a.92.92 0 0 0 0-1.83" fill="#494949"/>
    </g>
</svg>
