<svg xmlns="http://www.w3.org/2000/svg" viewBox="0 0 136.04 107.07">
    <defs>
        <clipPath id="a">
            <path d="M0 80.3h102.03V0H0z"/>
        </clipPath>
    </defs>
    <g clip-path="url(#a)" transform="matrix(1.33333 0 0 -1.33333 0 107.07)">
        <path d="M24.86 1.93H81V33H24.86zM81.9.1H23.95c-.51 0-.92.4-.92.91v32.9c0 .51.41.92.92.92H81.9c.5 0 .92-.4.92-.91V1.02c0-.51-.41-.92-.92-.92" fill="#494949"/>
        <path d="M81.9 33.32c-.5 0-.91.41-.91.92v27.59H24.86V34.58a.91.91 0 1 0-1.83 0v28.16c0 .5.41.92.92.92H81.9c.5 0 .92-.41.92-.92v-28.5c0-.5-.41-.92-.92-.92M32.18 13.27h10.68v8.39H32.18zm11.6-1.83H31.26c-.51 0-.92.4-.92.91v10.22c0 .5.41.92.92.92h12.5c.5 0 .92-.41.92-.92V12.35c0-.5-.41-.91-.92-.91" fill="#494949"/>
        <path d="M32.18 43.92h10.68v8.4H32.18zm11.6-1.83H31.26c-.51 0-.92.41-.92.92v10.22c0 .5.41.91.92.91h12.5c.5 0 .92-.4.92-.91V43c0-.5-.41-.92-.92-.92M59.48 43.92h10.68v8.4H59.48zm11.6-1.83H58.56c-.51 0-.92.41-.92.92v10.22c0 .5.41.91.92.91h12.5c.5 0 .92-.4.92-.91V43c0-.5-.41-.92-.92-.92M59.3 1.98h10.67v19.68H59.29zM70.87.15h-12.5c-.51 0-.92.41-.92.92v21.5c0 .5.41.92.92.92h12.5c.5 0 .92-.41.92-.92V1.07c0-.5-.41-.92-.92-.92M32.26 26.46H23.9a.92.92 0 0 0 0 1.83h8.35a.91.91 0 1 0 0-1.83M52.16 7.47h-4.69a.92.92 0 1 0 0 1.83h4.69a.91.91 0 1 0 0-1.83M81.67 28.63h-4.46a.91.91 0 1 0 0 1.83h4.46a.91.91 0 1 0 0-1.83" fill="#494949"/>
        <path d="M88.3 0H18.46a.92.92 0 0 0 0 1.83h69.86a.91.91 0 1 0 0-1.83M13 0H6.18a.91.91 0 1 0 0 1.83H13A.91.91 0 1 0 13 0M97.8 0h-6.82a.91.91 0 1 0 0 1.83h6.82a.91.91 0 1 0 0-1.83M26.03 63.7h53.79l-9.1 9.89h-35.6zm55.87-1.83H23.95a.92.92 0 0 0-.68 1.53l10.77 11.72c.18.2.42.3.68.3h36.41c.25 0 .5-.1.67-.3L82.57 63.4a.92.92 0 0 0-.67-1.53" fill="#494949"/>
        <path d="M58.87 67.95H29.85a.92.92 0 0 0 0 1.83h29.02a.91.91 0 1 0 0-1.83M78.01 65.05H66.5a.91.91 0 1 0 0 1.83H78a.91.91 0 1 0 0-1.83M58.1 75.57h4.43v2.9h-4.42zm5.35-1.83h-6.26c-.5 0-.91.41-.91.92v4.73c0 .5.4.91.91.91h6.26c.5 0 .91-.41.91-.91v-4.73c0-.5-.4-.92-.91-.92M93.03.38H93c-.5.02-.9.44-.89.95l.01.35c0 5.43-4.42 9.95-9.85 10.06a.92.92 0 0 0 .03 1.83 11.96 11.96 0 0 0 11.64-12.3.91.91 0 0 0-.91-.9M16.32 69.93H.92a.91.91 0 1 0 0 1.83h15.4a.91.91 0 1 0 0-1.83M17.54 50.4H9a.91.91 0 1 0 0 1.84h8.54a.91.91 0 1 0 0-1.83M101.12 63.22h-8.54a.91.91 0 1 0 0 1.83h8.54a.92.92 0 0 0 0-1.83" fill="#494949"/>
    </g>
</svg>
