<svg xmlns="http://www.w3.org/2000/svg" id="Слой_1" viewBox="0 0 512 512">
	<path d="M324.9 358.4l-1.4 17.1c105.8 8.4 171.3 37.5 171.3 59.7 0 24.9-90.9 59.7-238.9 59.7S17.1 460.1 17.1 435.2c0-22.9 68.7-52.3 179.8-59.7l-1.1-17.1C98.3 365 0 391.2 0 435.2 0 485.1 131.9 512 256 512s256-26.9 256-76.8c0-42.8-93.9-69.4-187.1-76.8z" fill="#fff"/>
	<path d="M197.1 409.6l-1.6-17.1c-37.9 3.6-101.6 13.8-101.6 42.3 0 41.8 145.5 43 162.1 43 16.6 0 162.1-1.2 162.1-43 0-27.9-58.2-38.5-92.9-42.3l-1.9 17c59.3 6.5 77.7 20.8 77.7 25.3 0 7.2-44.6 25.9-145.1 25.9s-145-18.7-145-25.9c0-4.6 20.4-19.1 86.2-25.2zM247.5 153.6a59.7 59.7 0 1 0 0-119.3 59.7 59.7 0 0 0 0 119.3zm0-102.4a42.7 42.7 0 1 1 0 85.4 42.7 42.7 0 0 1 0-85.4z" fill="#fff"/>
	<path d="M221.9 184.2v242.5a8.6 8.6 0 0 0 12.8 7.4l59.7-34.1a8.7 8.7 0 0 0 4.3-7.4V367c0-4.7-3.8-8.5-8.5-8.5h-17.1v-17.1h17.1c4.7 0 8.5-3.8 8.5-8.5v-34.1c0-4.7-3.8-8.5-8.5-8.5h-17.1V184.2a93.9 93.9 0 1 0-51.2 0zm25.6-167.1a76.9 76.9 0 0 1 15.4 152.1c-4 .8-6.8 4.3-6.8 8.4v121.2c0 4.7 3.8 8.5 8.5 8.5h17.1v17.1h-17.1a8.5 8.5 0 0 0-8.5 8.5V367c0 4.7 3.8 8.5 8.5 8.5h17.1v12.1L239 412V177.5c0-4.1-2.9-7.6-6.8-8.4a76.7 76.7 0 0 1 15.3-152z" fill="#fff"/>
</svg>
