<?xml version="1.0" encoding="utf-8"?>
<!-- Generator: Adobe Illustrator 22.1.0, SVG Export Plug-In . SVG Version: 6.00 Build 0)  -->
<svg version="1.1" id="Capa_1" xmlns="http://www.w3.org/2000/svg" xmlns:xlink="http://www.w3.org/1999/xlink" x="0px" y="0px"
	 viewBox="0 0 454.5 454.5" style="enable-background:new 0 0 454.5 454.5;" xml:space="preserve">
<g>
	<path d="M248.3,399.2c12.4,12.4,12.4,32.4,0,44.7c-12.4,12.4-32.4,12.4-44.7,0L9.3,249.6C3.1,243.5,0,235.4,0,227.3
		c0-8.1,3.1-16.2,9.3-22.4L203.5,10.6c12.4-12.4,32.4-12.4,44.7,0c12.4,12.4,12.4,32.4,0,44.7L76.4,227.3L248.3,399.2z M273.3,227.3
		L445.3,55.4c12.4-12.4,12.4-32.4,0-44.7c-12.4-12.4-32.4-12.4-44.7,0L206.2,204.9c-6.2,6.2-9.3,14.3-9.3,22.4
		c0,8.1,3.1,16.2,9.3,22.4l194.3,194.3c12.4,12.4,32.4,12.4,44.7,0c12.4-12.4,12.4-32.4,0-44.7L273.3,227.3z"/>
</g>
</svg>
