<?xml version="1.0" encoding="utf-8"?>
<!-- Generator: Adobe Illustrator 19.2.0, SVG Export Plug-In . SVG Version: 6.00 Build 0)  -->
<svg version="1.1" id="Слой_1" xmlns="http://www.w3.org/2000/svg" xmlns:xlink="http://www.w3.org/1999/xlink" x="0px" y="0px"
	 viewBox="0 0 571.5 253.5" style="enable-background:new 0 0 571.5 253.5;" xml:space="preserve">
<style type="text/css">
	.st0{clip-path:url(#SVGID_2_);fill:#FFFFFF;}
	.st1{clip-path:url(#SVGID_2_);}
	.st2{opacity:0.5;clip-path:url(#SVGID_4_);}
	.st3{clip-path:url(#SVGID_6_);fill:#FFFFFF;}
	.st4{clip-path:url(#SVGID_8_);fill:#FFFFFF;}
	.st5{clip-path:url(#SVGID_10_);fill:#FFFFFF;}
	.st6{clip-path:url(#SVGID_10_);}
	.st7{opacity:0.5;clip-path:url(#SVGID_12_);}
	.st8{clip-path:url(#SVGID_14_);fill:#FFFFFF;}
	.st9{fill:#FFFFFF;fill-opacity:0.7;}
</style>
<g>
	<defs>
		<rect id="SVGID_1_" x="0" y="88.6" width="89" height="67.5"/>
	</defs>
	<clipPath id="SVGID_2_">
		<use xlink:href="#SVGID_1_"  style="overflow:visible;"/>
	</clipPath>
	<rect x="0" y="102.2" class="st0" width="6.7" height="6.7"/>
	<rect x="0" y="135.7" class="st0" width="6.7" height="6.7"/>
	<polygon class="st0" points="46.8,156 53.5,150.7 53.5,150.7 71.9,135.9 71.9,135.9 89,122.3 60.2,99.3 60.2,99.2 53.5,93.9 
		53.5,93.9 46.8,88.6 46.8,102.2 13.4,102.2 13.4,108.9 53.5,108.9 53.5,102.5 78.3,122.3 53.5,142.1 53.5,135.7 13.4,135.7 
		13.4,142.4 46.8,142.4 	"/>
	<g class="st1">
		<defs>
			<rect id="SVGID_3_" x="0" y="88.6" width="89" height="67.5"/>
		</defs>
		<clipPath id="SVGID_4_">
			<use xlink:href="#SVGID_3_"  style="overflow:visible;"/>
		</clipPath>
		<g class="st2">
			<g>
				<defs>
					<rect id="SVGID_5_" x="0" y="115.6" width="66.9" height="13.4"/>
				</defs>
				<clipPath id="SVGID_6_">
					<use xlink:href="#SVGID_5_"  style="overflow:visible;"/>
				</clipPath>
				<polygon class="st3" points="0,129 56.9,129 66.9,122.3 56.9,115.6 0,115.6 				"/>
			</g>
		</g>
	</g>
</g>
<g>
	<defs>
		<rect id="SVGID_7_" x="44.5" y="0" width="479" height="253.5"/>
	</defs>
	<clipPath id="SVGID_8_">
		<use xlink:href="#SVGID_7_"  style="overflow:visible;"/>
	</clipPath>
	<path class="st4" d="M460.3,235H106.6l-0.2-0.2c-1.5-2-2.2-4.4-2.2-6.9V11.9c0-6.6,5.3-11.9,11.9-11.9h334.6
		c6.6,0,11.9,5.3,11.9,11.9v215.9c0,2.5-0.8,4.9-2.2,6.9L460.3,235z M107.2,233.9h352.5c1.2-1.8,1.8-3.9,1.8-6V11.9
		c0-6-4.9-10.8-10.8-10.8H116.2c-6,0-10.8,4.9-10.8,10.8v215.9C105.4,230,106,232.1,107.2,233.9"/>
	<path class="st4" d="M521,248.1H47c-1.4,0-2.5-1.1-2.5-2.5v-11.7h479v11.7C523.5,247,522.4,248.1,521,248.1 M45.5,234.9v10.7
		c0,0.8,0.7,1.5,1.5,1.5H521c0.8,0,1.5-0.7,1.5-1.5v-10.7H45.5z"/>
	<path class="st4" d="M310.4,242.3h-54.2c-3.5,0-6.4-2.9-6.4-6.4v-2h66.9v2C316.8,239.4,313.9,242.3,310.4,242.3 M250.9,234.9v1
		c0,2.9,2.4,5.3,5.3,5.3h54.2c2.9,0,5.3-2.4,5.3-5.3v-1H250.9z"/>
	<path class="st4" d="M510.7,253.5H57.5c-0.4,0-0.8,0-1.2-0.1c-1.9-0.4-8.3-2.1-10.9-5.8c-0.1-0.1-0.1-0.3,0-0.4
		c0.1-0.1,0.2-0.2,0.4-0.2h476.5c0.1,0,0.3,0.1,0.4,0.2c0.1,0.1,0.1,0.3,0,0.4c-2.6,3.7-9,5.4-10.9,5.8
		C511.5,253.5,511.1,253.5,510.7,253.5 M46.7,247.7c2.7,3,8.2,4.5,9.9,4.9c0.3,0.1,0.7,0.1,1,0.1h453.2c0.3,0,0.7,0,1-0.1
		c1.7-0.4,7.2-1.9,9.9-4.9H46.7z"/>
	<path class="st4" d="M497.4,242.8h-13.5c-0.7,0-1.3-0.6-1.3-1.3s0.6-1.3,1.3-1.3h13.5c0.7,0,1.3,0.6,1.3,1.3
		S498.1,242.8,497.4,242.8 M483.9,241c-0.3,0-0.5,0.2-0.5,0.5s0.2,0.5,0.5,0.5h13.5c0.3,0,0.5-0.2,0.5-0.5s-0.2-0.5-0.5-0.5H483.9z"
		/>
	<path class="st4" d="M283.1,11c-1.1,0-2-0.9-2-2.1c0-1.1,0.9-2.1,2-2.1c1.1,0,2.1,0.9,2.1,2.1C285.2,10.1,284.2,11,283.1,11
		 M283.1,7.7c-0.7,0-1.2,0.6-1.2,1.2c0,0.7,0.6,1.2,1.2,1.2c0.7,0,1.2-0.6,1.2-1.2C284.3,8.3,283.8,7.7,283.1,7.7"/>
	<path class="st4" d="M447.5,222.2H121c-0.2,0-0.4-0.2-0.4-0.4V18.2c0-0.2,0.2-0.4,0.4-0.4h326.6c0.2,0,0.4,0.2,0.4,0.4v203.6
		C447.9,222,447.7,222.2,447.5,222.2 M121.4,221.4h325.8V18.6H121.4V221.4z"/>
</g>
<g>
	<defs>
		<rect id="SVGID_9_" x="482.5" y="88.6" width="89" height="67.5"/>
	</defs>
	<clipPath id="SVGID_10_">
		<use xlink:href="#SVGID_9_"  style="overflow:visible;"/>
	</clipPath>
	<rect x="482.5" y="102.2" class="st5" width="6.7" height="6.7"/>
	<rect x="482.5" y="135.7" class="st5" width="6.7" height="6.7"/>
	<polygon class="st5" points="529.3,156 536,150.7 536,150.7 554.4,135.9 554.4,135.9 571.5,122.3 542.7,99.3 542.7,99.2 536,93.9 
		536,93.9 529.3,88.6 529.3,102.2 495.9,102.2 495.9,108.9 536,108.9 536,102.5 560.8,122.3 536,142.1 536,135.7 495.9,135.7 
		495.9,142.4 529.3,142.4 	"/>
	<g class="st6">
		<defs>
			<rect id="SVGID_11_" x="482.5" y="88.6" width="89" height="67.5"/>
		</defs>
		<clipPath id="SVGID_12_">
			<use xlink:href="#SVGID_11_"  style="overflow:visible;"/>
		</clipPath>
		<g class="st7">
			<g>
				<defs>
					<rect id="SVGID_13_" x="482.5" y="115.6" width="66.9" height="13.4"/>
				</defs>
				<clipPath id="SVGID_14_">
					<use xlink:href="#SVGID_13_"  style="overflow:visible;"/>
				</clipPath>
				<polygon class="st8" points="482.5,129 539.4,129 549.4,122.3 539.4,115.6 482.5,115.6 				"/>
			</g>
		</g>
	</g>
</g>
<rect x="121" y="17.8" class="st9" width="326.6" height="204.4"/>
</svg>
