<svg xmlns="http://www.w3.org/2000/svg" id="Capa_1" viewBox="0 0 512 512">
	<style>
		.st0{fill:#fff}
	</style>
	<path d="M512 457.2H0V54.8h512v402.4zM15.3 441.9h481.3V70.1H15.3v371.8z" class="st0"/>
	<path d="M169.9 374.2H59V263.3h110.9v110.9zm-95.6-15.4h80.2v-80.2H74.3v80.2zM114.5 233a55.6 55.6 0 1 1 .1-111.1 55.6 55.6 0 0 1-.1 111.1zm0-95.6a40.2 40.2 0 1 0 .1 80.3 40.2 40.2 0 0 0-.1-80.3zM266 122.1h184v15.3H266zM266 198.8h184v15.3H266zM266 275.4h184v15.3H266zM266 352.1h184v15.3H266z" class="st0"/>
</svg>
