<svg xmlns="http://www.w3.org/2000/svg" viewBox="0 0 44 44">
  <g fill="#d64337">
    <path d="M22 0A22 22 0 0 0 0 22a22 22 0 0 0 22 22 22 22 0 0 0 22-22A22 22 0 0 0 22 0z"/>
    <path d="M11 16c-.6 0-1 .4-1 1v16c0 .6.4 1 1 1h16c.6 0 1-.4 1-1V17c0-.6-.4-1-1-1H11zm3.5 4h9c.3 0 .5.2.5.5v9c0 .3-.2.5-.5.5h-9c-.3 0-.5-.2-.5-.5v-9c0-.3.2-.5.5-.5z" fill="#fff"/>
    <path d="M34 27c0 .6-.4 1-1 1h-2c-.6 0-1-.4-1-1V14.5c0-.3-.2-.5-.5-.5H17c-.6 0-1-.4-1-1v-2c0-.6.4-1 1-1h16c.6 0 1 .4 1 1z" fill="#fff"/>
  </g>
</svg>
