<svg xmlns="http://www.w3.org/2000/svg" viewBox="0 0 47 47">
	<path d="M31.7 10.3a1 1 0 0 0-.4-.2l-9-2.9c-3.5-1-5.9.9-6.5 1.5L15 9.8l-4 9.4c-.2.6-.1 1.3.2 2 .5 1 1.5 1.7 2.6 2 1.2.3 2.5-.1 3.5-1.1l.6-.8 1.4-2.5.8-1.2c1.2-1.1 1.7-.6 2-.4l12.5 12.6c.4.3.3 1-.1 1.5-.5.5-1.2.6-1.6.2l-3-3a1 1 0 0 0-1.3 0 1 1 0 0 0 0 1.4l3 3c.3.3.2 1-.2 1.5-.5.5-1.2.6-1.6.2l-3-3a1 1 0 1 0-1.3 1.4l3 3c.3.3.2 1-.2 1.5-.5.5-1.2.6-1.6.2l-3-3a1 1 0 0 0-1.3 1.4l3 3c.3.3.2 1-.3 1.5-.4.5-1.1.6-1.5.2L20 37.2c.5-.8.4-2-.4-2.7-.9-.8-2.2-1-3-.1.8-.8.7-2.1-.1-3-.9-.8-2.2-1-3-.2.8-.7.7-2-.1-2.9-.9-.8-2.2-1-3-.2.8-.7.7-2-.1-2.9-.8-.8-2-.9-2.8-.3l-5.8-5.8a1 1 0 1 0-1.4 1.3L6 26.3 4.4 28c-.8.8-.7 2 .2 3 .8.8 2.1.9 2.9.1-.8.8-.7 2 .2 3 .8.8 2.1.9 2.9.1-.8.8-.7 2 .2 3 .8.8 2.1.9 2.9.1-.8.8-.7 2 .2 3 .8.8 2.1.9 3 .1l1.7-1.8 3.6 3.6c1.2 1.1 3 1 4.3-.2.6-.6 1-1.4 1-2.1.8 0 1.5-.4 2.1-1 .6-.6 1-1.4 1-2.1.8 0 1.5-.4 2.1-1 .6-.6 1-1.4 1-2.1.8 0 1.5-.4 2.1-1 1.3-1.2 1.4-3.2.2-4.3l-1.5-1.5 6.2-6.2c.4-.4.4-1 0-1.4l-9-9zM46.4 12.5l-7.9-8a2 2 0 0 0-2.7 0L33 7.4a2 2 0 0 0 0 2.8l8 8c.7.7 2 .7 2.7 0l2.7-2.8c.8-.8.8-2 0-2.8zm-4.1 4a1.6 1.6 0 1 1 0-3.2 1.6 1.6 0 0 1 0 3.2z" fill="#FFF"/>
</svg>
