<svg xmlns="http://www.w3.org/2000/svg" version="1" viewBox="0 0 512 512">
	<path d="M467 211l-5 1-54-105a45 45 0 0 0-32-76c-20 0-36 13-42 30H178a45 45 0 1 0-74 46L50 212l-5-1a45 45 0 0 0 0 90l5-1 54 105a45 45 0 0 0 32 76c20 0 36-13 42-30h156a45 45 0 1 0 74-46l54-105 5 1a45 45 0 0 0 0-90zm-91-90l5-1 54 105-74-25v-4c0-14-6-26-16-34l31-41zm45 131l-158 39 40-52 13 2c13 0 24-5 32-14l73 25zM334 91c2 7 7 14 13 19l-31 41c-10 0-19 3-27 9L186 91h148zm-61 94l-2 11c0 9 3 18 8 25l-40 52-13-2h-1l-59-157 107 71zm-142-65l5 1h1l60 161-6 6-101-33c0-12-5-22-13-30l54-105zm18 273l-13-2-5 1-54-105 3-3 101 33c0 9 3 17 8 24l-40 52zm29 28l-5-10 40-52 13 2c9 0 17-3 24-7l83 67H178zm203-29l-5-1c-9 0-17 3-24 7l-84-67 3-11 159-39 5 6-54 105z" fill="#FFF"/>
</svg>
