<svg xmlns="http://www.w3.org/2000/svg" viewBox="0 0 16.54 30.43"><g transform="translate(-98.8 -123.6)"><rect width="16.54" height="30.4" x="98.79" y="123.63" ry=".89" fill="#434a53" paint-order="markers fill stroke"/><rect width="14.69" height="30.43" x="100.64" y="123.6" rx=".82" ry=".71" fill="#fff" paint-order="markers fill stroke"/><circle cx="101.32" cy="126.53" r="1.84" fill="#e6e7e9" paint-order="markers fill stroke"/><rect width="9.36" height="2.03" x="104.09" y="124.69" ry="0" rx="0" fill="#e6e7e9" paint-order="markers fill stroke"/><rect width="14.69" height="4.77" x="100.64" y="132.09" ry="0" rx="0" fill="#e6e7e9" paint-order="markers fill stroke"/><rect width="10.92" height="1.3" x="102.52" y="138.53" rx="0" ry="0" fill="#e6e7e9" paint-order="markers fill stroke"/><rect width="10.92" height="1.3" x="102.52" y="140.58" rx="0" ry="0" fill="#e6e7e9" paint-order="markers fill stroke"/><rect width="10.92" height="1.3" x="102.52" y="142.63" rx="0" ry="0" fill="#e6e7e9" paint-order="markers fill stroke"/><rect width="10.92" height="1.3" x="102.52" y="144.68" rx="0" ry="0" fill="#e6e7e9" paint-order="markers fill stroke"/><rect width="10.92" height="1.3" x="102.52" y="146.72" rx="0" ry="0" fill="#e6e7e9" paint-order="markers fill stroke"/><rect width="10.92" height="1.3" x="102.52" y="148.77" rx="0" ry="0" fill="#e6e7e9" paint-order="markers fill stroke"/></g></svg>