<svg xmlns="http://www.w3.org/2000/svg" version="1" viewBox="0 0 490 490">
	<path d="M486 234C412 143 332 96 248 96c-33 0-67 8-100 22A401 401 0 0 0 3 234c-4 7-4 16 1 22 74 91 154 138 238 138 33 0 66-8 100-22a401 401 0 0 0 145-116c4-7 4-16-1-22zm-91 63c-35 28-89 61-153 61-69 0-137-38-201-113 10-12 29-32 54-52 34-27 89-60 153-60 69 0 137 37 201 112-10 12-29 32-54 52z" fill="#434a53"/>
	<path d="M311 227c-10 0-18 8-18 18a48 48 0 1 1-48-48c10 0 18-8 18-18s-8-18-18-18a84 84 0 1 0 84 84c0-10-8-18-18-18z" fill="#434a53"/>
</svg>
