<svg xmlns="http://www.w3.org/2000/svg" viewBox="0 0 299.99 299.99"><defs><style>.cls-1{fill:#0fa3b1;}.cls-2{fill:#fff;}</style></defs><title>edfAsset 1</title><g id="Layer_2" data-name="Layer 2"><g id="Layer_1-2" data-name="Layer 1"><circle class="cls-1" cx="149.99" cy="149.99" r="149.99"/><path class="cls-2" d="M203,150.38a6,6,0,0,0-6,6v30.26a21.08,21.08,0,0,1-21.12,21.12H115.38a21.14,21.14,0,0,1-21.12-21.12V126.1A21.15,21.15,0,0,1,115.38,105h30.26a6,6,0,1,0,0-11.94H115.38A33.11,33.11,0,0,0,82.31,126.1v60.51a33.11,33.11,0,0,0,33.07,33.07h60.51A33,33,0,0,0,209,186.61V156.35A6,6,0,0,0,203,150.38Z"/><path class="cls-2" d="M191.09,80.31a30.59,30.59,0,1,0,30.59,30.58A30.62,30.62,0,0,0,191.09,80.31Zm0,49.23a18.64,18.64,0,1,1,18.64-18.64A18.66,18.66,0,0,1,191.09,129.54Z"/><path class="cls-2" d="M129.21,143.75a6,6,0,0,0,6,6h20.91a6,6,0,0,0,0-11.95H135.18A6,6,0,0,0,129.21,143.75Z"/><path class="cls-2" d="M156.09,163H135.18a6,6,0,0,0,0,11.95h20.91a6,6,0,0,0,0-11.95Z"/></g></g></svg>