<svg xmlns="http://www.w3.org/2000/svg" viewBox="0 0 496 496">
	<path fill="#434a53" d="M432 176h-92.8v16H352v144H144v-80h56v-16h-72v112h240V192h48v160h64v48h-16v16h16v64h-48v-64h16v-16h-32v80h-48v-80H128v80H80v-80H16v-48h64V240H48v16h16v80H16v-80h16v-16H16v-48h140.8v-16H0v320h496V176h-64zM16 416h48v64H16v-64zm336 64H144v-64h208v64zm128-144h-48V192h48v144z"/>
	<path fill="#0fa3b1" d="M248 320c-7.7 0-14.9-3.9-19.1-10.4L147.2 184A119.2 119.2 0 0 1 247.1 0h1.9a119.2 119.2 0 0 1 99.8 184l-81.7 125.7A22.9 22.9 0 0 1 248 320z"/>
</svg>
