<svg xmlns="http://www.w3.org/2000/svg" viewBox="0 0 599.2 170.6"><style>.st0{fill:#0fa3b1}.st1{fill:#ffffffcc}</style><g id="Layer_1"><path class="st0" d="M102.5 0H35.7C16 0 0 16 0 35.7v108.8h102.5c19.7 0 35.7-16 35.7-35.7V0v35.7V0h-35.7z"/><path class="st0" d="M0 144.4v26.2l18.4-26.2z"/><path class="st1" d="M174.4 133.6l-.2-2.2h-.2a6.6 6.6 0 0 1-5.3 2.6c-3.5 0-5.3-2.5-5.3-4.9 0-4.2 3.7-6.4 10.3-6.4v-.4c0-1.4-.4-4-3.9-4-1.6 0-3.3.5-4.5 1.3l-.7-2.1c1.4-.9 3.5-1.5 5.6-1.5 5.3 0 6.5 3.6 6.5 7v6.4c0 1.5.1 2.9.3 4.1h-2.6zm-.5-8.7c-3.4-.1-7.3.5-7.3 3.9 0 2 1.3 3 2.9 3 2.2 0 3.7-1.4 4.2-2.9l.2-1v-3zM185 116.5v6.9h8.2v-6.9h3.1v17.2h-3.1v-7.8H185v7.8h-3.1v-17.2h3.1zM210.9 133.6l-.2-2.2h-.1a6.6 6.6 0 0 1-5.3 2.6c-3.5 0-5.3-2.5-5.3-4.9 0-4.2 3.7-6.4 10.3-6.4v-.4c0-1.4-.4-4-3.9-4-1.6 0-3.3.5-4.5 1.3l-.7-2.1c1.4-.9 3.5-1.5 5.6-1.5 5.3 0 6.5 3.6 6.5 7v6.4c0 1.5.1 2.9.3 4.1h-2.7zm-.5-8.7c-3.4-.1-7.3.5-7.3 3.9 0 2 1.3 3 2.9 3 2.2 0 3.7-1.4 4.2-2.9l.2-1v-3zM231.6 116.5v17.2h-3.1V119h-5.9v4.5c0 4.8-.5 8.1-2.7 9.5a5 5 0 0 1-3.4 1.1l-.3-2.5c.6-.1 1.3-.4 1.7-.7 1.6-1.2 1.8-3.6 1.8-7.4v-6.9h11.9zM239.6 116.5v7.2c0 2.7 0 4.4-.2 6.9h.1c1-2.1 1.6-3.3 2.8-5.3l5.4-8.9h3.7v17.2h-3v-7.3l.2-7h-.1a82.2 82.2 0 0 1-2.8 5.3l-5.4 9h-3.6v-17.2h2.9zM267.9 116.5v2.5h-5.4v14.7h-3.1V119H254v-2.5h13.9zM273.5 116.5v7.2c0 2.7 0 4.4-.2 6.9h.1c1-2.1 1.6-3.3 2.8-5.3l5.4-8.9h3.7v17.2h-3v-7.3l.2-7h-.1a82.2 82.2 0 0 1-2.8 5.3l-5.4 9h-3.6v-17.2h2.9zM293.4 116.5v7.5h.7l6.5-7.5h3.8l-7.5 7.8c2.8.3 4.4 2.1 5.8 5.2l1.8 4.2h-3.3c-.5-.7-1.1-2.1-1.6-3.5-1.2-2.8-2.8-4-5.7-4h-.6v7.6h-3.1v-17.2h3.2zM317.2 133.6l-.2-2.2h-.1a6.6 6.6 0 0 1-5.3 2.6c-3.5 0-5.3-2.5-5.3-4.9 0-4.2 3.7-6.4 10.3-6.4v-.4c0-1.4-.4-4-3.9-4-1.6 0-3.3.5-4.5 1.3l-.7-2.1c1.4-.9 3.5-1.5 5.6-1.5 5.3 0 6.5 3.6 6.5 7v6.4c0 1.5.1 2.9.3 4.1h-2.7zm-.5-8.7c-3.4-.1-7.3.5-7.3 3.9 0 2 1.3 3 2.9 3 2.2 0 3.7-1.4 4.2-2.9l.2-1v-3z"/><g><path class="st1" d="M192.5 72.8h-7.8v23.5h-16.4V24.8H197a24.4 24.4 0 0 1 24.5 24.5c0 8.8-5.3 16.8-13.2 20.7l15.2 26.3H206l-13.5-23.5zm-7.8-14.3H197c4.5 0 8.2-4 8.2-9.2 0-5.2-3.7-9.2-8.2-9.2h-12.3v18.4zM276.2 80.6v15.7h-45V24.8h44.5v15.7h-28.1v11.9h25.5v15.5h-25.5v12.7h28.6zM335.5 40.5h-18.4v55.8h-16.3V40.5h-18.4V24.8h53.1v15.7zM379.4 85.1h-26.6l-3.6 11.2h-17.9l24.3-71.5h20.8l24.3 71.5H383l-3.6-11.2zm-4.9-15.4l-8.4-26.3-8.4 26.3h16.8zM425.3 24.8v71.5h-16.4V24.8h16.4zM479.3 80.6v15.7h-41.9V24.8h16.4v55.8h25.5zM532.4 80.6v15.7h-45V24.8h44.5v15.7h-28.1v11.9h25.5v15.5h-25.5v12.7h28.6zM566.6 72.8h-7.8v23.5h-16.4V24.8H571a24.4 24.4 0 0 1 24.5 24.5c0 8.8-5.3 16.8-13.2 20.7l15.2 26.3h-17.6l-13.3-23.5zm-7.8-14.3h12.3c4.5 0 8.2-4 8.2-9.2 0-5.2-3.7-9.2-8.2-9.2h-12.3v18.4z"/></g></g></svg>