<svg xmlns="http://www.w3.org/2000/svg" id="Layer_1" viewBox="0 0 1000 500">
    <style>
        .st0{fill:#0fa3b1}.st1{fill:#434a53}.st3{fill:#fff}
    </style>
    <path d="M267.2 260.2a57.4 57.4 0 0 1-3.9-9.3 87.2 87.2 0 0 1-2.5-50.1l.3-1c.7-2.7 1.6-5.4 2.6-8l.1-.3c.9-2.4 2-4.9 3.1-6.8l.1-.1 1.2-2.1c1.4-2.6 3-6.7 3-14.2V101H101.3A59.2 59.2 0 0 0 42 160.3V383.7L73.4 339H214a57 57 0 0 0 57-57v-9.1c-.5-7.3-2.7-10.6-3.8-12.7zM364.4 246.6c.6 0 1.1.1 1.7.3s1.1.6 1.6 1.1l9.5 10c-4.2 5.4-9.4 9.5-15.6 12.3s-13.6 4.1-22.2 4.1c-7.8 0-14.8-1.3-21-4a45.8 45.8 0 0 1-25.7-27.7 61.7 61.7 0 0 1 .2-42.2 47.2 47.2 0 0 1 26.8-27.6 54.4 54.4 0 0 1 31.8-2.9 42.8 42.8 0 0 1 24.5 12.7l-8 10.9c-.5.7-1.1 1.3-1.8 1.8s-1.7.8-3 .8a5 5 0 0 1-2.4-.6c-.8-.4-1.6-.8-2.4-1.4l-2.8-1.8a30 30 0 0 0-3.6-1.8 31.3 31.3 0 0 0-22.3.2 24.2 24.2 0 0 0-8.5 6.4 29.8 29.8 0 0 0-5.5 10.3 46 46 0 0 0-1.9 14c0 5.3.7 10 2.2 14.1 1.4 4.1 3.4 7.6 5.9 10.4a25.8 25.8 0 0 0 19.3 8.6c2.2 0 4.1-.1 5.9-.3a24.5 24.5 0 0 0 13.6-6.2l1.8-1.2c.6-.1 1.2-.3 1.9-.3zM486.5 221.7c0 7.5-1.3 14.4-3.9 20.8a49.8 49.8 0 0 1-27.8 27.8c-6.6 2.7-13.9 4-21.9 4s-15.3-1.3-21.9-4a49.7 49.7 0 0 1-27.8-27.8c-2.6-6.4-3.9-13.3-3.9-20.8s1.3-14.4 3.9-20.8a49.8 49.8 0 0 1 27.8-27.8c6.6-2.7 13.9-4 21.9-4s15.3 1.4 21.9 4.1a50.7 50.7 0 0 1 27.8 27.8 54.5 54.5 0 0 1 3.9 20.7zm-24.5 0c0-5.1-.7-9.7-2-13.8s-3.2-7.5-5.7-10.4c-2.5-2.8-5.5-5-9.1-6.5s-7.7-2.3-12.2-2.3c-4.6 0-8.7.8-12.3 2.3a24 24 0 0 0-9.1 6.5 28.2 28.2 0 0 0-5.7 10.4c-1.3 4.1-2 8.7-2 13.8 0 5.1.7 9.8 2 13.8a29 29 0 0 0 5.7 10.4c2.5 2.8 5.5 5 9.1 6.5s7.7 2.2 12.3 2.2c4.6 0 8.7-.7 12.2-2.2 3.6-1.5 6.6-3.6 9.1-6.5 2.5-2.8 4.4-6.3 5.7-10.4 1.3-4 2-8.6 2-13.8zM590.6 170.2v103.1h-12.5c-1.8 0-3.4-.3-4.6-.9-1.2-.6-2.5-1.6-3.7-3.1l-48.6-61.5.4 5.3.1 4.8v55.3h-21.1v-103h12.6l2.6.1 1.9.5c.6.3 1.1.6 1.6 1.1l1.8 1.9 49 61.9-.5-5.8-.1-5.3v-54.4h21.1zM700.5 170.2v103.1H688c-1.8 0-3.4-.3-4.6-.9-1.2-.6-2.5-1.6-3.7-3.1l-48.6-61.5.4 5.3.1 4.8v55.3h-21.1v-103h12.6l2.6.1 1.9.5c.6.3 1.1.6 1.6 1.1l1.8 1.9 49 61.9-.5-5.8-.1-5.3v-54.4h21.1zM744.5 188.6v24.1h32.4v17.7h-32.4v24.5h42.3v18.4h-66.4V170.2h66.4v18.4h-42.3zM868.9 246.6a5 5 0 0 1 1.7.3c.6.2 1.1.6 1.6 1.1l9.5 10a40.7 40.7 0 0 1-15.6 12.3 53.7 53.7 0 0 1-22.2 4.1c-7.8 0-14.8-1.3-21-4a45.8 45.8 0 0 1-25.7-27.7 61.7 61.7 0 0 1 .2-42.2 47.2 47.2 0 0 1 26.8-27.6A54.4 54.4 0 0 1 856 170a42.8 42.8 0 0 1 24.5 12.7l-8.1 10.8c-.5.7-1.1 1.3-1.8 1.8s-1.7.8-3 .8a5 5 0 0 1-2.4-.6c-.8-.4-1.6-.8-2.4-1.4l-2.8-1.8a30 30 0 0 0-3.6-1.8 31.3 31.3 0 0 0-22.3.2c-3.3 1.5-6.1 3.6-8.5 6.4s-4.2 6.3-5.5 10.3c-1.3 4.1-1.9 8.7-1.9 14s.7 10 2.2 14.1a30 30 0 0 0 5.9 10.4 25.8 25.8 0 0 0 19.3 8.6c2.2 0 4.1-.1 5.9-.3a24.5 24.5 0 0 0 13.6-6.2l1.8-1.2 2-.2zM972.4 189.2h-29v84.1h-23.9v-84.1h-29v-19h81.9v19z" class="st0"/>
    <g>
        <path d="M320.8 331.2h-3c-.6 0-1.1-.2-1.4-.7l-6.5-9-.6-.6-1.1-.2h-2.6v10.5h-3.4V306h7.1c1.6 0 3 .2 4.1.5 1.2.3 2.1.8 2.9 1.4s1.3 1.3 1.7 2.2c.4.9.5 1.8.5 2.9a6.9 6.9 0 0 1-1.6 4.6c-.5.6-1.2 1.1-2 1.6-.8.4-1.6.8-2.6 1 .4.2.8.6 1.1 1.1l7.4 9.9zm-11.6-13c1 0 1.9-.1 2.6-.4a4.8 4.8 0 0 0 3.1-2.6c.3-.6.4-1.3.4-2 0-1.5-.5-2.6-1.5-3.4s-2.5-1.1-4.4-1.1h-3.7v9.5h3.5zM345.1 328.4v2.8h-15.5V306h15.5v2.8H333v8.4h9.8v2.7H333v8.6h12.1v-.1zM372.1 308.9H364v22.3h-3.4v-22.3h-8.2V306h19.7v2.9zM401.6 331.2H399l-.7-.2-.4-.6-2.4-6.1h-11.3l-2.4 6.1-.4.6c-.2.2-.4.2-.7.2H378l10.1-25.2h3.4l10.1 25.2zm-7.1-9.4l-4-10.3-.4-1.1-.4-1.3-.8 2.4-4 10.2h9.6v.1zM413.6 331.2h-3.4V306h3.4v25.2zM439.6 328.3v2.9h-14.3V306h3.4v22.3h10.9zM447.4 329.2l.2-.9.5-.7.7-.5.9-.2.9.2.7.5.5.7.2.9-.2.9-.5.7-.7.5-.9.2-.9-.2-.7-.5-.5-.7c-.2-.3-.2-.5-.2-.9zM480.9 331.2h-3c-.6 0-1.1-.2-1.4-.7l-6.5-9-.6-.6-1.1-.2h-2.6v10.5h-3.4V306h7.1c1.6 0 3 .2 4.1.5 1.2.3 2.1.8 2.9 1.4s1.3 1.3 1.7 2.2c.4.9.5 1.8.5 2.9a6.9 6.9 0 0 1-1.6 4.6c-.5.6-1.2 1.1-2 1.6-.8.4-1.6.8-2.6 1 .4.2.8.6 1.1 1.1l7.4 9.9zm-11.7-13c1 0 1.9-.1 2.6-.4a4.8 4.8 0 0 0 3.1-2.6c.3-.6.4-1.3.4-2 0-1.5-.5-2.6-1.5-3.4s-2.5-1.1-4.4-1.1h-3.7v9.5h3.5zM505.1 328.4v2.8h-15.5V306h15.5v2.8H493v8.4h9.8v2.7H493v8.6h12.1v-.1zM535.6 331.2H533l-.7-.2-.4-.6-2.4-6.1h-11.3l-2.4 6.1-.4.6c-.2.2-.4.2-.7.2H512l10.1-25.2h3.4l10.1 25.2zm-7.1-9.4l-4-10.3-.4-1.1-.4-1.3-.8 2.4-4 10.2h9.6v.1zM558.5 328.3v2.9h-14.3V306h3.4v22.3h10.9zM584.6 308.9h-8.2v22.3H573v-22.3h-8.2V306h19.7l.1 2.9zM603.1 321.1v10h-3.4v-10l-9.2-15.2h3l.7.2.5.6 5.8 9.8.6 1.2.5 1.1.4-1.1.5-1.2 5.8-9.8.4-.5c.2-.2.4-.2.7-.2h3l-9.3 15.1zM619.6 329.2l.2-.9.5-.7.7-.5.9-.2.9.2.7.5.5.7.2.9-.2.9-.5.7-.7.5-.9.2-.9-.2-.7-.5-.5-.7c-.2-.2-.2-.5-.2-.9zM652.1 326l.5.2 1.4 1.5c-1 1.2-2.3 2.1-3.8 2.8s-3.2 1-5.3 1c-1.8 0-3.4-.3-4.9-.9s-2.7-1.5-3.8-2.6a14.6 14.6 0 0 1-3.3-9.3c0-1.9.3-3.6.9-5.2.6-1.6 1.4-2.9 2.5-4.1 1.1-1.1 2.4-2 3.9-2.6s3.2-.9 5-.9 3.4.3 4.7.9a13 13 0 0 1 3.6 2.3l-1.1 1.6-.3.3-.4.1-.8-.3-1.2-.8-1.8-.8c-.7-.3-1.6-.3-2.7-.3a8.6 8.6 0 0 0-6.4 2.7c-.8.9-1.4 1.9-1.8 3.1a13.2 13.2 0 0 0 0 8.4c.5 1.2 1.1 2.3 1.8 3.1.8.9 1.7 1.5 2.8 1.9 1.1.4 2.2.7 3.4.7l2-.1 1.7-.4 1.4-.7 1.3-1c.3-.5.5-.6.7-.6zM686.4 318.6c0 1.9-.3 3.6-.9 5.2-.6 1.6-1.4 2.9-2.5 4.1-1.1 1.1-2.4 2-3.9 2.6-1.5.6-3.2.9-5.1.9a14 14 0 0 1-5.1-.9c-1.5-.6-2.8-1.5-3.9-2.6a11.3 11.3 0 0 1-2.5-4.1c-.6-1.6-.9-3.3-.9-5.2s.3-3.6.9-5.2c.6-1.6 1.4-2.9 2.5-4.1 1.1-1.1 2.4-2 3.9-2.7 1.5-.6 3.2-.9 5.1-.9 1.9 0 3.5.3 5.1.9a11.3 11.3 0 0 1 6.4 6.8c.6 1.6.9 3.3.9 5.2zm-3.5 0c0-1.5-.2-2.9-.6-4.2a8 8 0 0 0-1.8-3.1c-.8-.8-1.7-1.5-2.8-2s-2.3-.7-3.7-.7c-1.3 0-2.6.2-3.7.7s-2 1.1-2.8 2c-.8.9-1.4 1.9-1.8 3.1a14.2 14.2 0 0 0 0 8.4 8 8 0 0 0 1.8 3.1c.8.9 1.7 1.5 2.8 2s2.3.7 3.7.7 2.6-.2 3.7-.7a8 8 0 0 0 2.8-2 8 8 0 0 0 1.8-3.1c.4-1.3.6-2.7.6-4.2zM717 306v25.2h-1.7l-.7-.1-.5-.5-14.6-19 .1.9c.1.3 0 .5 0 .8v18h-3V306h2.2l.3.1.2.2.3.3 14.6 19-.1-.9c-.1-.3 0-.6 0-.8V306h2.9zM749.1 306v25.2h-1.7l-.7-.1-.5-.5-14.6-19 .1.9c.1.3 0 .5 0 .8v18h-3V306h2.2l.3.1.2.2.3.3 14.6 19-.1-.9c-.1-.3 0-.6 0-.8V306h2.9zM776.4 328.4v2.8h-15.5V306h15.5v2.8h-12.1v8.4h9.8v2.7h-9.8v8.6h12.1v-.1zM804.1 326l.5.2 1.4 1.5c-1 1.2-2.3 2.1-3.8 2.8s-3.2 1-5.3 1c-1.8 0-3.4-.3-4.9-.9s-2.7-1.5-3.8-2.6a14.6 14.6 0 0 1-3.3-9.3c0-1.9.3-3.6.9-5.2.6-1.6 1.4-2.9 2.5-4.1 1.1-1.1 2.4-2 3.9-2.6s3.2-.9 5-.9 3.4.3 4.7.9a13 13 0 0 1 3.6 2.3l-1.1 1.6-.3.3-.4.1-.8-.3-1.2-.8-1.8-.8c-.7-.3-1.6-.3-2.7-.3a8.6 8.6 0 0 0-6.4 2.7c-.8.9-1.4 1.9-1.8 3.1a13.2 13.2 0 0 0 0 8.4c.5 1.2 1.1 2.3 1.8 3.1.8.9 1.7 1.5 2.8 1.9 1.1.4 2.2.7 3.4.7l2-.1 1.7-.4 1.4-.7 1.3-1c.3-.5.5-.6.7-.6zM832.2 308.9H824v22.3h-3.4v-22.3h-8.2V306h19.7v2.9h.1zM844.6 331.2h-3.4V306h3.4v25.2zM879.6 318.6c0 1.9-.3 3.6-.9 5.2-.6 1.6-1.4 2.9-2.5 4.1-1.1 1.1-2.4 2-3.9 2.6-1.5.6-3.2.9-5.1.9a14 14 0 0 1-5.1-.9c-1.5-.6-2.8-1.5-3.9-2.6a11.3 11.3 0 0 1-2.5-4.1c-.6-1.6-.9-3.3-.9-5.2s.3-3.6.9-5.2c.6-1.6 1.4-2.9 2.5-4.1 1.1-1.1 2.4-2 3.9-2.7 1.5-.6 3.2-.9 5.1-.9 1.9 0 3.5.3 5.1.9a11.3 11.3 0 0 1 6.4 6.8c.6 1.6.9 3.3.9 5.2zm-3.5 0c0-1.5-.2-2.9-.6-4.2a8 8 0 0 0-1.8-3.1c-.8-.8-1.7-1.5-2.8-2s-2.3-.7-3.7-.7c-1.3 0-2.6.2-3.7.7s-2 1.1-2.8 2c-.8.9-1.4 1.9-1.8 3.1a14.2 14.2 0 0 0 0 8.4 8 8 0 0 0 1.8 3.1c.8.9 1.7 1.5 2.8 2s2.3.7 3.7.7 2.6-.2 3.7-.7a8 8 0 0 0 2.8-2 8 8 0 0 0 1.8-3.1c.4-1.3.6-2.7.6-4.2zM910.2 306v25.2h-1.7l-.7-.1-.5-.5-14.6-19 .1.9c.1.3 0 .5 0 .8v18h-3V306h2.2l.3.1.2.2.3.3 14.6 19-.1-.9c-.1-.3 0-.6 0-.8V306h2.9zM934.8 309.9l-.3.4-.4.1-.7-.3-1-.7a6.6 6.6 0 0 0-3.6-1 5.3 5.3 0 0 0-3.5 1.1 3.4 3.4 0 0 0-1.2 2.7c0 .7.2 1.3.5 1.8s.8.9 1.4 1.2l1.9.9 2.2.7c.8.3 1.5.5 2.2.9s1.4.7 1.9 1.2a5.3 5.3 0 0 1 1.9 4.4 8.1 8.1 0 0 1-2.2 5.6c-.7.7-1.6 1.3-2.7 1.7a11.3 11.3 0 0 1-8.1-.3c-1.3-.6-2.5-1.4-3.4-2.4l1-1.6.3-.3.4-.1.5.2.7.5.8.6 1.1.6 1.4.5c.5.2 1.1.2 1.7.2.8 0 1.5-.1 2.2-.3a4 4 0 0 0 2.6-2.4c.2-.6.4-1.2.4-1.9 0-.8-.2-1.4-.5-1.9s-.8-.9-1.4-1.2l-1.9-.8-2.2-.7-2.2-.8a6.2 6.2 0 0 1-3.3-3.1c-.4-.8-.5-1.7-.5-2.8 0-.9.2-1.8.5-2.6s.8-1.6 1.5-2.2 1.5-1.2 2.4-1.5 2.1-.6 3.3-.6c1.4 0 2.7.2 3.8.7a9 9 0 0 1 3.1 1.9l-.6 1.6z" class="st1"/>
    </g>
    <g>
        <path d="M159.8 273.3h-21.6c-4 0-6.9-1.5-8.6-4.5l-17.1-29.9c-.8-1.3-1.7-2.2-2.7-2.8s-2.4-.9-4.2-.9h-6.1v38.1h-24V170.2H109c7.5 0 13.8.8 19.1 2.3 5.3 1.5 9.6 3.7 12.9 6.4 3.3 2.7 5.7 6 7.3 9.7a33 33 0 0 1 1 21.7 29.8 29.8 0 0 1-10.5 15c-2.6 2-5.5 3.6-8.9 4.9a21.4 21.4 0 0 1 8.1 7.3l21.8 35.8zM109 218.7c3.3 0 6-.4 8.3-1.2a13.7 13.7 0 0 0 8.8-8.5c.7-2 1-4.1 1-6.3 0-4.5-1.5-8.1-4.4-10.6s-7.5-3.8-13.7-3.8h-9.6v30.6h9.6v-.2zM192.6 188.6v24.1H225v17.7h-32.4v24.5h42.3v18.4h-66.4V170.2h66.4v18.4h-42.3z" class="st3"/>
    </g>
</svg>
