<svg xmlns="http://www.w3.org/2000/svg" id="logout" viewBox="0 0 512 512">
	<path d="M301.7 491.9H90.8c-11 0-21-9.6-21-20.7V39.4c0-11 10-19.3 21-19.3h210.9a10 10 0 0 0 10-10 10 10 0 0 0-10-10H90.8a40.3 40.3 0 0 0-41.1 39.3v431.9c0 22.1 19 40.7 41.1 40.7h210.9a10 10 0 0 0 0-20.1z"/>
	<path d="M459.7 243.6l-90.4-100.4a10 10 0 0 0-14.2-.7 10.4 10.4 0 0 0-.7 14.5l75.3 84H201.3c-5.5 0-10 4.5-10 10s4.5 10 10 10H428l-73.2 72.9a9.8 9.8 0 0 0 0 14c2 2 4.5 2.9 7.1 2.9s5.1-1 7.1-3l90.4-90.4a10 10 0 0 0 .3-13.8z"/>
</svg>
