<svg xmlns="http://www.w3.org/2000/svg" viewBox="0 0 81.9 92.8"><defs><style>.cls-1{fill:#0fa2b0}</style></defs><path class="cls-1" d="M12 39a21.3 21.3 0 0 0 3.9-.2 6.5 6.5 0 0 0 2.5-1 3.4 3.4 0 0 0 1.3-1.6 7.3 7.3 0 0 0 .4-2.6 8.2 8.2 0 0 0-.3-2.7 3.3 3.3 0 0 0-1.3-1.6 6 6 0 0 0-2.5-1 22.3 22.3 0 0 0-3.7-.2h-2.1c-.8 0-1.5.2-2 .3v10.4a9 9 0 0 0 1.5.2H12z"/><path class="cls-1" d="M81.9 34V1.3A1.3 1.3 0 0 0 80.6 0H27.5A27.5 27.5 0 0 0 .9 20.4c3.2-.3 6.2-.4 9.1-.4a50 50 0 0 1 9.4.8 18.1 18.1 0 0 1 6.5 2.4 10.2 10.2 0 0 1 3.7 4.2 14.1 14.1 0 0 1 1.2 6.1q0 8.4-7.5 11.6l9.4 14.3H21L14.1 47a15.3 15.3 0 0 1-1.7.1h-3l-.8-.1h-.4v12.4H0v32a1.4 1.4 0 0 0 1.4 1.4 1.3 1.3 0 0 0 1-.5.7.7 0 0 0 0-.1A27.4 27.4 0 0 1 24 81.8h27.3-.8 3.8a27.5 27.5 0 0 0 27.5-25.4zM66 59.5H36.3V20.5h29.3v8.1H46.8V36h17V44h-17v7.3H66z"/></svg>