<?xml version="1.0" encoding="utf-8"?>
<!-- Generator: Adobe Illustrator 22.1.0, SVG Export Plug-In . SVG Version: 6.00 Build 0)  -->
<svg version="1.1" id="Layer_1" xmlns="http://www.w3.org/2000/svg" xmlns:xlink="http://www.w3.org/1999/xlink" x="0px" y="0px"
	 viewBox="0 0 930.4 282.7" style="enable-background:new 0 0 930.4 282.7;" xml:space="preserve">
<style type="text/css">
	.st0{fill:#0FA3B1;}
	.st1{fill:#434A54;}
	.st2{enable-background:new    ;}
	.st3{fill:#FFFFFF;}
</style>
<path class="st0" d="M225.2,159.2c-0.8-1.4-1.5-3.1-2.2-4.9c-0.6-1.4-1.2-2.9-1.7-4.4c-3.2-9-4.9-18.8-4.9-29.4
	c0-7.3,0.8-14.2,2.4-20.7l0,0c0,0,0.1-0.4,0.3-1c0.7-2.7,1.6-5.4,2.6-8c0-0.1,0.1-0.2,0.1-0.3c0.9-2.4,2-4.9,3.1-6.8
	c0,0,0-0.1,0.1-0.1c0.4-0.7,0.8-1.4,1.2-2.1c1.4-2.6,3-6.7,3-14.2V0H59.3C26.5,0,0,26.5,0,59.3v158.1V238v44.7L31.4,238H172
	c31.5,0,57-25.5,57-57v-9.1C228.5,164.6,226.3,161.3,225.2,159.2z"/>
<image style="display:none;overflow:visible;enable-background:new    ;" width="4900" height="1388" xlink:href="B90ADA853F7E35B6.png"  transform="matrix(0.2397 0 0 0.2397 -85.7926 -25)">
</image>
<g>
	<path class="st1" d="M322.4,145.6c0.6,0,1.1,0.1,1.7,0.3s1.1,0.6,1.6,1.1l9.5,10c-4.2,5.4-9.4,9.5-15.6,12.3s-13.6,4.1-22.2,4.1
		c-7.8,0-14.8-1.3-21-4s-11.5-6.3-15.8-11s-7.6-10.3-9.9-16.7c-2.3-6.4-3.5-13.4-3.5-21c0-7.7,1.2-14.8,3.7-21.2
		c2.5-6.4,6-12,10.5-16.7s10-8.3,16.3-10.9S291,68,298.6,68c3.9,0,7.5,0.3,10.9,1s6.6,1.6,9.6,2.8c3,1.2,5.7,2.7,8.2,4.4
		c2.5,1.7,4.7,3.5,6.7,5.5l-8,10.9c-0.5,0.7-1.1,1.3-1.8,1.8c-0.7,0.5-1.7,0.8-3,0.8c-0.8,0-1.7-0.2-2.4-0.6
		c-0.8-0.4-1.6-0.8-2.4-1.4c-0.8-0.5-1.8-1.1-2.8-1.8c-1-0.6-2.2-1.2-3.6-1.8c-1.4-0.5-3-1-4.9-1.4s-4-0.6-6.5-0.6
		c-4,0-7.6,0.7-10.9,2.2s-6.1,3.6-8.5,6.4s-4.2,6.3-5.5,10.3c-1.3,4.1-1.9,8.7-1.9,14s0.7,10,2.2,14.1c1.4,4.1,3.4,7.6,5.9,10.4
		s5.4,4.9,8.7,6.4c3.3,1.5,6.8,2.2,10.6,2.2c2.2,0,4.1-0.1,5.9-0.3s3.5-0.6,5-1.1s3-1.2,4.4-2s2.8-1.9,4.2-3.1
		c0.6-0.5,1.2-0.9,1.8-1.2C321.1,145.8,321.7,145.6,322.4,145.6z"/>
	<path class="st1" d="M444.5,120.7c0,7.5-1.3,14.4-3.9,20.8c-2.6,6.4-6.2,12-10.9,16.7s-10.3,8.5-16.9,11.1c-6.6,2.7-13.9,4-21.9,4
		s-15.3-1.3-21.9-4s-12.3-6.4-16.9-11.1c-4.7-4.7-8.3-10.3-10.9-16.7s-3.9-13.3-3.9-20.8s1.3-14.4,3.9-20.8s6.2-12,10.9-16.7
		c4.7-4.7,10.3-8.4,16.9-11.1s13.9-4,21.9-4s15.3,1.4,21.9,4.1s12.2,6.4,16.9,11.1c4.7,4.7,8.3,10.3,10.9,16.7
		S444.5,113.3,444.5,120.7z M420,120.7c0-5.1-0.7-9.7-2-13.8c-1.3-4.1-3.2-7.5-5.7-10.4c-2.5-2.8-5.5-5-9.1-6.5s-7.7-2.3-12.2-2.3
		c-4.6,0-8.7,0.8-12.3,2.3c-3.6,1.5-6.7,3.7-9.1,6.5c-2.5,2.8-4.4,6.3-5.7,10.4c-1.3,4.1-2,8.7-2,13.8c0,5.1,0.7,9.8,2,13.8
		c1.3,4.1,3.2,7.5,5.7,10.4c2.5,2.8,5.5,5,9.1,6.5s7.7,2.2,12.3,2.2c4.6,0,8.7-0.7,12.2-2.2c3.6-1.5,6.6-3.6,9.1-6.5
		c2.5-2.8,4.4-6.3,5.7-10.4C419.3,130.5,420,125.9,420,120.7z"/>
	<path class="st1" d="M548.6,69.2v103.1h-12.5c-1.8,0-3.4-0.3-4.6-0.9c-1.2-0.6-2.5-1.6-3.7-3.1l-48.6-61.5c0.2,1.8,0.3,3.6,0.4,5.3
		c0.1,1.7,0.1,3.3,0.1,4.8v55.3h-21.1v-103h12.6c1,0,1.9,0,2.6,0.1s1.3,0.3,1.9,0.5c0.6,0.3,1.1,0.6,1.6,1.1s1.1,1.1,1.8,1.9
		l49,61.9c-0.2-2-0.4-3.9-0.5-5.8c-0.1-1.9-0.1-3.6-0.1-5.3V69.2H548.6z"/>
	<path class="st1" d="M658.5,69.2v103.1H646c-1.8,0-3.4-0.3-4.6-0.9c-1.2-0.6-2.5-1.6-3.7-3.1l-48.6-61.5c0.2,1.8,0.3,3.6,0.4,5.3
		c0.1,1.7,0.1,3.3,0.1,4.8v55.3h-21.1v-103h12.6c1,0,1.9,0,2.6,0.1c0.7,0.1,1.3,0.3,1.9,0.5c0.6,0.3,1.1,0.6,1.6,1.1
		s1.1,1.1,1.8,1.9l49,61.9c-0.2-2-0.4-3.9-0.5-5.8c-0.1-1.9-0.1-3.6-0.1-5.3V69.2H658.5z"/>
	<path class="st1" d="M702.5,87.6v24.1h32.4v17.7h-32.4v24.5h42.3v18.4h-66.4V69.2h66.4v18.4H702.5z"/>
	<path class="st1" d="M826.9,145.6c0.6,0,1.1,0.1,1.7,0.3c0.6,0.2,1.1,0.6,1.6,1.1l9.5,10c-4.2,5.4-9.4,9.5-15.6,12.3
		c-6.2,2.8-13.6,4.1-22.2,4.1c-7.8,0-14.8-1.3-21-4s-11.5-6.3-15.8-11s-7.6-10.3-9.9-16.7c-2.3-6.4-3.5-13.4-3.5-21
		c0-7.7,1.2-14.8,3.7-21.2s6-12,10.5-16.7s10-8.3,16.3-10.9s13.3-3.9,20.9-3.9c3.9,0,7.5,0.3,10.9,1s6.6,1.6,9.6,2.8
		c3,1.2,5.7,2.7,8.2,4.4c2.5,1.7,4.7,3.5,6.7,5.5l-8.1,10.8c-0.5,0.7-1.1,1.3-1.8,1.8s-1.7,0.8-3,0.8c-0.8,0-1.7-0.2-2.4-0.6
		c-0.8-0.4-1.6-0.8-2.4-1.4c-0.8-0.5-1.8-1.1-2.8-1.8c-1-0.6-2.2-1.2-3.6-1.8c-1.4-0.5-3-1-4.9-1.4s-4-0.6-6.5-0.6
		c-4,0-7.6,0.7-10.9,2.2c-3.3,1.5-6.1,3.6-8.5,6.4s-4.2,6.3-5.5,10.3c-1.3,4.1-1.9,8.7-1.9,14s0.7,10,2.2,14.1
		c1.4,4.1,3.4,7.6,5.9,10.4c2.5,2.8,5.4,4.9,8.7,6.4s6.8,2.2,10.6,2.2c2.2,0,4.1-0.1,5.9-0.3c1.8-0.2,3.5-0.6,5-1.1s3-1.2,4.4-2
		s2.8-1.9,4.2-3.1c0.6-0.5,1.2-0.9,1.8-1.2C825.5,145.8,826.2,145.6,826.9,145.6z"/>
	<path class="st1" d="M930.4,88.2h-29v84.1h-23.9V88.2h-29v-19h81.9V88.2z"/>
</g>
<g>
	<path class="st1" d="M278.8,230.2h-3c-0.6,0-1.1-0.2-1.4-0.7l-6.5-9c-0.2-0.3-0.4-0.5-0.6-0.6s-0.6-0.2-1.1-0.2h-2.6v10.5h-3.4V205
		h7.1c1.6,0,3,0.2,4.1,0.5c1.2,0.3,2.1,0.8,2.9,1.4c0.8,0.6,1.3,1.3,1.7,2.2c0.4,0.9,0.5,1.8,0.5,2.9c0,0.9-0.1,1.7-0.4,2.5
		s-0.7,1.5-1.2,2.1s-1.2,1.1-2,1.6c-0.8,0.4-1.6,0.8-2.6,1c0.4,0.2,0.8,0.6,1.1,1.1L278.8,230.2z M267.2,217.2c1,0,1.9-0.1,2.6-0.4
		c0.8-0.2,1.4-0.6,1.9-1s0.9-1,1.2-1.6s0.4-1.3,0.4-2c0-1.5-0.5-2.6-1.5-3.4c-1-0.8-2.5-1.1-4.4-1.1h-3.7v9.5H267.2z"/>
	<path class="st1" d="M303.1,227.4v2.8h-15.5V205h15.5v2.8H291v8.4h9.8v2.7H291v8.6h12.1V227.4z"/>
	<path class="st1" d="M330.1,207.9H322v22.3h-3.4v-22.3h-8.2V205h19.7V207.9z"/>
	<path class="st1" d="M359.6,230.2H357c-0.3,0-0.6-0.1-0.7-0.2c-0.2-0.2-0.3-0.3-0.4-0.6l-2.4-6.1h-11.3l-2.4,6.1
		c-0.1,0.2-0.2,0.4-0.4,0.6s-0.4,0.2-0.7,0.2H336l10.1-25.2h3.4L359.6,230.2z M352.5,220.8l-4-10.3c-0.1-0.3-0.2-0.7-0.4-1.1
		c-0.1-0.4-0.3-0.8-0.4-1.3c-0.2,0.9-0.5,1.7-0.8,2.4l-4,10.2h9.6L352.5,220.8L352.5,220.8z"/>
	<path class="st1" d="M371.6,230.2h-3.4V205h3.4V230.2z"/>
	<path class="st1" d="M397.6,227.3v2.9h-14.3V205h3.4v22.3H397.6z"/>
	<path class="st1" d="M405.4,228.2c0-0.3,0.1-0.6,0.2-0.9s0.3-0.5,0.5-0.7s0.4-0.4,0.7-0.5c0.3-0.1,0.6-0.2,0.9-0.2s0.6,0.1,0.9,0.2
		s0.5,0.3,0.7,0.5s0.4,0.4,0.5,0.7s0.2,0.6,0.2,0.9c0,0.3-0.1,0.6-0.2,0.9s-0.3,0.5-0.5,0.7s-0.4,0.4-0.7,0.5s-0.6,0.2-0.9,0.2
		s-0.6-0.1-0.9-0.2c-0.3-0.1-0.5-0.3-0.7-0.5s-0.3-0.4-0.5-0.7S405.4,228.6,405.4,228.2z"/>
	<path class="st1" d="M438.9,230.2h-3c-0.6,0-1.1-0.2-1.4-0.7l-6.5-9c-0.2-0.3-0.4-0.5-0.6-0.6s-0.6-0.2-1.1-0.2h-2.6v10.5h-3.4V205
		h7.1c1.6,0,3,0.2,4.1,0.5c1.2,0.3,2.1,0.8,2.9,1.4c0.8,0.6,1.3,1.3,1.7,2.2c0.4,0.9,0.5,1.8,0.5,2.9c0,0.9-0.1,1.7-0.4,2.5
		s-0.7,1.5-1.2,2.1s-1.2,1.1-2,1.6c-0.8,0.4-1.6,0.8-2.6,1c0.4,0.2,0.8,0.6,1.1,1.1L438.9,230.2z M427.2,217.2c1,0,1.9-0.1,2.6-0.4
		c0.8-0.2,1.4-0.6,1.9-1s0.9-1,1.2-1.6s0.4-1.3,0.4-2c0-1.5-0.5-2.6-1.5-3.4c-1-0.8-2.5-1.1-4.4-1.1h-3.7v9.5H427.2z"/>
	<path class="st1" d="M463.1,227.4v2.8h-15.5V205h15.5v2.8H451v8.4h9.8v2.7H451v8.6h12.1V227.4z"/>
	<path class="st1" d="M493.6,230.2H491c-0.3,0-0.6-0.1-0.7-0.2c-0.2-0.2-0.3-0.3-0.4-0.6l-2.4-6.1h-11.3l-2.4,6.1
		c-0.1,0.2-0.2,0.4-0.4,0.6s-0.4,0.2-0.7,0.2H470l10.1-25.2h3.4L493.6,230.2z M486.5,220.8l-4-10.3c-0.1-0.3-0.2-0.7-0.4-1.1
		c-0.1-0.4-0.3-0.8-0.4-1.3c-0.2,0.9-0.5,1.7-0.8,2.4l-4,10.2h9.6L486.5,220.8L486.5,220.8z"/>
	<path class="st1" d="M516.5,227.3v2.9h-14.3V205h3.4v22.3H516.5z"/>
	<path class="st1" d="M542.6,207.9h-8.2v22.3H531v-22.3h-8.2V205h19.7L542.6,207.9L542.6,207.9z"/>
	<path class="st1" d="M561.1,220.1v10h-3.4v-10l-9.2-15.2h3c0.3,0,0.5,0.1,0.7,0.2s0.3,0.3,0.5,0.6l5.8,9.8c0.2,0.4,0.4,0.8,0.6,1.2
		s0.3,0.7,0.5,1.1c0.1-0.4,0.3-0.7,0.4-1.1c0.2-0.4,0.3-0.7,0.5-1.2l5.8-9.8c0.1-0.2,0.3-0.4,0.4-0.5c0.2-0.2,0.4-0.2,0.7-0.2h3
		L561.1,220.1z"/>
	<path class="st1" d="M577.6,228.2c0-0.3,0.1-0.6,0.2-0.9c0.1-0.3,0.3-0.5,0.5-0.7s0.4-0.4,0.7-0.5s0.6-0.2,0.9-0.2s0.6,0.1,0.9,0.2
		c0.3,0.1,0.5,0.3,0.7,0.5s0.4,0.4,0.5,0.7s0.2,0.6,0.2,0.9c0,0.3-0.1,0.6-0.2,0.9s-0.3,0.5-0.5,0.7s-0.4,0.4-0.7,0.5
		s-0.6,0.2-0.9,0.2s-0.6-0.1-0.9-0.2s-0.5-0.3-0.7-0.5s-0.3-0.4-0.5-0.7C577.6,228.9,577.6,228.6,577.6,228.2z"/>
	<path class="st1" d="M610.1,225c0.2,0,0.4,0.1,0.5,0.2l1.4,1.5c-1,1.2-2.3,2.1-3.8,2.8s-3.2,1-5.3,1c-1.8,0-3.4-0.3-4.9-0.9
		c-1.5-0.6-2.7-1.5-3.8-2.6c-1-1.1-1.9-2.5-2.4-4.1c-0.6-1.6-0.9-3.3-0.9-5.2s0.3-3.6,0.9-5.2c0.6-1.6,1.4-2.9,2.5-4.1
		c1.1-1.1,2.4-2,3.9-2.6s3.2-0.9,5-0.9s3.4,0.3,4.7,0.9c1.4,0.6,2.6,1.4,3.6,2.3l-1.1,1.6c-0.1,0.1-0.2,0.2-0.3,0.3
		s-0.3,0.1-0.4,0.1c-0.2,0-0.5-0.1-0.8-0.3s-0.7-0.5-1.2-0.8s-1.1-0.5-1.8-0.8s-1.6-0.3-2.7-0.3c-1.3,0-2.5,0.2-3.6,0.7
		s-2,1.1-2.8,2s-1.4,1.9-1.8,3.1c-0.4,1.2-0.7,2.6-0.7,4.2c0,1.6,0.2,3,0.7,4.2s1.1,2.3,1.8,3.1c0.8,0.9,1.7,1.5,2.8,1.9
		s2.2,0.7,3.4,0.7c0.8,0,1.4,0,2-0.1s1.2-0.2,1.7-0.4s1-0.4,1.4-0.7s0.9-0.6,1.3-1C609.7,225.1,609.9,225,610.1,225z"/>
	<path class="st1" d="M644.4,217.6c0,1.9-0.3,3.6-0.9,5.2c-0.6,1.6-1.4,2.9-2.5,4.1c-1.1,1.1-2.4,2-3.9,2.6s-3.2,0.9-5.1,0.9
		c-1.9,0-3.5-0.3-5.1-0.9c-1.5-0.6-2.8-1.5-3.9-2.6c-1.1-1.1-1.9-2.5-2.5-4.1s-0.9-3.3-0.9-5.2s0.3-3.6,0.9-5.2
		c0.6-1.6,1.4-2.9,2.5-4.1c1.1-1.1,2.4-2,3.9-2.7c1.5-0.6,3.2-0.9,5.1-0.9c1.9,0,3.5,0.3,5.1,0.9c1.5,0.6,2.8,1.5,3.9,2.7
		c1.1,1.1,1.9,2.5,2.5,4.1C644.1,214,644.4,215.7,644.4,217.6z M640.9,217.6c0-1.5-0.2-2.9-0.6-4.2c-0.4-1.2-1-2.3-1.8-3.1
		s-1.7-1.5-2.8-2s-2.3-0.7-3.7-0.7c-1.3,0-2.6,0.2-3.7,0.7s-2,1.1-2.8,2s-1.4,1.9-1.8,3.1c-0.4,1.2-0.6,2.6-0.6,4.2
		c0,1.5,0.2,2.9,0.6,4.2c0.4,1.2,1,2.3,1.8,3.1c0.8,0.9,1.7,1.5,2.8,2s2.3,0.7,3.7,0.7s2.6-0.2,3.7-0.7c1.1-0.5,2-1.1,2.8-2
		c0.8-0.8,1.4-1.9,1.8-3.1C640.7,220.5,640.9,219.1,640.9,217.6z"/>
	<path class="st1" d="M675,205v25.2h-1.7c-0.3,0-0.5,0-0.7-0.1s-0.4-0.3-0.5-0.5l-14.6-19c0,0.3,0,0.6,0.1,0.9s0,0.5,0,0.8v18h-3
		V205h1.8c0.2,0,0.3,0,0.4,0s0.2,0,0.3,0.1s0.2,0.1,0.2,0.2s0.2,0.2,0.3,0.3l14.6,19c0-0.3,0-0.6-0.1-0.9s0-0.6,0-0.8V205H675z"/>
	<path class="st1" d="M707.1,205v25.2h-1.7c-0.3,0-0.5,0-0.7-0.1s-0.4-0.3-0.5-0.5l-14.6-19c0,0.3,0,0.6,0.1,0.9s0,0.5,0,0.8v18h-3
		V205h1.8c0.2,0,0.3,0,0.4,0s0.2,0,0.3,0.1s0.2,0.1,0.2,0.2s0.2,0.2,0.3,0.3l14.6,19c0-0.3,0-0.6-0.1-0.9s0-0.6,0-0.8V205H707.1z"/>
	<path class="st1" d="M734.4,227.4v2.8h-15.5V205h15.5v2.8h-12.1v8.4h9.8v2.7h-9.8v8.6h12.1V227.4z"/>
	<path class="st1" d="M762.1,225c0.2,0,0.4,0.1,0.5,0.2l1.4,1.5c-1,1.2-2.3,2.1-3.8,2.8s-3.2,1-5.3,1c-1.8,0-3.4-0.3-4.9-0.9
		c-1.5-0.6-2.7-1.5-3.8-2.6c-1-1.1-1.9-2.5-2.4-4.1c-0.6-1.6-0.9-3.3-0.9-5.2s0.3-3.6,0.9-5.2c0.6-1.6,1.4-2.9,2.5-4.1
		c1.1-1.1,2.4-2,3.9-2.6s3.2-0.9,5-0.9s3.4,0.3,4.7,0.9c1.4,0.6,2.6,1.4,3.6,2.3l-1.1,1.6c-0.1,0.1-0.2,0.2-0.3,0.3
		s-0.3,0.1-0.4,0.1c-0.2,0-0.5-0.1-0.8-0.3s-0.7-0.5-1.2-0.8s-1.1-0.5-1.8-0.8s-1.6-0.3-2.7-0.3c-1.3,0-2.5,0.2-3.6,0.7
		s-2,1.1-2.8,2s-1.4,1.9-1.8,3.1c-0.4,1.2-0.7,2.6-0.7,4.2c0,1.6,0.2,3,0.7,4.2s1.1,2.3,1.8,3.1c0.8,0.9,1.7,1.5,2.8,1.9
		s2.2,0.7,3.4,0.7c0.8,0,1.4,0,2-0.1s1.2-0.2,1.7-0.4s1-0.4,1.4-0.7s0.9-0.6,1.3-1C761.7,225.1,761.9,225,762.1,225z"/>
	<path class="st1" d="M790.2,207.9H782v22.3h-3.4v-22.3h-8.2V205h19.7v2.9H790.2z"/>
	<path class="st1" d="M802.6,230.2h-3.4V205h3.4V230.2z"/>
	<path class="st1" d="M837.6,217.6c0,1.9-0.3,3.6-0.9,5.2c-0.6,1.6-1.4,2.9-2.5,4.1c-1.1,1.1-2.4,2-3.9,2.6s-3.2,0.9-5.1,0.9
		c-1.9,0-3.5-0.3-5.1-0.9c-1.5-0.6-2.8-1.5-3.9-2.6c-1.1-1.1-1.9-2.5-2.5-4.1s-0.9-3.3-0.9-5.2s0.3-3.6,0.9-5.2
		c0.6-1.6,1.4-2.9,2.5-4.1c1.1-1.1,2.4-2,3.9-2.7c1.5-0.6,3.2-0.9,5.1-0.9c1.9,0,3.5,0.3,5.1,0.9c1.5,0.6,2.8,1.5,3.9,2.7
		c1.1,1.1,1.9,2.5,2.5,4.1C837.3,214,837.6,215.7,837.6,217.6z M834.1,217.6c0-1.5-0.2-2.9-0.6-4.2c-0.4-1.2-1-2.3-1.8-3.1
		s-1.7-1.5-2.8-2s-2.3-0.7-3.7-0.7c-1.3,0-2.6,0.2-3.7,0.7s-2,1.1-2.8,2s-1.4,1.9-1.8,3.1c-0.4,1.2-0.6,2.6-0.6,4.2
		c0,1.5,0.2,2.9,0.6,4.2c0.4,1.2,1,2.3,1.8,3.1c0.8,0.9,1.7,1.5,2.8,2s2.3,0.7,3.7,0.7s2.6-0.2,3.7-0.7c1.1-0.5,2-1.1,2.8-2
		c0.8-0.8,1.4-1.9,1.8-3.1C833.9,220.5,834.1,219.1,834.1,217.6z"/>
	<path class="st1" d="M868.2,205v25.2h-1.7c-0.3,0-0.5,0-0.7-0.1s-0.4-0.3-0.5-0.5l-14.6-19c0,0.3,0,0.6,0.1,0.9s0,0.5,0,0.8v18h-3
		V205h1.8c0.2,0,0.3,0,0.4,0s0.2,0,0.3,0.1s0.2,0.1,0.2,0.2s0.2,0.2,0.3,0.3l14.6,19c0-0.3,0-0.6-0.1-0.9s0-0.6,0-0.8V205H868.2z"/>
	<path class="st1" d="M892.8,208.9c-0.1,0.2-0.2,0.3-0.3,0.4c-0.1,0.1-0.3,0.1-0.4,0.1c-0.2,0-0.4-0.1-0.7-0.3s-0.6-0.4-1-0.7
		s-0.9-0.5-1.5-0.7s-1.3-0.3-2.1-0.3s-1.4,0.1-2,0.3s-1.1,0.5-1.5,0.8s-0.7,0.8-0.9,1.2s-0.3,1-0.3,1.5c0,0.7,0.2,1.3,0.5,1.8
		s0.8,0.9,1.4,1.2s1.2,0.6,1.9,0.9c0.7,0.2,1.5,0.5,2.2,0.7c0.8,0.3,1.5,0.5,2.2,0.9s1.4,0.7,1.9,1.2c0.6,0.5,1,1.1,1.4,1.8
		s0.5,1.6,0.5,2.6c0,1.1-0.2,2.1-0.6,3.1c-0.4,1-0.9,1.8-1.6,2.5c-0.7,0.7-1.6,1.3-2.7,1.7s-2.2,0.6-3.6,0.6c-1.6,0-3.1-0.3-4.5-0.9
		c-1.3-0.6-2.5-1.4-3.4-2.4l1-1.6c0.1-0.1,0.2-0.2,0.3-0.3s0.3-0.1,0.4-0.1c0.2,0,0.3,0.1,0.5,0.2c0.2,0.1,0.4,0.3,0.7,0.5
		s0.5,0.4,0.8,0.6c0.3,0.2,0.7,0.4,1.1,0.6s0.9,0.3,1.4,0.5s1.1,0.2,1.7,0.2c0.8,0,1.5-0.1,2.2-0.3c0.6-0.2,1.2-0.5,1.6-0.9
		s0.8-0.9,1-1.5s0.4-1.2,0.4-1.9c0-0.8-0.2-1.4-0.5-1.9s-0.8-0.9-1.4-1.2s-1.2-0.6-1.9-0.8s-1.5-0.5-2.2-0.7
		c-0.8-0.2-1.5-0.5-2.2-0.8s-1.4-0.7-1.9-1.2s-1-1.1-1.4-1.9s-0.5-1.7-0.5-2.8c0-0.9,0.2-1.8,0.5-2.6s0.8-1.6,1.5-2.2
		s1.5-1.2,2.4-1.5s2.1-0.6,3.3-0.6c1.4,0,2.7,0.2,3.8,0.7c1.2,0.4,2.2,1.1,3.1,1.9L892.8,208.9z"/>
</g>
<g class="st2">
	<path class="st3" d="M117.8,172.3H96.2c-4,0-6.9-1.5-8.6-4.5l-17.1-29.9c-0.8-1.3-1.7-2.2-2.7-2.8s-2.4-0.9-4.2-0.9h-6.1v38.1h-24
		V69.2H67c7.5,0,13.8,0.8,19.1,2.3c5.3,1.5,9.6,3.7,12.9,6.4c3.3,2.7,5.7,6,7.3,9.7c1.5,3.7,2.3,7.8,2.3,12.2c0,3.3-0.4,6.5-1.3,9.5
		s-2.2,5.7-4,8.2c-1.7,2.5-3.9,4.8-6.5,6.8s-5.5,3.6-8.9,4.9c1.6,0.8,3,1.8,4.4,3s2.6,2.6,3.7,4.3L117.8,172.3z M67,117.7
		c3.3,0,6-0.4,8.3-1.2c2.3-0.8,4.2-2,5.6-3.4c1.5-1.5,2.5-3.2,3.2-5.1c0.7-2,1-4.1,1-6.3c0-4.5-1.5-8.1-4.4-10.6s-7.5-3.8-13.7-3.8
		h-9.6v30.6H67V117.7z"/>
	<path class="st3" d="M150.6,87.6v24.1H183v17.7h-32.4v24.5h42.3v18.4h-66.4V69.2h66.4v18.4H150.6z"/>
</g>
</svg>
