<svg xmlns="http://www.w3.org/2000/svg" viewBox="0 0 930.4 282.7" id="svg8">
  <defs>
    <style type="text/css">
      #a2{fill:#0fa3b1;}
      #a3{fill:#0fa3b1;}
      #a4{fill:#fff;}
      @media only screen and (max-width: 294px){
      #a3{fill:#fff;}
      #a2{fill:#fff;}
      }
    </style>
  </defs>
  <path d="M225.2 159.2c-.8-1.4-1.5-3.1-2.2-4.9a87.18 87.18 0 0 1-6.6-33.8c0-7.3.8-14.2 2.4-20.7 0 0 .1-.4.3-1 .7-2.7 1.6-5.4 2.6-8 0-.1.1-.2.1-.3.9-2.4 2-4.9 3.1-6.8 0 0 0-.1.1-.1l1.2-2.1c1.4-2.6 3-6.7 3-14.2V0H59.3C26.5 0 0 26.5 0 59.3v223.4L31.4 238H172c31.5 0 57-25.5 57-57v-9.1c-.5-7.3-2.7-10.6-3.8-12.7z" id="a1" fill="#0fa3b1"/>
  <path id="a2" d="M930.4 88.2h-29v84.1h-23.9V88.2h-29v-19h81.9zm-103.5 57.4c.6 0 1.1.1 1.7.3.6.2 1.1.6 1.6 1.1l9.5 10c-4.2 5.4-9.4 9.5-15.6 12.3-6.2 2.8-13.6 4.1-22.2 4.1-7.8 0-14.8-1.3-21-4a45.8 45.8 0 0 1-15.8-11c-4.3-4.7-7.6-10.3-9.9-16.7-2.3-6.4-3.5-13.4-3.5-21 0-7.7 1.2-14.8 3.7-21.2 2.5-6.4 6-12 10.5-16.7 4.5-4.7 10-8.3 16.3-10.9a54.4 54.4 0 0 1 20.9-3.9 53.86 53.86 0 0 1 20.5 3.8c3 1.2 5.7 2.7 8.2 4.4 2.5 1.7 4.7 3.5 6.7 5.5l-8.1 10.8c-.5.7-1.1 1.3-1.8 1.8s-1.7.8-3 .8c-.8 0-1.7-.2-2.4-.6-.8-.4-1.6-.8-2.4-1.4-.8-.5-1.8-1.1-2.8-1.8-1-.6-2.2-1.2-3.6-1.8a31.28 31.28 0 0 0-11.4-2c-4 0-7.6.7-10.9 2.2-3.3 1.5-6.1 3.6-8.5 6.4-2.4 2.8-4.2 6.3-5.5 10.3-1.3 4.1-1.9 8.7-1.9 14 0 5.3.7 10 2.2 14.1 1.4 4.1 3.4 7.6 5.9 10.4 2.5 2.8 5.4 4.9 8.7 6.4 3.3 1.5 6.8 2.2 10.6 2.2 2.2 0 4.1-.1 5.9-.3 1.8-.2 3.5-.6 5-1.1 1.5-.5 3-1.2 4.4-2 1.4-.8 2.8-1.9 4.2-3.1.6-.5 1.2-.9 1.8-1.2.6 0 1.3-.2 2-.2zm-124.4-58v24.1h32.4v17.7h-32.4v24.5h42.3v18.4h-66.4V69.2h66.4v18.4zm-44-18.4v103.1H646c-1.8 0-3.4-.3-4.6-.9-1.2-.6-2.5-1.6-3.7-3.1l-48.6-61.5c.2 1.8.3 3.6.4 5.3.1 1.7.1 3.3.1 4.8v55.3h-21.1v-103h12.6c1 0 1.9 0 2.6.1.7.1 1.3.3 1.9.5.6.3 1.1.6 1.6 1.1.5.5 1.1 1.1 1.8 1.9l49 61.9c-.2-2-.4-3.9-.5-5.8-.1-1.9-.1-3.6-.1-5.3V69.2zm-109.9 0v103.1h-12.5c-1.8 0-3.4-.3-4.6-.9-1.2-.6-2.5-1.6-3.7-3.1l-48.6-61.5c.2 1.8.3 3.6.4 5.3.1 1.7.1 3.3.1 4.8v55.3h-21.1v-103h12.6c1 0 1.9 0 2.6.1.7.1 1.3.3 1.9.5.6.3 1.1.6 1.6 1.1.5.5 1.1 1.1 1.8 1.9l49 61.9c-.2-2-.4-3.9-.5-5.8-.1-1.9-.1-3.6-.1-5.3V69.2zm-157.7-1.1c-8 0-15.3 1.3-21.9 4a50.7 50.7 0 0 0-16.9 11.1c-4.7 4.7-8.3 10.3-10.9 16.7-2.6 6.4-3.9 13.3-3.9 20.8s1.3 14.4 3.9 20.8c2.6 6.4 6.2 12 10.9 16.7a49.7 49.7 0 0 0 16.9 11.1c6.6 2.7 13.9 4 21.9 4 8 0 15.3-1.3 21.9-4a49.2 49.2 0 0 0 16.9-11.1c4.7-4.7 8.3-10.3 10.9-16.7 2.6-6.4 3.9-13.3 3.9-20.8 0-7.4-1.3-14.3-3.9-20.7-2.6-6.4-6.2-12-10.9-16.7-4.7-4.7-10.3-8.4-16.9-11.1-6.6-2.7-13.9-4.1-21.9-4.1zm.1 19.6c4.5 0 8.6.8 12.2 2.3 3.6 1.5 6.6 3.7 9.1 6.5 2.5 2.9 4.4 6.3 5.7 10.4 1.3 4.1 2 8.7 2 13.8 0 5.2-.7 9.8-2 13.8-1.3 4.1-3.2 7.6-5.7 10.4-2.5 2.9-5.5 5-9.1 6.5-3.5 1.5-7.6 2.2-12.2 2.2s-8.7-.7-12.3-2.2c-3.6-1.5-6.6-3.7-9.1-6.5-2.5-2.9-4.4-6.3-5.7-10.4-1.3-4-2-8.7-2-13.8 0-5.1.7-9.7 2-13.8 1.3-4.1 3.2-7.6 5.7-10.4 2.4-2.8 5.5-5 9.1-6.5 3.6-1.5 7.7-2.3 12.3-2.3zm-68.6 57.9c.6 0 1.1.1 1.7.3.6.2 1.1.6 1.6 1.1l9.5 10c-4.2 5.4-9.4 9.5-15.6 12.3-6.2 2.8-13.6 4.1-22.2 4.1-7.8 0-14.8-1.3-21-4a45.8 45.8 0 0 1-15.8-11c-4.3-4.7-7.6-10.3-9.9-16.7-2.3-6.4-3.5-13.4-3.5-21 0-7.7 1.2-14.8 3.7-21.2 2.5-6.4 6-12 10.5-16.7 4.5-4.7 10-8.3 16.3-10.9a54.4 54.4 0 0 1 20.9-3.9 53.86 53.86 0 0 1 20.5 3.8c3 1.2 5.7 2.7 8.2 4.4 2.5 1.7 4.7 3.5 6.7 5.5l-8 10.9c-.5.7-1.1 1.3-1.8 1.8s-1.7.8-3 .8c-.8 0-1.7-.2-2.4-.6-.8-.4-1.6-.8-2.4-1.4-.8-.5-1.8-1.1-2.8-1.8-1-.6-2.2-1.2-3.6-1.8a31.28 31.28 0 0 0-11.4-2c-4 0-7.6.7-10.9 2.2-3.3 1.5-6.1 3.6-8.5 6.4-2.4 2.8-4.2 6.3-5.5 10.3-1.3 4.1-1.9 8.7-1.9 14 0 5.3.7 10 2.2 14.1 1.4 4.1 3.4 7.6 5.9 10.4 2.5 2.8 5.4 4.9 8.7 6.4 3.3 1.5 6.8 2.2 10.6 2.2 2.2 0 4.1-.1 5.9-.3 1.8-.2 3.5-.6 5-1.1 1.5-.5 3-1.2 4.4-2 1.4-.8 2.8-1.9 4.2-3.1.6-.5 1.2-.9 1.8-1.2.6-.1 1.2-.3 1.9-.3z"/>
  <path id="a3" d="M278.8 230.2h-3c-.6 0-1.1-.2-1.4-.7l-6.5-9c-.2-.3-.4-.5-.6-.6s-.6-.2-1.1-.2h-2.6v10.5h-3.4V205h7.1c1.6 0 3 .2 4.1.5 1.2.3 2.1.8 2.9 1.4.8.6 1.3 1.3 1.7 2.2.4.9.5 1.8.5 2.9a6.9 6.9 0 0 1-1.6 4.6c-.5.6-1.2 1.1-2 1.6-.8.4-1.6.8-2.6 1 .4.2.8.6 1.1 1.1l7.4 9.9zm-11.6-13c1 0 1.9-.1 2.6-.4a4.81 4.81 0 0 0 3.1-2.6c.3-.6.4-1.3.4-2 0-1.5-.5-2.6-1.5-3.4-1-.8-2.5-1.1-4.4-1.1h-3.7v9.5h3.5zm35.9 10.2v2.8h-15.5V205h15.5v2.8H291v8.4h9.8v2.7H291v8.6h12.1v-.1zm27-19.5H322v22.3h-3.4v-22.3h-8.2V205h19.7v2.9zm29.5 22.3H357c-.3 0-.6-.1-.7-.2-.2-.2-.3-.3-.4-.6l-2.4-6.1h-11.3l-2.4 6.1c-.1.2-.2.4-.4.6s-.4.2-.7.2H336l10.1-25.2h3.4l10.1 25.2zm-7.1-9.4l-4-10.3c-.1-.3-.2-.7-.4-1.1-.1-.4-.3-.8-.4-1.3-.2.9-.5 1.7-.8 2.4l-4 10.2h9.6v.1zm19.1 9.4h-3.4V205h3.4v25.2zm26-2.9v2.9h-14.3V205h3.4v22.3h10.9zm7.8.9c0-.3.1-.6.2-.9s.3-.5.5-.7.4-.4.7-.5c.3-.1.6-.2.9-.2s.6.1.9.2.5.3.7.5.4.4.5.7.2.6.2.9c0 .3-.1.6-.2.9s-.3.5-.5.7-.4.4-.7.5-.6.2-.9.2-.6-.1-.9-.2c-.3-.1-.5-.3-.7-.5s-.3-.4-.5-.7-.2-.5-.2-.9zm33.5 2h-3c-.6 0-1.1-.2-1.4-.7l-6.5-9c-.2-.3-.4-.5-.6-.6s-.6-.2-1.1-.2h-2.6v10.5h-3.4V205h7.1c1.6 0 3 .2 4.1.5 1.2.3 2.1.8 2.9 1.4.8.6 1.3 1.3 1.7 2.2.4.9.5 1.8.5 2.9a6.9 6.9 0 0 1-1.6 4.6c-.5.6-1.2 1.1-2 1.6-.8.4-1.6.8-2.6 1 .4.2.8.6 1.1 1.1l7.4 9.9zm-11.7-13c1 0 1.9-.1 2.6-.4a4.81 4.81 0 0 0 3.1-2.6c.3-.6.4-1.3.4-2 0-1.5-.5-2.6-1.5-3.4-1-.8-2.5-1.1-4.4-1.1h-3.7v9.5h3.5zm35.9 10.2v2.8h-15.5V205h15.5v2.8H451v8.4h9.8v2.7H451v8.6h12.1v-.1zm30.5 2.8H491c-.3 0-.6-.1-.7-.2-.2-.2-.3-.3-.4-.6l-2.4-6.1h-11.3l-2.4 6.1c-.1.2-.2.4-.4.6s-.4.2-.7.2H470l10.1-25.2h3.4l10.1 25.2zm-7.1-9.4l-4-10.3c-.1-.3-.2-.7-.4-1.1-.1-.4-.3-.8-.4-1.3-.2.9-.5 1.7-.8 2.4l-4 10.2h9.6v.1zm30 6.5v2.9h-14.3V205h3.4v22.3h10.9zm26.1-19.4h-8.2v22.3H531v-22.3h-8.2V205h19.7v2.9h.1zm18.5 12.2v10h-3.4v-10l-9.2-15.2h3c.3 0 .5.1.7.2s.3.3.5.6l5.8 9.8.6 1.2c.2.4.3.7.5 1.1.1-.4.3-.7.4-1.1.2-.4.3-.7.5-1.2l5.8-9.8c.1-.2.3-.4.4-.5.2-.2.4-.2.7-.2h3l-9.3 15.1zm16.5 8.1c0-.3.1-.6.2-.9.1-.3.3-.5.5-.7s.4-.4.7-.5.6-.2.9-.2.6.1.9.2c.3.1.5.3.7.5s.4.4.5.7.2.6.2.9c0 .3-.1.6-.2.9s-.3.5-.5.7-.4.4-.7.5-.6.2-.9.2-.6-.1-.9-.2-.5-.3-.7-.5-.3-.4-.5-.7c-.2-.2-.2-.5-.2-.9zm32.5-3.2c.2 0 .4.1.5.2l1.4 1.5c-1 1.2-2.3 2.1-3.8 2.8s-3.2 1-5.3 1c-1.8 0-3.4-.3-4.9-.9-1.5-.6-2.7-1.5-3.8-2.6-1-1.1-1.9-2.5-2.4-4.1-.6-1.6-.9-3.3-.9-5.2s.3-3.6.9-5.2c.6-1.6 1.4-2.9 2.5-4.1 1.1-1.1 2.4-2 3.9-2.6s3.2-.9 5-.9 3.4.3 4.7.9c1.4.6 2.6 1.4 3.6 2.3l-1.1 1.6-.3.3c-.1.1-.3.1-.4.1-.2 0-.5-.1-.8-.3s-.7-.5-1.2-.8-1.1-.5-1.8-.8-1.6-.3-2.7-.3c-1.3 0-2.5.2-3.6.7s-2 1.1-2.8 2-1.4 1.9-1.8 3.1a13.17 13.17 0 0 0 0 8.4c.5 1.2 1.1 2.3 1.8 3.1.8.9 1.7 1.5 2.8 1.9s2.2.7 3.4.7c.8 0 1.4 0 2-.1s1.2-.2 1.7-.4 1-.4 1.4-.7.9-.6 1.3-1c.3-.5.5-.6.7-.6zm34.3-7.4c0 1.9-.3 3.6-.9 5.2-.6 1.6-1.4 2.9-2.5 4.1-1.1 1.1-2.4 2-3.9 2.6s-3.2.9-5.1.9c-1.9 0-3.5-.3-5.1-.9-1.5-.6-2.8-1.5-3.9-2.6s-1.9-2.5-2.5-4.1-.9-3.3-.9-5.2.3-3.6.9-5.2c.6-1.6 1.4-2.9 2.5-4.1 1.1-1.1 2.4-2 3.9-2.7 1.5-.6 3.2-.9 5.1-.9 1.9 0 3.5.3 5.1.9 1.5.6 2.8 1.5 3.9 2.7 1.1 1.1 1.9 2.5 2.5 4.1.6 1.6.9 3.3.9 5.2zm-3.5 0c0-1.5-.2-2.9-.6-4.2-.4-1.2-1-2.3-1.8-3.1s-1.7-1.5-2.8-2-2.3-.7-3.7-.7c-1.3 0-2.6.2-3.7.7s-2 1.1-2.8 2-1.4 1.9-1.8 3.1c-.4 1.2-.6 2.6-.6 4.2 0 1.5.2 2.9.6 4.2.4 1.2 1 2.3 1.8 3.1.8.9 1.7 1.5 2.8 2s2.3.7 3.7.7 2.6-.2 3.7-.7c1.1-.5 2-1.1 2.8-2 .8-.8 1.4-1.9 1.8-3.1.4-1.3.6-2.7.6-4.2zM675 205v25.2h-1.7c-.3 0-.5 0-.7-.1s-.4-.3-.5-.5l-14.6-19c0 .3 0 .6.1.9s0 .5 0 .8v18h-3V205h2.2c.1 0 .2 0 .3.1s.2.1.2.2.2.2.3.3l14.6 19c0-.3 0-.6-.1-.9s0-.6 0-.8V205h2.9zm32.1 0v25.2h-1.7c-.3 0-.5 0-.7-.1s-.4-.3-.5-.5l-14.6-19c0 .3 0 .6.1.9s0 .5 0 .8v18h-3V205h2.2c.1 0 .2 0 .3.1s.2.1.2.2.2.2.3.3l14.6 19c0-.3 0-.6-.1-.9s0-.6 0-.8V205h2.9zm27.3 22.4v2.8h-15.5V205h15.5v2.8h-12.1v8.4h9.8v2.7h-9.8v8.6h12.1v-.1zm27.7-2.4c.2 0 .4.1.5.2l1.4 1.5c-1 1.2-2.3 2.1-3.8 2.8s-3.2 1-5.3 1c-1.8 0-3.4-.3-4.9-.9-1.5-.6-2.7-1.5-3.8-2.6-1-1.1-1.9-2.5-2.4-4.1-.6-1.6-.9-3.3-.9-5.2s.3-3.6.9-5.2c.6-1.6 1.4-2.9 2.5-4.1 1.1-1.1 2.4-2 3.9-2.6s3.2-.9 5-.9 3.4.3 4.7.9c1.4.6 2.6 1.4 3.6 2.3l-1.1 1.6-.3.3c-.1.1-.3.1-.4.1-.2 0-.5-.1-.8-.3s-.7-.5-1.2-.8-1.1-.5-1.8-.8-1.6-.3-2.7-.3c-1.3 0-2.5.2-3.6.7s-2 1.1-2.8 2-1.4 1.9-1.8 3.1a13.17 13.17 0 0 0 0 8.4c.5 1.2 1.1 2.3 1.8 3.1.8.9 1.7 1.5 2.8 1.9s2.2.7 3.4.7c.8 0 1.4 0 2-.1s1.2-.2 1.7-.4 1-.4 1.4-.7.9-.6 1.3-1c.3-.5.5-.6.7-.6zm28.1-17.1H782v22.3h-3.4v-22.3h-8.2V205h19.7v2.9h.1zm12.4 22.3h-3.4V205h3.4v25.2zm35-12.6c0 1.9-.3 3.6-.9 5.2-.6 1.6-1.4 2.9-2.5 4.1-1.1 1.1-2.4 2-3.9 2.6s-3.2.9-5.1.9c-1.9 0-3.5-.3-5.1-.9-1.5-.6-2.8-1.5-3.9-2.6s-1.9-2.5-2.5-4.1-.9-3.3-.9-5.2.3-3.6.9-5.2c.6-1.6 1.4-2.9 2.5-4.1 1.1-1.1 2.4-2 3.9-2.7 1.5-.6 3.2-.9 5.1-.9 1.9 0 3.5.3 5.1.9 1.5.6 2.8 1.5 3.9 2.7 1.1 1.1 1.9 2.5 2.5 4.1.6 1.6.9 3.3.9 5.2zm-3.5 0c0-1.5-.2-2.9-.6-4.2-.4-1.2-1-2.3-1.8-3.1s-1.7-1.5-2.8-2-2.3-.7-3.7-.7c-1.3 0-2.6.2-3.7.7s-2 1.1-2.8 2-1.4 1.9-1.8 3.1c-.4 1.2-.6 2.6-.6 4.2 0 1.5.2 2.9.6 4.2.4 1.2 1 2.3 1.8 3.1.8.9 1.7 1.5 2.8 2s2.3.7 3.7.7 2.6-.2 3.7-.7c1.1-.5 2-1.1 2.8-2 .8-.8 1.4-1.9 1.8-3.1.4-1.3.6-2.7.6-4.2zm34.1-12.6v25.2h-1.7c-.3 0-.5 0-.7-.1s-.4-.3-.5-.5l-14.6-19c0 .3 0 .6.1.9s0 .5 0 .8v18h-3V205h2.2c.1 0 .2 0 .3.1s.2.1.2.2.2.2.3.3l14.6 19c0-.3 0-.6-.1-.9s0-.6 0-.8V205h2.9zm24.6 3.9c-.1.2-.2.3-.3.4-.1.1-.3.1-.4.1-.2 0-.4-.1-.7-.3s-.6-.4-1-.7-.9-.5-1.5-.7-1.3-.3-2.1-.3-1.4.1-2 .3-1.1.5-1.5.8-.7.8-.9 1.2a3.65 3.65 0 0 0 .2 3.3c.3.5.8.9 1.4 1.2s1.2.6 1.9.9c.7.2 1.5.5 2.2.7.8.3 1.5.5 2.2.9s1.4.7 1.9 1.2a5.26 5.26 0 0 1 1.9 4.4 8.15 8.15 0 0 1-2.2 5.6c-.7.7-1.6 1.3-2.7 1.7s-2.2.6-3.6.6a10.46 10.46 0 0 1-7.9-3.3l1-1.6.3-.3c.1-.1.3-.1.4-.1.2 0 .3.1.5.2s.4.3.7.5.5.4.8.6c.3.2.7.4 1.1.6s.9.3 1.4.5 1.1.2 1.7.2c.8 0 1.5-.1 2.2-.3a3.96 3.96 0 0 0 2.6-2.4c.2-.6.4-1.2.4-1.9 0-.8-.2-1.4-.5-1.9s-.8-.9-1.4-1.2-1.2-.6-1.9-.8-1.5-.5-2.2-.7c-.8-.2-1.5-.5-2.2-.8s-1.4-.7-1.9-1.2-1-1.1-1.4-1.9-.5-1.7-.5-2.8c0-.9.2-1.8.5-2.6s.8-1.6 1.5-2.2 1.5-1.2 2.4-1.5 2.1-.6 3.3-.6c1.4 0 2.7.2 3.8.7 1.2.4 2.2 1.1 3.1 1.9l-.6 1.6z"/>
  <path d="M117.8 172.3H96.2c-4 0-6.9-1.5-8.6-4.5l-17.1-29.9c-.8-1.3-1.7-2.2-2.7-2.8-1-.6-2.4-.9-4.2-.9h-6.1v38.1h-24V69.2H67c7.5 0 13.8.8 19.1 2.3 5.3 1.5 9.6 3.7 12.9 6.4 3.3 2.7 5.7 6 7.3 9.7 1.5 3.7 2.3 7.8 2.3 12.2 0 3.3-.4 6.5-1.3 9.5s-2.2 5.7-4 8.2c-1.7 2.5-3.9 4.8-6.5 6.8s-5.5 3.6-8.9 4.9a21.41 21.41 0 0 1 8.1 7.3l21.8 35.8zM67 117.7c3.3 0 6-.4 8.3-1.2 2.3-.8 4.2-2 5.6-3.4 1.5-1.5 2.5-3.2 3.2-5.1.7-2 1-4.1 1-6.3 0-4.5-1.5-8.1-4.4-10.6-2.9-2.5-7.5-3.8-13.7-3.8h-9.6v30.6H67zm83.6-30.1v24.1H183v17.7h-32.4v24.5h42.3v18.4h-66.4V69.2h66.4v18.4h-42.3z" id="a4"/>
</svg>
