<svg xmlns="http://www.w3.org/2000/svg" viewBox="0 0 348.97 74.5"><defs><style>.cls-1{fill:#0fa3b1;}</style></defs><title>5Asset 1</title><g id="Layer_2" data-name="Layer 2"><g id="Elements"><g id="_Group_" data-name="&lt;Group&gt;"><path id="_Path_" data-name="&lt;Path&gt;" class="cls-1" d="M0,56.36c2.77,0,6.81-.64,9.3.11,2.15.65,1.48,1.21,3.92,1.21.63,3.14,9.11-1.19,10.39,1.47.11.22-3.48,1.56-3.73,1.68.83-.4,5.93-.1,7.07-.1,2.42,0,4.42.7,5.08,1.6,0,.05,2.54.68,3,.84,1.94.7-1.52.67,3.19,1h2.57c.22,0,.33-.17.33-.43A109,109,0,0,1,60,64.21c8.75,1.05,17,1.83,25.57,3.05,21.19,3,42.73,3.23,65.34,4.36,12.44.62,28.52-.3,42-.83,14.41-.57,29.12-2.89,43.71-1.68,10.77.9,21.74,2.74,33,3.4,10.59.63,21,3.22,31.77,1.27,2.49-.44,5.41-1.36,7.83-1.71,1.57-.23,3.94.15,5.46-.45s2.28-1.71,3.72-2.63c1.19-.76,4-.59,4.75-1.3,1.3-1.2.3-2.58.67-3.71-.12.37.78-2.45.67-2,.21-.89,1.68-1.35,1.44-2.39-.39-1.69-7.06-2.94-6.46-4.95-.77,0,2.62.18,2.1-.73-.84-1.46-5.7-2-7.33-2.32.31-1.54,1.37-.45,2.64-1-2.73-2.92,9-2.08,10.17-2,.58,0,9.18-.05,8.9-.71s-2.43-.38-2.11-1.47c1.76,0,8,.51,9.13-.63-.54-1-6.39-1.27-5.52-2.53,1.41-2,9.08,1.25,10.6-1.19.91-1.46-1.18-2.69-2.42-3.72-.51-.43-1.43-1.07-2-1.51s-2.4-.38-2.79-1c1.14-2.42,7.27.57,8.16-1.81-.77-.86-6.24-.79-7.66-1.07-2.9-.56-4.66-1.12-7.38-1.8-3-.75-6-2-9.11-3A172.19,172.19,0,0,0,293.53,22c-4.16-.46-11.47,0-14.85-3-1.82-1.61-2.11-4.13-4.28-5.6-1.94-1.31-4.14-1.71-6.2-2.27-7.18-2-14.92-2.17-22.54-2.51-7.86-.36-15.21-1.39-22.53-1.78-19.67-1.06-37-3.09-57-3.09,0-2.18,1.46-1.85-1.1-3-1.2-.56-2.61-.33-4.13-.44a11.21,11.21,0,0,0-3.92,0,24.31,24.31,0,0,1-3.32.44,29.6,29.6,0,0,1-5.1.44c-2.41-.15-4,0-7.09,0-7.16.08-13.76-.53-21.54-.44-4.76.05-9,1.3-13.51,2.42-1.87.46-3.37,1.14-5.28,1.5a25.15,25.15,0,0,0-5.26,1.63c-7.53,2.91-18.32.11-26.68.11a188.06,188.06,0,0,0-21.54.87c-5,.58-9.59,1.44-14.42,2.4a23.69,23.69,0,0,0-5.51,1.52c-.42.2-1.76.1-2.07.66-1.13,2,.89,1.47,2,2.18,0,1.18-7,3.37-7.62,3.69a41.6,41.6,0,0,0-6.33,4.08c.16,1.36,3.7.11,4.79.56,2.15.9-.68,1.59-.39,2.1.39.69,1.55-.1,2.11.49-1.51,1.51-5.2,1-6,2.5-.14.27,3.33.71,3.35.73,1.6,1.78-.91,1.5-.93,2.18-.05,1.85-1,.87,1.41.87,1.23,0,12.21-1.23,12.86,0,1.33,2.41-3.69,3-5.29,3.31a66.48,66.48,0,0,0-6.86,1.47A11.28,11.28,0,0,0,15,37.93c-1.39.9-4.53,1.36-5.57,2.45-.66.7,4.3-.12,4.7-.12,0,2-5.62,2.84-5.58,2.9a3.41,3.41,0,0,1-.08,3.43C7.09,49.18,5.69,48,3.29,49.4c-3.19,1.94.08,2.12-.09,4.07-.07.75-2.84,2.9-3.2,2.89C1.16,56.38-.08,56.36,0,56.36Z" transform="translate(0)"/><path id="_Path_2" data-name="&lt;Path&gt;" class="cls-1" d="M11.73,22.8c.68-.68.73-.84-.25-.84a.61.61,0,0,0,.25.84C11.92,22.6,11.64,22.72,11.73,22.8Z" transform="translate(0)"/><path id="_Path_3" data-name="&lt;Path&gt;" class="cls-1" d="M221.05,60.75Z" transform="translate(0)"/><path id="_Path_4" data-name="&lt;Path&gt;" class="cls-1" d="M209.29,38.54Z" transform="translate(0)"/></g></g></g></svg>