<svg xmlns="http://www.w3.org/2000/svg" viewBox="0 0 512 512" id="myobjects"><path d="M501.3 104.6c-8.1-9.9-19.5-16.1-32.2-17.4l-31.4-3.3c-4.5-.5-8.5 2.8-9 7.3s2.8 8.5 7.3 9l31.4 3.3c8.4.9 15.9 4.9 21.2 11.5 5.3 6.5 7.7 14.7 6.9 23.1l-27.9 269.1c-.9 8.4-4.9 15.9-11.5 21.2-6.5 5.3-14.7 7.7-23.1 6.9l-20.7-2.1c.1-1.2.2-2.5.2-3.8V82.8c0-28.6-23.3-51.9-51.9-51.9h-209c-28.6 0-51.9 23.3-51.9 51.9v346.5c0 1.3.1 2.5.2 3.8l-20.7 2.1c-8.4.9-16.5-1.6-23.1-6.9-6.5-5.3-10.6-12.8-11.5-21.2L16.6 138c-.9-8.4 1.6-16.5 6.9-23.1 5.3-6.5 12.8-10.6 21.2-11.5l30.7-3.2c4.5-.5 7.8-4.5 7.3-9s-4.5-7.8-9-7.3L43 87.1c-12.7 1.3-24.2 7.5-32.2 17.4C2.7 114.6-1.1 127 .3 139.7l27.9 269.1c1.3 12.7 7.5 24.2 17.4 32.2 8.6 7 19.1 10.7 30.1 10.7 1.7 0 3.3-.1 5-.3l22.8-2.4c7.8 18.8 26.4 32 47.9 32h209c21.6 0 40.1-13.2 47.9-32l22.8 2.4c1.7.2 3.4.3 5 .3 10.9 0 21.5-3.7 30.1-10.7 9.9-8.1 16.1-19.5 17.4-32.2l27.9-269.1c1.6-12.7-2.2-25.1-10.2-35.1zM396 429.2c0 19.6-15.9 35.5-35.5 35.5h-209c-19.6 0-35.5-15.9-35.5-35.5V82.8c0-19.6 15.9-35.5 35.5-35.5h209c19.6 0 35.5 15.9 35.5 35.5v346.4z"/></svg>