<svg xmlns="http://www.w3.org/2000/svg" viewBox="0 0 512 512" id="nego"><path d="M162.1 189.9c42.4 0 76.8-34.4 76.8-76.8s-34.4-76.8-76.8-76.8-76.8 34.4-76.8 76.8c.1 42.4 34.4 76.7 76.8 76.8zm0-136.6c33 0 59.7 26.7 59.7 59.7s-26.7 59.7-59.7 59.7-59.7-26.7-59.7-59.7c0-32.9 26.8-59.6 59.7-59.7zM392.5 181.3c33 0 59.7-26.7 59.7-59.7s-26.7-59.7-59.7-59.7-59.7 26.7-59.7 59.7 26.8 59.7 59.7 59.7zm0-102.4c23.6 0 42.7 19.1 42.7 42.7s-19.1 42.7-42.7 42.7-42.7-19.1-42.7-42.7C349.9 98 369 79 392.5 78.9z"/><path d="M435.2 189.9h-8.5c-2.3 0-4.4.9-6 2.5l-28.2 28.2-28.6-28.2a8.4 8.4 0 0 0-6-2.5h-8c-21.4 0-41.8 9-56.3 24.7a91.31 91.31 0 0 0-63.1-24.7c-2.3 0-4.4.9-6 2.5l-62.2 62.2-62.2-62.2a8.57 8.57 0 0 0-6-2.5c-52 0-94 42-94.1 93.8v108.4c0 10.1 6 19.3 15.2 23.4l129.6 57.6c11 4.9 23.6 4.9 34.6 0L309 415.5c9.3-4.1 15.2-13.3 15.2-23.4v-14.4l60.7 23.6c2.4.7 4.9 1.1 7.4 1.1 2.8 0 5.6-.5 8.3-1.3l95-36.9c9.9-3.8 16.4-13.3 16.4-23.9v-73.6c0-42.4-34.4-76.8-76.8-76.8zm-128 202.2c0 3.4-2 6.5-5.1 7.8l-129.6 57.6c-6.6 2.9-14.1 2.9-20.7 0L22.2 399.9a8.54 8.54 0 0 1-5.1-7.8V283.7c.1-41.1 32.4-74.8 73.4-76.7l65.7 65.7c3.3 3.3 8.7 3.3 12.1 0L234 207a76.74 76.74 0 0 1 54 25.8c12.4 14 19.3 32.1 19.3 50.9v108.4zm187.7-51.8c0 3.5-2.2 6.7-5.5 8L395.1 385c-1.4.5-3 .6-4.5.2l-66.4-25.8v-75.7c0-2.7-.1-5.5-.4-8.2l-.3-2.7c-.2-1.8-.4-3.6-.7-5.4l-.6-3.1c-.3-1.6-.7-3.2-1.1-4.8l-.9-3.3c-.5-1.5-.9-3-1.5-4.4-.4-1.1-.8-2.2-1.3-3.3l-1.8-4.2c-.5-1.1-1-2.1-1.5-3.2-.7-1.4-1.4-2.7-2.2-4-.6-1-1.2-2.1-1.8-3-.9-1.3-1.7-2.6-2.6-3.9-.6-.9-1.2-1.8-1.9-2.7-.1-.2-.2-.4-.4-.6a59.61 59.61 0 0 1 44.7-20.1h4.5l32.2 31.7c3.3 3.3 8.7 3.3 12 0l31.6-31.6h5c33 0 59.7 26.8 59.7 59.7v73.7z"/></svg>