<?xml version="1.0" encoding="utf-8"?>
<!-- Generator: Adobe Illustrator 22.1.0, SVG Export Plug-In . SVG Version: 6.00 Build 0)  -->
<svg version="1.1" id="negotiations" xmlns="http://www.w3.org/2000/svg" xmlns:xlink="http://www.w3.org/1999/xlink" x="0px" y="0px"
	 viewBox="0 0 512 512" style="enable-background:new 0 0 512 512;" xml:space="preserve">
<style type="text/css">
	.st0{fill:#434A53;}
</style>
<g>
	<g>
		<path class="st0" d="M308.4,20.4c-108.5,0-197.1,68-202.9,153.3C42.2,194.1,0,243.4,0,298.2c1.2,40.3,22,77.6,55.7,99.7v86
			c0,4.2,3.4,7.7,7.7,7.7c1.9,0,3.8-0.7,5.2-2l65.6-60.1c11.3,1.8,22.7,2.8,34.1,2.8c71.5,0,134.5-35.6,158.4-88.9
			c8-0.6,15.9-1.4,23.9-2.8l80.5,73.7c3.1,2.9,8,2.7,10.8-0.4c1.3-1.4,2-3.3,2-5.2V303c43.2-30.7,68-74.5,68-120.7
			C511.9,93,420.6,20.4,308.4,20.4z M168.3,416.9c-11.8,0-23.6-1-35.2-3.2c-2.3-0.4-4.8,0.2-6.5,1.8l-55.5,51.1v-72.9
			c0-2.5-1.3-4.9-3.4-6.3c-33.5-22.6-52.4-55.5-52.4-89.4c0-46.6,35.7-89,89.7-108.2c0.5,6.9,1.7,13.7,3.4,20.4
			c7.5,31.1,24.8,59,49.2,79.7c1.4,1.3,53.3,52.4,152,53.7C285.7,388.1,230.8,416.9,168.3,416.9z M432,292.6
			c-2.1,1.4-3.4,3.8-3.4,6.3v92l-70.5-64.5c-1.4-1.3-3.3-2-5.2-2h-1.4c-13.5,2.5-27.2,3.8-40.9,3.8c-74.2,0-119.1-28.8-141-47.3
			c-22.4-19.4-38.7-44.9-46.8-73.4c-2-8.4-3-17-3.1-25.7c0.6-80.3,85-146.2,188.8-146.2s188.1,65.7,188.1,146.5
			C496.6,224.5,473.1,264.7,432,292.6z"/>
	</g>
</g>
</svg>
