<?xml version="1.0" encoding="utf-8"?>
<!-- Generator: Adobe Illustrator 22.1.0, SVG Export Plug-In . SVG Version: 6.00 Build 0)  -->
<svg version="1.1" id="Capa_1" xmlns="http://www.w3.org/2000/svg" xmlns:xlink="http://www.w3.org/1999/xlink" x="0px" y="0px"
	 viewBox="0 0 454.5 454.5" style="enable-background:new 0 0 454.5 454.5;" xml:space="preserve">
<g>
	<path d="M378.1,227.3L206.2,55.4c-12.4-12.4-12.4-32.4,0-44.7c12.4-12.4,32.4-12.4,44.7,0l194.3,194.3c6.2,6.2,9.3,14.3,9.3,22.4
		c0,8.1-3.1,16.2-9.3,22.4L251,443.9c-12.4,12.4-32.4,12.4-44.7,0c-12.4-12.4-12.4-32.4,0-44.7L378.1,227.3z M9.3,399.2
		c-12.4,12.4-12.4,32.4,0,44.7c12.4,12.4,32.4,12.4,44.7,0l194.3-194.3c6.2-6.2,9.3-14.3,9.3-22.4c0-8.1-3.1-16.2-9.3-22.4L54,10.6
		C41.6-1.8,21.6-1.8,9.3,10.6C-3.1,23-3.1,43,9.3,55.4l171.9,171.9L9.3,399.2z"/>
</g>
</svg>
