<svg xmlns="http://www.w3.org/2000/svg" id="Layer_1" viewBox="0 0 496 496">
	<style>
		.st0{fill:#434a53}.st1{fill:#0fa3b1}
	</style>
	<path d="M280 192h16v24h-16zM168 56a48.1 48.1 0 0 0-47.3 40H50.1A50.2 50.2 0 0 0 0 146.1V212a28 28 0 0 0 40 25.2V356a28 28 0 0 0 28 28 28 28 0 0 0 20-8.5 28 28 0 0 0 32 5.7V412a28 28 0 0 0 28 28 28 28 0 0 0 20-8.5 28 28 0 0 0 20 8.5 28 28 0 0 0 28-28h-16c0 6.6-5.4 12-12 12s-12-5.4-12-12V304h-16v108c0 6.6-5.4 12-12 12s-12-5.4-12-12V192h-16v76c0 6.6-5.4 12-12 12s-12-5.4-12-12v-65.9a34.1 34.1 0 0 1 34.1-34.1h75.8v-16H136v-12.3A47.9 47.9 0 1 0 168 56zm-60 240c4.3 0 8.4-1.1 12-2.8V356c0 6.6-5.4 12-12 12s-12-5.4-12-12v-62.8c3.6 1.7 7.7 2.8 12 2.8zm-28-93.9V356c0 6.6-5.4 12-12 12s-12-5.4-12-12V136H40v76c0 6.6-5.4 12-12 12s-12-5.4-12-12v-65.9A34.1 34.1 0 0 1 50.1 112h70.6a47.8 47.8 0 0 0 11.6 24H120v17a50.2 50.2 0 0 0-40 49.1zm88-66.1c-17.6 0-32-14.4-32-32s14.4-32 32-32 32 14.4 32 32-14.4 32-32 32z" class="st0"/>
	<path d="M200 192h16v24h-16zM136 48a48 48 0 1 0-96 0 48 48 0 0 0 96 0zM88 80c-17.6 0-32-14.4-32-32s14.4-32 32-32 32 14.4 32 32-14.4 32-32 32zM456 48a48 48 0 1 0-96 0 48 48 0 0 0 96 0zm-48 32c-17.6 0-32-14.4-32-32s14.4-32 32-32 32 14.4 32 32-14.4 32-32 32z" class="st0"/>
	<path d="M445.9 96h-70.6a48 48 0 1 0-15.3 43.7V152h-69.9v16h75.8a34.1 34.1 0 0 1 34.1 34.1V268c0 6.6-5.4 12-12 12s-12-5.4-12-12v-76h-16v220c0 6.6-5.4 12-12 12s-12-5.4-12-12V304h-16v108c0 6.6-5.4 12-12 12s-12-5.4-12-12h-16a28 28 0 0 0 28 28 28 28 0 0 0 20-8.5 28 28 0 0 0 20 8.5 28 28 0 0 0 28-28v-30.8a28 28 0 0 0 32-5.7 28 28 0 0 0 20 8.5 28 28 0 0 0 28-28V237.2a28 28 0 0 0 40-25.2v-65.9A50.2 50.2 0 0 0 445.9 96zM328 136c-17.6 0-32-14.4-32-32s14.4-32 32-32 32 14.4 32 32-14.4 32-32 32zm60 232a12 12 0 0 1-12-12v-62.8c3.6 1.7 7.7 2.8 12 2.8s8.4-1.1 12-2.8V356a12 12 0 0 1-12 12zm92-156c0 6.6-5.4 12-12 12s-12-5.4-12-12v-76h-16v220c0 6.6-5.4 12-12 12s-12-5.4-12-12V202.1a50.2 50.2 0 0 0-40-49.1v-17h-12.3a47.8 47.8 0 0 0 11.6-24h70.6a34.1 34.1 0 0 1 34.1 34.1V212z" class="st0"/>
	<g>
		<path d="M296 160a48 48 0 1 0-96 0 48 48 0 0 0 96 0z" class="st1"/>
		<path d="M285.9 208h-75.8a50.2 50.2 0 0 0-50.1 50.1V324a28 28 0 0 0 40 25.2V468a28 28 0 0 0 28 28 28 28 0 0 0 20-8.5 28 28 0 0 0 20 8.5 28 28 0 0 0 28-28V349.2a28 28 0 0 0 40-25.2v-65.9a50.2 50.2 0 0 0-50.1-50.1z" class="st1"/>
	</g>
</svg>
