<svg xmlns="http://www.w3.org/2000/svg" viewBox="0 0 384 661.33">
    <defs>
        <clipPath id="a">
            <path d="M0 496h288V0H0z"/>
        </clipPath>
    </defs>
    <g clip-path="url(#a)" transform="matrix(1.33333 0 0 -1.33333 0 661.33)">
        <path d="M144 136c-61.76 0-112 50.24-112 112s50.24 112 112 112 112-50.24 112-112-50.24-112-112-112" fill="#0fa3b1"/>
        <path d="M272 440.67V40c0-13.23-10.77-24-24-24H40c-13.23 0-24 10.77-24 24v416c0 13.23 10.77 24 24 24h208c13.23 0 24-10.77 24-24zM248 496H40c-22.06 0-40-17.94-40-40V40C0 17.94 17.94 0 40 0h208c22.06 0 40 17.94 40 40v416c0 22.06-17.94 40-40 40" fill="#0fa3b1"/>
        <path d="M86.93 258.48a57.85 57.85 0 0 0 9.17 22.28 5.97 5.97 0 0 1-.73 7.57l-6.7 6.84 8.01 8.01 6.84-6.84a5.97 5.97 0 0 1 7.58-.73 56.55 56.55 0 0 0 22.27 9.17 6.06 6.06 0 0 1 4.95 5.83v9.75h11.36v-9.75a5.82 5.82 0 0 1 4.8-5.83c8.01-1.45 15.44-4.66 22.13-9.17a5.96 5.96 0 0 1 7.57.73l7 6.99 8-8.01-6.99-6.99a5.97 5.97 0 0 1-.73-7.57 60.51 60.51 0 0 0 9.18-22.13c.58-2.77 3.05-4.95 5.82-4.95h9.9v-11.36h-9.9a5.82 5.82 0 0 1-5.82-4.8 55.9 55.9 0 0 0-9.18-22.13 5.97 5.97 0 0 1 .73-7.57l7-7-8.02-8-6.99 6.99a5.96 5.96 0 0 1-7.57.72 55.95 55.95 0 0 0-22.13-9.17 6.05 6.05 0 0 1-4.8-5.82v-9.76h-11.36v9.76a5.81 5.81 0 0 1-4.95 5.82 55.69 55.69 0 0 0-22.27 9.17 5.97 5.97 0 0 1-7.58-.72l-6.84-6.85-8 7.57 6.84 6.85a5.96 5.96 0 0 1 .72 7.57 59.07 59.07 0 0 0-9.31 22.28 5.93 5.93 0 0 1-5.83 4.8h-9.6v11.36h9.6a6.33 6.33 0 0 1 5.83 5.1m-21.55 6.98a5.9 5.9 0 0 1-5.97-5.97v-23.3a5.9 5.9 0 0 1 5.97-5.96H76.3a65.6 65.6 0 0 1 7.42-17.77l-7.57-7.57a5.97 5.97 0 0 1 0-8.44L92.6 180a5.98 5.98 0 0 1 8.45 0l7.72 7.71a70.23 70.23 0 0 1 17.76-7.28v-10.92a5.9 5.9 0 0 1 5.97-5.97h23.3a5.9 5.9 0 0 1 5.96 5.97v11.07a69.24 69.24 0 0 1 17.62 7.28l7.86-7.86a5.97 5.97 0 0 1 8.45 0l16.45 16.45a5.98 5.98 0 0 1 0 8.44l-7.86 7.87a69.2 69.2 0 0 1 7.28 17.61h11.06a5.9 5.9 0 0 1 5.97 5.97v23.3a5.9 5.9 0 0 1-5.97 5.97h-11.06a69.18 69.18 0 0 1-7.28 17.61l7.86 7.87a5.98 5.98 0 0 1 0 8.44l-16.6 16.3a5.98 5.98 0 0 1-8.44 0l-7.72-7.7a76.34 76.34 0 0 1-17.76 7.42v10.92a5.9 5.9 0 0 1-5.97 5.97h-23.3a5.9 5.9 0 0 1-5.97-5.97v-10.92a70.22 70.22 0 0 1-17.76-7.28l-7.72 7.71a5.98 5.98 0 0 1-8.44 0L76 299.4a5.98 5.98 0 0 1 0-8.44l7.57-7.57a64.7 64.7 0 0 1-7.43-17.9z" fill="#fff"/>
        <path d="M143.85 275.95a28.96 28.96 0 0 0 28.98-28.97 28.96 28.96 0 0 0-28.98-28.97 28.96 28.96 0 0 0-28.97 28.97 28.96 28.96 0 0 0 28.97 28.97m0-69.88a40.95 40.95 0 0 1 40.92 40.91 40.95 40.95 0 0 1-40.92 40.91 40.95 40.95 0 0 1-40.9-40.9 40.95 40.95 0 0 1 40.9-40.92" fill="#fff"/>
    </g>
</svg>
