<svg xmlns="http://www.w3.org/2000/svg" viewBox="0 0 384 661.33">
    <defs>
        <clipPath id="a">
            <path d="M0 496h288V0H0z"/>
        </clipPath>
    </defs>
    <g clip-path="url(#a)" transform="matrix(1.33333 0 0 -1.33333 0 661.33)">
        <path d="M144 136c-61.76 0-112 50.24-112 112s50.24 112 112 112 112-50.24 112-112-50.24-112-112-112" fill="#434a53"/>
        <path d="M144 312c35.29 0 64-28.71 64-64a63.2 63.2 0 0 0-14.02-39.9l12.48-10A79.06 79.06 0 0 1 224 248c0 44.11-35.89 80-80 80a79.2 79.2 0 0 1-49.91-17.52l10-12.5A63.3 63.3 0 0 0 144 312M144 168a79.2 79.2 0 0 1 49.91 17.52l-10 12.5A63.3 63.3 0 0 0 144 184c-35.29 0-64 28.71-64 64a63.26 63.26 0 0 0 14.02 39.91l-12.5 10A79.17 79.17 0 0 1 64 248c0-44.11 35.89-80 80-80" fill="#fff"/>
        <path d="M120 227.31l-10.34 10.35-11.32-11.32L120 204.7l69.66 69.65-11.32 11.32z" fill="#fff"/>
        <path d="M272 440.67V40c0-13.23-10.77-24-24-24H40c-13.23 0-24 10.77-24 24v416c0 13.23 10.77 24 24 24h208c13.23 0 24-10.77 24-24zM248 496H40c-22.06 0-40-17.94-40-40V40C0 17.94 17.94 0 40 0h208c22.06 0 40 17.94 40 40v416c0 22.06-17.94 40-40 40" fill="#434a53"/>
    </g>
</svg>
