<svg xmlns="http://www.w3.org/2000/svg" xmlns:xlink="http://www.w3.org/1999/xlink" viewBox="0 0 384 661.3">
    <g transform="matrix(1.33333 0 0 -1.33333 0 661.3)">
        <defs>
            <path id="a" d="M-48-82.7h384v661.3H-48z"/>
        </defs>
        <clipPath id="b">
            <use xlink:href="#a" overflow="visible"/>
        </clipPath>
        <g clip-path="url(#b)">
            <path d="M144 136a112 112 0 1 0 .1 224.1A112 112 0 0 0 144 136" fill="#434a53"/>
            <path class="st2" d="M272 440.7V40a24 24 0 0 0-24-24H40a24 24 0 0 0-24 24v416a24 24 0 0 0 24 24h208a24 24 0 0 0 24-24v-15.3zM248 496H40a40 40 0 0 1-40-40V40A40 40 0 0 1 40 0h208a40 40 0 0 1 40 40v416a40 40 0 0 1-40 40" fill="#434a53"/>
        </g>
    </g>
    <g class="st3">
        <path class="st2" fill="#fff" d="M171 285.3v87.5h-15l-33.9-47.5v47.5h-20v-87.5h15l33.7 47.5v-47.5h20.1zm7.4 19.5a21 21 0 0 1 21.6-21.2 21 21 0 0 1 21.6 21.2A21 21 0 0 1 200 326a21 21 0 0 1-21.6-21.2zm1.7 27.6h40.3v17.4h-40.3v-17.4zm26-27.6c0-3.6-2.5-6.3-6.1-6.3-3.6 0-6.1 2.7-6.1 6.3s2.5 6.2 6.1 6.2c3.9 0 6.1-2.5 6.1-6.2z"/>
    </g>
    <g class="st3">
        <path class="st2" fill="#fff" d="M269.6 285.3v87.5h-20v-66.4l-15.5 4.2-4.9-17 23-8.3h17.4z"/>
    </g>
</svg>
