<svg xmlns="http://www.w3.org/2000/svg" viewBox="0 0 384 661.333">
    <defs>
        <clipPath id="a">
            <path d="M0 496h288V0H0z"/>
        </clipPath>
    </defs>
    <g clip-path="url(#a)" transform="matrix(1.33333 0 0 -1.33333 0 661.333)">
        <path d="M144 136c-61.76 0-112 50.24-112 112s50.24 112 112 112 112-50.24 112-112-50.24-112-112-112" fill="#434a53"/>
        <path d="M272 440.666V40c0-13.232-10.768-24-24-24H40c-13.232 0-24 10.768-24 24V456c0 13.232 10.768 24 24 24h208c13.232 0 24-10.768 24-24zM248 496H40c-22.056 0-40-17.943-40-40V40C0 17.946 17.944 0 40 0h208c22.056 0 40 17.946 40 40v416c0 22.057-17.944 40-40 40" fill="#434a53"/>
        <path d="M143.999 232.023c22.026 0 39.948-17.92 39.948-39.946h-79.895c0 22.026 17.92 39.946 39.947 39.946m0 71.905c13.214 0 23.969-10.754 23.969-23.97 0-13.217-10.753-23.97-23.97-23.97-13.215 0-23.968 10.754-23.968 23.97 0 13.215 10.755 23.97 23.969 23.97M88.073 192.075v-7.99a7.993 7.993 0 0 1 7.99-7.992h95.874a7.993 7.993 0 0 1 7.99 7.992v7.99c0 24.336-15.651 45.036-37.398 52.706 12.67 6.703 21.42 19.87 21.42 35.178 0 22.025-17.921 39.947-39.95 39.947-22.026 0-39.947-17.92-39.947-39.946 0-15.307 8.748-28.474 21.42-35.177-21.748-7.67-37.4-28.372-37.4-52.708" fill="#fff"/>
    </g>
</svg>
