<svg xmlns="http://www.w3.org/2000/svg" id="Capa_1" viewBox="0 0 496 496">
	<style>
		.st0{fill:#0fa3b1}.st1{fill:#434a53}
	</style>
	<path d="M270.1 98.1L248 92.5l-22.1 5.6-1.7-23.7-11.6-19.8 20.6-8.9L248 27.3l14.9 18.4 20.6 8.9-11.6 19.8-1.8 23.7zM350.1 98.1L328 92.5l-22.1 5.6-1.7-23.7-11.6-19.8 20.6-8.9L328 27.3l14.9 18.4 20.6 8.9-11.6 19.8-1.8 23.7zM310.1 162.1l-22.1-5.6-22.1 5.6-1.7-23.7-11.6-19.8 20.6-8.9L288 91.3l14.9 18.4 20.6 8.9-11.6 19.8-1.8 23.7zM390.1 162.1l-22.1-5.6-22.1 5.6-1.7-23.7-11.6-19.8 20.6-8.9L368 91.3l14.9 18.4 20.6 8.9-11.6 19.8-1.8 23.7zM430.1 98.1L408 92.5l-22.1 5.6-1.7-23.7-11.6-19.8 20.6-8.9L408 27.3l14.9 18.4 20.6 8.9-11.6 19.8-1.8 23.7z" class="st0"/>
	<path d="M160 0v232h-26.6c-3 0-5.4-2.4-5.4-5.4l.2-1.4a91.3 91.3 0 0 0 15.8-51.6V144c0-13.2-10.8-24-24-24s-24 10.8-24 24c0 23.7-9.2 45.9-25.9 62.6L51.7 225a24 24 0 0 1-17 7H16v-16H0v152h16v-16h21.3a24 24 0 0 1 14.4 4.8l15 11.2a40 40 0 0 0 24 8H160v120h251.3l84.7-84.7V0H160zm48 248a8 8 0 0 1 8 8 8 8 0 0 1-8 8h-56a8 8 0 0 1-8-8 8 8 0 0 1 8-8h56zm8 40a8 8 0 0 1-8 8h-56c-4.4 0-8-3.6-8-8s3.6-8 8-8h56a8 8 0 0 1 8 8zm-72 32a8 8 0 0 1 8-8h56c4.4 0 8 3.6 8 8s-3.6 8-8 8h-56a8 8 0 0 1-8-8zm-67.7 35.2l-15-11.2a40 40 0 0 0-24-8H16v-88h18.7A40 40 0 0 0 63 236.3L81.3 218c19.8-19.8 30.6-46 30.6-73.9 0-4.4 3.6-8 8-8s8 3.6 8 8v29.7c0 15.6-4.7 30.6-13.6 43.4l-.9 1.6a21.3 21.3 0 0 0 16.1 28.9 23.2 23.2 0 0 0 4.6 24.4c-3.8 4.3-6.2 9.8-6.2 16s2.4 11.7 6.2 16c-3.8 4.3-6.2 9.8-6.2 16s2.4 11.7 6.2 16a24 24 0 0 0-6.2 16c0 2.8.6 5.5 1.5 8H90.7a24.7 24.7 0 0 1-14.4-4.9zM152 360c-4.4 0-8-3.6-8-8s3.6-8 8-8h56c4.4 0 8 3.6 8 8s-3.6 8-8 8h-56zm24 16h32a24 24 0 1 0 17.8-40c3.8-4.3 6.2-9.8 6.2-16s-2.4-11.7-6.2-16c3.8-4.3 6.2-9.8 6.2-16s-2.4-11.7-6.2-16a24 24 0 0 0-17.8-40h-32V16h304v384h-80v80H176V376zm292.7 40L416 468.7V416h52.7z" class="st1"/>
	<path d="M346.3 178.3L324.7 200H248v80h80v-60.7l29.7-29.7-11.4-11.3zM312 264h-48v-48h44.7L288 236.7l-10.3-10.3-11.3 11.3 21.7 21.7 24-24V264zM248 384h80v-80h-80v80zm16-64h48v48h-48v-48zM368 200h96v16h-96zM368 264h96v16h-96zM368 232h40v16h-40zM424 232h40v16h-40zM368 304h96v16h-96zM368 368h96v16h-96zM368 336h40v16h-40zM424 336h40v16h-40z" class="st1"/>
</svg>
