<svg xmlns="http://www.w3.org/2000/svg" viewBox="0 0 512 512" id="rating-menu.svg">
    <path d="M103.4 499.9a9.2 9.2 0 0 1-9-10.8L122.7 324 2.8 207.1a9.1 9.1 0 0 1-2.3-9.4c1.1-3.3 3.9-5.7 7.4-6.2l165.8-24.1 74.2-150.2c1.5-3.1 4.7-5.1 8.2-5.1 3.5 0 6.7 2 8.2 5.1l74.1 150.2 165.8 24.1c3.5.5 6.3 2.9 7.4 6.2 1.1 3.3.2 7-2.3 9.4L389.3 324l28.3 165.1c.6 3.4-.8 6.9-3.6 9a9.19 9.19 0 0 1-9.7.7l-148.3-78-148.3 78c-1.3.8-2.8 1.1-4.3 1.1zM28.9 207L139 314.3c2.2 2.1 3.1 5.1 2.6 8.1l-26 151.6 136.1-71.6c2.7-1.4 5.8-1.4 8.5 0L396.4 474l-26-151.6c-.5-3 .5-6 2.6-8.1L483.1 207 331 184.9a9 9 0 0 1-6.9-5L256 42l-68.1 137.9a9 9 0 0 1-6.9 5L28.9 207z"/>
</svg>
