<svg xmlns="http://www.w3.org/2000/svg" viewBox="0 0 12.065 12.065" id="svg8">
    <g id="layer1" transform="translate(-70.318691 -123.90202)">
        <g id="g4489" transform="matrix(.26458 0 0 .26458 70.318691 123.90202)">
            <path id="path4487" d="M22.8 0C10.2 0 0 10.2 0 22.8c0 12.6 10.2 22.8 22.8 22.8 12.6 0 22.8-10.2 22.8-22.8C45.6 10.2 35.3 0 22.8 0zm0 6.8c4.2 0 7.5 3.4 7.5 7.5 0 4.2-3.4 7.5-7.5 7.5-4.2 0-7.5-3.4-7.5-7.5-.1-4.1 3.3-7.5 7.5-7.5zm0 32.8c-4.1 0-7.9-1.5-10.9-4-.7-.6-1.1-1.5-1.1-2.4 0-4.2 3.4-7.6 7.6-7.6h8.8c4.2 0 7.6 3.4 7.6 7.6 0 .9-.4 1.8-1.1 2.4-3 2.5-6.8 4-10.9 4z" class="st0" fill="#0fa3b1"/>
        </g>
    </g>
    <g id="layer2">
        <g id="g4690" transform="translate(9.193893 9.188881) scale(.04654)">
            <g id="g6">
                <path d="M26 0C11.664 0 0 11.663 0 26s11.664 26 26 26 26-11.663 26-26S40.336 0 26 0z" id="path4694" fill="#fff"/>
                <path d="M26 47.770033C13.996548 47.770033 4.229968 38.003452 4.229968 26c0-12.003452 9.76658-21.770033 21.770032-21.770033 12.003452 0 21.770032 9.766581 21.770032 21.770033 0 12.003452-9.76658 21.770033-21.770032 21.770033z" id="path2" fill="#0fa3b1" stroke-width=".907085"/>
                <path id="path4" d="M38.5 24.5H27v-11c0-.553-.448-1-1-1s-1 .447-1 1v11H13.5c-.552 0-1 .447-1 1 0 .553.448 1 1 1H25v12c0 .553.448 1 1 1s1-.447 1-1v-12h11.5c.552 0 1-.447 1-1 0-.553-.448-1-1-1z" fill="#fff"/>
            </g>
        </g>
    </g>
</svg>
