<svg xmlns="http://www.w3.org/2000/svg" viewBox="0 0 406.7 395.9" id="reviews"><path d="M203.1 0C104 0 21.5 56.7 3.6 131.5a126.5 126.5 0 0 0-.2 59.1l1.2 4.7.3 1c8.3 28.5 24.7 54 47.4 73.3 1.3 1.2 41.1 40.4 117 51l1 .1 1.2.2a325.3 325.3 0 0 0 32.7 2.3c6 .1 12.4 0 18.8-.5 7.4-.6 14.8-1.4 22.2-2.6l80.5 73.7a7.6 7.6 0 0 0 12.8-5.6V282.6c43.2-30.7 68-74.5 68-120.7C406.6 72.7 315.3 0 203.1 0zm123.6 272.2a7.7 7.7 0 0 0-3.4 6.3v92L252.8 306a7.7 7.7 0 0 0-5.2-2h-1.4a224.7 224.7 0 0 1-40.9 3.8c-74.2 0-119.1-28.8-141-47.3a152.2 152.2 0 0 1-46.8-73.4c-2-8.4-3-17-3.1-25.7.6-80.3 85-146.2 188.7-146.2s188.1 65.7 188.1 146.5c0 42.4-23.5 82.6-64.5 110.5z"/></svg>