<svg xmlns="http://www.w3.org/2000/svg" xmlns:xlink="http://www.w3.org/1999/xlink" viewBox="0 0 623.73 676.87"><defs><style>.cls-1{fill:none;}.cls-2{isolation:isolate;}.cls-3{fill:#cdccc7;}.cls-4{fill:#ff5b4a;}.cls-22,.cls-28,.cls-5{fill:#7466a4;}.cls-13,.cls-18,.cls-5{opacity:0.5;}.cls-21,.cls-28,.cls-32,.cls-5{mix-blend-mode:multiply;}.cls-31,.cls-6{fill:#f6c47f;}.cls-7{fill:#ce9755;}.cls-8{fill:#f99770;}.cls-9{fill:url(#linear-gradient);}.cls-10{fill:#fff;}.cls-11{fill:#abb1bd;}.cls-12,.cls-49{opacity:0.4;}.cls-12,.cls-18{mix-blend-mode:overlay;}.cls-14{fill:#bdcad3;}.cls-15{fill:url(#linear-gradient-2);}.cls-16{fill:#d0d0d8;}.cls-17{fill:#afa9a3;}.cls-19{fill:#c4bab1;}.cls-20,.cls-28{opacity:0.3;}.cls-21,.cls-32,.cls-55{opacity:0.2;}.cls-23{fill:#757575;}.cls-24{fill:#4c3c3c;}.cls-25{fill:#423333;}.cls-26{fill:#594848;}.cls-27{fill:#ad734d;}.cls-29{fill:#ffebd4;}.cls-30,.cls-32{fill:#302e2e;}.cls-31{stroke:#f6c47f;stroke-miterlimit:10;stroke-width:6.28px;}.cls-33{fill:#bf2640;}.cls-34{fill:#f98595;}.cls-35{fill:#fffefa;}.cls-36{fill:#f99b46;}.cls-37{fill:#898c1b;opacity:0.3;}.cls-38{fill:#c36b32;}.cls-39{fill:#cfd32a;}.cls-40{fill:#891800;}.cls-41{fill:#aa9f25;}.cls-42{fill:#f7ba2c;}.cls-43{fill:#d12b15;}.cls-44{fill:#e23a1a;}.cls-45{fill:#9f1c00;}.cls-46{fill:#b4250f;}.cls-47{fill:#c33213;}.cls-48{fill:url(#linear-gradient-3);}.cls-49{fill:#ffe04a;}.cls-50{fill:#cfc91e;}.cls-51{fill:url(#linear-gradient-4);}.cls-52{clip-path:url(#clip-path);}.cls-53{clip-path:url(#clip-path-2);}.cls-54{fill:#5d5d5d;}.cls-56{fill:#e6e8e5;}</style><linearGradient id="linear-gradient" x1="175.67" y1="634.93" x2="367.81" y2="25.38" gradientUnits="userSpaceOnUse"><stop offset="0.15" stop-color="#70c0ff"/><stop offset="0.2" stop-color="#65ade5"/><stop offset="0.33" stop-color="#4a7fa9"/><stop offset="0.45" stop-color="#345976"/><stop offset="0.57" stop-color="#21394b"/><stop offset="0.69" stop-color="#13202b"/><stop offset="0.8" stop-color="#080e13"/><stop offset="0.91" stop-color="#020405"/><stop offset="1"/></linearGradient><linearGradient id="linear-gradient-2" x1="491.28" y1="623.44" x2="409.53" y2="89.63" gradientUnits="userSpaceOnUse"><stop offset="0" stop-color="#70c0ff"/><stop offset="0.12" stop-color="#5896c7"/><stop offset="0.24" stop-color="#416f93"/><stop offset="0.37" stop-color="#2d4d66"/><stop offset="0.5" stop-color="#1d3141"/><stop offset="0.63" stop-color="#101c25"/><stop offset="0.75" stop-color="#070c10"/><stop offset="0.88" stop-color="#020304"/><stop offset="1"/></linearGradient><linearGradient id="linear-gradient-3" x1="2131.42" y1="-1278.78" x2="2124.61" y2="-1229.59" gradientTransform="matrix(1.35, 0, 0, 1.35, -2513.73, 1818.67)" gradientUnits="userSpaceOnUse"><stop offset="0" stop-color="#ffad57"/><stop offset="0.27" stop-color="#ffb05a"/><stop offset="0.49" stop-color="#ffb864"/><stop offset="0.69" stop-color="#fec575"/><stop offset="0.88" stop-color="#fed88d"/><stop offset="1" stop-color="#fde7a0"/></linearGradient><linearGradient id="linear-gradient-4" x1="-769.45" y1="1429.4" x2="-723.2" y2="923.97" gradientTransform="translate(981.23 -645.78) scale(0.87)" gradientUnits="userSpaceOnUse"><stop offset="0.04" stop-color="#70c0ff"/><stop offset="0.15" stop-color="#5ea1d6"/><stop offset="0.33" stop-color="#427196"/><stop offset="0.49" stop-color="#2a4860"/><stop offset="0.65" stop-color="#182937"/><stop offset="0.79" stop-color="#0b1319"/><stop offset="0.91" stop-color="#030506"/><stop offset="1"/></linearGradient><clipPath id="clip-path"><polygon class="cls-1" points="304.77 456.82 304.73 424.58 354.37 453.24 354.4 485.48 304.77 456.82"/></clipPath><clipPath id="clip-path-2"><polygon class="cls-1" points="308.69 448.46 308.54 433.61 347.88 460.14 348.03 474.99 308.69 448.46"/></clipPath></defs><title>2Asset 1</title><g class="cls-2"><g id="Layer_2" data-name="Layer 2"><g id="Layer_1-2" data-name="Layer 1"><polygon class="cls-3" points="623.73 486.44 295.44 267.73 12.04 451.29 338.78 669.36 623.73 486.44"/><path class="cls-4" d="M130.42,149.37H117.86V391.7s34,27.22,34.54,28.79S199,201.71,199,201.71Z"/><polygon class="cls-5" points="374.39 593.46 442.94 602.53 623.73 486.44 540.5 431.99 471.35 454.01 414.04 475.46 400.27 497.23 377.54 543.65 374.39 593.46"/><polygon class="cls-6" points="127.71 427.67 127.71 201.47 377.82 367.44 377.82 587.89 127.71 427.67"/><polygon class="cls-7" points="374.39 593.46 545.95 485.16 545.95 256.93 374.39 365.22 374.39 593.46"/><polygon class="cls-8" points="545.95 256.93 293.27 89.25 121.83 197.51 374.51 365.18 545.95 256.93"/><polygon class="cls-9" points="138.57 414.35 138.57 231.26 362.81 381.54 362.81 562.63 138.57 414.35"/><path class="cls-10" d="M140.14,234.2l221.1,148.17V559.71L140.14,413.5V234.2ZM137,228.31V415.19l1.41.93L359.5,562.33l4.88,3.22V380.7l-1.4-.93L141.89,231.59,137,228.31Z"/><polygon class="cls-11" points="146.08 411.39 140.1 413.44 140.1 234.2 146.08 238.31 146.08 411.39"/><g class="cls-12"><g class="cls-13"><polygon class="cls-14" points="207.88 455.38 179.32 436.72 238.94 302.2 267.89 322.09 207.88 455.38"/></g></g><polygon class="cls-15" points="387.7 383.05 534.46 287.35 534.46 473.69 387.7 565.16 387.7 383.05"/><path class="cls-16" d="M532.89,290.25V472.82L389.27,562.33V383.9l143.62-93.65Zm3.14-5.8-4.85,3.17L387.55,381.27l-1.42.93V568l4.8-3,143.62-89.51,1.48-.92V284.45Z"/><polygon class="cls-17" points="532.86 473.42 524.04 469.6 524.04 295.82 532.86 289.36 532.86 473.42"/><g class="cls-13"><polygon class="cls-17" points="523.92 469.98 515.1 466.15 515.1 301.94 523.92 296.05 523.92 469.98"/></g><g class="cls-18"><g class="cls-13"><polygon class="cls-14" points="472.02 510.51 444.45 527.26 420.73 363.61 448.29 345.81 472.02 510.51"/></g></g><polygon class="cls-19" points="524.04 469.6 532.67 473.41 389.27 562.33 389.27 551.6 524.04 469.6"/><g class="cls-20"><polygon class="cls-19" points="514.97 465.76 523.6 469.57 389.32 551.25 389.32 540.52 514.97 465.76"/></g><g class="cls-21"><path class="cls-22" d="M54.51,457.53h-.25l-22.73-1.28a4.48,4.48,0,1,1,.5-8.95l22.73,1.28a4.48,4.48,0,0,1-.25,8.95Z"/></g><g class="cls-21"><path class="cls-22" d="M154.08,524.13h-.25l-22.74-1.28a4.48,4.48,0,1,1,.51-9l22.73,1.28a4.48,4.48,0,0,1-.25,9Z"/></g><g class="cls-21"><path class="cls-22" d="M254,591.2h-.26L231,589.91a4.48,4.48,0,1,1,.51-8.95l22.73,1.28a4.48,4.48,0,0,1-.25,9Z"/></g><g class="cls-21"><path class="cls-22" d="M353.05,657.79h-.25l-22.73-1.28a4.48,4.48,0,1,1,.5-9l22.73,1.28a4.48,4.48,0,0,1-.25,9Z"/></g><path class="cls-23" d="M34.7,404.76A4.69,4.69,0,1,0,27,401.19a4.64,4.64,0,0,0,1.67,3.57,6.35,6.35,0,0,0-3.38,5.61V450.7c0,3.54,2.87,5.34,6.4,5.34s6.41-1.8,6.41-5.34V410.37A6.37,6.37,0,0,0,34.7,404.76Z"/><path class="cls-23" d="M134.87,471.63a4.7,4.7,0,1,0-6.05,0,6.4,6.4,0,0,0-3.38,5.61v40.34c0,3.54,2.87,5.34,6.4,5.34s6.41-1.8,6.41-5.34V477.24A6.4,6.4,0,0,0,134.87,471.63Z"/><path class="cls-23" d="M235,538.51a4.7,4.7,0,1,0-6,0,6.38,6.38,0,0,0-3.38,5.61v40.34c0,3.53,2.87,5.33,6.41,5.33s6.4-1.8,6.4-5.33V544.12A6.37,6.37,0,0,0,235,538.51Z"/><path class="cls-23" d="M335.21,605.38a4.69,4.69,0,1,0-6,0,6.37,6.37,0,0,0-3.38,5.61v40.34c0,3.53,2.87,5.33,6.41,5.33s6.4-1.8,6.4-5.33V611A6.38,6.38,0,0,0,335.21,605.38Z"/><polygon class="cls-24" points="551.37 259.02 551.37 248.71 293.54 88.09 116.41 189.3 116.41 199.6 374.24 370.53 551.37 259.02"/><polygon class="cls-25" points="293.54 88.09 278.89 95.49 374.24 360.22 374.02 370.39 374.24 370.53 551.37 259.02 551.37 248.71 293.54 88.09"/><polygon class="cls-26" points="552.06 248.29 293.54 77.78 116.41 189.3 374.24 360.22 552.06 248.29"/><polygon class="cls-27" points="533.19 248.72 292.64 88.7 134.59 189.29 375.13 349.31 533.19 248.72"/><polygon class="cls-25" points="292.64 88.7 134.59 189.29 145.07 196.21 292.64 100.76 292.64 88.7"/><polygon class="cls-24" points="292.64 100.76 524.79 254.05 533.19 248.72 292.64 88.7 292.64 100.76"/><polygon class="cls-28" points="346.55 293.27 413.63 300.01 480.32 257.54 319.89 151.81 290 155.67 370.96 194.71 348.23 241.13 346.55 293.27"/><polygon class="cls-29" points="146.08 411.39 140.14 413.5 361.24 559.97 361.24 552.38 146.08 411.39"/><polygon class="cls-11" points="221.19 460.59 212.37 464.93 212.37 282.18 221.19 288.68 221.19 460.59"/><polygon class="cls-30" points="296.03 509.73 287.21 515 287.21 332.61 296.03 338.76 296.03 509.73"/><polygon class="cls-31" points="207.88 470.03 212.37 474.22 212.37 275.9 207.88 272.89 207.88 470.03"/><polygon class="cls-31" points="282.55 524.47 287.04 528.65 286.65 326.54 282.55 324.18 282.55 524.47"/><polygon class="cls-32" points="151.01 414.44 140.19 413.5 140.19 234.16 151.01 241.66 151.01 414.44"/><polygon class="cls-32" points="226.42 463.95 215.6 463.4 215.6 284.67 226.42 292.17 226.42 463.95"/><polygon class="cls-32" points="301.07 512.91 290.25 512.91 290.25 334.69 301.07 342.08 301.07 512.91"/><polygon class="cls-33" points="164.66 159.01 173.31 164.72 173.31 178.02 346.55 293.27 382.17 271.42 382.17 151.84 153.09 0 158.56 162.83 164.66 159.01"/><polygon class="cls-4" points="164.66 159.01 173.31 164.72 173.31 178.02 346.55 293.27 346.98 293 346.98 157.48 117.9 22.39 117.9 188.36 164.66 159.01"/><polygon class="cls-34" points="382.18 151.87 153.1 0.03 117.78 22.31 346.87 174.15 382.18 151.87"/><polygon class="cls-28" points="382.44 345.11 156.46 195.04 178.15 181.03 173.31 164.72 134.59 189.29 375.13 349.31 382.44 345.11"/><g class="cls-2"><path class="cls-4" d="M376.53,218.74c9.64,5.56,4.49,16.39,12.79,16.47,5.73,0,25.37-9.29,30.14-11.61,15.08-7.37,24.7-26.16,24.67-53.39-.05-48.31-30.47-105.15-67.79-126.71-24-13.85-48.08-7.53-64.13,5-9.29,7.27-3.48,26.24-3.46,43.5.05,48.31,30.45,105.16,67.78,126.71Z"/><path class="cls-35" d="M355.41,63.48c-32.68-18.87-59.22.19-59.18,42.49S322.9,198,355.58,216.9v0c32.68,18.86,59.23-.2,59.19-42.49S388.1,82.35,355.41,63.48Z"/><path class="cls-4" d="M355.4,52.57c-37.32-21.55-67.64.23-67.59,48.54s30.45,105.15,67.78,126.7V216.9C322.9,198,296.28,148.27,296.23,106s26.5-61.36,59.18-42.49,59.31,68.63,59.36,110.94-26.51,61.35-59.19,42.49v10.9c37.32,21.55,67.64-.22,67.59-48.52S392.73,74.13,355.4,52.57Z"/></g><g class="cls-2"><path class="cls-36" d="M401.76,191.56l-7.94-3.44-15.41-8-17.05-4.74L339,157.52l-8.07-.75L324.12,150l-7.06-2.29-2.29-3.81-5.61-4.29c2.42,16.12,14.57,24.82,30.84,34.22,4.82,2.78,10,5.62,15.38,8.73s10.58,6.26,15.41,9c16.78,9.7,29.19,15.06,31,0Zm-92.95-55.37h0c0,.65.09,1.28.16,1.91l-.15-1.9ZM402,187.39l-.09,0,0,2.06c0-.65.05-1.33.05-2Z"/><path class="cls-37" d="M309,138.09l.12,1.46.08.06c-.07-.5-.14-1-.2-1.52Zm93,51.34c0,.75-.09,1.46-.17,2.13l.23.1-.06-2.23Z"/><path class="cls-38" d="M401.89,187.37l-.31-.05L393.82,186,378.41,175.9l-6.05-.63-11-1.15L344.06,159,339,154.55l-2.61.11-5.46.21L326.55,149l-2.44-3.28-3.2-.13-4.31-.17L315.53,142l-.77-2.42-5.26-3-.69-.39.15,1.9c.06.51.13,1,.2,1.52l5.61,4.29,2.29,3.81,7.06,2.29,6.79,6.77,8.07.75,22.38,17.91,17.05,4.74,15.41,8,7.94,3.44c.08-.67.14-1.38.17-2.13Z"/><path class="cls-39" d="M402.43,184.71c-2,1.48-6.81-.54-13.57-4.41l-.2-.12-.3-.16c-3.16-1.83-6.72-4-10.61-6.47-6.84-4.29-14.66-9.28-23-14.08L352.16,158c-12-6.78-22.81-12-31-16.73-6.48-3.74-11.25-7.13-13.55-10.67l-2.25,3.66,3.39,2h0l.69.39,5.26,3,.77,2.42,1.07,3.39,4.31.17,3.2.13,2.44,3.28,4.36,5.86,5.46-.21,2.61-.11,5.08,4.45,17.29,15.12,11,1.15,6.05.63L393.82,186l7.76,1.34.31.05.09,0,2.84,5.43-2.39-8.11Z"/><path class="cls-40" d="M306.14,125.84c0-10.58,24.32,7.79,48.65,21.84,4.67,2.71,9.35,5.31,13.85,7.81,18.92,10.49,34.79,19.22,34.8,26.54,0,10.46-21.78-7-48.65-22.56s-48.64-23.18-48.65-33.63Z"/><path class="cls-41" d="M388.86,180.3l-.2-.12.2.12Zm-34.07-20.83c8.3,4.8,16.12,9.79,23,14.08-6.84-4.3-14.66-9.28-23-14.08Zm0,0L352.16,158l2.63,1.51Z"/><path class="cls-42" d="M397.89,171.55c-1.2,1.12-8.93-1.77-18.32-7-.82-.45-1.63-.9-2.42-1.36-7.73-4.47-14-9.05-15.72-11.48,0,.56,0,1,0,1.13,0,1.86-8.47-1.74-19.79-8.28-1.9-1.1-3.9-2.29-5.95-3.55-12.59-7.73-23-15.56-25.17-18.74a2.28,2.28,0,0,0-1.11.39c-.38.29-.53.79-.06,1.64a30.06,30.06,0,0,0,3.29,4.54,84.89,84.89,0,0,0,7.68,7.72c1.77,1.59,3.32,2.88,4.3,3.69.69.57,1.11.89,1.11.89l2.26.93,2.64,1.07c7.56,3.09,22.1,9.05,30.72,12.65,0,0,8.51,5.12,15.55,9.51,1.24.78,2.43,1.49,3.55,2.14a80.29,80.29,0,0,0,13,6.16c2.44.88,4.3,1.4,5.72,1.87.33.11.44-.08.43-.42a8.61,8.61,0,0,0-1.16-3.09,5.92,5.92,0,0,0-.49-.46Z"/><path class="cls-43" d="M394.21,167.52l-5.92-1L380,160.94l-5.87-2.15-12.69-8.67c0,.59,0,1.17,0,1.64,1.73,2.43,8,7,15.72,11.48.79.46,1.6.91,2.42,1.36,9.39,5.18,17.12,8.07,18.32,7a.53.53,0,0,0,.17-.41c0-.13,0-.46,0-.89l-3.83-2.73Z"/><path class="cls-44" d="M314.24,119.6l-4.06-1.86c0,1.52-.07,3.26-.08,3.61a1.92,1.92,0,0,0,.4,1c2.14,3.18,12.58,11,25.17,18.74,2.05,1.26,4.05,2.45,5.95,3.55,11.32,6.54,19.75,10.14,19.79,8.28,0-.15,0-.57,0-1.13s0-1,0-1.64l-.7-.48-14.67-2.95-11.75-12.84-12.66-5.15-3.87-6.21c-1.35-1-2.56-2-3.58-2.89Z"/><path class="cls-45" d="M316.73,120.74l-2.49-1.14c1,.88,2.23,1.85,3.58,2.89l-1.09-1.75Z"/><path class="cls-37" d="M398,166.83c0,.86,0,2.42.05,3.42l.16.11-.16-3.48-.05,0ZM360.77,145h0a4.57,4.57,0,0,1,.29.36.19.19,0,0,1,.08-.07l-.33-.29Z"/><path class="cls-46" d="M397.78,166.63c-.82.66-4.19-.25-8.91-2.3l-.58.08-1-.8c-2.36-1.09-5-2.42-7.79-4-.84-.46-1.67-.93-2.48-1.4s-1.77-1-2.62-1.55l-.22,0-.34-.3c-6-3.67-10.64-7.2-12.29-9.31,0,.48,0,1.8-.06,3.07l12.69,8.67,5.87,2.15,8.26,5.61,5.92,1,3.83,2.73c0-1,0-2.56-.05-3.42l-.21-.2Z"/><path class="cls-40" d="M380,157.89l-5.65-1.19c.85.52,1.73,1,2.62,1.55s1.64.94,2.48,1.4c2.79,1.54,5.43,2.87,7.79,4L380,157.89ZM361.1,145.3a.19.19,0,0,0-.08.07,2.14,2.14,0,0,1,.52,1.14.42.42,0,0,1-.11.3l.1.05v.19c1.65,2.11,6.32,5.64,12.29,9.31L361.1,145.3Zm33.42,18.21-5.65.82c4.72,2,8.09,3,8.91,2.3l-3.26-3.12Z"/><path class="cls-47" d="M361.53,146.86l-.1-.05c-.56.59-3.2-.18-7.2-2l-8.13-.25-5.6-7.05c-1.52-.89-3.09-1.83-4.69-2.82-4.13-2.53-8-5.08-11.48-7.47l-2.64-.67-1.36-2.18c-.89-.64-1.73-1.28-2.51-1.88l3.87,6.21,12.66,5.15,11.75,12.84,14.67,2.95.7.48c0-1.27,0-2.59.06-3.07v-.19Z"/><path class="cls-37" d="M310.25,115.1,310,115l0,2.7.16.08c0-1.29.05-2.41.05-2.41l.1.07a1.35,1.35,0,0,1-.08-.3Z"/><path class="cls-47" d="M310.23,115.33s0,1.12-.05,2.41l4.06,1.86c-2.17-1.86-3.55-3.32-3.91-4.2l-.1-.07Z"/><path class="cls-40" d="M360.73,145l-6.5-.2c4,1.82,6.64,2.59,7.2,2a.42.42,0,0,0,.11-.3,2.14,2.14,0,0,0-.52-1.14,4.57,4.57,0,0,0-.29-.36Zm-26.38-15.26-10-2.53c3.45,2.39,7.35,4.94,11.48,7.47,1.6,1,3.17,1.93,4.69,2.82l-6.15-7.76Zm-17.62-11.14-6.48-3.51a1.35,1.35,0,0,0,.08.3c.36.88,1.74,2.34,3.91,4.2l2.49,1.14,1.09,1.75c.78.6,1.62,1.24,2.51,1.88l-3.6-5.76Z"/><path class="cls-39" d="M399.46,160.68c-3.21,3-13.06-1.84-25.19-8.82l-.35-.2-.19-.12c-2.49-1.43-5.06-2.95-7.69-4.51-4-2.35-8-4.77-12.09-7.12s-7.9-4.5-11.74-6.65c-2.7-1.52-5.34-3-7.89-4.47l-.29-.17-.28-.17c-11.19-6.47-20.45-12.54-24.4-18.7l-3.26,3.11L310,115l.27.14,6.48,3.51,3.6,5.76,1.36,2.18,2.64.67,10,2.53,6.15,7.76,5.6,7.05,8.13.25,6.5.2h0l.33.29,12.72,11.06.34.3.22,0,5.65,1.19,7.24,5.72,1,.8.58-.08,5.65-.82,3.26,3.12.21.2.05,0,4.74,4.53-3.32-10.73Z"/><path class="cls-48" d="M374.27,151.86l-.35-.2.35.2Zm-39.95-23.07-.29-.17.29.17ZM366,147c2.63,1.56,5.2,3.08,7.69,4.51-2.49-1.43-5.06-2.95-7.69-4.51ZM354,139.91c-3.95-2.29-7.9-4.5-11.74-6.65,3.84,2.15,7.79,4.36,11.74,6.65Zm-46.64-36.38a11.47,11.47,0,0,0,2,6.22c3.95,6.16,13.21,12.23,24.4,18.7-14.93-8.63-26.43-16.55-26.44-24.92Zm93.26,53.27v0Zm0-.59v0Zm0-.57v0Zm0-.53a.15.15,0,0,0,0,.07.15.15,0,0,1,0-.07Zm0-.6a.45.45,0,0,1,0,.11.45.45,0,0,0,0-.11Zm0-.6c0,.05,0,.09,0,.13s0-.08,0-.13Zm-.05-.57s0,.06,0,.09,0-.06,0-.09Zm-.05-.55c0,.05,0,.09,0,.13s0-.08,0-.13Zm-.07-.6a.89.89,0,0,0,0,.15.89.89,0,0,1,0-.15Zm-.08-.62,0,.16,0-.16Zm-.08-.6,0,.21,0-.21Zm-.08-.54,0,.19,0-.19Zm-.1-.63c0,.07,0,.15,0,.22s0-.15,0-.22Zm-.11-.64c0,.08,0,.17.05.25,0-.08,0-.17-.05-.25Zm-.12-.66c0,.14.05.28.08.42,0-.14,0-.28-.08-.42Zm-.13-.66.09.48-.09-.48Zm-.09-.46.06.3-.06-.3Zm-.15-.66c0,.17.08.34.11.5,0-.16-.07-.33-.11-.5Zm-.16-.72c0,.19.09.39.13.58,0-.19-.09-.39-.13-.58Zm-7.66-19.42A79.27,79.27,0,0,1,399.14,146a79.27,79.27,0,0,0-7.64-19.37Zm-.35-.63.29.53-.29-.53Zm-.25-.45c.05.09.1.17.14.26,0-.09-.09-.17-.14-.26Zm-.36-.63.12.22-.12-.22Zm-.33-.58a.75.75,0,0,0,.07.12.75.75,0,0,1-.07-.12Zm-.32-.55a.43.43,0,0,0,0,.07.16.16,0,0,1,0-.07Zm-.36-.6,0,0,0,0ZM353.89,87.26c-25.57-14.78-46.32-7.68-46.58,15.78,0-1,.07-2,.16-3,2,10.65,23,23.84,44,36,8.33,4.81,17,10.28,24.5,14.64,12.42,7.17,21.83,11.27,21.82,4.24,0-11.23-2-21.6-15-41.71a101,101,0,0,0-28.85-25.9Z"/><path class="cls-49" d="M400.57,157.58a4.15,4.15,0,0,1-1.11,3.1h0a4.13,4.13,0,0,0,1.11-3.1ZM307.31,103v0Zm93.26,53.84c0,.17,0,.34,0,.51,0-.17,0-.34,0-.51Zm0-.57c0,.16,0,.33,0,.49,0-.16,0-.33,0-.49Zm0-.58c0,.16,0,.32,0,.48,0-.16,0-.32,0-.48Zm0-.55c0,.15,0,.31,0,.46,0-.15,0-.31,0-.46Zm0-.56,0,.49,0-.49Zm0-.58c0,.16,0,.32,0,.47,0-.15,0-.31,0-.47Zm-.05-.61c0,.16,0,.33,0,.48,0-.15,0-.32,0-.48Zm-.05-.51c0,.14,0,.28,0,.42,0-.14,0-.28,0-.42Zm-.06-.58c0,.15,0,.3.05.45,0-.15,0-.3-.05-.45Zm-.07-.61c0,.15,0,.3.05.46,0-.16,0-.31-.05-.46Zm-.08-.55c0,.13,0,.26.05.39,0-.13,0-.26-.05-.39Zm-.08-.56c0,.12,0,.23.05.35,0-.11,0-.23-.05-.35ZM400,150l.06.41L400,150Zm-.1-.61.06.39-.06-.39Zm-.09-.49c0,.08,0,.16,0,.24,0-.08,0-.16,0-.24Zm-.12-.6a1.16,1.16,0,0,1,0,.18,1.16,1.16,0,0,0,0-.18Zm-.12-.64,0,.16,0-.16Zm-.1-.46a.75.75,0,0,0,0,.16.75.75,0,0,1,0-.16Zm-.14-.64,0,.14,0-.14Zm-.15-.63,0,.05,0-.05Zm-7.7-19.47.06.1-.06-.1Zm-.4-.72.11.19-.11-.19Zm-.38-.67.24.41-.24-.41Zm-.38-.68.26.46-.26-.46Zm-.35-.6c.09.16.18.32.28.48-.1-.16-.19-.32-.28-.48Zm-.38-.63.34.56-.34-.56Zm-6.83-10.06,0,0a105.19,105.19,0,0,1,6.79,10,107.88,107.88,0,0,0-6.81-10Z"/><path class="cls-50" d="M373.73,151.54l.19.12-.19-.12Zm-40-23.09.28.17-.28-.17Zm8.46,4.81c-2.7-1.52-5.34-3-7.89-4.47,2.55,1.46,5.19,3,7.89,4.47ZM354,139.91c4.07,2.35,8.14,4.77,12.09,7.12-4-2.35-8-4.77-12.09-7.12Zm45.51,20.77c-3.21,3-13.06-1.84-25.19-8.82,12.13,7,22,11.81,25.19,8.82Z"/><path class="cls-36" d="M382.74,113.16c13,20.11,15,30.48,15,41.71,0,7-9.4,2.93-21.82-4.24-7.53-4.36-16.17-9.83-24.5-14.64-21-12.11-41.95-25.3-44-35.95-.09,1-.15,2-.16,3v.49c0,8.37,11.51,16.29,26.44,24.92l.28.17.29.17c2.55,1.46,5.19,3,7.89,4.47,3.84,2.15,7.79,4.36,11.74,6.65s8.14,4.77,12.09,7.12c2.63,1.56,5.2,3.08,7.69,4.51l.19.12.35.2c12.13,7,22,11.81,25.19,8.82a4.15,4.15,0,0,0,1.11-3.1c0-.06,0-.13,0-.19s0-.34,0-.51v-.08c0-.16,0-.33,0-.49v-.1c0-.16,0-.32,0-.48v-.09c0-.15,0-.31,0-.46a.15.15,0,0,1,0-.07l0-.49a.45.45,0,0,0,0-.11c0-.15,0-.31,0-.47s0-.08,0-.13,0-.32,0-.48,0-.06,0-.09,0-.28,0-.42,0-.08,0-.13,0-.3-.05-.45a.89.89,0,0,1,0-.15c0-.16,0-.31-.05-.46l0-.16c0-.13,0-.26-.05-.39l0-.21c0-.12,0-.23-.05-.35l0-.19L400,150c0-.07,0-.15,0-.22l-.06-.39c0-.08,0-.17-.05-.25s0-.16,0-.24,0-.28-.08-.42a1.16,1.16,0,0,0,0-.18l-.09-.48,0-.16-.06-.3a.75.75,0,0,1,0-.16c0-.16-.07-.33-.11-.5l0-.14c0-.19-.09-.39-.13-.58l0-.05a79.27,79.27,0,0,0-7.64-19.37l-.06-.1-.29-.53-.11-.19c0-.09-.09-.17-.14-.26l-.24-.41-.12-.22-.26-.46a.75.75,0,0,1-.07-.12c-.1-.16-.19-.32-.28-.48a.43.43,0,0,1,0-.07l-.34-.56,0,0a105.19,105.19,0,0,0-6.79-10Z"/></g><polygon class="cls-10" points="364.58 586.4 289.27 537.73 289.27 330.72 364.58 380.71 364.58 586.4"/><polygon class="cls-51" points="359.6 570.23 295.17 527.32 295.17 340.73 359.6 383.85 359.6 570.23"/><polygon class="cls-10" points="363.59 518.8 291.89 472.45 291.89 464.19 363.59 510.77 363.59 518.8"/><g class="cls-13"><rect class="cls-10" x="328.45" y="326.87" width="2.09" height="71.69" transform="translate(-154.99 436.19) rotate(-56.37)"/></g><g class="cls-13"><rect class="cls-10" x="328.45" y="333.63" width="2.09" height="71.69" transform="translate(-160.63 439.19) rotate(-56.37)"/></g><g class="cls-13"><rect class="cls-10" x="328.45" y="340.39" width="2.09" height="71.69" transform="translate(-166.26 442.2) rotate(-56.37)"/></g><g class="cls-13"><rect class="cls-10" x="328.45" y="347.16" width="2.09" height="71.69" transform="translate(-171.89 445.22) rotate(-56.37)"/></g><g class="cls-13"><rect class="cls-10" x="328.45" y="354.15" width="2.09" height="72.28" transform="translate(-178.62 442.35) rotate(-55.68)"/></g><g class="cls-13"><rect class="cls-10" x="328.45" y="361.5" width="2.09" height="71.12" transform="translate(-182.89 457.77) rotate(-57.07)"/></g><g class="cls-13"><rect class="cls-10" x="328.45" y="369.07" width="2.09" height="70.56" transform="translate(-188.25 467.56) rotate(-57.78)"/></g><g class="cls-13"><rect class="cls-10" x="328.45" y="374.67" width="2.09" height="72.87" transform="translate(-196.25 445.2) rotate(-55)"/></g><g class="cls-13"><rect class="cls-10" x="328.45" y="380.98" width="2.09" height="71.69" transform="translate(-200.05 460.32) rotate(-56.37)"/></g><g class="cls-13"><rect class="cls-10" x="328.45" y="384.82" width="2.09" height="71.69" transform="translate(-203.24 462.03) rotate(-56.37)"/></g><g class="cls-13"><rect class="cls-10" x="328.45" y="382.72" width="2.09" height="71.69" transform="translate(-201.5 461.09) rotate(-56.37)"/></g><g class="cls-13"><rect class="cls-10" x="328.45" y="387.74" width="2.09" height="71.69" transform="translate(-205.68 463.33) rotate(-56.37)"/></g><g class="cls-2"><g class="cls-52"><polygon class="cls-10" points="305.7 425.14 304.76 454.16 353.44 484.92 354.37 455.89 305.7 425.14 305.7 425.14"/></g></g><g class="cls-2"><g class="cls-53"><path class="cls-54" d="M313.18,449.07a4.16,4.16,0,0,1-1.64-2.58c-.13-.59-.23-1.14-.29-1.64s-.09-1.07-.1-1.68c0-.41,0-.88,0-1.39a5.76,5.76,0,0,1,.2-1.37,1.43,1.43,0,0,1,.54-.85c.25-.15.62-.08,1.1.24l.07,0a3.32,3.32,0,0,1,1.09,1.21,6.59,6.59,0,0,1,.61,1.62,11.68,11.68,0,0,1,.26,1.76c0,.58.07,1.11.08,1.58a14.47,14.47,0,0,1,0,1.48,3.68,3.68,0,0,1-.26,1.22,1.09,1.09,0,0,1-.58.64,1.1,1.1,0,0,1-1-.24l-.05,0Zm-.11-11.63-.14-.1a4.3,4.3,0,0,0-1.87-.75,1.64,1.64,0,0,0-1.37.44,3.17,3.17,0,0,0-.84,1.65,11.3,11.3,0,0,0-.23,2.87,14.05,14.05,0,0,0,1.77,6.89,9.2,9.2,0,0,0,2.78,3l.12.08a4.37,4.37,0,0,0,1.88.76,1.68,1.68,0,0,0,1.38-.43,3.37,3.37,0,0,0,.84-1.64,11,11,0,0,0,.22-2.87,16.09,16.09,0,0,0-.38-3.26,13.85,13.85,0,0,0-1-2.81,10.28,10.28,0,0,0-1.46-2.29,8.67,8.67,0,0,0-1.75-1.58Z"/><path class="cls-54" d="M322.84,446.35l.15.1.63.41,0,0a2.37,2.37,0,0,1,.58.56,3.3,3.3,0,0,1,.43.78,5.09,5.09,0,0,1,.26.89,5.76,5.76,0,0,1,.1.91,5.31,5.31,0,0,1-.06.83,1.16,1.16,0,0,1-.23.56.49.49,0,0,1-.42.21,1.19,1.19,0,0,1-.68-.25l-.33-.2-.67-.4-.12-4.65.33.23Zm.94-1.8-.13-.08-1.32-.84-2.18-1.36-.11.08.35,13.51a9.31,9.31,0,0,0,1,.79l.17.12a8.36,8.36,0,0,0,1.2.65l-.11-4.27,1.2.78a4.61,4.61,0,0,0,1.5.67,1.57,1.57,0,0,0,1.15-.15,1.84,1.84,0,0,0,.72-1,5.47,5.47,0,0,0,.22-1.86,9.52,9.52,0,0,0-.32-2.23,8.65,8.65,0,0,0-.79-2,8.22,8.22,0,0,0-1.19-1.66,7.94,7.94,0,0,0-1.4-1.2Z"/><path class="cls-54" d="M336.46,452.88,330,448.66l-.1.07.3,11.68a3.51,3.51,0,0,0,.4,1.6,3,3,0,0,0,1,1.12l.06,0,4,2.61c.91.58,1.41.4,1.51-.54,0-.25,0-.62,0-1.11l-3.5-2.26c-.28-.18-.66-.42-1.12-.69h0l0-1.43,0-1.52,3.33,2.16a5,5,0,0,0,.1-1.23,6.85,6.85,0,0,0-.17-1.37l-2.3-1.49-1-.64,0-1.39-.05-1.45,4.11,2.66a3.55,3.55,0,0,0,.17-1.27,9.38,9.38,0,0,0-.12-1.32Z"/><path class="cls-54" d="M347.56,459.93l-.8-.52c-.48-.31-.82-.38-1-.22s-.3.59-.28,1.28l.06,2.44q.09,3.1.33,6h-.05c-.23-.83-.56-2-1-3.64l-2.53-8.63a15.05,15.05,0,0,0-1.25-.93l-.19-.13a6.49,6.49,0,0,0-1.38-.71l.34,13.56a9.35,9.35,0,0,0,.91.69l.22.15a7.05,7.05,0,0,0,1.13.62l-.1-4c-.06-2-.17-4.06-.34-6.08h0c.32,1.25.64,2.37.94,3.37l2.56,8.67a13.65,13.65,0,0,0,1.19.89l.27.18a7,7,0,0,0,1.42.74l-.34-13.56-.11-.2Z"/></g></g><polygon class="cls-32" points="300 465.85 295.5 465.85 295.5 340.93 300 344.07 300 465.85"/><polygon class="cls-32" points="300 527.26 295.5 527.26 295.5 474.92 300 478.06 300 527.26"/><g class="cls-12"><g class="cls-13"><polygon class="cls-14" points="309.68 536.81 295.24 527.37 295.13 486.54 345.06 374 359.34 383.78 359.32 427.99 309.68 536.81"/></g></g><path class="cls-10" d="M285,469.16a1.62,1.62,0,0,1-.8-.21,1.57,1.57,0,0,1-.77-1.36V438.28a1.56,1.56,0,0,1,.92-1.43l7-3.14,1.29,2.86-6.05,2.73v25.6l5.68-3.21,1.54,2.73-8,4.54A1.64,1.64,0,0,1,285,469.16Z"/><g class="cls-55"><path class="cls-10" d="M300.88,462.09l-1.06-3,3.84-1.37V432.17L300,434.09l-1.47-2.78,5.93-3.14a1.57,1.57,0,0,1,2.3,1.39v29.31a1.57,1.57,0,0,1-1,1.48Z"/></g><polygon class="cls-14" points="352.87 455.97 326.82 418.26 305.94 426 305.22 424.04 327.61 415.73 354.6 454.78 352.87 455.97"/><rect class="cls-23" x="128.48" y="348.53" width="3.14" height="244.2" transform="translate(-333.58 317.5) rotate(-56.28)"/><rect class="cls-23" x="128.48" y="390.4" width="3.14" height="244.21" transform="translate(-368.41 336.12) rotate(-56.27)"/><rect class="cls-23" x="34.64" y="408.97" width="3.14" height="41.87"/><rect class="cls-23" x="50.74" y="419.48" width="3.14" height="41.87"/><rect class="cls-23" x="66.85" y="429.99" width="3.14" height="41.87"/><rect class="cls-23" x="82.95" y="440.5" width="3.14" height="41.87"/><rect class="cls-23" x="99.06" y="451" width="3.14" height="41.87"/><rect class="cls-23" x="115.16" y="461.51" width="3.14" height="41.87"/><rect class="cls-23" x="131.27" y="472.02" width="3.14" height="41.87"/><rect class="cls-23" x="147.37" y="482.53" width="3.14" height="41.87"/><rect class="cls-23" x="163.48" y="494.08" width="3.14" height="40.82"/><rect class="cls-23" x="179.58" y="504.59" width="3.14" height="41.87"/><rect class="cls-23" x="195.68" y="516.15" width="3.14" height="41.87"/><rect class="cls-23" x="211.79" y="526.65" width="3.14" height="40.82"/><rect class="cls-23" x="227.89" y="535.07" width="3.14" height="41.87"/><polygon class="cls-10" points="374.39 593.46 127.73 430.17 127.73 418.61 374.39 581.91 374.39 593.46"/><polygon class="cls-19" points="374.39 593.46 545.99 485.49 545.99 473.92 374.39 581.91 374.39 593.46"/><polygon class="cls-56" points="326.63 676.87 0 458.07 12.14 451.49 338.77 670.29 326.63 676.87"/></g></g></g></svg>