<?xml version="1.0" encoding="utf-8"?>
<!-- Generator: Adobe Illustrator 22.1.0, SVG Export Plug-In . SVG Version: 6.00 Build 0)  -->
<svg version="1.1" id="Isolation_Mode" xmlns="http://www.w3.org/2000/svg" xmlns:xlink="http://www.w3.org/1999/xlink" x="0px"
	 y="0px" viewBox="0 0 623.7 676.9" style="enable-background:new 0 0 623.7 676.9;" xml:space="preserve">
<style type="text/css">
	.st0{fill:#CDCCC7;}
	.st1{fill:#434A53;}
	.st2{opacity:0.5;fill:#999999;enable-background:new    ;}
	.st3{fill:#E3DFD6;}
	.st4{fill:#C6C1B6;}
	.st5{fill:#F99770;}
	.st6{fill:url(#SVGID_1_);}
	.st7{fill:#FFFFFF;}
	.st8{fill:#ABB1BD;}
	.st9{opacity:0.4;}
	.st10{opacity:0.5;}
	.st11{fill:#BDCAD3;}
	.st12{fill:url(#SVGID_2_);}
	.st13{fill:#D0D0D8;}
	.st14{fill:#545E66;}
	.st15{fill:#AFA9A3;}
	.st16{fill:#636D77;}
	.st17{opacity:0.3;}
	.st18{fill:#C4BAB1;}
	.st19{opacity:0.5;enable-background:new    ;}
	.st20{fill:#999999;}
	.st21{fill:#757575;}
	.st22{fill:#D3CFC7;}
	.st23{fill:#9B9486;}
	.st24{fill:#EAE8E5;}
	.st25{opacity:0.3;fill:#15191C;enable-background:new    ;}
	.st26{fill:#302E2E;}
	.st27{fill:#E3DFD6;stroke:#E3DFD6;stroke-width:6.28;stroke-miterlimit:10;}
	.st28{opacity:0.2;fill:#302E2E;enable-background:new    ;}
	.st29{fill:#222930;}
	.st30{fill:#F99B46;}
	.st31{opacity:0.3;fill:#898C1B;enable-background:new    ;}
	.st32{fill:#C36B32;}
	.st33{fill:#CFD32A;}
	.st34{fill:#891800;}
	.st35{fill:#AA9F25;}
	.st36{fill:#F7BA2C;}
	.st37{fill:#D12B15;}
	.st38{fill:#E23A1A;}
	.st39{fill:#9F1C00;}
	.st40{fill:#B4250F;}
	.st41{fill:#C33213;}
	.st42{fill:url(#SVGID_3_);}
	.st43{opacity:0.4;fill:#FFE04A;enable-background:new    ;}
	.st44{fill:#CFC91E;}
	.st45{fill:url(#SVGID_4_);}
	.st46{clip-path:url(#SVGID_6_);}
	.st47{clip-path:url(#SVGID_8_);}
	.st48{fill:#5D5D5D;}
	.st49{opacity:0.2;}
	.st50{opacity:0.3;fill:#2D3238;enable-background:new    ;}
	.st51{fill:#E6E8E5;}
</style>
<g id="Layer_1-2">
	<polygon class="st0" points="623.7,486.4 295.4,267.7 12,451.3 338.8,669.4 	"/>
	<path class="st1" d="M130.4,149.4h-12.6v242.3c0,0,34,27.2,34.5,28.8S199,201.7,199,201.7L130.4,149.4z"/>
	<polygon class="st2" points="374.4,593.5 442.9,602.5 623.7,486.4 540.5,432 471.4,454 414,475.5 400.3,497.2 377.5,543.7 	"/>
	<polygon class="st3" points="127.7,427.7 127.7,201.5 377.8,367.4 377.8,587.9 	"/>
	<polygon class="st4" points="374.4,593.5 546,485.2 546,256.9 374.4,365.2 	"/>
	<polygon class="st5" points="546,256.9 293.3,89.2 121.8,197.5 374.5,365.2 	"/>
	
		<linearGradient id="SVGID_1_" gradientUnits="userSpaceOnUse" x1="175.6835" y1="956.9342" x2="367.8235" y2="347.3842" gradientTransform="matrix(1 0 0 1 0 -322)">
		<stop  offset="0.15" style="stop-color:#70C0FF"/>
		<stop  offset="0.2" style="stop-color:#65ADE5"/>
		<stop  offset="0.33" style="stop-color:#4A7FA9"/>
		<stop  offset="0.45" style="stop-color:#345976"/>
		<stop  offset="0.57" style="stop-color:#21394B"/>
		<stop  offset="0.69" style="stop-color:#13202B"/>
		<stop  offset="0.8" style="stop-color:#080E13"/>
		<stop  offset="0.91" style="stop-color:#020405"/>
		<stop  offset="1" style="stop-color:#000000"/>
	</linearGradient>
	<polygon class="st6" points="138.6,414.4 138.6,231.3 362.8,381.5 362.8,562.6 	"/>
	<path class="st7" d="M140.1,234.2l221.1,148.2v177.3L140.1,413.5V234.2z M137,228.3v186.9l1.4,0.9l221.1,146.2l4.9,3.2V380.7
		l-1.4-0.9L141.9,231.6L137,228.3z"/>
	<polygon class="st8" points="146.1,411.4 140.1,413.4 140.1,234.2 146.1,238.3 	"/>
	<g class="st9">
		<g class="st10">
			<polygon class="st11" points="207.9,455.4 179.3,436.7 238.9,302.2 267.9,322.1 			"/>
		</g>
	</g>
	
		<linearGradient id="SVGID_2_" gradientUnits="userSpaceOnUse" x1="491.2906" y1="945.4384" x2="409.5406" y2="411.6283" gradientTransform="matrix(1 0 0 1 0 -322)">
		<stop  offset="0" style="stop-color:#70C0FF"/>
		<stop  offset="0.12" style="stop-color:#5896C7"/>
		<stop  offset="0.24" style="stop-color:#416F93"/>
		<stop  offset="0.37" style="stop-color:#2D4D66"/>
		<stop  offset="0.5" style="stop-color:#1D3141"/>
		<stop  offset="0.63" style="stop-color:#101C25"/>
		<stop  offset="0.75" style="stop-color:#070C10"/>
		<stop  offset="0.88" style="stop-color:#020304"/>
		<stop  offset="1" style="stop-color:#000000"/>
	</linearGradient>
	<polygon class="st12" points="387.7,383 534.5,287.4 534.5,473.7 387.7,565.2 	"/>
	<path class="st13" d="M532.9,290.2v182.6l-143.6,89.5V383.9L532.9,290.2z M536,284.5l-4.8,3.2l-143.6,93.6l-1.4,0.9V568l4.8-3
		l143.6-89.5l1.5-0.9L536,284.5L536,284.5z"/>
	<polygon class="st14" points="532.9,473.4 524,469.6 524,295.8 532.9,289.4 	"/>
	<g class="st10">
		<polygon class="st15" points="523.9,470 515.1,466.1 515.1,301.9 523.9,296 		"/>
	</g>
	<g class="st10">
		<g class="st10">
			<polygon class="st11" points="472,510.5 444.5,527.3 420.7,363.6 448.3,345.8 			"/>
		</g>
	</g>
	<polygon class="st16" points="524,469.6 532.7,473.4 389.3,562.3 389.3,551.6 	"/>
	<g class="st17">
		<polygon class="st18" points="515,465.8 523.6,469.6 389.3,551.2 389.3,540.5 		"/>
	</g>
	<g class="st19">
		<path class="st20" d="M54.5,457.5h-0.2l-22.7-1.3c-2.5-0.1-4.4-2.3-4.2-4.7s2.3-4.4,4.7-4.2l0,0l22.7,1.3c2.5,0.2,4.3,2.3,4.2,4.8
			C58.8,455.7,56.9,457.5,54.5,457.5z"/>
	</g>
	<g class="st19">
		<path class="st20" d="M154.1,524.1h-0.2l-22.7-1.3c-2.5-0.1-4.4-2.3-4.2-4.8s2.3-4.4,4.8-4.2l22.7,1.3c2.5,0.1,4.4,2.1,4.4,4.6
			S156.6,524.2,154.1,524.1L154.1,524.1z"/>
	</g>
	<g class="st19">
		<path class="st20" d="M254,591.2h-0.3l-22.7-1.3c-2.5-0.1-4.4-2.3-4.2-4.7c0.1-2.5,2.3-4.4,4.7-4.2l0,0l22.7,1.3
			c2.5,0.1,4.4,2.1,4.4,4.6S256.5,591.3,254,591.2L254,591.2L254,591.2z"/>
	</g>
	<g class="st19">
		<path class="st20" d="M353,657.8h-0.2l-22.7-1.3c-2.5-0.1-4.4-2.3-4.2-4.8s2.3-4.4,4.8-4.2l0,0l22.7,1.3c2.5,0.1,4.4,2.1,4.4,4.6
			S355.5,657.9,353,657.8z"/>
	</g>
	<path class="st21" d="M34.7,404.8c2-1.7,2.2-4.6,0.6-6.6c-1.7-2-4.6-2.2-6.6-0.6c-1.1,0.9-1.7,2.2-1.7,3.6s0.6,2.7,1.7,3.6
		c-2.1,1.1-3.4,3.3-3.4,5.6v40.3c0,3.5,2.9,5.3,6.4,5.3s6.4-1.8,6.4-5.3v-40.3C38.1,408,36.8,405.9,34.7,404.8z"/>
	<path class="st21" d="M134.9,471.6c2-1.7,2.2-4.6,0.6-6.6c-1.7-2-4.6-2.2-6.6-0.6c-2,1.7-2.2,4.6-0.6,6.6c0.2,0.2,0.4,0.4,0.6,0.6
		c-2.1,1.1-3.4,3.3-3.4,5.6v40.3c0,3.5,2.9,5.3,6.4,5.3s6.4-1.8,6.4-5.3v-40.3C138.2,474.9,136.9,472.7,134.9,471.6z"/>
	<path class="st21" d="M235,538.5c2-1.7,2.3-4.6,0.6-6.6s-4.6-2.3-6.6-0.6s-2.3,4.6-0.6,6.6c0.2,0.2,0.4,0.4,0.6,0.6
		c-2.1,1.1-3.4,3.3-3.4,5.6v40.3c0,3.5,2.9,5.3,6.4,5.3s6.4-1.8,6.4-5.3v-40.3C238.4,541.8,237.1,539.6,235,538.5z"/>
	<path class="st21" d="M335.2,605.4c2-1.7,2.3-4.6,0.6-6.6c-1.7-2-4.6-2.3-6.6-0.6s-2.3,4.6-0.6,6.6c0.2,0.2,0.4,0.4,0.6,0.6
		c-2.1,1.1-3.4,3.3-3.4,5.6v40.3c0,3.5,2.9,5.3,6.4,5.3s6.4-1.8,6.4-5.3V611C338.6,608.6,337.3,606.5,335.2,605.4z"/>
	<polygon class="st22" points="551.4,259 551.4,248.7 293.5,88.1 116.4,189.3 116.4,199.6 374.2,370.5 	"/>
	<polygon class="st23" points="293.5,88.1 278.9,95.5 374.2,360.2 374,370.4 374.2,370.5 551.4,259 551.4,248.7 	"/>
	<polygon class="st24" points="552.1,248.3 293.5,77.8 116.4,189.3 374.2,360.2 	"/>
	<polygon class="st3" points="533.2,248.7 292.6,88.7 134.6,189.3 375.1,349.3 	"/>
	<polygon class="st23" points="292.6,88.7 134.6,189.3 145.1,196.2 292.6,100.8 	"/>
	<polygon class="st23" points="292.6,100.8 524.8,254.1 533.2,248.7 292.6,88.7 	"/>
	<polygon class="st25" points="346.5,293.3 413.6,300 480.3,257.5 319.9,151.8 290,155.7 371,194.7 348.2,241.1 	"/>
	<polygon class="st16" points="146.1,411.4 140.1,413.5 361.2,560 361.2,552.4 	"/>
	<polygon class="st8" points="221.2,460.6 212.4,464.9 212.4,282.2 221.2,288.7 	"/>
	<polygon class="st26" points="296,509.7 287.2,515 287.2,332.6 296,338.8 	"/>
	<polygon class="st27" points="207.9,470 212.4,474.2 212.4,275.9 207.9,272.9 	"/>
	<polygon class="st27" points="282.5,524.5 287,528.7 286.6,326.5 282.5,324.2 	"/>
	<polygon class="st28" points="151,414.4 140.2,413.5 140.2,234.2 151,241.7 	"/>
	<polygon class="st28" points="226.4,464 215.6,463.4 215.6,284.7 226.4,292.2 	"/>
	<polygon class="st28" points="301.1,512.9 290.2,512.9 290.2,334.7 301.1,342.1 	"/>
	<polygon class="st29" points="164.7,159 173.3,164.7 173.3,178 346.5,293.3 382.2,271.4 382.2,151.8 153.1,0 158.6,162.8 	"/>
	<polygon class="st1" points="164.7,159 173.3,164.7 173.3,178 346.5,293.3 347,293 347,157.5 117.9,22.4 117.9,188.4 	"/>
	<polygon class="st14" points="382.2,151.9 153.1,0 117.8,22.3 346.9,174.1 	"/>
	<polygon class="st25" points="382.4,345.1 156.5,195 178.1,181 173.3,164.7 134.6,189.3 375.1,349.3 	"/>
	<g>
		<path class="st1" d="M376.5,218.7c9.6,5.6,4.5,16.4,12.8,16.5c5.7,0,25.4-9.3,30.1-11.6c15.1-7.4,24.7-26.2,24.7-53.4
			c0-48.3-30.5-105.2-67.8-126.7c-24-13.9-48.1-7.5-64.1,5c-9.3,7.3-3.5,26.2-3.5,43.5C308.8,140.3,339.2,197.2,376.5,218.7
			L376.5,218.7z"/>
		<path class="st1" d="M355.4,63.5c-32.7-18.9-59.2,0.2-59.2,42.5s26.7,92,59.3,110.9l0,0c32.7,18.9,59.2-0.2,59.2-42.5
			S388.1,82.3,355.4,63.5z"/>
		<path class="st1" d="M355.4,52.6c-37.3-21.5-67.6,0.2-67.6,48.5s30.5,105.2,67.8,126.7v-10.9c-32.7-18.9-59.3-68.6-59.4-110.9
			s26.5-61.4,59.2-42.5s59.3,68.6,59.4,110.9s-26.5,61.3-59.2,42.5v10.9c37.3,21.6,67.6-0.2,67.6-48.5S392.7,74.1,355.4,52.6z"/>
	</g>
	<g>
		<path class="st30" d="M401.8,191.6l-7.9-3.4l-15.4-8l-17-4.7l-22.5-18l-8.1-0.8l-6.8-6.8l-7.1-2.3l-2.3-3.8l-5.6-4.3
			c2.4,16.1,14.6,24.8,30.8,34.2c4.8,2.8,10,5.6,15.4,8.7s10.6,6.3,15.4,9C387.6,201.3,400,206.6,401.8,191.6L401.8,191.6z
			 M308.8,136.2L308.8,136.2c0,0.6,0.1,1.3,0.2,1.9L308.8,136.2L308.8,136.2z M402,187.4L402,187.4l-0.1,2.1
			C401.9,188.8,402,188.1,402,187.4L402,187.4z"/>
		<path class="st31" d="M309,138.1l0.1,1.5l0.1,0.1C309.1,139.1,309.1,138.6,309,138.1L309,138.1z M402,189.4c0,0.8-0.1,1.5-0.2,2.1
			l0.2,0.1V189.4L402,189.4z"/>
		<path class="st32" d="M401.9,187.4l-0.3-0.1l-7.8-1.3l-15.4-10.1l-6-0.6l-11-1.1L344.1,159l-5.1-4.4l-2.6,0.1l-5.5,0.2l-4.4-5.9
			l-2.4-3.3l-3.2-0.1l-4.3-0.2l-1.1-3.4l-0.8-2.4l-5.3-3l-0.7-0.4l0.1,1.9c0.1,0.5,0.1,1,0.2,1.5l5.6,4.3l2.3,3.8l7.1,2.3l6.8,6.8
			l8.1,0.8l22.4,17.9l17,4.7l15.4,8l7.9,3.4c0.1-0.7,0.1-1.4,0.2-2.1L401.9,187.4z"/>
		<path class="st33" d="M402.4,184.7c-2,1.5-6.8-0.5-13.6-4.4l-0.2-0.1l-0.3-0.2c-3.2-1.8-6.7-4-10.6-6.5c-6.8-4.3-14.7-9.3-23-14.1
			l-2.6-1.5c-12-6.8-22.8-12-31-16.7c-6.5-3.7-11.2-7.1-13.5-10.7l-2.2,3.7l3.4,2l0,0l0.7,0.4l5.3,3l0.8,2.4l1.1,3.4l4.3,0.2
			l3.2,0.1l2.4,3.3l4.4,5.9l5.5-0.2l2.6-0.1l5.1,4.4l17.3,15.1l11,1.1l6,0.6l15.5,10.1l7.8,1.3l0.3,0.1h0.1l2.8,5.4L402.4,184.7
			L402.4,184.7z"/>
		<path class="st34" d="M306.1,125.8c0-10.6,24.3,7.8,48.6,21.8c4.7,2.7,9.4,5.3,13.9,7.8c18.9,10.5,34.8,19.2,34.8,26.5
			c0,10.5-21.8-7-48.6-22.6S306.2,136.3,306.1,125.8z"/>
		<path class="st35" d="M388.9,180.3l-0.2-0.1L388.9,180.3z M354.8,159.5c8.3,4.8,16.1,9.8,23,14.1
			C370.9,169.2,363.1,164.3,354.8,159.5z M354.8,159.5l-2.6-1.5L354.8,159.5L354.8,159.5z"/>
		<path class="st36" d="M397.9,171.6c-1.2,1.1-8.9-1.8-18.3-7c-0.8-0.4-1.6-0.9-2.4-1.4c-7.7-4.5-14-9.1-15.7-11.5c0,0.6,0,1,0,1.1
			c0,1.9-8.5-1.7-19.8-8.3c-1.9-1.1-3.9-2.3-6-3.6c-12.6-7.7-23-15.6-25.2-18.7c-0.4,0-0.8,0.2-1.1,0.4c-0.4,0.3-0.5,0.8-0.1,1.6
			c1,1.6,2.1,3.1,3.3,4.5c2.4,2.7,5,5.3,7.7,7.7c1.8,1.6,3.3,2.9,4.3,3.7c0.7,0.6,1.1,0.9,1.1,0.9l2.3,0.9l2.6,1.1
			c7.6,3.1,22.1,9.1,30.7,12.6c0,0,8.5,5.1,15.5,9.5c1.2,0.8,2.4,1.5,3.5,2.1c4.1,2.4,8.5,4.5,13,6.2c2.4,0.9,4.3,1.4,5.7,1.9
			c0.3,0.1,0.4-0.1,0.4-0.4c-0.2-1.1-0.6-2.1-1.2-3.1C398.3,171.8,398.1,171.6,397.9,171.6L397.9,171.6z"/>
		<path class="st37" d="M394.2,167.5l-5.9-1l-8.3-5.6l-5.9-2.1l-12.7-8.7c0,0.6,0,1.2,0,1.6c1.7,2.4,8,7,15.7,11.5
			c0.8,0.5,1.6,0.9,2.4,1.4c9.4,5.2,17.1,8.1,18.3,7c0.1-0.1,0.2-0.3,0.2-0.4c0-0.1,0-0.5,0-0.9L394.2,167.5L394.2,167.5z"/>
		<path class="st38" d="M314.2,119.6l-4.1-1.9c0,1.5-0.1,3.3-0.1,3.6c0,0.4,0.2,0.7,0.4,1c2.1,3.2,12.6,11,25.2,18.7
			c2,1.3,4,2.4,6,3.6c11.3,6.5,19.8,10.1,19.8,8.3c0-0.1,0-0.6,0-1.1s0-1,0-1.6l-0.7-0.5l-14.7-2.9L334.2,134l-12.7-5.1l-3.9-6.2
			C316.4,121.5,315.2,120.5,314.2,119.6L314.2,119.6z"/>
		<path class="st39" d="M316.7,120.7l-2.5-1.1c1,0.9,2.2,1.8,3.6,2.9L316.7,120.7z"/>
		<path class="st31" d="M398,166.8c0,0.9,0,2.4,0,3.4l0.2,0.1L398,166.8L398,166.8L398,166.8z M360.8,145L360.8,145
			c0.1,0.1,0.2,0.2,0.3,0.4c0,0,0-0.1,0.1-0.1L360.8,145L360.8,145z"/>
		<path class="st40" d="M397.8,166.6c-0.8,0.7-4.2-0.2-8.9-2.3l-0.6,0.1l-1-0.8c-2.4-1.1-5-2.4-7.8-4c-0.8-0.5-1.7-0.9-2.5-1.4
			s-1.8-1-2.6-1.6h-0.2l-0.3-0.3c-6-3.7-10.6-7.2-12.3-9.3c0,0.5,0,1.8-0.1,3.1l12.7,8.7l5.9,2.1l8.3,5.6l5.9,1l3.8,2.7
			c0-1,0-2.6,0-3.4L397.8,166.6L397.8,166.6z"/>
		<path class="st34" d="M380,157.9l-5.6-1.2c0.9,0.5,1.7,1,2.6,1.6s1.6,0.9,2.5,1.4c2.8,1.5,5.4,2.9,7.8,4L380,157.9z M361.1,145.3
			C361.1,145.3,361,145.3,361.1,145.3c0.2,0.4,0.4,0.8,0.4,1.2c0,0.1,0,0.2-0.1,0.3l0.1,0.1v0.2c1.6,2.1,6.3,5.6,12.3,9.3
			L361.1,145.3z M394.5,163.5l-5.6,0.8c4.7,2,8.1,3,8.9,2.3L394.5,163.5L394.5,163.5z"/>
		<path class="st41" d="M361.5,146.9l-0.1-0.1c-0.6,0.6-3.2-0.2-7.2-2l-8.1-0.2l-5.6-7.1c-1.5-0.9-3.1-1.8-4.7-2.8
			c-4.1-2.5-8-5.1-11.5-7.5l-2.6-0.7l-1.4-2.2c-0.9-0.6-1.7-1.3-2.5-1.9l3.9,6.2l12.7,5.1l11.8,12.8l14.7,2.9l0.7,0.5
			c0-1.3,0-2.6,0.1-3.1L361.5,146.9L361.5,146.9z"/>
		<path class="st31" d="M310.2,115.1L310,115v2.7l0.2,0.1c0-1.3,0-2.4,0-2.4l0.1,0.1C310.3,115.3,310.2,115.2,310.2,115.1
			L310.2,115.1z"/>
		<path class="st41" d="M310.2,115.3c0,0,0,1.1,0,2.4l4.1,1.9c-2.2-1.9-3.5-3.3-3.9-4.2C310.3,115.4,310.2,115.3,310.2,115.3z"/>
		<path class="st34" d="M360.7,145l-6.5-0.2c4,1.8,6.6,2.6,7.2,2c0.1-0.1,0.1-0.2,0.1-0.3c-0.1-0.4-0.2-0.8-0.5-1.1
			C360.9,145.2,360.8,145.1,360.7,145z M334.4,129.7l-10-2.5c3.5,2.4,7.4,4.9,11.5,7.5c1.6,1,3.2,1.9,4.7,2.8L334.4,129.7
			L334.4,129.7z M316.7,118.6l-6.5-3.5c0,0.1,0,0.2,0.1,0.3c0.4,0.9,1.7,2.3,3.9,4.2l2.5,1.1l1.1,1.8c0.8,0.6,1.6,1.2,2.5,1.9
			L316.7,118.6L316.7,118.6z"/>
		<path class="st33" d="M399.5,160.7c-3.2,3-13.1-1.8-25.2-8.8l-0.4-0.2l-0.2-0.1c-2.5-1.4-5.1-2.9-7.7-4.5c-4-2.4-8-4.8-12.1-7.1
			s-7.9-4.5-11.7-6.6c-2.7-1.5-5.3-3-7.9-4.5l-0.3-0.2l-0.3-0.2c-11.2-6.5-20.5-12.5-24.4-18.7l-3.3,3.1l3.9,2.1l0.3,0.1l6.5,3.5
			l3.6,5.8l1.4,2.2l2.6,0.7l10,2.5l6.1,7.8l5.6,7.1l8.1,0.2l6.5,0.2l0,0l0.3,0.3l12.7,11.1l0.3,0.3h0.2l5.6,1.2l7.2,5.7l1,0.8
			l0.6-0.1l5.6-0.8l3.3,3.1l0.2,0.2l0,0l4.7,4.5L399.5,160.7L399.5,160.7z"/>
		
			<linearGradient id="SVGID_3_" gradientUnits="userSpaceOnUse" x1="2031.0603" y1="-1040.7318" x2="2024.2505" y2="-991.5417" gradientTransform="matrix(1.35 0 0 1.35 -2382.8301 1496.67)">
			<stop  offset="0" style="stop-color:#FFAD57"/>
			<stop  offset="0.27" style="stop-color:#FFB05A"/>
			<stop  offset="0.49" style="stop-color:#FFB864"/>
			<stop  offset="0.69" style="stop-color:#FEC575"/>
			<stop  offset="0.88" style="stop-color:#FED88D"/>
			<stop  offset="1" style="stop-color:#FDE7A0"/>
		</linearGradient>
		<path class="st42" d="M374.3,151.9l-0.4-0.2L374.3,151.9z M334.3,128.8l-0.3-0.2L334.3,128.8z M366,147c2.6,1.6,5.2,3.1,7.7,4.5
			C371.2,150.1,368.6,148.6,366,147z M354,139.9c-4-2.3-7.9-4.5-11.7-6.6C346.1,135.4,350.1,137.6,354,139.9z M307.4,103.5
			c0,2.2,0.7,4.4,2,6.2c4,6.2,13.2,12.2,24.4,18.7C318.8,119.8,307.3,111.9,307.4,103.5L307.4,103.5z M400.6,156.8 M400.6,156.2
			 M400.6,155.6 M400.6,155.1C400.6,155.1,400.6,155.2,400.6,155.1C400.6,155.2,400.6,155.1,400.6,155.1z M400.6,154.5v0.1V154.5z
			 M400.6,153.9c0,0.1,0,0.1,0,0.1S400.6,154,400.6,153.9z M400.6,153.3C400.6,153.3,400.6,153.4,400.6,153.3
			C400.6,153.5,400.6,153.4,400.6,153.3z M400.5,152.8c0,0.1,0,0.1,0,0.1V152.8z M400.5,152.2v0.1
			C400.4,152.3,400.4,152.2,400.5,152.2z M400.4,151.6v0.2V151.6z M400.3,151v0.2V151z M400.2,150.4v0.2V150.4z M400.1,149.8
			c0,0.1,0,0.1,0,0.2S400.1,149.9,400.1,149.8z M400,149.2c0,0.1,0,0.2,0,0.2C400.1,149.3,400.1,149.2,400,149.2z M399.9,148.5
			c0,0.1,0,0.3,0.1,0.4C400,148.8,400,148.6,399.9,148.5z M399.8,147.8l0.1,0.5L399.8,147.8z M399.7,147.4l0.1,0.3L399.7,147.4z
			 M399.5,146.7c0,0.2,0.1,0.3,0.1,0.5C399.6,147.1,399.6,146.9,399.5,146.7z M399.4,146c0,0.2,0.1,0.4,0.1,0.6
			C399.5,146.4,399.4,146.2,399.4,146z M391.7,126.6c3.3,6.1,5.8,12.6,7.4,19.4c-1.7-6.8-4.3-13.3-7.6-19.4H391.7z M391.3,125.9
			l0.3,0.5L391.3,125.9z M391.1,125.5c0,0.1,0.1,0.2,0.1,0.3C391.2,125.7,391.1,125.6,391.1,125.5z M390.7,124.9l0.1,0.2
			L390.7,124.9z M390.4,124.3c0,0,0,0.1,0.1,0.1C390.4,124.4,390.4,124.3,390.4,124.3z M390.1,123.7
			C390.1,123.8,390.1,123.8,390.1,123.7C390.1,123.8,390.1,123.8,390.1,123.7z M389.7,123.1L389.7,123.1L389.7,123.1z M353.9,87.3
			c-25.6-14.8-46.3-7.7-46.6,15.8c0-1,0.1-2,0.2-3c2,10.7,23,23.8,44,36c8.3,4.8,17,10.3,24.5,14.6c12.4,7.2,21.8,11.3,21.8,4.2
			c0-11.2-2-21.6-15-41.7C374.9,102.8,365.1,94,353.9,87.3L353.9,87.3z"/>
		<path class="st43" d="M400.6,157.6c0.1,1.1-0.3,2.3-1.1,3.1l0,0C400.2,159.8,400.6,158.7,400.6,157.6z M307.3,103 M400.6,156.8
			c0,0.2,0,0.3,0,0.5C400.6,157.2,400.6,157,400.6,156.8z M400.6,156.3c0,0.2,0,0.3,0,0.5C400.6,156.6,400.6,156.4,400.6,156.3z
			 M400.6,155.7c0,0.2,0,0.3,0,0.5C400.6,156,400.6,155.8,400.6,155.7z M400.6,155.1c0,0.1,0,0.3,0,0.5
			C400.6,155.4,400.6,155.3,400.6,155.1z M400.6,154.6v0.5V154.6z M400.6,154c0,0.2,0,0.3,0,0.5C400.6,154.3,400.6,154.2,400.6,154z
			 M400.5,153.4c0,0.2,0,0.3,0,0.5C400.5,153.7,400.5,153.5,400.5,153.4z M400.5,152.9c0,0.1,0,0.3,0,0.4
			C400.5,153.2,400.5,153,400.5,152.9z M400.4,152.3c0,0.1,0,0.3,0,0.4C400.5,152.6,400.5,152.4,400.4,152.3z M400.3,151.7
			c0,0.1,0,0.3,0,0.5C400.4,152,400.4,151.8,400.3,151.7z M400.3,151.1c0,0.1,0,0.3,0,0.4C400.3,151.4,400.3,151.3,400.3,151.1z
			 M400.2,150.6c0,0.1,0,0.2,0,0.4C400.2,150.8,400.2,150.7,400.2,150.6z M400,150l0.1,0.4L400,150z M399.9,149.4l0.1,0.4
			L399.9,149.4z M399.8,148.9c0,0.1,0,0.2,0,0.2C399.8,149.1,399.8,149,399.8,148.9z M399.7,148.3c0,0.1,0,0.1,0,0.2
			C399.7,148.4,399.7,148.4,399.7,148.3z M399.6,147.7v0.2V147.7z M399.5,147.2c0,0.1,0,0.1,0,0.2
			C399.5,147.3,399.5,147.3,399.5,147.2z M399.3,146.6v0.1V146.6z M399.2,145.9L399.2,145.9L399.2,145.9z M391.5,126.5L391.5,126.5
			L391.5,126.5z M391.1,125.7l0.1,0.2L391.1,125.7z M390.7,125.1l0.2,0.4L390.7,125.1z M390.3,124.4l0.3,0.5L390.3,124.4z
			 M390,123.8c0.1,0.2,0.2,0.3,0.3,0.5C390.1,124.1,390.1,123.9,390,123.8z M389.6,123.2l0.3,0.6L389.6,123.2z M382.8,113.1
			L382.8,113.1c2.5,3.2,4.7,6.5,6.8,10C387.5,119.6,385.2,116.3,382.8,113.1L382.8,113.1z"/>
		<path class="st44" d="M373.7,151.5l0.2,0.1L373.7,151.5z M333.7,128.4l0.3,0.2L333.7,128.4z M342.2,133.3c-2.7-1.5-5.3-3-7.9-4.5
			C336.8,130.2,339.5,131.8,342.2,133.3z M354,139.9c4.1,2.4,8.1,4.8,12.1,7.1C362.1,144.7,358.1,142.3,354,139.9z M399.5,160.7
			c-3.2,3-13.1-1.8-25.2-8.8C386.5,158.9,396.3,163.7,399.5,160.7L399.5,160.7z"/>
		<path class="st30" d="M382.7,113.2c13,20.1,15,30.5,15,41.7c0,7-9.4,2.9-21.8-4.2c-7.5-4.4-16.2-9.8-24.5-14.6
			c-21-12.1-42-25.3-44-35.9c-0.1,1-0.1,2-0.2,3v0.5c0,8.4,11.5,16.3,26.4,24.9l0.3,0.2l0.3,0.2c2.5,1.5,5.2,3,7.9,4.5
			c3.8,2.1,7.8,4.4,11.7,6.6s8.1,4.8,12.1,7.1c2.6,1.6,5.2,3.1,7.7,4.5l0.2,0.1l0.4,0.2c12.1,7,22,11.8,25.2,8.8
			c0.8-0.8,1.2-2,1.1-3.1c0-0.1,0-0.1,0-0.2s0-0.3,0-0.5v-0.1c0-0.2,0-0.3,0-0.5v-0.1c0-0.2,0-0.3,0-0.5v-0.1c0-0.1,0-0.3,0-0.5
			c0,0,0,0,0-0.1v-0.5v-0.1c0-0.1,0-0.3,0-0.5s0-0.1,0-0.1s0-0.3,0-0.5s0-0.1,0-0.1s0-0.3,0-0.4s0-0.1,0-0.1s0-0.3,0-0.4v-0.1
			c0-0.2,0-0.3,0-0.5v-0.2c0-0.1,0-0.3,0-0.4V151c0-0.1,0-0.2,0-0.4v-0.2L400,150c0-0.1,0-0.1,0-0.2l-0.1-0.4c0-0.1,0-0.2,0-0.2V149
			c0,0,0-0.3-0.1-0.4c0-0.1,0-0.1,0-0.2l-0.1-0.5v-0.2l-0.1-0.3c0-0.1,0-0.1,0-0.2c0-0.2-0.1-0.3-0.1-0.5v-0.1
			c0-0.2-0.1-0.4-0.1-0.6v-0.1c-1.7-6.8-4.3-13.3-7.6-19.4l-0.1-0.1l-0.3-0.5l-0.1-0.2c0-0.1-0.1-0.2-0.1-0.3L391,125l-0.1-0.2
			l-0.3-0.5l-0.1-0.1c-0.1-0.2-0.2-0.3-0.3-0.5c0,0,0,0,0-0.1l-0.3-0.6l0,0c-2.1-3.5-4.3-6.8-6.8-10L382.7,113.2z"/>
	</g>
	<polygon class="st7" points="364.6,586.4 289.3,537.7 289.3,330.7 364.6,380.7 	"/>
	
		<linearGradient id="SVGID_4_" gradientUnits="userSpaceOnUse" x1="-710.6403" y1="1799.7826" x2="-664.3902" y2="1294.3525" gradientTransform="matrix(0.87 0 0 0.87 932.61 -967.78)">
		<stop  offset="4.000000e-02" style="stop-color:#70C0FF"/>
		<stop  offset="0.15" style="stop-color:#5EA1D6"/>
		<stop  offset="0.33" style="stop-color:#427196"/>
		<stop  offset="0.49" style="stop-color:#2A4860"/>
		<stop  offset="0.65" style="stop-color:#182937"/>
		<stop  offset="0.79" style="stop-color:#0B1319"/>
		<stop  offset="0.91" style="stop-color:#030506"/>
		<stop  offset="1" style="stop-color:#000000"/>
	</linearGradient>
	<polygon class="st45" points="359.6,570.2 295.2,527.3 295.2,340.7 359.6,383.9 	"/>
	<polygon class="st7" points="363.6,518.8 291.9,472.5 291.9,464.2 363.6,510.8 	"/>
	<g class="st10">
		
			<rect x="328.5" y="326.8" transform="matrix(0.5538 -0.8326 0.8326 0.5538 -154.9662 436.2054)" class="st7" width="2.1" height="71.7"/>
	</g>
	<g class="st10">
		
			<rect x="328.4" y="333.6" transform="matrix(0.5538 -0.8326 0.8326 0.5538 -160.6658 439.1553)" class="st7" width="2.1" height="71.7"/>
	</g>
	<g class="st10">
		
			<rect x="328.4" y="340.4" transform="matrix(0.5538 -0.8326 0.8326 0.5538 -166.2928 442.2108)" class="st7" width="2.1" height="71.7"/>
	</g>
	<g class="st10">
		
			<rect x="328.4" y="347.1" transform="matrix(0.5538 -0.8326 0.8326 0.5538 -171.8322 445.1798)" class="st7" width="2.1" height="71.7"/>
	</g>
	<g class="st10">
		
			<rect x="328.5" y="354.1" transform="matrix(0.5638 -0.8259 0.8259 0.5638 -178.5485 442.3466)" class="st7" width="2.1" height="72.3"/>
	</g>
	<g class="st10">
		
			<rect x="328.4" y="361.5" transform="matrix(0.5436 -0.8393 0.8393 0.5436 -182.946 457.7392)" class="st7" width="2.1" height="71.1"/>
	</g>
	<g class="st10">
		
			<rect x="328.5" y="369.1" transform="matrix(0.5332 -0.846 0.846 0.5332 -188.267 467.5569)" class="st7" width="2.1" height="70.6"/>
	</g>
	<g class="st10">
		
			<rect x="328.6" y="374.6" transform="matrix(0.5736 -0.8192 0.8192 0.5736 -196.1847 445.2911)" class="st7" width="2.1" height="72.9"/>
	</g>
	<g class="st10">
		
			<rect x="328.4" y="381" transform="matrix(0.5538 -0.8326 0.8326 0.5538 -200.1005 460.329)" class="st7" width="2.1" height="71.7"/>
	</g>
	<g class="st10">
		
			<rect x="328.4" y="384.8" transform="matrix(0.5538 -0.8326 0.8326 0.5538 -203.2012 462.0205)" class="st7" width="2.1" height="71.7"/>
	</g>
	<g class="st10">
		
			<rect x="328.4" y="382.7" transform="matrix(0.5538 -0.8326 0.8326 0.5538 -201.5404 461.0699)" class="st7" width="2.1" height="71.7"/>
	</g>
	<g class="st10">
		
			<rect x="328.4" y="387.7" transform="matrix(0.5538 -0.8326 0.8326 0.5538 -205.7183 463.2904)" class="st7" width="2.1" height="71.7"/>
	</g>
	<g>
		<g>
			<g>
				<defs>
					<polygon id="SVGID_5_" points="304.8,456.8 304.7,424.6 354.4,453.2 354.4,485.5 					"/>
				</defs>
				<clipPath id="SVGID_6_">
					<use xlink:href="#SVGID_5_"  style="overflow:visible;"/>
				</clipPath>
				<g class="st46">
					<polygon class="st7" points="305.7,425.1 304.8,454.2 353.4,484.9 354.4,455.9 					"/>
				</g>
			</g>
		</g>
	</g>
	<g>
		<g>
			<g>
				<defs>
					<polygon id="SVGID_7_" points="308.7,448.5 308.5,433.6 347.9,460.1 348,475 					"/>
				</defs>
				<clipPath id="SVGID_8_">
					<use xlink:href="#SVGID_7_"  style="overflow:visible;"/>
				</clipPath>
				<g class="st47">
					<path class="st48" d="M313.2,449.1c-0.9-0.6-1.4-1.5-1.6-2.6c-0.1-0.6-0.2-1.1-0.3-1.6s-0.1-1.1-0.1-1.7c0-0.4,0-0.9,0-1.4
						s0.1-0.9,0.2-1.4c0.1-0.3,0.3-0.6,0.5-0.9c0.2-0.1,0.6-0.1,1.1,0.2h0.1c0.5,0.3,0.8,0.7,1.1,1.2c0.3,0.5,0.5,1.1,0.6,1.6
						c0.1,0.6,0.2,1.2,0.3,1.8c0,0.6,0.1,1.1,0.1,1.6s0,1,0,1.5c0,0.4-0.1,0.8-0.3,1.2c-0.1,0.3-0.3,0.5-0.6,0.6
						C313.9,449.4,313.5,449.3,313.2,449.1L313.2,449.1L313.2,449.1z M313.1,437.4l-0.1-0.1c-0.6-0.4-1.2-0.7-1.9-0.8
						c-0.5-0.1-1,0.1-1.4,0.4c-0.4,0.5-0.7,1-0.8,1.6c-0.2,0.9-0.3,1.9-0.2,2.9c0,2.4,0.6,4.8,1.8,6.9c0.7,1.2,1.6,2.2,2.8,3
						l0.1,0.1c0.6,0.4,1.2,0.7,1.9,0.8c0.5,0.1,1-0.1,1.4-0.4c0.4-0.5,0.7-1,0.8-1.6c0.2-0.9,0.3-1.9,0.2-2.9c0-1.1-0.1-2.2-0.4-3.3
						c-0.2-1-0.6-1.9-1-2.8c-0.4-0.8-0.9-1.6-1.5-2.3C314.3,438.4,313.7,437.8,313.1,437.4L313.1,437.4z"/>
					<path class="st48" d="M322.8,446.4l0.1,0.1l0.6,0.4l0,0c0.2,0.2,0.4,0.3,0.6,0.6c0.2,0.2,0.3,0.5,0.4,0.8s0.2,0.6,0.3,0.9
						c0.1,0.3,0.1,0.6,0.1,0.9s0,0.6-0.1,0.8c0,0.2-0.1,0.4-0.2,0.6c-0.1,0.1-0.3,0.2-0.4,0.2c-0.2,0-0.5-0.1-0.7-0.2l-0.3-0.2
						l-0.7-0.4l-0.1-4.6L322.8,446.4L322.8,446.4z M323.8,444.6l-0.1-0.1l-1.3-0.8l-2.2-1.4l-0.1,0.1l0.4,13.5
						c0.3,0.3,0.6,0.5,1,0.8l0.2,0.1c0.4,0.2,0.8,0.5,1.2,0.6l-0.1-4.3l1.2,0.8c0.5,0.3,1,0.5,1.5,0.7c0.4,0.1,0.8,0,1.1-0.1
						c0.3-0.2,0.6-0.6,0.7-1c0.2-0.6,0.3-1.2,0.2-1.9c0-0.8-0.1-1.5-0.3-2.2c-0.2-0.7-0.4-1.4-0.8-2c-0.3-0.6-0.7-1.2-1.2-1.7
						C324.7,445.2,324.3,444.8,323.8,444.6L323.8,444.6z"/>
					<path class="st48" d="M336.5,452.9l-6.5-4.2l-0.1,0.1l0.3,11.7c0,0.6,0.1,1.1,0.4,1.6c0.2,0.5,0.6,0.8,1,1.1h0.1l4,2.6
						c0.9,0.6,1.4,0.4,1.5-0.5c0-0.2,0-0.6,0-1.1l-3.5-2.3c-0.3-0.2-0.7-0.4-1.1-0.7l0,0v-1.4v-1.5l3.3,2.2c0.1-0.4,0.1-0.8,0.1-1.2
						c0-0.5-0.1-0.9-0.2-1.4l-2.3-1.5l-1-0.6v-1.4v-1.5l4.1,2.7c0.1-0.4,0.2-0.8,0.2-1.3c0-0.4,0-0.9-0.1-1.3L336.5,452.9z"/>
					<path class="st48" d="M347.6,459.9l-0.8-0.5c-0.5-0.3-0.8-0.4-1-0.2s-0.3,0.6-0.3,1.3l0.1,2.4c0.1,2.1,0.2,4.1,0.3,6l0,0
						c-0.2-0.8-0.6-2-1-3.6l-2.5-8.6c-0.4-0.3-0.8-0.6-1.2-0.9l-0.2-0.1c-0.4-0.3-0.9-0.5-1.4-0.7l0.3,13.6c0.3,0.2,0.6,0.5,0.9,0.7
						l0.2,0.1c0.4,0.2,0.7,0.4,1.1,0.6l-0.1-4c-0.1-2-0.2-4.1-0.3-6.1l0,0c0.3,1.2,0.6,2.4,0.9,3.4l2.6,8.7c0.4,0.3,0.8,0.6,1.2,0.9
						l0.3,0.2c0.4,0.3,0.9,0.5,1.4,0.7l-0.3-13.6L347.6,459.9L347.6,459.9z"/>
				</g>
			</g>
		</g>
	</g>
	<polygon class="st28" points="300,465.9 295.5,465.9 295.5,340.9 300,344.1 	"/>
	<polygon class="st28" points="300,527.3 295.5,527.3 295.5,474.9 300,478.1 	"/>
	<g class="st9">
		<g class="st10">
			<polygon class="st11" points="309.7,536.8 295.2,527.4 295.1,486.5 345.1,374 359.3,383.8 359.3,428 			"/>
		</g>
	</g>
	<path class="st7" d="M285,469.2c-0.3,0-0.6-0.1-0.8-0.2c-0.5-0.3-0.8-0.8-0.8-1.4v-29.3c0-0.6,0.4-1.2,0.9-1.4l7-3.1l1.3,2.9
		l-6,2.7V465l5.7-3.2l1.5,2.7l-8,4.5C285.6,469.1,285.3,469.2,285,469.2z"/>
	<g class="st49">
		<path class="st7" d="M300.9,462.1l-1.1-3l3.8-1.4v-25.5l-3.7,1.9l-1.5-2.8l5.9-3.1c0.8-0.4,1.7-0.1,2.1,0.7
			c0.1,0.2,0.2,0.5,0.2,0.7v29.3c0,0.7-0.4,1.2-1,1.5L300.9,462.1z"/>
	</g>
	<polygon class="st11" points="352.9,456 326.8,418.3 305.9,426 305.2,424 327.6,415.7 354.6,454.8 	"/>
	
		<rect x="128.5" y="348.5" transform="matrix(0.5551 -0.8318 0.8318 0.5551 -333.5581 317.5657)" class="st21" width="3.1" height="244.2"/>
	
		<rect x="128.5" y="390.4" transform="matrix(0.5553 -0.8317 0.8317 0.5553 -368.4144 336.0657)" class="st21" width="3.1" height="244.2"/>
	<rect x="34.6" y="409" class="st21" width="3.1" height="41.9"/>
	<rect x="50.7" y="419.5" class="st21" width="3.1" height="41.9"/>
	<rect x="66.8" y="430" class="st21" width="3.1" height="41.9"/>
	<rect x="82.9" y="440.5" class="st21" width="3.1" height="41.9"/>
	<rect x="99.1" y="451" class="st21" width="3.1" height="41.9"/>
	<rect x="115.2" y="461.5" class="st21" width="3.1" height="41.9"/>
	<rect x="131.3" y="472" class="st21" width="3.1" height="41.9"/>
	<rect x="147.4" y="482.5" class="st21" width="3.1" height="41.9"/>
	<rect x="163.5" y="494.1" class="st21" width="3.1" height="40.8"/>
	<rect x="179.6" y="504.6" class="st21" width="3.1" height="41.9"/>
	<rect x="195.7" y="516.2" class="st21" width="3.1" height="41.9"/>
	<rect x="211.8" y="526.7" class="st21" width="3.1" height="40.8"/>
	<rect x="227.9" y="535.1" class="st21" width="3.1" height="41.9"/>
	<polygon class="st50" points="374.4,593.5 127.7,430.2 127.7,418.6 374.4,581.9 	"/>
	<polygon class="st50" points="374.4,593.5 546,485.5 546,473.9 374.4,581.9 	"/>
	<polygon class="st51" points="326.6,676.9 0,458.1 12.1,451.5 338.8,670.3 	"/>
</g>
</svg>
