<svg xmlns="http://www.w3.org/2000/svg" xmlns:xlink="http://www.w3.org/1999/xlink" viewBox="0 0 623.7 676.9"><defs><style>.cls-1{fill:none;}.cls-2{fill:#cdccc7;}.cls-3{fill:#c6c1b6;}.cls-21,.cls-4{fill:#999;}.cls-11,.cls-20,.cls-4{opacity:0.5;}.cls-20,.cls-26,.cls-29,.cls-31,.cls-4,.cls-43,.cls-50{isolation:isolate;}.cls-28,.cls-5{fill:#e3dfd6;}.cls-6{fill:#f99770;}.cls-7{fill:url(#linear-gradient);}.cls-8{fill:#fff;}.cls-9{fill:#abb1bd;}.cls-10,.cls-43{opacity:0.4;}.cls-12{fill:#bdcad3;}.cls-13{fill:url(#linear-gradient-2);}.cls-14{fill:#d0d0d8;}.cls-15{fill:#545e66;}.cls-16{fill:#afa9a3;}.cls-17{fill:#636d77;}.cls-18,.cls-26,.cls-31,.cls-50{opacity:0.3;}.cls-19{fill:#c4bab1;}.cls-22{fill:#757575;}.cls-23{fill:#d3cfc7;}.cls-24{fill:#9b9486;}.cls-25{fill:#eae8e5;}.cls-26{fill:#15191c;}.cls-27,.cls-29{fill:#302e2e;}.cls-28{stroke:#e3dfd6;stroke-miterlimit:10;stroke-width:6.28px;}.cls-29,.cls-49{opacity:0.2;}.cls-30{fill:#f99b46;}.cls-31{fill:#898c1b;}.cls-32{fill:#c36b32;}.cls-33{fill:#cfd32a;}.cls-34{fill:#891800;}.cls-35{fill:#aa9f25;}.cls-36{fill:#f7ba2c;}.cls-37{fill:#d12b15;}.cls-38{fill:#e23a1a;}.cls-39{fill:#9f1c00;}.cls-40{fill:#b4250f;}.cls-41{fill:#c33213;}.cls-42{fill:url(#linear-gradient-3);}.cls-43{fill:#ffe04a;}.cls-44{fill:#cfc91e;}.cls-45{fill:url(#linear-gradient-4);}.cls-46{clip-path:url(#clip-path);}.cls-47{clip-path:url(#clip-path-2);}.cls-48{fill:#5d5d5d;}.cls-50{fill:#2d3238;}.cls-51{fill:#e6e8e5;}</style><linearGradient id="linear-gradient" x1="175.68" y1="956.93" x2="367.82" y2="347.38" gradientTransform="translate(0 -322)" gradientUnits="userSpaceOnUse"><stop offset="0.11" stop-color="#0fa3b1"/><stop offset="1"/></linearGradient><linearGradient id="linear-gradient-2" x1="491.29" y1="945.44" x2="409.54" y2="411.63" gradientTransform="translate(0 -322)" gradientUnits="userSpaceOnUse"><stop offset="0" stop-color="#0fa3b1"/><stop offset="0.8"/></linearGradient><linearGradient id="linear-gradient-3" x1="2030.98" y1="-1040.74" x2="2024.17" y2="-991.55" gradientTransform="translate(-2382.83 1496.67) scale(1.35)" gradientUnits="userSpaceOnUse"><stop offset="0" stop-color="#ffad57"/><stop offset="0.27" stop-color="#ffb05a"/><stop offset="0.49" stop-color="#ffb864"/><stop offset="0.69" stop-color="#fec575"/><stop offset="0.88" stop-color="#fed88d"/><stop offset="1" stop-color="#fde7a0"/></linearGradient><linearGradient id="linear-gradient-4" x1="-710.64" y1="1799.78" x2="-664.39" y2="1294.35" gradientTransform="translate(932.61 -967.78) scale(0.87)" xlink:href="#linear-gradient"/><clipPath id="clip-path"><polygon class="cls-1" points="304.8 456.8 304.7 424.6 354.4 453.2 354.4 485.5 304.8 456.8"/></clipPath><clipPath id="clip-path-2"><polygon class="cls-1" points="308.7 448.5 308.5 433.6 347.9 460.1 348 475 308.7 448.5"/></clipPath></defs><title>5Asset 1</title><g id="Layer_2" data-name="Layer 2"><g id="Isolation_Mode" data-name="Isolation Mode"><g id="Layer_1-2" data-name="Layer 1-2"><polygon class="cls-2" points="623.7 486.4 295.4 267.7 12 451.3 338.8 669.4 623.7 486.4"/><path class="cls-3" d="M130.4,149.4H117.8V391.7s34,27.2,34.5,28.8S199,201.7,199,201.7Z"/><polygon class="cls-4" points="374.4 593.5 442.9 602.5 623.7 486.4 540.5 432 471.4 454 414 475.5 400.3 497.2 377.5 543.7 374.4 593.5"/><polygon class="cls-5" points="127.7 427.7 127.7 201.5 377.8 367.4 377.8 587.9 127.7 427.7"/><polygon class="cls-3" points="374.4 593.5 546 485.2 546 256.9 374.4 365.2 374.4 593.5"/><polygon class="cls-6" points="546 256.9 293.3 89.2 121.8 197.5 374.5 365.2 546 256.9"/><polygon class="cls-7" points="138.6 414.4 138.6 231.3 362.8 381.5 362.8 562.6 138.6 414.4"/><path class="cls-8" d="M140.1,234.2,361.2,382.4V559.7L140.1,413.5Zm-3.1-5.9V415.2l1.4.9L359.5,562.3l4.9,3.2V380.7l-1.4-.9L141.9,231.6Z"/><polygon class="cls-9" points="146.1 411.4 140.1 413.4 140.1 234.2 146.1 238.3 146.1 411.4"/><g class="cls-10"><g class="cls-11"><polygon class="cls-12" points="207.9 455.4 179.3 436.7 238.9 302.2 267.9 322.1 207.9 455.4"/></g></g><polygon class="cls-13" points="387.7 383 534.5 287.4 534.5 473.7 387.7 565.2 387.7 383"/><path class="cls-14" d="M532.9,290.2V472.8L389.3,562.3V383.9Zm3.1-5.7-4.8,3.2L387.6,381.3l-1.4.9V568l4.8-3,143.6-89.5,1.5-.9L536,284.5Z"/><polygon class="cls-15" points="532.9 473.4 524 469.6 524 295.8 532.9 289.4 532.9 473.4"/><g class="cls-11"><polygon class="cls-16" points="523.9 470 515.1 466.1 515.1 301.9 523.9 296 523.9 470"/></g><g class="cls-11"><g class="cls-11"><polygon class="cls-12" points="472 510.5 444.5 527.3 420.7 363.6 448.3 345.8 472 510.5"/></g></g><polygon class="cls-17" points="524 469.6 532.7 473.4 389.3 562.3 389.3 551.6 524 469.6"/><g class="cls-18"><polygon class="cls-19" points="515 465.8 523.6 469.6 389.3 551.2 389.3 540.5 515 465.8"/></g><g class="cls-20"><path class="cls-21" d="M54.5,457.5h-.2l-22.7-1.3a4.4,4.4,0,0,1-4.2-4.7,4.53,4.53,0,0,1,4.7-4.2h0l22.7,1.3a4.56,4.56,0,0,1,4.2,4.8A4.48,4.48,0,0,1,54.5,457.5Z"/></g><g class="cls-20"><path class="cls-21" d="M154.1,524.1h-.2l-22.7-1.3A4.43,4.43,0,0,1,127,518a4.49,4.49,0,0,1,4.8-4.2l22.7,1.3a4.55,4.55,0,0,1,4.4,4.6,4.6,4.6,0,0,1-4.8,4.4Z"/></g><g class="cls-20"><path class="cls-21" d="M254,591.2h-.3L231,589.9a4.46,4.46,0,0,1,.5-8.9h0l22.7,1.3a4.55,4.55,0,0,1,4.4,4.6,4.34,4.34,0,0,1-4.6,4.3Z"/></g><g class="cls-20"><path class="cls-21" d="M353,657.8h-.2l-22.7-1.3a4.43,4.43,0,0,1-4.2-4.8,4.49,4.49,0,0,1,4.8-4.2h0l22.7,1.3a4.55,4.55,0,0,1,4.4,4.6A4.6,4.6,0,0,1,353,657.8Z"/></g><path class="cls-22" d="M34.7,404.8a4.69,4.69,0,1,0-6-7.2,4.66,4.66,0,0,0,0,7.2,6.37,6.37,0,0,0-3.4,5.6v40.3c0,3.5,2.9,5.3,6.4,5.3s6.4-1.8,6.4-5.3V410.4A6.26,6.26,0,0,0,34.7,404.8Z"/><path class="cls-22" d="M134.9,471.6a4.69,4.69,0,1,0-6.6-.6l.6.6a6.37,6.37,0,0,0-3.4,5.6v40.3c0,3.5,2.9,5.3,6.4,5.3s6.4-1.8,6.4-5.3V477.2A6.79,6.79,0,0,0,134.9,471.6Z"/><path class="cls-22" d="M235,538.5a4.69,4.69,0,1,0-6.6-.6l.6.6a6.37,6.37,0,0,0-3.4,5.6v40.3c0,3.5,2.9,5.3,6.4,5.3s6.4-1.8,6.4-5.3V544.1A6.37,6.37,0,0,0,235,538.5Z"/><path class="cls-22" d="M335.2,605.4a4.69,4.69,0,1,0-6.6-.6l.6.6a6.37,6.37,0,0,0-3.4,5.6v40.3c0,3.5,2.9,5.3,6.4,5.3s6.4-1.8,6.4-5.3V611A6.26,6.26,0,0,0,335.2,605.4Z"/><polygon class="cls-23" points="551.4 259 551.4 248.7 293.5 88.1 116.4 189.3 116.4 199.6 374.2 370.5 551.4 259"/><polygon class="cls-24" points="293.5 88.1 278.9 95.5 374.2 360.2 374 370.4 374.2 370.5 551.4 259 551.4 248.7 293.5 88.1"/><polygon class="cls-25" points="552.1 248.3 293.5 77.8 116.4 189.3 374.2 360.2 552.1 248.3"/><polygon class="cls-5" points="533.2 248.7 292.6 88.7 134.6 189.3 375.1 349.3 533.2 248.7"/><polygon class="cls-24" points="292.6 88.7 134.6 189.3 145.1 196.2 292.6 100.8 292.6 88.7"/><polygon class="cls-24" points="292.6 100.8 524.8 254.1 533.2 248.7 292.6 88.7 292.6 100.8"/><polygon class="cls-26" points="346.5 293.3 413.6 300 480.3 257.5 319.9 151.8 290 155.7 371 194.7 348.2 241.1 346.5 293.3"/><polygon class="cls-17" points="146.1 411.4 140.1 413.5 361.2 560 361.2 552.4 146.1 411.4"/><polygon class="cls-9" points="221.2 460.6 212.4 464.9 212.4 282.2 221.2 288.7 221.2 460.6"/><polygon class="cls-27" points="296 509.7 287.2 515 287.2 332.6 296 338.8 296 509.7"/><polygon class="cls-28" points="207.9 470 212.4 474.2 212.4 275.9 207.9 272.9 207.9 470"/><polygon class="cls-28" points="282.5 524.5 287 528.7 286.6 326.5 282.5 324.2 282.5 524.5"/><polygon class="cls-29" points="151 414.4 140.2 413.5 140.2 234.2 151 241.7 151 414.4"/><polygon class="cls-29" points="226.4 464 215.6 463.4 215.6 284.7 226.4 292.2 226.4 464"/><polygon class="cls-29" points="301.1 512.9 290.2 512.9 290.2 334.7 301.1 342.1 301.1 512.9"/><polygon class="cls-22" points="164.7 159 173.3 164.7 173.3 178 346.5 293.3 382.2 271.4 382.2 151.8 153.1 0 158.6 162.8 164.7 159"/><polygon class="cls-3" points="164.7 159 173.3 164.7 173.3 178 346.5 293.3 347 293 347 157.5 117.9 22.4 117.9 188.4 164.7 159"/><polygon class="cls-5" points="382.2 151.9 153.1 0 117.8 22.3 346.9 174.1 382.2 151.9"/><polygon class="cls-26" points="382.4 345.1 156.5 195 178.1 181 173.3 164.7 134.6 189.3 375.1 349.3 382.4 345.1"/><path class="cls-5" d="M376.5,218.7c9.6,5.6,4.5,16.4,12.8,16.5,5.7,0,25.4-9.3,30.1-11.6,15.1-7.4,24.7-26.2,24.7-53.4,0-48.3-30.5-105.2-67.8-126.7-24-13.9-48.1-7.5-64.1,5-9.3,7.3-3.5,26.2-3.5,43.5.1,48.3,30.5,105.2,67.8,126.7Z"/><path class="cls-3" d="M355.4,63.5c-32.7-18.9-59.2.2-59.2,42.5s26.7,92,59.3,110.9h0c32.7,18.9,59.2-.2,59.2-42.5S388.1,82.3,355.4,63.5Z"/><path class="cls-3" d="M355.4,52.6c-37.3-21.5-67.6.2-67.6,48.5s30.5,105.2,67.8,126.7V216.9C322.9,198,296.3,148.3,296.2,106s26.5-61.4,59.2-42.5,59.3,68.6,59.4,110.9-26.5,61.3-59.2,42.5v10.9c37.3,21.6,67.6-.2,67.6-48.5S392.7,74.1,355.4,52.6Z"/><path class="cls-30" d="M401.8,191.6l-7.9-3.4-15.4-8-17-4.7-22.5-18-8.1-.8-6.8-6.8-7.1-2.3-2.3-3.8-5.6-4.3c2.4,16.1,14.6,24.8,30.8,34.2,4.8,2.8,10,5.6,15.4,8.7s10.6,6.3,15.4,9c16.9,9.9,29.3,15.2,31.1.2Zm-93-55.4h0a12.25,12.25,0,0,0,.2,1.9l-.2-1.9ZM402,187.4h0l-.1,2.1c0-.7.1-1.4.1-2.1Z"/><path class="cls-31" d="M309,138.1l.1,1.5.1.1c-.1-.6-.1-1.1-.2-1.6Zm93,51.3a12.48,12.48,0,0,1-.2,2.1l.2.1v-2.2Z"/><path class="cls-32" d="M401.9,187.4l-.3-.1-7.8-1.3-15.4-10.1-6-.6-11-1.1L344.1,159l-5.1-4.4-2.6.1-5.5.2-4.4-5.9-2.4-3.3-3.2-.1-4.3-.2-1.1-3.4-.8-2.4-5.3-3-.7-.4.1,1.9c.1.5.1,1,.2,1.5l5.6,4.3,2.3,3.8L324,150l6.8,6.8,8.1.8,22.4,17.9,17,4.7,15.4,8,7.9,3.4c.1-.7.1-1.4.2-2.1Z"/><path class="cls-33" d="M402.4,184.7c-2,1.5-6.8-.5-13.6-4.4l-.2-.1-.3-.2c-3.2-1.8-6.7-4-10.6-6.5-6.8-4.3-14.7-9.3-23-14.1l-2.6-1.5c-12-6.8-22.8-12-31-16.7-6.5-3.7-11.2-7.1-13.5-10.7l-2.2,3.7,3.4,2h0l.7.4,5.3,3,.8,2.4,1.1,3.4,4.3.2,3.2.1,2.4,3.3,4.4,5.9,5.5-.2,2.6-.1,5.1,4.4,17.3,15.1,11,1.1,6,.6L394,185.9l7.8,1.3.3.1h.1l2.8,5.4-2.6-8Z"/><path class="cls-34" d="M306.1,125.8c0-10.6,24.3,7.8,48.6,21.8,4.7,2.7,9.4,5.3,13.9,7.8,18.9,10.5,34.8,19.2,34.8,26.5,0,10.5-21.8-7-48.6-22.6S306.2,136.3,306.1,125.8Z"/><path class="cls-35" d="M388.9,180.3l-.2-.1Zm-34.1-20.8c8.3,4.8,16.1,9.8,23,14.1C370.9,169.2,363.1,164.3,354.8,159.5Zm0,0-2.6-1.5,2.6,1.5Z"/><path class="cls-36" d="M397.9,171.6c-1.2,1.1-8.9-1.8-18.3-7-.8-.4-1.6-.9-2.4-1.4-7.7-4.5-14-9.1-15.7-11.5v1.1c0,1.9-8.5-1.7-19.8-8.3q-2.85-1.65-6-3.6c-12.6-7.7-23-15.6-25.2-18.7a2.1,2.1,0,0,0-1.1.4c-.4.3-.5.8-.1,1.6a37.18,37.18,0,0,0,3.3,4.5,93.24,93.24,0,0,0,7.7,7.7c1.8,1.6,3.3,2.9,4.3,3.7.7.6,1.1.9,1.1.9l2.3.9,2.6,1.1c7.6,3.1,22.1,9.1,30.7,12.6,0,0,8.5,5.1,15.5,9.5,1.2.8,2.4,1.5,3.5,2.1a86.15,86.15,0,0,0,13,6.2c2.4.9,4.3,1.4,5.7,1.9.3.1.4-.1.4-.4a9.08,9.08,0,0,0-1.2-3.1c.1,0-.1-.2-.3-.2Z"/><path class="cls-37" d="M394.2,167.5l-5.9-1-8.3-5.6-5.9-2.1-12.7-8.7v1.6c1.7,2.4,8,7,15.7,11.5.8.5,1.6.9,2.4,1.4,9.4,5.2,17.1,8.1,18.3,7a.76.76,0,0,0,.2-.4v-.9l-3.8-2.8Z"/><path class="cls-38" d="M314.2,119.6l-4.1-1.9c0,1.5-.1,3.3-.1,3.6a1.78,1.78,0,0,0,.4,1c2.1,3.2,12.6,11,25.2,18.7,2,1.3,4,2.4,6,3.6,11.3,6.5,19.8,10.1,19.8,8.3v-2.7l-.7-.5L346,146.8,334.2,134l-12.7-5.1-3.9-6.2c-1.2-1.2-2.4-2.2-3.4-3.1Z"/><path class="cls-39" d="M316.7,120.7l-2.5-1.1c1,.9,2.2,1.8,3.6,2.9Z"/><path class="cls-31" d="M398,166.8v3.4l.2.1-.2-3.5ZM360.8,145h0a1.38,1.38,0,0,1,.3.4.1.1,0,0,1,.1-.1l-.4-.3Z"/><path class="cls-40" d="M397.8,166.6c-.8.7-4.2-.2-8.9-2.3l-.6.1-1-.8c-2.4-1.1-5-2.4-7.8-4-.8-.5-1.7-.9-2.5-1.4s-1.8-1-2.6-1.6h-.2l-.3-.3c-6-3.7-10.6-7.2-12.3-9.3,0,.5,0,1.8-.1,3.1l12.7,8.7,5.9,2.1,8.3,5.6,5.9,1,3.8,2.7v-3.4l-.3-.2Z"/><path class="cls-34" d="M380,157.9l-5.6-1.2c.9.5,1.7,1,2.6,1.6s1.6.9,2.5,1.4c2.8,1.5,5.4,2.9,7.8,4Zm-18.9-12.6h0a2.84,2.84,0,0,1,.4,1.2.37.37,0,0,1-.1.3l.1.1v.2c1.6,2.1,6.3,5.6,12.3,9.3Zm33.4,18.2-5.6.8c4.7,2,8.1,3,8.9,2.3l-3.3-3.1Z"/><path class="cls-41" d="M361.5,146.9l-.1-.1c-.6.6-3.2-.2-7.2-2l-8.1-.2-5.6-7.1c-1.5-.9-3.1-1.8-4.7-2.8-4.1-2.5-8-5.1-11.5-7.5l-2.6-.7-1.4-2.2c-.9-.6-1.7-1.3-2.5-1.9l3.9,6.2,12.7,5.1,11.8,12.8,14.7,2.9.7.5a24.58,24.58,0,0,1,.1-3.1l-.2.1Z"/><path class="cls-31" d="M310.2,115.1l-.2-.1v2.7l.2.1v-2.4l.1.1c0-.2-.1-.3-.1-.4Z"/><path class="cls-41" d="M310.2,115.3v2.4l4.1,1.9q-3.3-2.85-3.9-4.2A.35.35,0,0,1,310.2,115.3Z"/><path class="cls-34" d="M360.7,145l-6.5-.2c4,1.8,6.6,2.6,7.2,2a.37.37,0,0,0,.1-.3,2.22,2.22,0,0,0-.5-1.1A1.38,1.38,0,0,0,360.7,145Zm-26.3-15.3-10-2.5c3.5,2.4,7.4,4.9,11.5,7.5,1.6,1,3.2,1.9,4.7,2.8l-6.2-7.8Zm-17.7-11.1-6.5-3.5a.37.37,0,0,0,.1.3q.6,1.35,3.9,4.2l2.5,1.1,1.1,1.8c.8.6,1.6,1.2,2.5,1.9l-3.6-5.8Z"/><path class="cls-33" d="M399.5,160.7c-3.2,3-13.1-1.8-25.2-8.8l-.4-.2-.2-.1c-2.5-1.4-5.1-2.9-7.7-4.5-4-2.4-8-4.8-12.1-7.1s-7.9-4.5-11.7-6.6c-2.7-1.5-5.3-3-7.9-4.5l-.3-.2-.3-.2c-11.2-6.5-20.5-12.5-24.4-18.7l-3.3,3.1,3.9,2.1.3.1,6.5,3.5,3.6,5.8,1.4,2.2,2.6.7,10,2.5,6.1,7.8,5.6,7.1,8.1.2,6.5.2h0l.3.3,12.7,11.1.3.3h.2l5.6,1.2,7.2,5.7,1,.8.6-.1,5.6-.8,3.3,3.1.2.2h0l4.7,4.5-2.8-10.7Z"/><path class="cls-42" d="M374.3,151.9l-.4-.2Zm-40-23.1-.3-.2ZM366,147c2.6,1.6,5.2,3.1,7.7,4.5C371.2,150.1,368.6,148.6,366,147Zm-12-7.1q-6-3.45-11.7-6.6C346.1,135.4,350.1,137.6,354,139.9Zm-46.6-36.4a10.66,10.66,0,0,0,2,6.2c4,6.2,13.2,12.2,24.4,18.7-15-8.6-26.5-16.5-26.4-24.9Zm93.2,51.6Zm0-.6v0Zm0-.6v0Zm0-.6Zm-.1-.5v0Zm0-.6v.1C400.4,152.3,400.4,152.2,400.5,152.2Zm-.1-.6v0Zm-.1-.6v0Zm-.1-.6v0Zm-.1-.6v0Zm-.1-.6v.2C400.1,149.3,400.1,149.2,400,149.2Zm-.1-.7a.6.6,0,0,0,.1.4A.6.6,0,0,0,399.9,148.5Zm-.1-.7.1.5Zm-.1-.4.1.3Zm-.2-.7c0,.2.1.3.1.5A1.09,1.09,0,0,0,399.5,146.7Zm-.1-.7c0,.2.1.4.1.6C399.5,146.4,399.4,146.2,399.4,146Zm-7.7-19.4a78.54,78.54,0,0,1,7.4,19.4,83.25,83.25,0,0,0-7.6-19.4Zm-.4-.7.3.5Zm-.2-.4c0,.1.1.2.1.3C391.2,125.7,391.1,125.6,391.1,125.5Zm-.4-.6.1.2Zm-.3-.6a.1.1,0,0,0,.1.1A.1.1,0,0,1,390.4,124.3Zm-.3-.6ZM353.9,87.3c-25.6-14.8-46.3-7.7-46.6,15.8,0-1,.1-2,.2-3,2,10.7,23,23.8,44,36,8.3,4.8,17,10.3,24.5,14.6,12.4,7.2,21.8,11.3,21.8,4.2,0-11.2-2-21.6-15-41.7a102.19,102.19,0,0,0-28.9-25.9Z"/><path class="cls-43" d="M400.6,157.6a4,4,0,0,1-1.1,3.1h0A5.1,5.1,0,0,0,400.6,157.6Zm0-.8v0Zm0-.5v0Zm0-.6v0Zm0-.6v0Zm0-.5v0Zm0-.6v0Zm-.1-.6v0Zm0-.5v0Zm-.1-.6v.4A.3.3,0,0,0,400.4,152.3Zm-.1-.6v.5A.45.45,0,0,0,400.3,151.7Zm0-.6v0Zm-.1-.5v0Zm-.2-.6.1.4Zm-.1-.6.1.4Zm-.1-.5v0Zm-.1-.6v0Zm-.1-.6v0Zm-.1-.5v0Zm-.2-.6v0Zm-8.2-20.9.1.2Zm-.4-.6.2.4Zm-.4-.7.3.5Zm-.3-.6c.1.2.2.3.3.5C390.1,124.1,390.1,123.9,390,123.8Zm-.4-.6.3.6Zm-6.8-10.1h0a97.69,97.69,0,0,1,6.8,10,117,117,0,0,0-6.8-10Z"/><path class="cls-44" d="M373.7,151.5l.2.1Zm-40-23.1.3.2Zm8.5,4.9c-2.7-1.5-5.3-3-7.9-4.5C336.8,130.2,339.5,131.8,342.2,133.3Zm11.8,6.6c4.1,2.4,8.1,4.8,12.1,7.1C362.1,144.7,358.1,142.3,354,139.9Zm45.5,20.8c-3.2,3-13.1-1.8-25.2-8.8,12.2,7,22,11.8,25.2,8.8Z"/><path class="cls-30" d="M382.7,113.2c13,20.1,15,30.5,15,41.7,0,7-9.4,2.9-21.8-4.2-7.5-4.4-16.2-9.8-24.5-14.6-21-12.1-42-25.3-44-35.9-.1,1-.1,2-.2,3v.5c0,8.4,11.5,16.3,26.4,24.9l.3.2.3.2c2.5,1.5,5.2,3,7.9,4.5,3.8,2.1,7.8,4.4,11.7,6.6s8.1,4.8,12.1,7.1c2.6,1.6,5.2,3.1,7.7,4.5l.2.1.4.2c12.1,7,22,11.8,25.2,8.8a4,4,0,0,0,1.1-3.1v-7.3l-.5-.4v-.2l-.1-.4V149s0-.3-.1-.4v-.2l-.1-.5v-.2l-.1-.3v-.2c0-.2-.1-.3-.1-.5v-.1c0-.2-.1-.4-.1-.6v-.1a83.25,83.25,0,0,0-7.6-19.4l-.1-.1-.3-.5-.1-.2c0-.1-.1-.2-.1-.3l-.2-.4-.1-.2-.3-.5-.1-.1c-.1-.2-.2-.3-.3-.5v-.1l-.3-.6h0a97.69,97.69,0,0,0-6.8-10Z"/><polygon class="cls-8" points="364.6 586.4 289.3 537.7 289.3 330.7 364.6 380.7 364.6 586.4"/><polygon class="cls-45" points="359.6 570.2 295.2 527.3 295.2 340.7 359.6 383.9 359.6 570.2"/><polygon class="cls-8" points="363.6 518.8 291.9 472.5 291.9 464.2 363.6 510.8 363.6 518.8"/><g class="cls-11"><rect class="cls-8" x="328.48" y="326.85" width="2.1" height="71.7" transform="translate(-154.97 436.21) rotate(-56.37)"/></g><g class="cls-11"><rect class="cls-8" x="328.38" y="333.64" width="2.1" height="71.7" transform="translate(-160.67 439.16) rotate(-56.37)"/></g><g class="cls-11"><rect class="cls-8" x="328.42" y="340.42" width="2.1" height="71.7" transform="translate(-166.29 442.21) rotate(-56.37)"/></g><g class="cls-11"><rect class="cls-8" x="328.42" y="347.07" width="2.1" height="71.7" transform="translate(-171.83 445.18) rotate(-56.37)"/></g><g class="cls-11"><rect class="cls-8" x="328.45" y="354.06" width="2.1" height="72.3" transform="translate(-178.55 442.35) rotate(-55.68)"/></g><g class="cls-11"><rect class="cls-8" x="328.39" y="361.55" width="2.1" height="71.1" transform="translate(-182.95 457.74) rotate(-57.07)"/></g><g class="cls-11"><rect class="cls-8" x="328.49" y="369.08" width="2.1" height="70.6" transform="translate(-188.27 467.56) rotate(-57.78)"/></g><g class="cls-11"><rect class="cls-8" x="328.55" y="374.63" width="2.1" height="72.9" transform="translate(-196.18 445.29) rotate(-55)"/></g><g class="cls-11"><rect class="cls-8" x="328.42" y="381.03" width="2.1" height="71.7" transform="translate(-200.1 460.33) rotate(-56.37)"/></g><g class="cls-11"><rect class="cls-8" x="328.45" y="384.76" width="2.1" height="71.7" transform="translate(-203.2 462.02) rotate(-56.37)"/></g><g class="cls-11"><rect class="cls-8" x="328.39" y="382.74" width="2.1" height="71.7" transform="translate(-201.54 461.07) rotate(-56.37)"/></g><g class="cls-11"><rect class="cls-8" x="328.38" y="387.75" width="2.1" height="71.7" transform="translate(-205.72 463.29) rotate(-56.37)"/></g><g class="cls-46"><polygon class="cls-8" points="305.7 425.1 304.8 454.2 353.4 484.9 354.4 455.9 305.7 425.1"/></g><g class="cls-47"><path class="cls-48" d="M313.2,449.1a3.78,3.78,0,0,1-1.6-2.6c-.1-.6-.2-1.1-.3-1.6a9.15,9.15,0,0,1-.1-1.7v-1.4a6.75,6.75,0,0,1,.2-1.4,4.05,4.05,0,0,1,.5-.9,1.22,1.22,0,0,1,1.1.2h.1a3.18,3.18,0,0,1,1.1,1.2,5.23,5.23,0,0,1,.6,1.6l.3,1.8c0,.6.1,1.1.1,1.6v1.5a2.66,2.66,0,0,1-.3,1.2.9.9,0,0,1-.6.6,1.07,1.07,0,0,1-1.1-.1Zm-.1-11.7-.1-.1a4.55,4.55,0,0,0-1.9-.8,1.79,1.79,0,0,0-1.4.4,3.46,3.46,0,0,0-.8,1.6,9.25,9.25,0,0,0-.2,2.9,13.94,13.94,0,0,0,1.8,6.9,8.91,8.91,0,0,0,2.8,3l.1.1a4.55,4.55,0,0,0,1.9.8,1.79,1.79,0,0,0,1.4-.4,3.46,3.46,0,0,0,.8-1.6,9.25,9.25,0,0,0,.2-2.9,12.42,12.42,0,0,0-.4-3.3,13.32,13.32,0,0,0-1-2.8,11.35,11.35,0,0,0-1.5-2.3,12.17,12.17,0,0,0-1.7-1.5Z"/><path class="cls-48" d="M322.8,446.4l.1.1.6.4h0a3.39,3.39,0,0,1,.6.6,2,2,0,0,1,.4.8l.3.9a2.77,2.77,0,0,1,.1.9,2,2,0,0,1-.1.8,1.42,1.42,0,0,1-.2.6.76.76,0,0,1-.4.2,1.85,1.85,0,0,1-.7-.2l-.3-.2-.7-.4-.1-4.6.4.1Zm1-1.8-.1-.1-1.3-.8-2.2-1.4-.1.1.4,13.5a8.74,8.74,0,0,0,1,.8l.2.1a6.72,6.72,0,0,0,1.2.6l-.1-4.3,1.2.8a10.09,10.09,0,0,0,1.5.7,2,2,0,0,0,1.1-.1,1.83,1.83,0,0,0,.7-1,4,4,0,0,0,.2-1.9,7.8,7.8,0,0,0-.3-2.2,7,7,0,0,0-.8-2,6.57,6.57,0,0,0-1.2-1.7,4.5,4.5,0,0,0-1.4-1.1Z"/><path class="cls-48" d="M336.5,452.9l-6.5-4.2-.1.1.3,11.7a2.93,2.93,0,0,0,.4,1.6,2.66,2.66,0,0,0,1,1.1h.1l4,2.6c.9.6,1.4.4,1.5-.5v-1.1l-3.5-2.3c-.3-.2-.7-.4-1.1-.7h0v-2.9l3.3,2.2a4.87,4.87,0,0,0,.1-1.2,6.75,6.75,0,0,0-.2-1.4l-2.3-1.5-1-.6v-2.9l4.1,2.7a5.07,5.07,0,0,0,.2-1.3,5.7,5.7,0,0,0-.1-1.3Z"/><path class="cls-48" d="M347.6,459.9l-.8-.5c-.5-.3-.8-.4-1-.2a1.88,1.88,0,0,0-.3,1.3l.1,2.4q.15,3.15.3,6h0c-.2-.8-.6-2-1-3.6l-2.5-8.6-1.2-.9-.2-.1a6.11,6.11,0,0,0-1.4-.7l.3,13.6c.3.2.6.5.9.7l.2.1c.4.2.7.4,1.1.6l-.1-4c-.1-2-.2-4.1-.3-6.1h0c.3,1.2.6,2.4.9,3.4l2.6,8.7,1.2.9.3.2a6.11,6.11,0,0,0,1.4.7l-.3-13.6-.2-.3Z"/></g><polygon class="cls-29" points="300 465.9 295.5 465.9 295.5 340.9 300 344.1 300 465.9"/><polygon class="cls-29" points="300 527.3 295.5 527.3 295.5 474.9 300 478.1 300 527.3"/><g class="cls-10"><g class="cls-11"><polygon class="cls-12" points="309.7 536.8 295.2 527.4 295.1 486.5 345.1 374 359.3 383.8 359.3 428 309.7 536.8"/></g></g><path class="cls-8" d="M285,469.2a1.88,1.88,0,0,1-.8-.2,1.6,1.6,0,0,1-.8-1.4V438.3a1.57,1.57,0,0,1,.9-1.4l7-3.1,1.3,2.9-6,2.7V465l5.7-3.2,1.5,2.7-8,4.5A1.88,1.88,0,0,1,285,469.2Z"/><g class="cls-49"><path class="cls-8" d="M300.9,462.1l-1.1-3,3.8-1.4V432.2l-3.7,1.9-1.5-2.8,5.9-3.1a1.53,1.53,0,0,1,2.1.7,1.85,1.85,0,0,1,.2.7v29.3a1.64,1.64,0,0,1-1,1.5Z"/></g><polygon class="cls-12" points="352.9 456 326.8 418.3 305.9 426 305.2 424 327.6 415.7 354.6 454.8 352.9 456"/><rect class="cls-22" x="128.53" y="348.49" width="3.1" height="244.2" transform="translate(-333.56 317.57) rotate(-56.28)"/><rect class="cls-22" x="128.48" y="390.41" width="3.1" height="244.21" transform="translate(-368.41 336.07) rotate(-56.27)"/><rect class="cls-22" x="34.6" y="409" width="3.1" height="41.9"/><rect class="cls-22" x="50.7" y="419.5" width="3.1" height="41.9"/><rect class="cls-22" x="66.8" y="430" width="3.1" height="41.9"/><rect class="cls-22" x="82.9" y="440.5" width="3.1" height="41.9"/><rect class="cls-22" x="99.1" y="451" width="3.1" height="41.9"/><rect class="cls-22" x="115.2" y="461.5" width="3.1" height="41.9"/><rect class="cls-22" x="131.3" y="472" width="3.1" height="41.9"/><rect class="cls-22" x="147.4" y="482.5" width="3.1" height="41.9"/><rect class="cls-22" x="163.5" y="494.1" width="3.1" height="40.8"/><rect class="cls-22" x="179.6" y="504.6" width="3.1" height="41.9"/><rect class="cls-22" x="195.7" y="516.2" width="3.1" height="41.9"/><rect class="cls-22" x="211.8" y="526.7" width="3.1" height="40.8"/><rect class="cls-22" x="227.9" y="535.1" width="3.1" height="41.9"/><polygon class="cls-50" points="374.4 593.5 127.7 430.2 127.7 418.6 374.4 581.9 374.4 593.5"/><polygon class="cls-50" points="374.4 593.5 546 485.5 546 473.9 374.4 581.9 374.4 593.5"/><polygon class="cls-51" points="326.6 676.9 0 458.1 12.1 451.5 338.8 670.3 326.6 676.9"/></g></g></g></svg>