<svg xmlns="http://www.w3.org/2000/svg" viewBox="0 0 512 512" id="settings.svg">
	<path d="M284 506.9h-53.8c-8.1 0-10.9 0-38.5-68.3l-21.3-8.7c-58.1 26.3-64.9 26.3-67.2 26.3h-4.4l-3.8-3.3-38.2-37.3c-5.8-5.8-7.8-7.8 22-75.3l-8.7-20.6C0 294.7 0 291.8 0 283.5v-52.8c0-8.3 0-10.9 69.9-37.9l8.7-20.6C47 105.8 49.1 103.7 55.4 97.8l41-40.2 5.1-.2c6.2 0 29.2 8.4 68.4 24.9l21.2-8.6c25.6-68.6 28.7-68.6 36.8-68.6h53.8c8.1 0 10.9 0 38.5 68.4l21.3 8.6c58-26.3 64.9-26.3 67.3-26.3h4.4L417 59l38.2 37.3c5.8 5.9 7.8 7.9-22.1 75.4l8.7 20.7c70.2 25 70.2 27.9 70.2 36.2v52.7c0 8.1 0 10.9-70 37.9l-8.6 20.6c31.4 66.2 29.3 68.2 23.5 74.2l-41.3 40.5-5.1.1c-6.2 0-29.1-8.4-68.2-25l-21.4 8.6c-25.7 68.7-28.7 68.7-36.9 68.7zm-48.2-21.8h42.5c4.9-9.9 15.4-36.3 23.8-58.9l1.7-4.5 38.7-15.6 4.2 1.8c23 9.8 50.3 20.7 60.9 24.1l29.8-29.2a922 922 0 0 0-25.6-57.9l-2.1-4.4 16-38.2 4.4-1.7c23.3-9 50.2-20 60.3-25.1v-41c-10.2-4.8-37-15-60.2-23.2l-4.5-1.6-16.1-38.2 1.9-4.3a912.4 912.4 0 0 0 24.4-59.3L406 78.7c-9.7 3.4-36.7 15-59.5 25.4l-4.2 1.9-38.7-15.6-1.7-4.3a893.6 893.6 0 0 0-25.6-59h-42.4A847 847 0 0 0 210.1 86l-1.7 4.5-38.7 15.5-4.2-1.8a948.3 948.3 0 0 0-61-24l-29.8 29.2a845.5 845.5 0 0 0 25.6 57.8l2.1 4.4-16.1 38.2-4.3 1.7c-23.2 8.9-50.1 20-60.2 25v41a906 906 0 0 0 60.1 23.3l4.5 1.6 16.1 38.1-1.9 4.3a912.4 912.4 0 0 0-24.4 59.3l30 29.3c9.6-3.4 36.6-15 59.5-25.4l4.3-2 38.6 15.7 1.7 4.3c9 22.9 20.4 49.3 25.5 59.1zM256 343.8a88.7 88.7 0 0 1-89.5-87.8 88.8 88.8 0 0 1 89.5-87.8 88.7 88.7 0 0 1 89.4 87.8 88.7 88.7 0 0 1-89.4 87.8zm0-153.8a66.9 66.9 0 0 0-67.7 66 67 67 0 0 0 67.7 66 66.9 66.9 0 0 0 67.6-66c0-36.4-30.3-66-67.6-66z"/>
</svg>
