<svg xmlns="http://www.w3.org/2000/svg" id="side-logo" viewBox="0 0 229.2 282.7">
	<path fill="#0fa3b1" d="M59.3 0A59.2 59.2 0 0 0 0 59.3V282.7L31.4 238H172a57 57 0 0 0 57-57v-2h.2V0H59.3z"/>
	<path d="M117.8 172.3H96.2c-4 0-6.9-1.5-8.6-4.5l-17.1-29.9c-.8-1.3-1.7-2.2-2.7-2.8s-2.4-.9-4.2-.9h-6.1v38.1h-24V69.2H67c7.5 0 13.8.8 19.1 2.3s9.6 3.7 12.9 6.4c3.3 2.7 5.7 6 7.3 9.7a33 33 0 0 1 1 21.7 29.8 29.8 0 0 1-10.5 15c-2.6 2-5.5 3.6-8.9 4.9a21.4 21.4 0 0 1 8.1 7.3l21.8 35.8zM67 117.7c3.3 0 6-.4 8.3-1.2s4.2-2 5.6-3.4c1.5-1.5 2.5-3.2 3.2-5.1.7-2 1-4.1 1-6.3 0-4.5-1.5-8.1-4.4-10.6s-7.5-3.8-13.7-3.8h-9.6v30.6H67v-.2zM150.6 87.6v24.1H183v17.7h-32.4v24.5h42.3v18.4h-66.4V69.2h66.4v18.4h-42.3z" fill="#fff"/>
</svg>
