<svg xmlns="http://www.w3.org/2000/svg" width="512" height="512" viewBox="0 0 430.1 430.1"><path d="M412.2 246.2A199.6 199.6 0 0 0 183.9 18 120.6 120.6 0 0 0 18 184a199.5 199.5 0 0 0 228.2 228.3 120.6 120.6 0 0 0 166-166zm-102.4 59.6a82.8 82.8 0 0 1-37 28.5 147.6 147.6 0 0 1-57.6 10.2c-26.6 0-48.6-4.6-66-14a85.4 85.4 0 0 1-30-27 58.6 58.6 0 0 1-11.6-33 22 22 0 0 1 7.1-16.3 25.3 25.3 0 0 1 18.2-6.8c5.9 0 11 1.8 15.1 5.3s7.6 8.7 10.4 15.4c3.4 7.9 7 14.4 11 19.7 3.8 5.2 9.3 9.5 16.3 12.8 7 3.4 16.3 5.1 28 5.1 16 0 28.8-3.4 38.7-10.2 10-6.9 14.7-15.2 14.7-25.3 0-8-2.6-14.5-7.9-19.5-5.3-5-12.1-8.9-20.6-11.5-8.6-2.8-20-5.6-34.4-8.7a269.4 269.4 0 0 1-48.6-14.7 78.7 78.7 0 0 1-31.2-23.2 57.5 57.5 0 0 1-11.6-36.6c0-13.8 4-26.2 12.2-37s20-19 35.3-24.8c15.4-5.8 33.4-8.6 54.1-8.6 16.6 0 30.9 1.9 43 5.7 12 3.8 22.1 8.9 30.2 15.2 8 6.4 13.9 13 17.6 20a44 44 0 0 1 5.6 20.7 24 24 0 0 1-7.1 16.8c-4.7 5-10.8 7.5-17.8 7.5-6.3 0-11.3-1.5-14.8-4.6-3.3-3-6.9-7.7-10.7-14.4a64 64 0 0 0-17.3-21.6c-6.5-5.1-17.3-7.8-32.4-7.7-13.9 0-25 2.8-33.4 8.4-8.4 5.6-12.4 12.2-12.5 19.8a19 19 0 0 0 4.2 12.4c2.8 3.4 6.8 6.5 11.8 9 5 2.6 10.2 4.6 15.4 6 5.2 1.6 13.9 3.7 26 6.5 15 3.3 28.7 7 41 10.9 12.3 4 22.8 8.8 31.5 14.5 8.7 5.7 15.6 13 20.4 21.8 5 8.8 7.4 19.6 7.4 32.2a70 70 0 0 1-12.7 41.1z" fill="#434a53"/></svg>