<?xml version="1.0" encoding="utf-8"?>
<!-- Generator: Adobe Illustrator 22.1.0, SVG Export Plug-In . SVG Version: 6.00 Build 0)  -->
<svg version="1.1" id="Capa_1" xmlns="http://www.w3.org/2000/svg" xmlns:xlink="http://www.w3.org/1999/xlink" x="0px" y="0px"
	 viewBox="0 0 512 512" style="enable-background:new 0 0 512 512;" xml:space="preserve">
<style type="text/css">
	.st0{fill:#FFFFFF;}
</style>
<g>
	<g>
		<path class="st0" d="M256,512C114.8,512,0,397.2,0,256S114.8,0,256,0s256,114.8,256,256S397.1,512,256,512z M256,17.4
			c-131.6,0-238.6,107-238.6,238.6c0,131.6,107.1,238.6,238.6,238.6S494.6,387.6,494.6,256C494.6,124.4,387.6,17.4,256,17.4z"/>
		<path class="st0" d="M285.5,345.9c-2.2,0-4.4-0.8-6.1-2.5l-84.8-84.9c-3.4-3.4-3.4-8.9,0-12.3l84.8-84.9c3.4-3.4,8.9-3.4,12.3,0
			c3.4,3.4,3.4,8.9,0,12.3L213,252.3l78.7,78.8c3.4,3.4,3.4,8.9,0,12.3C289.9,345,287.7,345.9,285.5,345.9z"/>
	</g>
</g>
</svg>
