<svg xmlns="http://www.w3.org/2000/svg" viewBox="0 0 1096 760.91"><defs><style>.cls-1{fill:#42393e;}.cls-2{fill:#110f10;}.cls-3{fill:#231e21;}.cls-4{fill:#e3dfd6;}.cls-5{fill:#999285;}.cls-6{fill:#6d675a;}.cls-7{fill:#8d8d8d;}.cls-8{fill:#757575;}.cls-9{fill:#aeaeae;}.cls-10{fill:#953e0b;}.cls-11{fill:#351601;}.cls-12{fill:#652a06;}.cls-13{fill:#6a6a6a;}.cls-14{fill:#3c3c3c;}.cls-15{fill:#505050;}.cls-16{fill:#7c7c7c;}.cls-17{fill:#4e4e4e;}.cls-18{fill:#626262;}.cls-19{fill:#5f5f5f;}.cls-20{fill:#737373;}.cls-21{fill:#8e8e8e;}.cls-22{fill:#606060;}.cls-23{fill:#747474;}.cls-24{fill:#9f9f9f;}.cls-25{fill:#717171;}.cls-26{fill:#858585;}.cls-27{fill:#a3a3a3;}.cls-28{fill:#898989;}.cls-29{fill:#b95702;}.cls-30{fill:#f77402;}.cls-31{fill:#d16202;}.cls-32{fill:#a6a6a6;}.cls-33{fill:#c9c9c9;}.cls-34{fill:#dedede;}</style></defs><title>5Asset 5</title><g id="Layer_2" data-name="Layer 2"><g id="Layer_1-2" data-name="Layer 1"><g id="Layer_2-2" data-name="Layer 2"><g id="Layer_1-2-2" data-name="Layer 1-2"><path class="cls-1" d="M548,742.94l548-316.42Q822,268.18,548,109.76L0,426.52Z"/><polygon class="cls-2" points="1095.96 426.56 547.97 742.86 547.97 760.91 1095.96 442.3 1095.96 426.56"/><polygon class="cls-3" points="0 426.56 547.97 742.86 547.97 760.91 0 442.3 0 426.56"/><polygon class="cls-4" points="508.89 186.28 125.67 406.58 568.45 662.22 950.86 441.44 508.89 186.28"/><polygon class="cls-5" points="568.45 670.06 950.86 449.28 950.86 441.44 568.45 662.22 568.45 670.06"/><polygon class="cls-6" points="568.45 670.06 125.67 414.43 125.67 406.58 568.45 662.22 568.45 670.06"/><polygon class="cls-7" points="914.68 241.26 914.68 445.04 923.97 439.68 923.97 235.89 914.68 241.26"/><polygon class="cls-8" points="914.68 241.26 914.68 445.04 905.39 439.68 905.39 235.89 914.68 241.26"/><polygon class="cls-9" points="914.68 230.53 905.39 235.89 914.68 241.26 923.97 235.89 914.68 230.53"/><polygon class="cls-7" points="510.93 10.73 510.93 214.51 520.22 209.15 520.22 5.36 510.93 10.73"/><polygon class="cls-8" points="510.93 10.73 510.93 214.51 501.64 209.15 501.64 5.36 510.93 10.73"/><polygon class="cls-9" points="510.93 0 501.64 5.36 510.93 10.73 520.22 5.36 510.93 0"/><polygon class="cls-7" points="165.26 206.69 165.26 410.48 174.55 405.12 174.55 201.33 165.26 206.69"/><polygon class="cls-8" points="165.26 206.69 165.26 410.48 155.97 405.12 155.97 201.33 165.26 206.69"/><polygon class="cls-9" points="165.26 195.97 155.97 201.33 165.26 206.69 174.55 201.33 165.26 195.97"/><polygon class="cls-7" points="567.06 439.85 567.06 643.64 576.35 638.28 576.35 434.49 567.06 439.85"/><polygon class="cls-8" points="567.06 439.85 567.06 643.64 557.77 638.28 557.77 434.49 567.06 439.85"/><polygon class="cls-9" points="567.06 429.13 557.77 434.49 567.06 439.85 576.35 434.49 567.06 429.13"/><polygon class="cls-10" points="220.99 401.6 314.5 455.59 454.75 374.61 361.25 320.63 220.99 401.6"/><polygon class="cls-11" points="220.99 415.1 220.99 401.6 314.5 455.59 314.5 469.08 220.99 415.1"/><polygon class="cls-12" points="454.75 388.11 454.75 374.61 314.5 455.59 314.5 469.08 454.75 388.11"/><path class="cls-13" d="M371.15,326.64c-2.51-5.81-7.33-10.27-10.75-10a3.08,3.08,0,0,0-1.47.52v0l-81.81,47.24,11.69,20.24,81.81-47.23h0C373.05,336.22,373.37,331.76,371.15,326.64Z"/><path class="cls-14" d="M289.17,374c-2.51-5.82-7.33-10.28-10.76-10s-4.17,5.28-1.65,11.1,7.32,10.28,10.75,10S291.68,379.79,289.17,374Z"/><path class="cls-15" d="M278.6,374.05c-1.87-4.33-1.94-8.18-.43-10-3.21.53-3.87,5.38-1.41,11.05s7.32,10.28,10.75,10A2.93,2.93,0,0,0,289.6,384l-.24,0C285.93,384.33,281.11,379.86,278.6,374.05Z"/><path class="cls-16" d="M388.1,336.53c-2.52-5.82-7.33-10.28-10.76-10a3,3,0,0,0-1.46.52h0L294.05,374.3l11.69,20.24,81.81-47.23h0C390,346.1,390.31,341.64,388.1,336.53Z"/><path class="cls-17" d="M306.11,383.85c-2.51-5.81-7.33-10.28-10.76-10s-4.17,5.28-1.65,11.1,7.32,10.28,10.75,10S308.62,389.67,306.11,383.85Z"/><path class="cls-18" d="M295.54,383.93c-1.87-4.33-1.93-8.18-.43-10-3.21.53-3.86,5.38-1.41,11.05s7.32,10.28,10.75,10a2.94,2.94,0,0,0,2.09-1.1l-.24,0C302.87,394.21,298.05,389.75,295.54,383.93Z"/><path class="cls-7" d="M404.87,346.12c-2.51-5.81-7.33-10.28-10.76-10a3,3,0,0,0-1.46.52v0L310.83,383.9l11.68,20.24,81.82-47.23h0C406.77,355.7,407.08,351.24,404.87,346.12Z"/><path class="cls-19" d="M322.88,393.45c-2.51-5.82-7.33-10.28-10.75-10s-4.17,5.28-1.66,11.1,7.33,10.28,10.76,10S325.4,399.27,322.88,393.45Z"/><path class="cls-20" d="M312.32,393.53c-1.88-4.33-1.94-8.18-.44-10-3.21.53-3.86,5.38-1.41,11.05s7.33,10.28,10.76,10a3,3,0,0,0,2.09-1.09l-.25.05C319.64,403.81,314.83,399.34,312.32,393.53Z"/><path class="cls-21" d="M377.74,315.43c-2.51-5.81-7.33-10.28-10.76-10a3.06,3.06,0,0,0-1.46.53v0l-81.82,47.24,11.69,20.24,81.82-47.23h0C379.64,325,380,320.55,377.74,315.43Z"/><path class="cls-22" d="M295.75,362.76c-2.51-5.82-7.33-10.28-10.75-10s-4.17,5.28-1.66,11.1,7.33,10.27,10.76,10S298.27,368.57,295.75,362.76Z"/><path class="cls-23" d="M285.19,362.84c-1.88-4.33-1.94-8.19-.44-10-3.21.53-3.86,5.38-1.41,11.05s7.33,10.27,10.76,10a3,3,0,0,0,2.09-1.09l-.25.05C292.51,373.12,287.7,368.65,285.19,362.84Z"/><path class="cls-24" d="M394.51,325c-2.51-5.82-7.33-10.28-10.75-10a3,3,0,0,0-1.47.53v0l-81.81,47.24,11.68,20.24L394,335.82h0C396.41,334.61,396.72,330.15,394.51,325Z"/><path class="cls-25" d="M312.53,372.36c-2.52-5.82-7.33-10.28-10.76-10s-4.17,5.28-1.66,11.09,7.33,10.28,10.76,10S315,378.17,312.53,372.36Z"/><path class="cls-26" d="M302,372.44c-1.87-4.33-1.94-8.19-.44-10-3.21.54-3.86,5.38-1.41,11.05s7.33,10.28,10.76,10a3,3,0,0,0,2.09-1.09,1.87,1.87,0,0,1-.25,0C309.28,382.71,304.47,378.25,302,372.44Z"/><path class="cls-27" d="M384,303.94c-2.51-5.82-7.33-10.28-10.75-10a3,3,0,0,0-1.47.53v0L290,341.71,301.67,362l81.82-47.24h0C385.93,313.51,386.24,309.06,384,303.94Z"/><path class="cls-8" d="M302.05,351.26c-2.52-5.81-7.33-10.27-10.76-10s-4.17,5.27-1.66,11.09,7.33,10.28,10.76,10S304.56,357.08,302.05,351.26Z"/><path class="cls-28" d="M291.48,351.34c-1.87-4.33-1.94-8.18-.44-10-3.21.53-3.86,5.38-1.41,11.05,2.51,5.82,7.33,10.28,10.76,10a3,3,0,0,0,2.09-1.09l-.25,0C298.8,361.62,294,357.16,291.48,351.34Z"/><polygon class="cls-29" points="364.23 394.37 364.23 398.96 371.04 402.89 371.04 398.3 364.23 394.37"/><polygon class="cls-30" points="378.95 385.87 364.23 394.37 371.04 398.3 385.78 389.86 378.95 385.87"/><polygon class="cls-31" points="385.73 394.37 385.75 389.86 371.04 398.3 371.04 402.89 385.73 394.37"/><polygon class="cls-29" points="364.23 389.54 364.23 394.13 371.04 398.06 371.04 393.47 364.23 389.54"/><polygon class="cls-30" points="378.95 381.04 364.23 389.54 371.04 393.47 385.78 385.02 378.95 381.04"/><polygon class="cls-31" points="385.73 389.54 385.75 385.02 371.04 393.47 371.04 398.06 385.73 389.54"/><polygon class="cls-29" points="364.23 384.71 364.23 389.3 371.04 393.23 371.04 388.64 364.23 384.71"/><polygon class="cls-30" points="378.95 376.21 364.23 384.71 371.04 388.64 385.78 380.19 378.95 376.21"/><polygon class="cls-31" points="385.73 384.71 385.75 380.19 371.04 388.64 371.04 393.23 385.73 384.71"/><polygon class="cls-29" points="364.23 379.88 364.23 384.46 371.04 388.39 371.04 383.81 364.23 379.88"/><polygon class="cls-30" points="378.95 371.38 364.23 379.88 371.04 383.81 385.78 375.36 378.95 371.38"/><polygon class="cls-31" points="385.73 379.88 385.75 375.36 371.04 383.81 371.04 388.39 385.73 379.88"/><polygon class="cls-29" points="371.35 398.46 371.35 403.05 378.16 406.98 378.16 402.39 371.35 398.46"/><polygon class="cls-30" points="386.07 389.96 371.35 398.46 378.16 402.39 392.9 393.95 386.07 389.96"/><polygon class="cls-31" points="392.85 398.46 392.87 393.95 378.16 402.39 378.16 406.98 392.85 398.46"/><polygon class="cls-29" points="371.35 393.63 371.35 398.22 378.16 402.15 378.16 397.56 371.35 393.63"/><polygon class="cls-30" points="386.07 385.13 371.35 393.63 378.16 397.56 392.9 389.12 386.07 385.13"/><polygon class="cls-31" points="392.85 393.63 392.87 389.12 378.16 397.56 378.16 402.15 392.85 393.63"/><polygon class="cls-29" points="371.35 388.8 371.35 393.39 378.16 397.32 378.16 392.73 371.35 388.8"/><polygon class="cls-30" points="386.07 380.3 371.35 388.8 378.16 392.73 392.9 384.29 386.07 380.3"/><polygon class="cls-31" points="392.85 388.8 392.87 384.29 378.16 392.73 378.16 397.32 392.85 388.8"/><polygon class="cls-29" points="371.35 383.97 371.35 388.56 378.16 392.49 378.16 387.9 371.35 383.97"/><polygon class="cls-30" points="386.07 375.47 371.35 383.97 378.16 387.9 392.9 379.45 386.07 375.47"/><polygon class="cls-31" points="392.85 383.97 392.87 379.45 378.16 387.9 378.16 392.49 392.85 383.97"/><polygon class="cls-29" points="378.48 402.56 378.48 407.14 385.29 411.07 385.29 406.49 378.48 402.56"/><polygon class="cls-30" points="393.2 394.06 378.48 402.56 385.29 406.49 400.03 398.04 393.2 394.06"/><polygon class="cls-31" points="399.98 402.56 400 398.04 385.29 406.49 385.29 411.07 399.98 402.56"/><polygon class="cls-29" points="378.48 397.73 378.48 402.31 385.29 406.24 385.29 401.65 378.48 397.73"/><polygon class="cls-30" points="393.2 389.22 378.48 397.73 385.29 401.65 400.03 393.21 393.2 389.22"/><polygon class="cls-31" points="399.98 397.73 400 393.21 385.29 401.65 385.29 406.24 399.98 397.73"/><polygon class="cls-29" points="378.48 392.89 378.48 397.48 385.29 401.41 385.29 396.82 378.48 392.89"/><polygon class="cls-30" points="393.2 384.39 378.48 392.89 385.29 396.82 400.03 388.38 393.2 384.39"/><polygon class="cls-31" points="399.98 392.89 400 388.38 385.29 396.82 385.29 401.41 399.98 392.89"/><polygon class="cls-29" points="378.48 388.06 378.48 392.65 385.29 396.58 385.29 391.99 378.48 388.06"/><polygon class="cls-30" points="393.2 379.56 378.48 388.06 385.29 391.99 400.03 383.55 393.2 379.56"/><polygon class="cls-31" points="399.98 388.06 400 383.55 385.29 391.99 385.29 396.58 399.98 388.06"/><polygon class="cls-29" points="364.23 375.04 364.23 379.62 371.04 383.55 371.04 378.96 364.23 375.04"/><polygon class="cls-30" points="378.95 366.53 364.23 375.04 371.04 378.96 385.78 370.52 378.95 366.53"/><polygon class="cls-31" points="385.73 375.04 385.75 370.52 371.04 378.96 371.04 383.55 385.73 375.04"/><polygon class="cls-29" points="364.23 370.2 364.23 374.79 371.04 378.72 371.04 374.13 364.23 370.2"/><polygon class="cls-30" points="378.95 361.7 364.23 370.2 371.04 374.13 385.78 365.69 378.95 361.7"/><polygon class="cls-31" points="385.73 370.2 385.75 365.69 371.04 374.13 371.04 378.72 385.73 370.2"/><polygon class="cls-29" points="364.23 365.37 364.23 369.96 371.04 373.89 371.04 369.3 364.23 365.37"/><polygon class="cls-30" points="378.95 356.87 364.23 365.37 371.04 369.3 385.78 360.86 378.95 356.87"/><polygon class="cls-31" points="385.73 365.37 385.75 360.86 371.04 369.3 371.04 373.89 385.73 365.37"/><polygon class="cls-29" points="364.23 360.54 364.23 365.13 371.04 369.06 371.04 364.47 364.23 360.54"/><polygon class="cls-30" points="378.95 352.04 364.23 360.54 371.04 364.47 385.78 356.02 378.95 352.04"/><polygon class="cls-31" points="385.73 360.54 385.75 356.02 371.04 364.47 371.04 369.06 385.73 360.54"/><polygon class="cls-29" points="371.35 379.13 371.35 383.71 378.16 387.64 378.16 383.06 371.35 379.13"/><polygon class="cls-30" points="386.07 370.63 371.35 379.13 378.16 383.06 392.9 374.61 386.07 370.63"/><polygon class="cls-31" points="392.85 379.13 392.87 374.61 378.16 383.06 378.16 387.64 392.85 379.13"/><polygon class="cls-29" points="371.35 374.3 371.35 378.88 378.16 382.81 378.16 378.23 371.35 374.3"/><polygon class="cls-30" points="386.07 365.8 371.35 374.3 378.16 378.23 392.9 369.78 386.07 365.8"/><polygon class="cls-31" points="392.85 374.3 392.87 369.78 378.16 378.23 378.16 382.81 392.85 374.3"/><polygon class="cls-29" points="371.35 369.46 371.35 374.05 378.16 377.98 378.16 373.39 371.35 369.46"/><polygon class="cls-30" points="386.07 360.96 371.35 369.46 378.16 373.39 392.9 364.95 386.07 360.96"/><polygon class="cls-31" points="392.85 369.46 392.87 364.95 378.16 373.39 378.16 377.98 392.85 369.46"/><polygon class="cls-29" points="371.35 364.63 371.35 369.22 378.16 373.15 378.16 368.56 371.35 364.63"/><polygon class="cls-30" points="386.07 356.13 371.35 364.63 378.16 368.56 392.9 360.12 386.07 356.13"/><polygon class="cls-31" points="392.85 364.63 392.87 360.12 378.16 368.56 378.16 373.15 392.85 364.63"/><polygon class="cls-29" points="378.48 383.22 378.48 387.8 385.29 391.74 385.29 387.15 378.48 383.22"/><polygon class="cls-30" points="393.2 374.72 378.48 383.22 385.29 387.15 400.03 378.7 393.2 374.72"/><polygon class="cls-31" points="399.98 383.22 400 378.7 385.29 387.15 385.29 391.74 399.98 383.22"/><polygon class="cls-29" points="378.48 378.39 378.48 382.97 385.29 386.9 385.29 382.32 378.48 378.39"/><polygon class="cls-30" points="393.2 369.89 378.48 378.39 385.29 382.32 400.03 373.87 393.2 369.89"/><polygon class="cls-31" points="399.98 378.39 400 373.87 385.29 382.32 385.29 386.9 399.98 378.39"/><polygon class="cls-29" points="378.48 373.56 378.48 378.14 385.29 382.07 385.29 377.49 378.48 373.56"/><polygon class="cls-30" points="393.2 365.05 378.48 373.56 385.29 377.49 400.03 369.04 393.2 365.05"/><polygon class="cls-31" points="399.98 373.56 400 369.04 385.29 377.49 385.29 382.07 399.98 373.56"/><polygon class="cls-29" points="378.48 368.72 378.48 373.31 385.29 377.24 385.29 372.65 378.48 368.72"/><polygon class="cls-30" points="393.2 360.22 378.48 368.72 385.29 372.65 400.03 364.21 393.2 360.22"/><polygon class="cls-31" points="399.98 368.72 400 364.21 385.29 372.65 385.29 377.24 399.98 368.72"/><polygon class="cls-29" points="331.99 412.07 331.99 416.66 338.8 420.59 338.8 416 331.99 412.07"/><polygon class="cls-30" points="346.71 403.57 331.99 412.07 338.8 416 353.54 407.56 346.71 403.57"/><polygon class="cls-31" points="353.49 412.07 353.51 407.56 338.8 416 338.8 420.59 353.49 412.07"/><polygon class="cls-29" points="331.99 407.24 331.99 411.83 338.8 415.76 338.8 411.17 331.99 407.24"/><polygon class="cls-30" points="346.71 398.74 331.99 407.24 338.8 411.17 353.54 402.72 346.71 398.74"/><polygon class="cls-31" points="353.49 407.24 353.51 402.72 338.8 411.17 338.8 415.76 353.49 407.24"/><polygon class="cls-29" points="331.99 402.41 331.99 406.99 338.8 410.93 338.8 406.34 331.99 402.41"/><polygon class="cls-30" points="346.71 393.91 331.99 402.41 338.8 406.34 353.54 397.89 346.71 393.91"/><polygon class="cls-31" points="353.49 402.41 353.51 397.89 338.8 406.34 338.8 410.93 353.49 402.41"/><polygon class="cls-29" points="331.99 397.58 331.99 402.16 338.8 406.09 338.8 401.51 331.99 397.58"/><polygon class="cls-30" points="346.71 389.07 331.99 397.58 338.8 401.51 353.54 393.06 346.71 389.07"/><polygon class="cls-31" points="353.49 397.58 353.51 393.06 338.8 401.51 338.8 406.09 353.49 397.58"/><polygon class="cls-29" points="339.12 416.16 339.12 420.75 345.92 424.68 345.92 420.09 339.12 416.16"/><polygon class="cls-30" points="353.84 407.66 339.12 416.16 345.92 420.09 360.67 411.65 353.84 407.66"/><polygon class="cls-31" points="360.62 416.16 360.63 411.65 345.92 420.09 345.92 424.68 360.62 416.16"/><polygon class="cls-29" points="339.12 411.33 339.12 415.92 345.92 419.85 345.92 415.26 339.12 411.33"/><polygon class="cls-30" points="353.84 402.83 339.12 411.33 345.92 415.26 360.67 406.82 353.84 402.83"/><polygon class="cls-31" points="360.62 411.33 360.63 406.82 345.92 415.26 345.92 419.85 360.62 411.33"/><polygon class="cls-29" points="339.12 406.5 339.12 411.08 345.92 415.02 345.92 410.43 339.12 406.5"/><polygon class="cls-30" points="353.84 398 339.12 406.5 345.92 410.43 360.67 401.98 353.84 398"/><polygon class="cls-31" points="360.62 406.5 360.63 401.98 345.92 410.43 345.92 415.02 360.62 406.5"/><polygon class="cls-29" points="339.12 401.67 339.12 406.25 345.92 410.18 345.92 405.6 339.12 401.67"/><polygon class="cls-30" points="353.84 393.17 339.12 401.67 345.92 405.6 360.67 397.15 353.84 393.17"/><polygon class="cls-31" points="360.62 401.67 360.63 397.15 345.92 405.6 345.92 410.18 360.62 401.67"/><polygon class="cls-29" points="346.24 420.25 346.24 424.84 353.05 428.77 353.05 424.19 346.24 420.25"/><polygon class="cls-30" points="360.96 411.75 346.24 420.25 353.05 424.19 367.79 415.74 360.96 411.75"/><polygon class="cls-31" points="367.74 420.25 367.76 415.74 353.05 424.19 353.05 428.77 367.74 420.25"/><polygon class="cls-29" points="346.24 415.42 346.24 420.01 353.05 423.94 353.05 419.35 346.24 415.42"/><polygon class="cls-30" points="360.96 406.92 346.24 415.42 353.05 419.35 367.79 410.91 360.96 406.92"/><polygon class="cls-31" points="367.74 415.42 367.76 410.91 353.05 419.35 353.05 423.94 367.74 415.42"/><polygon class="cls-29" points="346.24 410.59 346.24 415.18 353.05 419.11 353.05 414.52 346.24 410.59"/><polygon class="cls-30" points="360.96 402.09 346.24 410.59 353.05 414.52 367.79 406.07 360.96 402.09"/><polygon class="cls-31" points="367.74 410.59 367.76 406.07 353.05 414.52 353.05 419.11 367.74 410.59"/><polygon class="cls-29" points="346.24 405.76 346.24 410.35 353.05 414.27 353.05 409.69 346.24 405.76"/><polygon class="cls-30" points="360.96 397.26 346.24 405.76 353.05 409.69 367.79 401.24 360.96 397.26"/><polygon class="cls-31" points="367.74 405.76 367.76 401.24 353.05 409.69 353.05 414.27 367.74 405.76"/><polygon class="cls-29" points="331.99 392.73 331.99 397.32 338.8 401.25 338.8 396.66 331.99 392.73"/><polygon class="cls-30" points="346.71 384.23 331.99 392.73 338.8 396.66 353.54 388.22 346.71 384.23"/><polygon class="cls-31" points="353.49 392.73 353.51 388.22 338.8 396.66 338.8 401.25 353.49 392.73"/><polygon class="cls-29" points="331.99 387.9 331.99 392.49 338.8 396.42 338.8 391.83 331.99 387.9"/><polygon class="cls-30" points="346.71 379.4 331.99 387.9 338.8 391.83 353.54 383.38 346.71 379.4"/><polygon class="cls-31" points="353.49 387.9 353.51 383.38 338.8 391.83 338.8 396.42 353.49 387.9"/><polygon class="cls-29" points="331.99 383.07 331.99 387.65 338.8 391.59 338.8 387 331.99 383.07"/><polygon class="cls-30" points="346.71 374.57 331.99 383.07 338.8 387 353.54 378.55 346.71 374.57"/><polygon class="cls-31" points="353.49 383.07 353.51 378.55 338.8 387 338.8 391.59 353.49 383.07"/><polygon class="cls-29" points="331.99 378.24 331.99 382.82 338.8 386.75 338.8 382.17 331.99 378.24"/><polygon class="cls-30" points="346.71 369.74 331.99 378.24 338.8 382.17 353.54 373.72 346.71 369.74"/><polygon class="cls-31" points="353.49 378.24 353.51 373.72 338.8 382.17 338.8 386.75 353.49 378.24"/><polygon class="cls-29" points="339.11 396.82 339.11 401.41 345.92 405.34 345.92 400.75 339.11 396.82"/><polygon class="cls-30" points="353.84 388.32 339.11 396.82 345.92 400.75 360.67 392.31 353.84 388.32"/><polygon class="cls-31" points="360.62 396.82 360.63 392.31 345.92 400.75 345.92 405.34 360.62 396.82"/><polygon class="cls-29" points="339.11 391.99 339.11 396.58 345.92 400.51 345.92 395.92 339.11 391.99"/><polygon class="cls-30" points="353.84 383.49 339.11 391.99 345.92 395.92 360.67 387.48 353.84 383.49"/><polygon class="cls-31" points="360.62 391.99 360.63 387.48 345.92 395.92 345.92 400.51 360.62 391.99"/><polygon class="cls-29" points="339.11 387.16 339.11 391.75 345.92 395.68 345.92 391.09 339.11 387.16"/><polygon class="cls-30" points="353.84 378.66 339.11 387.16 345.92 391.09 360.67 382.65 353.84 378.66"/><polygon class="cls-31" points="360.62 387.16 360.63 382.65 345.92 391.09 345.92 395.68 360.62 387.16"/><polygon class="cls-29" points="339.11 382.33 339.11 386.92 345.92 390.85 345.92 386.26 339.11 382.33"/><polygon class="cls-30" points="353.84 373.83 339.11 382.33 345.92 386.26 360.67 377.81 353.84 373.83"/><polygon class="cls-31" points="360.62 382.33 360.63 377.81 345.92 386.26 345.92 390.85 360.62 382.33"/><polygon class="cls-29" points="346.24 400.92 346.24 405.5 353.05 409.43 353.05 404.85 346.24 400.92"/><polygon class="cls-30" points="360.96 392.42 346.24 400.92 353.05 404.85 367.79 396.4 360.96 392.42"/><polygon class="cls-31" points="367.74 400.92 367.76 396.4 353.05 404.85 353.05 409.43 367.74 400.92"/><polygon class="cls-29" points="346.24 396.08 346.24 400.67 353.05 404.6 353.05 400.01 346.24 396.08"/><polygon class="cls-30" points="360.96 387.58 346.24 396.08 353.05 400.01 367.79 391.57 360.96 387.58"/><polygon class="cls-31" points="367.74 396.08 367.76 391.57 353.05 400.01 353.05 404.6 367.74 396.08"/><polygon class="cls-29" points="346.24 391.25 346.24 395.84 353.05 399.77 353.05 395.18 346.24 391.25"/><polygon class="cls-30" points="360.96 382.75 346.24 391.25 353.05 395.18 367.79 386.74 360.96 382.75"/><polygon class="cls-31" points="367.74 391.25 367.76 386.74 353.05 395.18 353.05 399.77 367.74 391.25"/><polygon class="cls-29" points="346.24 386.42 346.24 391.01 353.05 394.94 353.05 390.35 346.24 386.42"/><polygon class="cls-30" points="360.96 377.92 346.24 386.42 353.05 390.35 367.79 381.9 360.96 377.92"/><polygon class="cls-31" points="367.74 386.42 367.76 381.9 353.05 390.35 353.05 394.94 367.74 386.42"/><polygon class="cls-29" points="299.75 429.77 299.75 434.36 306.56 438.29 306.56 433.7 299.75 429.77"/><polygon class="cls-30" points="314.48 421.27 299.75 429.77 306.56 433.7 321.3 425.25 314.48 421.27"/><polygon class="cls-31" points="321.26 429.77 321.27 425.25 306.56 433.7 306.56 438.29 321.26 429.77"/><polygon class="cls-29" points="299.75 424.94 299.75 429.52 306.56 433.45 306.56 428.87 299.75 424.94"/><polygon class="cls-30" points="314.48 416.44 299.75 424.94 306.56 428.87 321.3 420.42 314.48 416.44"/><polygon class="cls-31" points="321.26 424.94 321.27 420.42 306.56 428.87 306.56 433.45 321.26 424.94"/><polygon class="cls-29" points="299.75 420.11 299.75 424.69 306.56 428.62 306.56 424.04 299.75 420.11"/><polygon class="cls-30" points="314.48 411.61 299.75 420.11 306.56 424.04 321.3 415.59 314.48 411.61"/><polygon class="cls-31" points="321.26 420.11 321.27 415.59 306.56 424.04 306.56 428.62 321.26 420.11"/><polygon class="cls-29" points="299.75 415.27 299.75 419.86 306.56 423.79 306.56 419.2 299.75 415.27"/><polygon class="cls-30" points="314.48 406.77 299.75 415.27 306.56 419.2 321.3 410.76 314.48 406.77"/><polygon class="cls-31" points="321.26 415.27 321.27 410.76 306.56 419.2 306.56 423.79 321.26 415.27"/><polygon class="cls-29" points="306.88 433.86 306.88 438.45 313.69 442.38 313.69 437.79 306.88 433.86"/><polygon class="cls-30" points="321.6 425.36 306.88 433.86 313.69 437.79 328.43 429.35 321.6 425.36"/><polygon class="cls-31" points="328.38 433.86 328.4 429.35 313.69 437.79 313.69 442.38 328.38 433.86"/><polygon class="cls-29" points="306.88 429.03 306.88 433.62 313.69 437.55 313.69 432.96 306.88 429.03"/><polygon class="cls-30" points="321.6 420.53 306.88 429.03 313.69 432.96 328.43 424.51 321.6 420.53"/><polygon class="cls-31" points="328.38 429.03 328.4 424.51 313.69 432.96 313.69 437.55 328.38 429.03"/><polygon class="cls-29" points="306.88 424.2 306.88 428.78 313.69 432.71 313.69 428.13 306.88 424.2"/><polygon class="cls-30" points="321.6 415.7 306.88 424.2 313.69 428.13 328.43 419.68 321.6 415.7"/><polygon class="cls-31" points="328.38 424.2 328.4 419.68 313.69 428.13 313.69 432.71 328.38 424.2"/><polygon class="cls-29" points="306.88 419.37 306.88 423.95 313.69 427.88 313.69 423.3 306.88 419.37"/><polygon class="cls-30" points="321.6 410.86 306.88 419.37 313.69 423.3 328.43 414.85 321.6 410.86"/><polygon class="cls-31" points="328.38 419.37 328.4 414.85 313.69 423.3 313.69 427.88 328.38 419.37"/><polygon class="cls-29" points="314 437.95 314 442.54 320.81 446.47 320.81 441.88 314 437.95"/><polygon class="cls-30" points="328.73 429.45 314 437.95 320.81 441.88 335.55 433.44 328.73 429.45"/><polygon class="cls-31" points="335.5 437.95 335.52 433.44 320.81 441.88 320.81 446.47 335.5 437.95"/><polygon class="cls-29" points="314 433.12 314 437.71 320.81 441.64 320.81 437.05 314 433.12"/><polygon class="cls-30" points="328.73 424.62 314 433.12 320.81 437.05 335.55 428.61 328.73 424.62"/><polygon class="cls-31" points="335.5 433.12 335.52 428.61 320.81 437.05 320.81 441.64 335.5 433.12"/><polygon class="cls-29" points="314 428.29 314 432.88 320.81 436.81 320.81 432.22 314 428.29"/><polygon class="cls-30" points="328.73 419.79 314 428.29 320.81 432.22 335.55 423.77 328.73 419.79"/><polygon class="cls-31" points="335.5 428.29 335.52 423.77 320.81 432.22 320.81 436.81 335.5 428.29"/><polygon class="cls-29" points="314 423.46 314 428.04 320.81 431.97 320.81 427.39 314 423.46"/><polygon class="cls-30" points="328.73 414.96 314 423.46 320.81 427.39 335.55 418.94 328.73 414.96"/><polygon class="cls-31" points="335.5 423.46 335.52 418.94 320.81 427.39 320.81 431.97 335.5 423.46"/><polygon class="cls-29" points="299.75 410.43 299.75 415.02 306.56 418.95 306.56 414.36 299.75 410.43"/><polygon class="cls-30" points="314.48 401.93 299.75 410.43 306.56 414.36 321.3 405.92 314.48 401.93"/><polygon class="cls-31" points="321.26 410.43 321.27 405.92 306.56 414.36 306.56 418.95 321.26 410.43"/><polygon class="cls-29" points="299.75 405.6 299.75 410.19 306.56 414.12 306.56 409.53 299.75 405.6"/><polygon class="cls-30" points="314.48 397.1 299.75 405.6 306.56 409.53 321.3 401.08 314.48 397.1"/><polygon class="cls-31" points="321.26 405.6 321.27 401.08 306.56 409.53 306.56 414.12 321.26 405.6"/><polygon class="cls-29" points="299.75 400.77 299.75 405.35 306.56 409.29 306.56 404.7 299.75 400.77"/><polygon class="cls-30" points="314.48 392.27 299.75 400.77 306.56 404.7 321.3 396.25 314.48 392.27"/><polygon class="cls-31" points="321.26 400.77 321.27 396.25 306.56 404.7 306.56 409.29 321.26 400.77"/><polygon class="cls-29" points="299.75 395.94 299.75 400.52 306.56 404.45 306.56 399.87 299.75 395.94"/><polygon class="cls-30" points="314.48 387.43 299.75 395.94 306.56 399.87 321.3 391.42 314.48 387.43"/><polygon class="cls-31" points="321.26 395.94 321.27 391.42 306.56 399.87 306.56 404.45 321.26 395.94"/><polygon class="cls-29" points="306.88 414.52 306.88 419.11 313.69 423.04 313.69 418.45 306.88 414.52"/><polygon class="cls-30" points="321.6 406.02 306.88 414.52 313.69 418.45 328.43 410.01 321.6 406.02"/><polygon class="cls-31" points="328.38 414.52 328.4 410.01 313.69 418.45 313.69 423.04 328.38 414.52"/><polygon class="cls-29" points="306.88 409.69 306.88 414.28 313.69 418.21 313.69 413.62 306.88 409.69"/><polygon class="cls-30" points="321.6 401.19 306.88 409.69 313.69 413.62 328.43 405.18 321.6 401.19"/><polygon class="cls-31" points="328.38 409.69 328.4 405.18 313.69 413.62 313.69 418.21 328.38 409.69"/><polygon class="cls-29" points="306.88 404.86 306.88 409.44 313.69 413.38 313.69 408.79 306.88 404.86"/><polygon class="cls-30" points="321.6 396.36 306.88 404.86 313.69 408.79 328.43 400.34 321.6 396.36"/><polygon class="cls-31" points="328.38 404.86 328.4 400.34 313.69 408.79 313.69 413.38 328.38 404.86"/><polygon class="cls-29" points="306.88 400.03 306.88 404.61 313.69 408.54 313.69 403.96 306.88 400.03"/><polygon class="cls-30" points="321.6 391.53 306.88 400.03 313.69 403.96 328.43 395.51 321.6 391.53"/><polygon class="cls-31" points="328.38 400.03 328.4 395.51 313.69 403.96 313.69 408.54 328.38 400.03"/><polygon class="cls-29" points="314 418.61 314 423.2 320.81 427.13 320.81 422.55 314 418.61"/><polygon class="cls-30" points="328.73 410.11 314 418.61 320.81 422.55 335.55 414.1 328.73 410.11"/><polygon class="cls-31" points="335.5 418.61 335.52 414.1 320.81 422.55 320.81 427.13 335.5 418.61"/><polygon class="cls-29" points="314 413.78 314 418.37 320.81 422.3 320.81 417.71 314 413.78"/><polygon class="cls-30" points="328.73 405.28 314 413.78 320.81 417.71 335.55 409.27 328.73 405.28"/><polygon class="cls-31" points="335.5 413.78 335.52 409.27 320.81 417.71 320.81 422.3 335.5 413.78"/><polygon class="cls-29" points="314 408.95 314 413.54 320.81 417.47 320.81 412.88 314 408.95"/><polygon class="cls-30" points="328.73 400.45 314 408.95 320.81 412.88 335.55 404.44 328.73 400.45"/><polygon class="cls-31" points="335.5 408.95 335.52 404.44 320.81 412.88 320.81 417.47 335.5 408.95"/><polygon class="cls-29" points="314 404.12 314 408.7 320.81 412.63 320.81 408.05 314 404.12"/><polygon class="cls-30" points="328.73 395.62 314 404.12 320.81 408.05 335.55 399.6 328.73 395.62"/><polygon class="cls-31" points="335.5 404.12 335.52 399.6 320.81 408.05 320.81 412.63 335.5 404.12"/><polygon class="cls-29" points="238.94 393.86 238.94 398.44 245.75 402.38 245.75 397.79 238.94 393.86"/><polygon class="cls-30" points="253.66 385.36 238.94 393.86 245.75 397.79 260.49 389.34 253.66 385.36"/><polygon class="cls-31" points="260.44 393.86 260.46 389.34 245.75 397.79 245.75 402.38 260.44 393.86"/><polygon class="cls-29" points="238.94 389.03 238.94 393.61 245.75 397.54 245.75 392.96 238.94 389.03"/><polygon class="cls-30" points="253.66 380.53 238.94 389.03 245.75 392.96 260.49 384.51 253.66 380.53"/><polygon class="cls-31" points="260.44 389.03 260.46 384.51 245.75 392.96 245.75 397.54 260.44 389.03"/><polygon class="cls-29" points="238.94 384.19 238.94 388.78 245.75 392.71 245.75 388.12 238.94 384.19"/><polygon class="cls-30" points="253.66 375.69 238.94 384.19 245.75 388.12 260.49 379.68 253.66 375.69"/><polygon class="cls-31" points="260.44 384.19 260.46 379.68 245.75 388.12 245.75 392.71 260.44 384.19"/><polygon class="cls-29" points="238.94 379.36 238.94 383.95 245.75 387.88 245.75 383.29 238.94 379.36"/><polygon class="cls-30" points="253.66 370.86 238.94 379.36 245.75 383.29 260.49 374.85 253.66 370.86"/><polygon class="cls-31" points="260.44 379.36 260.46 374.85 245.75 383.29 245.75 387.88 260.44 379.36"/><polygon class="cls-29" points="246.06 397.95 246.06 402.54 252.87 406.47 252.87 401.88 246.06 397.95"/><polygon class="cls-30" points="260.79 389.45 246.06 397.95 252.87 401.88 267.61 393.43 260.79 389.45"/><polygon class="cls-31" points="267.56 397.95 267.58 393.43 252.87 401.88 252.87 406.47 267.56 397.95"/><polygon class="cls-29" points="246.06 393.12 246.06 397.7 252.87 401.63 252.87 397.05 246.06 393.12"/><polygon class="cls-30" points="260.79 384.62 246.06 393.12 252.87 397.05 267.61 388.6 260.79 384.62"/><polygon class="cls-31" points="267.56 393.12 267.58 388.6 252.87 397.05 252.87 401.63 267.56 393.12"/><polygon class="cls-29" points="246.06 388.29 246.06 392.87 252.87 396.8 252.87 392.22 246.06 388.29"/><polygon class="cls-30" points="260.79 379.79 246.06 388.29 252.87 392.22 267.61 383.77 260.79 379.79"/><polygon class="cls-31" points="267.56 388.29 267.58 383.77 252.87 392.22 252.87 396.8 267.56 388.29"/><polygon class="cls-29" points="246.06 383.45 246.06 388.04 252.87 391.97 252.87 387.38 246.06 383.45"/><polygon class="cls-30" points="260.79 374.95 246.06 383.45 252.87 387.38 267.61 378.94 260.79 374.95"/><polygon class="cls-31" points="267.56 383.45 267.58 378.94 252.87 387.38 252.87 391.97 267.56 383.45"/><polygon class="cls-29" points="253.19 402.04 253.19 406.63 260 410.56 260 405.97 253.19 402.04"/><polygon class="cls-30" points="267.91 393.54 253.19 402.04 260 405.97 274.74 397.53 267.91 393.54"/><polygon class="cls-31" points="274.69 402.04 274.71 397.53 260 405.97 260 410.56 274.69 402.04"/><polygon class="cls-29" points="253.19 397.21 253.19 401.8 260 405.73 260 401.14 253.19 397.21"/><polygon class="cls-30" points="267.91 388.71 253.19 397.21 260 401.14 274.74 392.69 267.91 388.71"/><polygon class="cls-31" points="274.69 397.21 274.71 392.69 260 401.14 260 405.73 274.69 397.21"/><polygon class="cls-29" points="253.19 392.38 253.19 396.96 260 400.89 260 396.31 253.19 392.38"/><polygon class="cls-30" points="267.91 383.88 253.19 392.38 260 396.31 274.74 387.86 267.91 383.88"/><polygon class="cls-31" points="274.69 392.38 274.71 387.86 260 396.31 260 400.89 274.69 392.38"/><polygon class="cls-29" points="253.19 387.55 253.19 392.13 260 396.06 260 391.48 253.19 387.55"/><polygon class="cls-30" points="267.91 379.05 253.19 387.55 260 391.48 274.74 383.03 267.91 379.05"/><polygon class="cls-31" points="274.69 387.55 274.71 383.03 260 391.48 260 396.06 274.69 387.55"/><polygon class="cls-29" points="238.94 374.52 238.94 379.11 245.75 383.04 245.75 378.45 238.94 374.52"/><polygon class="cls-30" points="253.66 366.02 238.94 374.52 245.75 378.45 260.49 370 253.66 366.02"/><polygon class="cls-31" points="260.44 374.52 260.46 370 245.75 378.45 245.75 383.04 260.44 374.52"/><polygon class="cls-29" points="238.94 369.69 238.94 374.27 245.75 378.2 245.75 373.62 238.94 369.69"/><polygon class="cls-30" points="253.66 361.19 238.94 369.69 245.75 373.62 260.49 365.17 253.66 361.19"/><polygon class="cls-31" points="260.44 369.69 260.46 365.17 245.75 373.62 245.75 378.2 260.44 369.69"/><polygon class="cls-29" points="623.64 329.94 623.64 334.52 630.45 338.46 630.45 333.87 623.64 329.94"/><polygon class="cls-30" points="638.36 321.44 623.64 329.94 630.45 333.87 645.19 325.42 638.36 321.44"/><polygon class="cls-31" points="645.14 329.94 645.16 325.42 630.45 333.87 630.45 338.46 645.14 329.94"/><polygon class="cls-29" points="608.54 338.7 608.54 343.29 615.35 347.22 615.35 342.64 608.54 338.7"/><polygon class="cls-30" points="623.26 330.2 608.54 338.7 615.35 342.64 630.09 334.19 623.26 330.2"/><polygon class="cls-31" points="630.04 338.7 630.06 334.19 615.35 342.64 615.35 347.22 630.04 338.7"/><polygon class="cls-29" points="593.43 347.46 593.43 352.04 600.24 355.97 600.24 351.39 593.43 347.46"/><polygon class="cls-30" points="608.15 338.96 593.43 347.46 600.24 351.39 614.98 342.94 608.15 338.96"/><polygon class="cls-31" points="614.93 347.46 614.95 342.94 600.24 351.39 600.24 355.97 614.93 347.46"/><polygon class="cls-29" points="615.5 329.81 615.5 334.39 622.31 338.32 622.31 333.74 615.5 329.81"/><polygon class="cls-30" points="630.22 321.31 615.5 329.81 622.31 333.74 637.05 325.29 630.22 321.31"/><polygon class="cls-31" points="637 329.81 637.02 325.29 622.31 333.74 622.31 338.32 637 329.81"/><polygon class="cls-29" points="600.39 338.56 600.39 343.14 607.2 347.07 607.2 342.49 600.39 338.56"/><polygon class="cls-30" points="615.12 330.06 600.39 338.56 607.2 342.49 621.95 334.04 615.12 330.06"/><polygon class="cls-31" points="621.89 338.56 621.91 334.04 607.2 342.49 607.2 347.07 621.89 338.56"/><polygon class="cls-29" points="578.33 356.22 578.33 360.81 585.14 364.74 585.14 360.15 578.33 356.22"/><polygon class="cls-30" points="593.05 347.72 578.33 356.22 585.14 360.15 599.88 351.71 593.05 347.72"/><polygon class="cls-31" points="599.83 356.22 599.85 351.71 585.14 360.15 585.14 364.74 599.83 356.22"/><polygon class="cls-29" points="563.23 364.97 563.23 369.56 570.03 373.49 570.03 368.9 563.23 364.97"/><polygon class="cls-30" points="577.95 356.47 563.23 364.97 570.03 368.9 584.77 360.46 577.95 356.47"/><polygon class="cls-31" points="584.73 364.97 584.74 360.46 570.03 368.9 570.03 373.49 584.73 364.97"/><polygon class="cls-29" points="585.29 347.32 585.29 351.91 592.1 355.84 592.1 351.25 585.29 347.32"/><polygon class="cls-30" points="600.01 338.82 585.29 347.32 592.1 351.25 606.84 342.81 600.01 338.82"/><polygon class="cls-31" points="606.79 347.32 606.81 342.81 592.1 351.25 592.1 355.84 606.79 347.32"/><polygon class="cls-29" points="570.18 356.07 570.18 360.66 576.99 364.59 576.99 360 570.18 356.07"/><polygon class="cls-30" points="584.91 347.57 570.18 356.07 576.99 360 591.74 351.56 584.91 347.57"/><polygon class="cls-31" points="591.69 356.07 591.71 351.56 576.99 360 576.99 364.59 591.69 356.07"/><polygon class="cls-32" points="570.18 360.66 570.18 360.95 576.99 364.91 576.99 364.59 570.18 360.66"/><polygon class="cls-33" points="591.69 356.07 576.99 364.59 576.99 364.91 585.16 360.17 591.69 356.39 591.69 356.07"/><polygon class="cls-33" points="584.73 364.97 585.14 364.74 585.16 360.17 584.73 360.43 584.73 364.97"/><polygon class="cls-33" points="606.8 347.32 592.11 355.84 592.11 356.16 600.28 351.42 606.8 347.64 606.8 347.32"/><polygon class="cls-33" points="599.84 356.22 600.25 355.99 600.28 351.42 599.84 351.68 599.84 356.22"/><polygon class="cls-33" points="592.1 351.25 591.71 351.56 591.69 356.39 592.11 356.16 592.1 351.25"/><polygon class="cls-34" points="585.29 347.32 584.91 347.57 591.71 351.56 592.1 351.25 585.29 347.32"/><polygon class="cls-33" points="621.89 338.56 607.19 347.07 607.19 347.39 615.37 342.65 621.89 338.88 621.89 338.56"/><polygon class="cls-33" points="614.93 347.45 615.34 347.22 615.36 342.65 614.93 342.91 614.93 347.45"/><polygon class="cls-33" points="637 329.81 622.31 338.32 622.31 338.64 630.48 333.9 637 330.12 637 329.81"/><polygon class="cls-33" points="630.04 338.7 630.45 338.47 630.48 333.9 630.04 334.16 630.04 338.7"/><polygon class="cls-33" points="622.3 333.74 621.91 334.04 621.89 338.88 622.31 338.64 622.3 333.74"/><polygon class="cls-34" points="615.49 329.81 615.11 330.06 621.91 334.04 622.3 333.74 615.49 329.81"/><polygon class="cls-33" points="607.24 342.49 606.85 342.79 606.83 347.63 607.25 347.39 607.24 342.49"/><polygon class="cls-34" points="600.43 338.56 600.05 338.81 606.85 342.79 607.24 342.49 600.43 338.56"/></g></g></g></g></svg>