<svg xmlns="http://www.w3.org/2000/svg" viewBox="0 0 266 51.58"><defs><style>.cls-1{fill:#0fa3b1;}</style></defs><title>5Asset 5</title><g id="Layer_2" data-name="Layer 2"><g id="Elements"><g id="_Group_" data-name="&lt;Group&gt;"><path id="_Path_" data-name="&lt;Path&gt;" class="cls-1" d="M0,39c2.11,0,5.19-.44,7.09.08,1.64.45,1.13.84,3,.84.48,2.17,6.94-.83,7.92,1a19.55,19.55,0,0,1-2.85,1.16c.64-.28,4.52-.07,5.39-.07,1.85,0,3.37.48,3.88,1.11,0,0,1.93.47,2.26.58,1.48.49-1.16.47,2.43.72h2a.26.26,0,0,0,.25-.3,92.46,92.46,0,0,1,14.38.3c6.67.72,12.93,1.27,19.49,2.11,16.15,2.09,32.57,2.24,49.8,3,9.49.43,21.74-.21,32-.57,11-.4,22.19-2,33.31-1.17,8.21.62,16.57,1.9,25.17,2.36,8.07.43,16,2.22,24.22.88,1.89-.31,4.12-1,6-1.19,1.19-.16,3,.11,4.16-.31s1.74-1.19,2.83-1.82c.91-.52,3-.41,3.62-.9,1-.83.23-1.79.52-2.57-.1.26.59-1.7.51-1.39.16-.62,1.28-.94,1.09-1.66-.29-1.17-5.38-2-4.92-3.42-.59,0,2,.12,1.6-.51-.64-1-4.34-1.42-5.59-1.61.24-1.07,1-.3,2-.72-2.08-2,6.86-1.44,7.75-1.39.45,0,7,0,6.79-.49s-1.85-.27-1.61-1c1.34,0,6.09.34,7-.45-.42-.67-4.88-.87-4.21-1.75,1.07-1.41,6.91.87,8.07-.82.7-1-.89-1.86-1.84-2.58-.39-.29-1.09-.73-1.51-1s-1.83-.26-2.13-.72c.88-1.67,5.55.39,6.22-1.26-.59-.59-4.75-.54-5.84-.73-2.21-.39-3.55-.78-5.62-1.25-2.27-.52-4.55-1.42-6.94-2.07a143.68,143.68,0,0,0-23.86-4.22c-3.16-.32-8.74,0-11.32-2.11-1.38-1.12-1.6-2.86-3.26-3.87a15.93,15.93,0,0,0-4.72-1.58c-5.48-1.37-11.38-1.5-17.19-1.74-6-.25-11.59-1-17.17-1.23-15-.73-28.24-2.14-43.47-2.14,0-1.51,1.11-1.28-.84-2.11a9.76,9.76,0,0,0-3.14-.3,9.09,9.09,0,0,0-3,0,21.3,21.3,0,0,1-2.53.3,24.52,24.52,0,0,1-3.89.3c-1.84-.1-3,0-5.41,0C102.35.79,97.32.37,91.39.43A48.27,48.27,0,0,0,81.1,2.1c-1.43.32-2.57.8-4,1a21,21,0,0,0-4,1.13c-5.74,2-14,.08-20.33.08A158.2,158.2,0,0,0,36.3,5c-3.82.4-7.31,1-11,1.66a18.7,18.7,0,0,0-4.21,1.06c-.32.14-1.34.06-1.57.45-.86,1.41.68,1,1.49,1.51,0,.82-5.31,2.33-5.8,2.56A31.78,31.78,0,0,0,10.4,15c.12.94,2.82.08,3.65.39,1.63.62-.52,1.1-.3,1.45s1.18-.07,1.61.34c-1.15,1-4,.66-4.56,1.74-.11.18,2.54.49,2.55.5,1.23,1.23-.69,1-.71,1.51,0,1.28-.79.6,1.08.6.94,0,9.31-.85,9.8,0,1,1.67-2.81,2.09-4,2.3-2.19.38-3.37.52-5.23,1a9.05,9.05,0,0,0-2.85,1.44c-1.07.62-3.46.95-4.25,1.7-.51.48,3.27-.09,3.58-.09,0,1.39-4.28,2-4.26,2a2.16,2.16,0,0,1-.06,2.38c-1,1.79-2.08.94-3.91,2-2.43,1.34.06,1.46-.07,2.81,0,.52-2.17,2-2.44,2C.88,39-.06,39,0,39Z"/><path id="_Path_2" data-name="&lt;Path&gt;" class="cls-1" d="M8.94,15.79c.52-.47.55-.58-.19-.58a.41.41,0,0,0,.19.58C9.09,15.65,8.88,15.73,8.94,15.79Z"/><path id="_Path_3" data-name="&lt;Path&gt;" class="cls-1" d="M168.5,42.07Z"/><path id="_Path_4" data-name="&lt;Path&gt;" class="cls-1" d="M159.53,26.69Z"/></g></g></g></svg>