<svg xmlns="http://www.w3.org/2000/svg" viewBox="0 0 1095.96 759.44"><defs><style>.cls-1{fill:#9ace50;}.cls-1,.cls-10,.cls-100,.cls-101,.cls-102,.cls-103,.cls-104,.cls-105,.cls-106,.cls-107,.cls-108,.cls-109,.cls-11,.cls-110,.cls-12,.cls-13,.cls-14,.cls-15,.cls-16,.cls-17,.cls-18,.cls-19,.cls-2,.cls-20,.cls-21,.cls-22,.cls-23,.cls-24,.cls-25,.cls-26,.cls-27,.cls-28,.cls-29,.cls-3,.cls-30,.cls-31,.cls-32,.cls-33,.cls-34,.cls-35,.cls-36,.cls-37,.cls-38,.cls-39,.cls-4,.cls-40,.cls-41,.cls-42,.cls-43,.cls-44,.cls-45,.cls-46,.cls-47,.cls-48,.cls-49,.cls-5,.cls-50,.cls-51,.cls-52,.cls-53,.cls-54,.cls-55,.cls-56,.cls-57,.cls-58,.cls-59,.cls-6,.cls-60,.cls-61,.cls-62,.cls-63,.cls-64,.cls-65,.cls-66,.cls-67,.cls-68,.cls-69,.cls-7,.cls-70,.cls-71,.cls-72,.cls-73,.cls-74,.cls-75,.cls-76,.cls-77,.cls-78,.cls-79,.cls-8,.cls-80,.cls-81,.cls-82,.cls-83,.cls-84,.cls-85,.cls-86,.cls-87,.cls-88,.cls-89,.cls-9,.cls-90,.cls-91,.cls-92,.cls-93,.cls-94,.cls-95,.cls-96,.cls-97,.cls-98,.cls-99{fill-rule:evenodd;}.cls-2{fill:#7aa343;}.cls-3{fill:#5b8e17;}.cls-4{fill:#7b7b7b;}.cls-5{fill:#909090;}.cls-6{fill:#4b4b4b;}.cls-7{fill:#fa981b;}.cls-8{fill:#d87613;}.cls-9{fill:#666;}.cls-10{fill:#4d4d4d;}.cls-11{fill:#333;}.cls-115,.cls-12{fill:#fff;}.cls-13{fill:#c9595a;}.cls-14{fill:#57bcb3;}.cls-15{fill:#ffff92;}.cls-16{fill:#e55353;}.cls-17{fill:#e86464;}.cls-18{fill:#e9835d;}.cls-19{fill:#ccc;}.cls-20{fill:#d77653;}.cls-21{fill:#f79566;}.cls-22{fill:#f8a075;}.cls-23{fill:#ef9f79;}.cls-24{fill:#df9069;}.cls-25{fill:#ff9d1f;}.cls-26{fill:#ff7f19;}.cls-27{fill:#ffae22;}.cls-28{fill:#ffc45e;}.cls-29{fill:#960506;}.cls-30{fill:#db5656;}.cls-31{fill:#b30001;}.cls-32{fill:#bb4d4d;}.cls-33{fill:#c25757;}.cls-34{fill:#a35555;}.cls-35{fill:#e24545;}.cls-36{fill:#b33939;}.cls-37{fill:#650505;}.cls-38{fill:#760000;}.cls-39{fill:#170200;}.cls-40{fill:#bdfdff;}.cls-41{fill:#ff0;}.cls-42{fill:#835353;}.cls-43{fill:#edfdff;}.cls-44{fill:#30322f;}.cls-45{fill:#999;}.cls-46{fill:#b15a5a;}.cls-47{fill:#edbcb7;}.cls-48{fill:#ba9693;}.cls-49{fill:#f9716e;}.cls-50{fill:#fbd7e3;}.cls-51{fill:#ffc5cf;}.cls-52{fill:#f2b2c2;}.cls-53{fill:#679aa2;}.cls-54{fill:#c24747;}.cls-55{fill:#9e3a3a;}.cls-56{fill:#e8d3d1;}.cls-57{fill:#6a7580;}.cls-58{fill:#5f8d94;}.cls-59{fill:#b5b5b7;}.cls-60{fill:#b3b3b3;}.cls-61{fill:#d3d3d3;}.cls-62{fill:#d7d7d7;}.cls-63{fill:#a9a9a9;}.cls-64{fill:#9b9b9b;}.cls-65{fill:#b5a4a3;}.cls-66{fill:#d7c2c0;}.cls-67{fill:#8bb948;}.cls-68{fill:#717171;}.cls-69{fill:#e0e0e0;}.cls-70{fill:#583017;}.cls-71{fill:#785843;}.cls-72{fill:#669b43;}.cls-73{fill:#83ae67;}.cls-74{fill:#142432;}.cls-75{fill:#294a69;}.cls-76{fill:#447c95;}.cls-77{fill:#376579;}.cls-78{fill:#3d7086;}.cls-79{fill:#c84601;}.cls-80{fill:#ea86b6;}.cls-81{fill:#fb8cc2;}.cls-82{fill:#ec587a;}.cls-83{fill:#d6d6d6;}.cls-84{fill:#ededed;}.cls-85{fill:#c34d4d;}.cls-86{fill:#ef8747;}.cls-87{fill:#f6cf43;}.cls-88{fill:#77c4e2;}.cls-89{fill:#e3e2c8;}.cls-90{fill:#b1b194;}.cls-91{fill:#fcf8d5;}.cls-92{fill:#f3f3f3;}.cls-93{fill:#e6e6e6;}.cls-94{fill:#a4a48a;}.cls-95{fill:#8f8f79;}.cls-96{fill:#6d8f98;}.cls-97{fill:#5fa4ab;}.cls-98{fill:#144c65;}.cls-99{fill:#ffff9d;}.cls-100{fill:#d6d686;}.cls-101{fill:#185d7c;}.cls-102{fill:#c3c37b;}.cls-103{fill:#939393;}.cls-104{fill:gray;}.cls-105{fill:#505050;}.cls-106{fill:#ff6a6a;}.cls-107{fill:#ffff6a;}.cls-108{fill:#6aff6a;}.cls-109{fill:#737373;}.cls-110{fill:#555;}.cls-111{fill:#709632;}.cls-112{fill:#ff4635;}.cls-113{fill:#e32918;}.cls-114{fill:#d9d9d9;}</style></defs><title>Asset 1</title><g id="Layer_2" data-name="Layer 2"><g id="Layer_1-2" data-name="Layer 1"><path class="cls-1" d="M548,741.46l548-316.37Q822,266.71,548,108.29L0,425.09Z"/><polygon class="cls-2" points="1095.96 425.09 547.97 741.38 547.97 759.44 1095.96 440.82 1095.96 425.09"/><polygon class="cls-3" points="0 425.09 547.97 741.38 547.97 759.44 0 440.82 0 425.09"/><g id="Land"><polygon class="cls-1" points="897.67 521.78 542.96 738.43 370.33 632.99 724.9 416.27 897.67 521.78"/><polygon class="cls-1" points="568.85 59.18 473.4 117.5 666.64 235.52 762.08 177.23 568.85 59.18"/><polygon class="cls-4" points="848.42 230.08 1075.74 368.93 980.27 427.25 752.98 288.42 848.42 230.08"/><polygon class="cls-5" points="748.45 168.88 653.02 227.2 762.13 293.83 857.58 235.54 748.45 168.88"/><polygon class="cls-1" points="280.24 555.21 225.69 521.8 225.69 510.7 580.28 293.91 625.73 321.66 280.24 532.95 280.24 555.21"/><polygon class="cls-6" points="1075.79 368.93 1075.79 380.12 980.27 438.44 980.27 427.25 1075.79 368.93"/><polygon class="cls-7" points="371.18 633.02 725.75 416.27 725.75 394 371.18 610.77 371.18 633.02"/><polygon class="cls-8" points="370.33 610.77 370.33 633.02 224.84 544.04 224.84 521.85 370.33 610.77"/><polygon class="cls-8" points="724.9 416.27 897.67 521.8 897.67 499.58 724.88 394.05 724.9 416.27"/><polygon class="cls-7" points="979.47 449.58 979.47 471.8 897.67 521.78 897.67 499.53 979.47 449.58"/><polygon class="cls-7" points="1074.94 391.19 1074.94 413.44 979.42 471.75 979.42 449.58 1074.94 391.19"/><polygon class="cls-8" points="224.84 521.85 224.84 544.12 133.9 488.51 133.9 466.24 224.84 521.85"/><polygon class="cls-3" points="134.77 455.14 134.77 466.26 225.69 521.85 225.71 510.7 134.77 455.14"/><polygon class="cls-3" points="280.24 544.07 280.24 555.19 371.18 610.82 725.75 394 725.75 382.83 371.18 599.65 280.24 544.07"/><polygon class="cls-3" points="280.24 544.07 225.69 510.7 225.69 521.85 280.24 555.21 280.24 544.07"/><polygon class="cls-3" points="725.75 394 898.51 499.53 898.51 488.46 725.7 382.9 725.75 394"/><polygon class="cls-3" points="980.32 438.49 980.32 449.58 898.51 499.53 898.51 488.46 980.32 438.49"/><polygon class="cls-3" points="1075.79 391.19 1075.79 380.12 980.27 438.44 980.27 449.58 1075.79 391.19"/><polygon class="cls-9" points="980.7 427.72 571.6 177.49 135.04 444.14 226.16 500.08 580.5 283.53 726.01 372.33 898.87 477.72 980.7 427.72"/><polygon class="cls-10" points="280.24 532.97 280.24 544.07 371.18 599.65 371.18 588.53 280.24 532.97"/><polygon class="cls-11" points="371.18 599.65 725.75 382.83 725.75 371.78 371.18 588.53 371.18 599.65"/><polygon class="cls-11" points="898.49 477.34 980.32 427.36 980.32 438.49 898.51 488.46 898.49 477.34"/><polygon class="cls-11" points="225.69 510.7 225.69 499.56 580.28 282.78 580.3 293.86 225.69 510.7"/><polygon class="cls-11" points="580.28 282.78 580.3 293.86 898.51 488.49 898.51 477.29 580.28 282.78"/><polygon class="cls-9" points="280.24 532.97 634.83 316.1 725.75 371.78 371.18 588.53 280.24 532.97"/><polygon class="cls-12" points="200.59 462.02 195.32 458.79 213.51 447.69 218.78 450.9 200.59 462.02"/><path class="cls-12" d="M237,439.8l-5.27-3.21,18.24-11.14,5.27,3.23Zm31.11-25.43,18.24-11.14,5.28,3.21-18.24,11.15Zm36.41-22.24L322.71,381l5.25,3.24-18.24,11.12Zm36.39-22.22,18.24-11.14,5.25,3.21-18.24,11.14Zm36.4-22.24,18.22-11.12,5.27,3.21-18.24,11.12Zm36.37-22.22,18.24-11.15,5.27,3.24L418.9,328.66ZM450,303.21l18.2-11.1,5.25,3.21-18.17,11.12ZM486.42,281l18.19-11.1,5.25,3.21-18.17,11.1Zm36.36-22.2L541,247.65l5.25,3.21L528,262Z"/><path class="cls-12" d="M364.92,540.26l-5.27-3.21,18.24-11.15,5.27,3.21ZM396,514.83l18.24-11.15,5.28,3.21L401.31,518Zm36.41-22.25,18.24-11.14,5.25,3.21L437.71,495.8Zm36.38-22.22,18.25-11.14,5.24,3.21-18.24,11.15Zm36.41-22.24L523.45,437l5.27,3.23-18.24,11.12Zm36.39-22.22,18.21-11.14,5.28,3.21-18.24,11.14ZM578,403.66l18.2-11.1,5.27,3.21-18.19,11.1Zm36.39-22.22,18.19-11.1,5.25,3.21-18.17,11.1Zm36.36-22.2L669,348.1l5.25,3.21L656,362.46Z"/><path class="cls-12" d="M623,254.24l18.07,11.38,5.32-3.14L628.34,251.1ZM659.14,277l18.09,11.41,5.32-3.14-18.09-11.41Zm36.09,22.75,18.1,11.41,5.3-3.14-18.08-11.41Zm36.13,22.75,18.09,11.41,5.3-3.14-18.1-11.41Zm36.09,22.74,18.1,11.41,5.3-3.14-18.1-11.41ZM803.57,368l18,11.37,5.3-3.15-18-11.36Zm36.1,22.73,18,11.38L863,399l-18-11.38Zm36.05,22.72,18.1,11.41,5.29-3.14L881,410.32Zm36.14,22.77L929.05,447l5.3-3.14-17.19-10.83Z"/><polygon class="cls-11" points="134.77 444.05 134.77 455.14 225.71 510.7 225.71 499.56 134.77 444.05"/></g><g id="Market_Building" data-name="Market Building"><polygon class="cls-13" points="771.21 277.18 771.21 188.25 680.25 132.69 680.25 221.64 771.21 277.18"/><polygon class="cls-14" points="689.39 227.18 689.39 204.93 707.58 216.06 707.58 238.35 689.39 227.18"/><polygon class="cls-15" points="762.11 249.4 762.11 260.59 717.05 233.07 717.05 221.64 762.11 249.4"/><polygon class="cls-16" points="825.74 243.86 825.74 154.89 771.19 188.2 771.19 277.22 825.74 243.86"/><polygon class="cls-17" points="825.74 154.89 734.83 99.35 680.28 132.67 771.21 188.2 825.74 154.89"/><polygon class="cls-18" points="680.28 177.18 659.81 189.69 750.72 245.37 771.19 232.81 680.28 177.18"/><path class="cls-12" d="M702.16,173l-1.44-6.93v6.52c0,.36-.07.6-.21.68s-.36,0-.63-.12a1.52,1.52,0,0,1-.57-.65,1.74,1.74,0,0,1-.24-1v-7.45c0-.44.1-.65.31-.65a1.31,1.31,0,0,1,.82.31l.55.36a3.54,3.54,0,0,1,.74.55,2,2,0,0,1,.33.55c.08.22.15.55.25,1l1.29,6,1.29-4.36a3.52,3.52,0,0,1,.27-.65.29.29,0,0,1,.33-.14,2.67,2.67,0,0,1,.75.38l.55.34a3.68,3.68,0,0,1,.81.74,1.62,1.62,0,0,1,.31,1v7.48c0,.36-.07.57-.24.67a.6.6,0,0,1-.6-.12,2.18,2.18,0,0,1-.59-.65,2,2,0,0,1-.22-1v-6.52l-1.44,5.11a4.91,4.91,0,0,1-.24.72.5.5,0,0,1-.31.29,1,1,0,0,1-.67-.2,2.78,2.78,0,0,1-.53-.5,2.06,2.06,0,0,1-.33-.57,3.06,3.06,0,0,1-.2-.63c0-.21-.09-.43-.14-.67Zm13.09,8.7-.43-1.46L711.2,178l-.43.93a1.73,1.73,0,0,1-.44.67c-.12.1-.31.08-.57-.12a1.69,1.69,0,0,1-.6-.64,1.35,1.35,0,0,1-.26-.75,2.22,2.22,0,0,1,0-.38c0-.09.13-.24.22-.43l2.28-4.67a4.29,4.29,0,0,1,.24-.48,1.59,1.59,0,0,1,.28-.43.56.56,0,0,1,.41-.15,1.4,1.4,0,0,1,.62.24,2.89,2.89,0,0,1,.63.55,3.33,3.33,0,0,1,.41.65,4.19,4.19,0,0,1,.26.69l.29.89,2.32,7.6a5.36,5.36,0,0,1,.27,1.17.44.44,0,0,1-.24.44.71.71,0,0,1-.65-.12,2.74,2.74,0,0,1-.36-.32,2,2,0,0,1-.26-.38,5.67,5.67,0,0,0-.22-.55c-.07-.26-.14-.46-.19-.65Zm-3.6-4.91,2.69,1.7L713,173.78Zm9.28,5.56-.65-.41V185c0,.38-.07.62-.24.72a.65.65,0,0,1-.64-.15,1.69,1.69,0,0,1-.68-.72,2,2,0,0,1-.24-1V176.6c0-.43.1-.67.27-.74s.45,0,.84.26l2.94,1.87c.41.27.75.51,1,.72a6.12,6.12,0,0,1,.8.72,6.72,6.72,0,0,1,.74,1,4.91,4.91,0,0,1,.48,1.12,3.66,3.66,0,0,1,.17,1.08c0,.72-.2,1.15-.56,1.34a2.2,2.2,0,0,1-1.7-.19,8.8,8.8,0,0,1,.91,1.37c.29.55.56,1.1.79,1.63s.41,1,.53,1.41a4.15,4.15,0,0,1,.19.79.37.37,0,0,1-.12.29.34.34,0,0,1-.31.1,1,1,0,0,1-.43-.17,2.22,2.22,0,0,1-.53-.48,6.27,6.27,0,0,1-.36-.62c-.09-.22-.21-.53-.4-.94l-.72-1.72a11.87,11.87,0,0,0-.7-1.51,3.2,3.2,0,0,0-.62-.91,5.38,5.38,0,0,0-.79-.65Zm1-3.31-1.68-1v2.59l1.63,1a4.34,4.34,0,0,0,1.11.57.73.73,0,0,0,.66,0c.17-.08.24-.29.24-.63a2,2,0,0,0-.19-.81,2.92,2.92,0,0,0-.52-.79,8.83,8.83,0,0,0-1.25-.94Zm7.33,4.22v3.33l3.55-1.68a1.23,1.23,0,0,1,.43-.12.68.68,0,0,1,.48.17,2.07,2.07,0,0,1,.62.63,1.37,1.37,0,0,1,.24.74.55.55,0,0,1-.4.57l-2.21.82,2.54,5.44a9.1,9.1,0,0,1,.41,1,1.79,1.79,0,0,1,.12.67c0,.21-.07.34-.22.38s-.38,0-.64-.17a2.21,2.21,0,0,1-.63-.55,3.49,3.49,0,0,1-.38-.72c-.12-.26-.21-.48-.31-.69l-2.13-4.84-1.47.55v2c0,.39-.09.63-.26.72s-.38,0-.65-.14a1.73,1.73,0,0,1-.45-.41,2.06,2.06,0,0,1-.34-.55,1.76,1.76,0,0,1-.09-.5,4.32,4.32,0,0,1,0-.7v-7c0-.38.1-.62.24-.7s.38-.07.67.12a2,2,0,0,1,.65.7,2.1,2.1,0,0,1,.26,1Zm13.28,8.94-4.07-2.59V192l3.76,2.39a1.76,1.76,0,0,1,.6.58,1.21,1.21,0,0,1,.22.65c0,.21-.08.36-.2.4a.8.8,0,0,1-.62-.19l-3.76-2.39v2.68l4.22,2.68a2.14,2.14,0,0,1,.64.63,1.25,1.25,0,0,1,.22.69c0,.22-.07.36-.22.41a.86.86,0,0,1-.64-.19l-4.92-3.14a2.54,2.54,0,0,1-.84-.82,1.84,1.84,0,0,1-.26-1v-7.12a1,1,0,0,1,.12-.6.31.31,0,0,1,.36-.14,1.68,1.68,0,0,1,.62.28l4.77,3.05a1.9,1.9,0,0,1,.65.6,1.31,1.31,0,0,1,.21.67c0,.21-.07.36-.21.41a.91.91,0,0,1-.65-.22Zm8.25,5.37-2-1.27v6.85c0,.41-.07.65-.24.72s-.38,0-.65-.12a1.86,1.86,0,0,1-.64-.69A2.14,2.14,0,0,1,747,202v-6.85l-2-1.25a2,2,0,0,1-.69-.65,1.37,1.37,0,0,1-.22-.71c0-.27.08-.41.22-.44a1,1,0,0,1,.69.22l5.76,3.67a2.17,2.17,0,0,1,.69.65,1.45,1.45,0,0,1,.22.71c0,.24-.07.39-.22.43s-.38,0-.69-.21Z"/><polygon class="cls-19" points="750.77 245.44 750.77 286.93 753.02 288.35 753.02 244.15 750.77 245.44"/><polygon class="cls-12" points="753.02 288.27 755.13 286.98 755.13 242.95 753.05 244.24 753.02 288.27"/><polygon class="cls-20" points="659.81 189.69 659.81 192.69 750.6 248.15 750.6 245.32 659.81 189.69"/><polygon class="cls-21" points="771.19 232.81 771.19 235.47 750.55 248.1 750.55 245.32 771.19 232.81"/><polygon class="cls-12" points="662.11 232.81 662.11 193.98 663.91 195.08 663.91 231.83 662.11 232.81"/><polygon class="cls-19" points="662.11 232.74 660.17 231.56 660.17 193 662.01 194.12 662.11 232.74"/><polygon class="cls-22" points="707.55 138.23 762.13 171.57 798.47 149.37 743.91 116.06 707.55 138.23"/><polygon class="cls-23" points="743.91 116.01 743.91 120.42 711 140.53 707.48 138.37 743.91 116.01"/><polygon class="cls-24" points="743.91 120.42 794.9 151.56 798.47 149.37 743.96 115.96 743.91 120.42"/></g><g id="Cones"><polygon class="cls-25" points="807.53 299.42 789.36 310.52 807.53 321.61 825.72 310.52 807.53 299.42"/><polygon class="cls-26" points="799.4 310.4 804.32 291.05 807.82 292.06 807.82 313.87 799.4 310.4"/><polygon class="cls-27" points="816.21 310.4 811.32 291.05 807.82 292.06 807.82 313.87 816.21 310.4"/><polygon class="cls-28" points="804.29 291.05 807.79 289.98 811.34 291.05 807.82 292.06 807.82 292.04 807.82 292.06 804.29 291.05"/><polygon class="cls-12" points="800.31 306.87 807.82 309.41 807.82 307.28 800.82 304.88 800.31 306.87"/><polygon class="cls-12" points="815.32 306.87 807.82 309.41 807.82 307.28 814.81 304.88 815.32 306.87"/><polygon class="cls-12" points="801.73 301.26 807.77 302.97 807.77 301.12 802.16 299.54 801.73 301.26"/><polygon class="cls-12" points="803.12 295.78 807.84 297.12 807.84 295.46 803.5 294.22 803.12 295.78"/><polygon class="cls-12" points="813.95 301.26 807.91 302.97 807.91 301.12 813.52 299.54 813.95 301.26"/><polygon class="cls-12" points="812.56 295.78 807.84 297.12 807.84 295.46 812.18 294.22 812.56 295.78"/><polygon class="cls-25" points="862.06 332.78 843.87 343.9 862.03 355 880.23 343.88 862.06 332.78"/><polygon class="cls-26" points="853.91 343.79 858.82 324.44 862.32 325.43 862.32 347.26 853.91 343.79"/><polygon class="cls-27" points="870.71 343.79 865.82 324.44 862.32 325.43 862.32 347.26 870.71 343.79"/><polygon class="cls-28" points="858.8 324.42 862.3 323.34 865.84 324.42 862.32 325.43 862.32 325.43 862.32 325.43 858.8 324.42"/><polygon class="cls-12" points="854.82 340.24 862.32 342.8 862.32 340.67 855.32 338.25 854.82 340.24"/><polygon class="cls-12" points="869.82 340.24 862.32 342.8 862.32 340.67 869.32 338.25 869.82 340.24"/><polygon class="cls-12" points="856.23 334.63 862.27 336.33 862.27 334.51 856.66 332.9 856.23 334.63"/><polygon class="cls-12" points="857.62 329.14 862.35 330.48 862.35 328.83 858.01 327.61 857.62 329.14"/><polygon class="cls-12" points="868.46 334.63 862.42 336.33 862.42 334.51 868.02 332.9 868.46 334.63"/><polygon class="cls-12" points="867.07 329.14 862.35 330.48 862.35 328.83 866.68 327.61 867.07 329.14"/><polygon class="cls-25" points="916.66 366.17 898.47 377.27 916.66 388.37 934.83 377.27 916.66 366.17"/><polygon class="cls-26" points="908.53 377.15 913.42 357.81 916.92 358.81 916.92 380.63 908.53 377.15"/><polygon class="cls-27" points="925.33 377.15 920.42 357.81 916.92 358.81 916.92 380.63 925.33 377.15"/><polygon class="cls-28" points="913.42 357.81 916.9 356.73 920.44 357.81 916.95 358.81 916.92 358.79 916.92 358.81 913.42 357.81"/><polygon class="cls-12" points="909.42 373.63 916.92 376.17 916.92 374.04 909.92 371.64 909.42 373.63"/><polygon class="cls-12" points="924.42 373.63 916.92 376.17 916.92 374.04 923.92 371.64 924.42 373.63"/><polygon class="cls-12" points="910.83 367.99 916.87 369.72 916.87 367.87 911.26 366.29 910.83 367.99"/><polygon class="cls-12" points="912.22 362.5 916.95 363.87 916.95 362.19 912.63 360.97 912.22 362.5"/><polygon class="cls-12" points="923.06 367.99 917.04 369.72 917.04 367.87 922.63 366.29 923.06 367.99"/><polygon class="cls-12" points="921.67 362.5 916.95 363.87 916.95 362.19 921.28 360.97 921.67 362.5"/></g><g id="Red_Car" data-name="Red Car"><polygon class="cls-29" points="480.4 410.61 500.56 422.93 500.56 435.27 480.43 422.95 480.4 410.61"/><polygon class="cls-30" points="480.4 410.63 536.71 376.24 556.86 388.54 500.56 422.93 480.4 410.63"/><path class="cls-31" d="M516.86,413v6.52a6.76,6.76,0,0,0-2.61.55,12,12,0,0,0-6.91,10.19c0,.31,0,.6.05.88l-6.83,4.17V422.93Z"/><polygon class="cls-32" points="492.31 403.4 494.88 389.49 515.04 401.79 512.47 415.67 492.31 403.4"/><path class="cls-31" d="M516.86,413l40-24.42v12.29l-5,3c-.94-2.49-3.55-3.5-6.62-2.21a12.17,12.17,0,0,0-7,10.36v.17l-17.33,10.59a4.16,4.16,0,0,0-4.07-3.33Z"/><polygon class="cls-33" points="536.47 377.87 554.11 388.65 534.26 400.76 516.26 390.21 536.47 377.87"/><polygon class="cls-34" points="536.47 377.87 536.47 382.33 522.32 390.81 518.78 388.68 536.47 377.87"/><polygon class="cls-35" points="494.88 389.49 514.63 377.44 534.74 389.73 515.01 401.79 494.88 389.49"/><polygon class="cls-36" points="534.74 389.71 534.74 402.08 512.45 415.64 514.99 401.77 534.74 389.71"/><polygon class="cls-37" points="480.4 417.68 478.13 420.08 478.13 422.88 500.56 436.62 500.56 432.44 500.63 432.47 480.45 420.15 480.4 417.68"/><polygon class="cls-38" points="500.56 436.62 507.34 432.61 507.34 428.87 500.63 432.47 500.56 432.44 500.56 436.62"/><path class="cls-39" d="M541.88,415.12,537,413l1.24-.76v-.17a12.17,12.17,0,0,1,7-10.36c3.07-1.29,5.68-.28,6.62,2.21L550,405.05Z"/><path class="cls-39" d="M507.34,431.51l3.5,1.82,1.87-5.94,5.2-2.71,3-1.87-.21-.67a4.14,4.14,0,0,0-3.86-2.66h0a6.76,6.76,0,0,0-2.61.55,12,12,0,0,0-6.91,10.11v1.37ZM516.86,418v-.43h0Z"/><polygon class="cls-40" points="493.61 402.87 495.74 391.31 513.72 402.29 511.61 413.82 493.61 402.87"/><polygon class="cls-40" points="533.33 392.01 533.33 401.6 513.93 413.44 515.9 402.68 533.33 392.01"/><polygon class="cls-41" points="482.22 415.21 485.84 417.49 485.84 420.68 482.22 418.52 482.22 415.21"/><polygon class="cls-41" points="494.18 422.5 497.8 424.8 497.8 427.96 494.18 425.83 494.18 422.5"/><polygon class="cls-42" points="487.21 417.08 492.89 420.56 492.89 425.45 487.21 421.97 487.21 417.08"/><polygon class="cls-43" points="497.85 392.61 496.27 404.28 501.88 407.9 501.3 394.72 497.85 392.61"/><polygon class="cls-43" points="503.6 396.13 504.71 409.63 507.87 411.54 505.38 397.21 503.6 396.13"/><path class="cls-44" d="M545.26,403.28c3-1.27,5.51.31,5.51,3.52a9.56,9.56,0,0,1-5.51,8.12c-3,1.3-5.51-.28-5.51-3.52a9.58,9.58,0,0,1,5.51-8.12Z"/><path class="cls-44" d="M514.25,421.49c3-1.27,5.49.31,5.49,3.53a9.6,9.6,0,0,1-5.49,8.14c-3.05,1.27-5.52-.31-5.52-3.52a9.58,9.58,0,0,1,5.52-8.15Z"/><path class="cls-45" d="M514.25,424.87a1.52,1.52,0,0,1,2.3,1.49,4,4,0,0,1-2.3,3.42,1.54,1.54,0,0,1-2.33-1.48,4,4,0,0,1,2.33-3.43Z"/><path class="cls-45" d="M545.26,406.25A1.79,1.79,0,0,1,548,408a4.67,4.67,0,0,1-2.69,4,1.77,1.77,0,0,1-2.68-1.72,4.71,4.71,0,0,1,2.68-4Z"/><polygon class="cls-46" points="536.47 377.87 536.47 382.33 550.58 390.81 554.13 388.68 536.47 377.87"/></g><g id="Building_3" data-name="Building 3"><polygon class="cls-47" points="447.47 252.78 447.47 93.93 521.99 48.42 521.99 207.4 447.47 252.78"/><polygon class="cls-48" points="447.47 93.93 373.07 48.49 373.07 207.38 447.47 252.78 447.47 93.93"/><polygon class="cls-49" points="373.07 48.7 447.5 2.85 521.99 48.42 447.47 93.93 373.07 48.7"/><polygon class="cls-50" points="386.95 48.32 447.5 11.36 508.04 48.32 447.5 85.33 386.95 48.32"/><polygon class="cls-51" points="447.5 11.36 447.55 18.82 502.51 51.72 508.04 48.32 447.5 11.36"/><polygon class="cls-52" points="447.5 11.36 447.55 18.79 392.51 51.72 386.95 48.32 447.5 11.36"/><polygon class="cls-53" points="464.68 125.48 464.68 136.53 475.64 129.84 475.64 118.79 464.68 125.48"/><polygon class="cls-53" points="479.9 116.18 479.9 127.23 490.86 120.54 490.86 109.49 479.9 116.18"/><polygon class="cls-53" points="495.12 106.88 495.12 117.93 506.1 111.24 506.1 100.19 495.12 106.88"/><polygon class="cls-53" points="464.68 151.77 464.68 162.82 475.64 156.11 475.64 145.08 464.68 151.77"/><polygon class="cls-53" points="479.9 142.47 479.9 153.52 490.86 146.81 490.86 135.78 479.9 142.47"/><polygon class="cls-53" points="495.12 133.17 495.12 144.22 506.1 137.51 506.1 126.46 495.12 133.17"/><polygon class="cls-54" points="523 66.73 447.47 112.96 447.47 119.7 522.95 73.03 523 66.73"/><polygon class="cls-55" points="371.92 137.6 447.47 183.84 447.45 190.58 371.97 143.91 371.92 137.6"/><polygon class="cls-56" points="371.92 137.6 372.93 137.17 447.45 182.59 447.47 183.84 371.92 137.6"/><polygon class="cls-55" points="371.92 66.73 447.47 112.96 447.45 119.7 371.97 73.03 371.92 66.73"/><polygon class="cls-55" points="371.92 163.51 447.47 209.75 447.45 216.49 371.97 169.79 371.92 163.51"/><polygon class="cls-56" points="371.92 163.51 372.93 163.08 447.45 208.5 447.47 209.75 371.92 163.51"/><polygon class="cls-57" points="400.18 168.57 400.18 179.62 389.2 172.91 389.2 161.86 400.18 168.57"/><polygon class="cls-13" points="447.47 252.78 447.47 216.49 372.95 170.39 372.95 207.4 447.47 252.78"/><polygon class="cls-57" points="363.3 175.12 363.3 186.17 374.25 179.48 374.25 168.43 363.3 175.12"/><polygon class="cls-57" points="363.3 201.15 363.3 212.19 374.25 205.51 374.25 194.46 363.3 201.15"/><polygon class="cls-57" points="430.62 187.17 430.62 198.22 419.67 191.51 419.67 180.46 430.62 187.17"/><polygon class="cls-57" points="415.4 177.87 415.4 188.92 404.45 182.21 404.45 171.19 415.4 177.87"/><polygon class="cls-54" points="523 163.51 447.47 209.75 447.47 216.49 522.95 169.79 523 163.51"/><polygon class="cls-56" points="523 163.51 521.99 163.08 447.47 208.5 447.47 209.75 523 163.51"/><polygon class="cls-54" points="523 137.6 447.47 183.84 447.47 190.58 522.95 143.91 523 137.6"/><polygon class="cls-56" points="523 137.6 521.99 137.17 447.47 182.59 447.47 183.84 523 137.6"/><polygon class="cls-53" points="494.86 168.57 494.86 179.62 505.81 172.91 505.81 161.86 494.86 168.57"/><polygon class="cls-53" points="464.39 187.17 464.39 198.22 475.35 191.51 475.35 180.46 464.39 187.17"/><polygon class="cls-53" points="479.62 177.87 479.62 188.92 490.59 182.21 490.59 171.19 479.62 177.87"/><polygon class="cls-57" points="429.88 122.91 429.88 133.96 418.93 127.27 418.93 116.22 429.88 122.91"/><polygon class="cls-57" points="414.66 113.61 414.66 124.66 403.71 117.97 403.71 106.92 414.66 113.61"/><polygon class="cls-57" points="399.44 104.31 399.44 115.36 388.49 108.67 388.49 97.63 399.44 104.31"/><polygon class="cls-57" points="429.88 149.21 429.88 160.25 418.93 153.54 418.93 142.49 429.88 149.21"/><polygon class="cls-57" points="414.66 139.91 414.66 150.96 403.71 144.24 403.71 133.22 414.66 139.91"/><polygon class="cls-57" points="399.44 130.61 399.44 141.66 388.49 134.94 388.49 123.89 399.44 130.61"/><polygon class="cls-16" points="447.47 252.78 447.47 216.49 521.99 170.39 521.99 207.4 447.47 252.78"/><polygon class="cls-58" points="488.44 227.85 488.2 206.71 472.16 216.18 472.57 237.51 488.44 227.85"/><polygon class="cls-59" points="464.13 54.74 465.21 1.22 465.9 0 466.17 54.67 465.26 55.92 464.13 54.74"/><path class="cls-60" d="M469.84,37.87c-2.21,0-4,3.26-4,7.29s1.77,7.28,4,7.28,4-3.26,4-7.28-1.77-7.29-4-7.29Z"/><path class="cls-61" d="M471.32,37.78c-2.18,0-4,3-4,6.78s1.8,6.8,4,6.8,4-3,4-6.8-1.77-6.78-4-6.78Z"/><path class="cls-60" d="M461.83,8.32c3.26,0,5.92,4.84,5.92,10.81S465.09,30,461.83,30s-5.9-4.84-5.9-10.83,2.64-10.81,5.9-10.81Z"/><path class="cls-62" d="M459.94,8.08c3.26,0,5.89,4.5,5.89,10.09s-2.63,10.06-5.89,10.06-5.9-4.5-5.9-10.06,2.64-10.09,5.9-10.09Z"/><polygon class="cls-63" points="459.15 16.49 447.59 11.17 458.74 20.11 459.15 16.49"/><polygon class="cls-64" points="447.59 11.17 459.34 21.48 459.15 16.49 458.74 20.11 447.59 11.17"/><polygon class="cls-65" points="430.67 48.97 415.76 39.86 415.76 56.02 430.67 65.12 430.67 48.97"/><polygon class="cls-66" points="428.3 49.93 413.37 40.82 413.37 57 428.3 66.11 428.3 49.93"/><polygon class="cls-65" points="442.68 37.8 432.71 31.71 432.71 42.52 442.68 48.59 442.68 37.8"/><polygon class="cls-66" points="441.1 38.45 431.13 32.36 431.13 43.17 441.1 49.23 441.1 38.45"/></g><g id="Shadows"><path class="cls-67" d="M282.37,490.47c14.53,0,26.27,5.61,26.27,12.49s-11.74,12.51-26.27,12.51S256.1,509.86,256.1,503s11.77-12.49,26.27-12.49Z"/><path class="cls-67" d="M585.82,309c10,0,18.19,3.85,18.19,8.63s-8.15,8.65-18.19,8.65-18.2-3.86-18.2-8.65,8.15-8.63,18.2-8.63Z"/><path class="cls-67" d="M333.86,465.16c7.16,0,13,2.78,13,6.19s-5.83,6.18-13,6.18-13-2.76-13-6.18,5.83-6.19,13-6.19ZM418,415.88c6,0,10.88,2.33,10.88,5.18S424,426.24,418,426.24s-10.88-2.33-10.88-5.18,4.89-5.18,10.88-5.18Zm-31.35,17c6,0,10.86,2.32,10.86,5.17s-4.87,5.18-10.86,5.18-10.86-2.32-10.86-5.18,4.84-5.17,10.86-5.17Zm-21,14.59c5.23,0,9.47,2,9.47,4.51s-4.24,4.51-9.47,4.51-9.49-2-9.49-4.51,4.24-4.51,9.49-4.51Z"/><path class="cls-67" d="M614.53,183.89c5,0,9,1.92,9,4.29s-4,4.27-9,4.27-9-1.92-9-4.27,4-4.29,9-4.29Zm19.56-33.44c5.15,0,9.35,2,9.35,4.46s-4.2,4.44-9.35,4.44-9.32-2-9.32-4.44,4.17-4.46,9.32-4.46ZM648,193.67c6.52,0,11.82,2.52,11.82,5.61s-5.3,5.61-11.82,5.61-11.79-2.5-11.79-5.61,5.3-5.61,11.79-5.61Z"/><path class="cls-68" d="M911.55,280.6c6.81,0,12.32,2.64,12.32,5.88s-5.51,5.87-12.32,5.87-12.34-2.64-12.34-5.87,5.51-5.88,12.34-5.88Z"/><path class="cls-68" d="M990.29,329.07c6.81,0,12.34,2.63,12.34,5.87s-5.53,5.87-12.34,5.87S978,338.18,978,334.94s5.51-5.87,12.32-5.87Z"/><path class="cls-67" d="M734.9,499.89c7.22,0,13.09,2.78,13.09,6.24s-5.87,6.2-13.09,6.2-13.08-2.78-13.08-6.2,5.87-6.24,13.08-6.24Zm28.48-48.63c7.5,0,13.56,2.88,13.56,6.45s-6.06,6.47-13.56,6.47-13.59-2.9-13.59-6.47,6.09-6.45,13.59-6.45Zm20.23,62.87c9.46,0,17.16,3.64,17.16,8.17s-7.7,8.15-17.16,8.15-17.17-3.64-17.17-8.15,7.68-8.17,17.17-8.17Z"/></g><g id="Lamps"><polygon class="cls-19" points="911.53 222.53 911.55 286.48 913.78 287.89 913.78 221.23 911.53 222.53"/><polygon class="cls-12" points="913.78 287.79 915.91 286.5 915.91 220.06 913.83 221.33 913.78 287.79"/><polygon class="cls-69" points="934.51 240.58 934.51 213.95 892.86 188.66 892.86 215.29 934.51 240.58"/><polygon class="cls-12" points="936.53 212.65 936.53 239.33 934.51 240.55 934.51 213.95 936.53 212.65"/><polygon class="cls-12" points="892.86 188.66 934.51 213.95 936.53 212.65 894.92 187.44 892.86 188.66"/><path class="cls-12" d="M900.91,199.73c1.8.46,3.62.79,3.62,3s-1.46,3.65-3.28,3.19-3.26-2.56-3.26-4.77,1.12-1.82,2.92-1.39Z"/><polygon class="cls-19" points="896.79 199.78 902.75 203.42 905.73 201.6 899.76 197.96 896.79 199.78"/><path class="cls-12" d="M900.91,209.85c1.8.45,3.62.79,3.62,3s-1.46,3.64-3.28,3.19-3.26-2.57-3.26-4.77,1.12-1.82,2.92-1.39Z"/><polygon class="cls-19" points="896.79 209.9 902.75 213.54 905.73 211.72 899.76 208.07 896.79 209.9"/><path class="cls-12" d="M913,206.88c1.8.45,3.59.76,3.59,3s-1.46,3.62-3.26,3.18-3.26-2.58-3.26-4.77,1.11-1.82,2.93-1.38Z"/><polygon class="cls-19" points="908.89 206.92 914.86 210.57 917.86 208.75 911.89 205.1 908.89 206.92"/><path class="cls-12" d="M913,217c1.8.46,3.59.77,3.59,3s-1.46,3.62-3.26,3.19-3.26-2.59-3.26-4.77,1.11-1.82,2.93-1.39Z"/><polygon class="cls-19" points="908.89 217.04 914.86 220.68 917.86 218.86 911.89 215.22 908.89 217.04"/><path class="cls-12" d="M925.5,214.45c1.8.46,3.6.77,3.6,3s-1.46,3.64-3.26,3.19-3.29-2.57-3.29-4.77,1.13-1.82,3-1.39Z"/><polygon class="cls-19" points="921.36 214.5 927.32 218.14 930.32 216.32 924.35 212.68 921.36 214.5"/><path class="cls-12" d="M925.5,224.56c1.8.46,3.6.77,3.6,3s-1.46,3.64-3.26,3.18-3.29-2.56-3.29-4.77,1.13-1.82,3-1.39Z"/><polygon class="cls-19" points="921.36 224.61 927.32 228.25 930.32 226.43 924.35 222.79 921.36 224.61"/><polygon class="cls-19" points="992.25 271.83 992.28 335.78 994.51 337.19 994.51 270.56 992.25 271.83"/><polygon class="cls-12" points="994.51 337.12 996.64 335.83 996.64 269.36 994.56 270.63 994.51 337.12"/><polygon class="cls-69" points="1015.24 289.88 1015.24 263.25 973.58 237.96 973.58 264.62 1015.24 289.88"/><polygon class="cls-12" points="1017.25 261.95 1017.25 288.63 1015.24 289.88 1015.24 263.25 1017.25 261.95"/><polygon class="cls-12" points="973.58 237.96 1015.24 263.25 1017.25 261.95 975.64 236.76 973.58 237.96"/><path class="cls-12" d="M981.64,249.06c1.79.43,3.62.77,3.62,3s-1.47,3.62-3.29,3.19a5,5,0,0,1-3.26-4.79c0-2.21,1.13-1.83,2.93-1.37Z"/><polygon class="cls-19" points="977.51 249.08 983.48 252.75 986.46 250.91 980.49 247.29 977.51 249.08"/><path class="cls-12" d="M981.64,259.17c1.79.44,3.62.77,3.62,3s-1.47,3.62-3.29,3.19a5,5,0,0,1-3.26-4.8c0-2.2,1.13-1.82,2.93-1.37Z"/><polygon class="cls-19" points="977.51 259.2 983.48 262.84 986.46 261.02 980.49 257.4 977.51 259.2"/><path class="cls-12" d="M993.77,256.18c1.79.46,3.59.79,3.59,3s-1.46,3.64-3.26,3.19-3.28-2.57-3.28-4.77,1.12-1.82,2.95-1.39Z"/><polygon class="cls-19" points="989.62 256.23 995.59 259.87 998.58 258.05 992.62 254.41 989.62 256.23"/><path class="cls-12" d="M993.77,266.29c1.79.46,3.59.79,3.59,3s-1.46,3.64-3.26,3.18-3.28-2.56-3.28-4.77,1.12-1.82,2.95-1.39Z"/><polygon class="cls-19" points="989.62 266.34 995.59 269.99 998.58 268.16 992.62 264.52 989.62 266.34"/><path class="cls-12" d="M1006.23,263.78c1.8.43,3.59.76,3.59,3s-1.46,3.64-3.26,3.18-3.28-2.56-3.28-4.77,1.13-1.82,3-1.36Z"/><polygon class="cls-19" points="1002.08 263.8 1008.05 267.44 1011.05 265.62 1005.08 261.98 1002.08 263.8"/><path class="cls-12" d="M1006.23,273.89c1.8.43,3.59.77,3.59,2.95s-1.46,3.64-3.26,3.19-3.28-2.57-3.28-4.77,1.13-1.82,3-1.37Z"/><polygon class="cls-19" points="1002.08 273.92 1008.05 277.56 1011.05 275.74 1005.08 272.09 1002.08 273.92"/></g><g id="Trees"><path class="cls-70" d="M332.08,437.6h0a1.17,1.17,0,0,1,1.13,1.2v35.52L331,472.93V438.8a1.17,1.17,0,0,1,1.12-1.2Z"/><path class="cls-71" d="M334,437.6h0a.82.82,0,0,0-.79.84v35.88l1.58-1v-34.9a.82.82,0,0,0-.79-.84Z"/><path class="cls-72" d="M332.59,409.77c10.16,0,18.38,8.7,18.38,19.44s-8.22,19.44-18.38,19.44-18.36-8.7-18.36-19.44,8.22-19.44,18.36-19.44Z"/><path class="cls-73" d="M336.78,410.3c8.13,2,14.19,9.71,14.19,18.91a19.51,19.51,0,0,1-11.07,17.86c-8.13-2-14.19-9.73-14.19-18.94a19.47,19.47,0,0,1,11.07-17.83Z"/><path class="cls-70" d="M366.33,431h0a.7.7,0,0,1,.68.72V452.8l-1.35-.82V431.75a.68.68,0,0,1,.67-.72Z"/><path class="cls-71" d="M367.46,431h0a.47.47,0,0,0-.45.5V452.8l.93-.58V431.53a.48.48,0,0,0-.48-.5Z"/><path class="cls-72" d="M366.62,414.54c6,0,10.91,5.15,10.91,11.51s-4.89,11.53-10.91,11.53-10.88-5.16-10.88-11.53,4.87-11.51,10.88-11.51Z"/><path class="cls-73" d="M369.12,414.83a11.44,11.44,0,0,1,8.41,11.22A11.58,11.58,0,0,1,371,436.64a11.43,11.43,0,0,1-8.41-11.22,11.58,11.58,0,0,1,6.57-10.59Z"/><path class="cls-70" d="M387.12,404.45h0a1.15,1.15,0,0,1,1.1,1.15v34L386,438.29V405.6a1.14,1.14,0,0,1,1.08-1.15Z"/><path class="cls-71" d="M389,404.45h0a.78.78,0,0,0-.74.82v34.34l1.51-.91V405.27a.79.79,0,0,0-.77-.82Z"/><path class="cls-72" d="M387.62,377.8c9.73,0,17.59,8.34,17.59,18.62S397.35,415,387.62,415,370,406.7,370,396.42s7.86-18.62,17.59-18.62Z"/><path class="cls-73" d="M391.62,378.28c7.79,1.91,13.59,9.32,13.59,18.14a18.71,18.71,0,0,1-10.59,17.09c-7.79-1.92-13.59-9.32-13.59-18.14a18.7,18.7,0,0,1,10.59-17.09Z"/><path class="cls-70" d="M420.77,394.31h0a.83.83,0,0,1,.81.86v25l-1.6-1v-24a.83.83,0,0,1,.79-.86Z"/><path class="cls-71" d="M422.13,394.31h0a.57.57,0,0,0-.55.6v25.24l1.11-.67V394.91a.58.58,0,0,0-.56-.6Z"/><path class="cls-72" d="M421.13,374.73c7.14,0,12.94,6.13,12.94,13.68s-5.8,13.69-12.94,13.69-12.92-6.14-12.92-13.69,5.77-13.68,12.92-13.68Z"/><path class="cls-73" d="M424.08,375.09a13.56,13.56,0,0,1,10,13.32A13.73,13.73,0,0,1,426.28,401a13.53,13.53,0,0,1-10-13.32,13.73,13.73,0,0,1,7.79-12.56Z"/><path class="cls-70" d="M649.81,169.32h0a1,1,0,0,1,1,1v30.32l-1.91-1.17V170.32a1,1,0,0,1,.95-1Z"/><path class="cls-71" d="M651.47,169.32h0a.69.69,0,0,0-.7.69v30.63l1.37-.81V170a.69.69,0,0,0-.67-.69Z"/><path class="cls-72" d="M650.25,145.54c8.67,0,15.69,7.43,15.69,16.61s-7,16.59-15.69,16.59-15.68-7.43-15.68-16.59,7-16.61,15.68-16.61Z"/><path class="cls-73" d="M653.84,146a16.92,16.92,0,0,1,2.66,31.4,16.42,16.42,0,0,1-12.13-16.15A16.69,16.69,0,0,1,653.84,146Z"/><path class="cls-70" d="M616,163.42h0a.82.82,0,0,1,.79.84v25l-1.58-1v-24a.82.82,0,0,1,.79-.84Z"/><path class="cls-71" d="M617.36,163.42h0a.59.59,0,0,0-.58.58v25.26l1.13-.7V164a.57.57,0,0,0-.55-.58Z"/><path class="cls-72" d="M616.35,143.84c7.15,0,12.95,6.11,12.95,13.66s-5.8,13.69-12.95,13.69-12.92-6.12-12.92-13.69,5.78-13.66,12.92-13.66Z"/><path class="cls-73" d="M619.3,144.2a13.52,13.52,0,0,1,10,13.3,13.73,13.73,0,0,1-7.79,12.56,13.54,13.54,0,0,1-10-13.3,13.69,13.69,0,0,1,7.79-12.56Z"/><path class="cls-70" d="M633,130.15h0a.82.82,0,0,1,.79.84v25l-1.58-1V131a.82.82,0,0,1,.79-.84Z"/><path class="cls-71" d="M634.38,130.15h0a.59.59,0,0,0-.58.6V156l1.13-.67V130.75a.59.59,0,0,0-.55-.6Z"/><path class="cls-72" d="M633.37,110.57c7.14,0,12.94,6.13,12.94,13.69s-5.8,13.68-12.94,13.68-12.92-6.13-12.92-13.68,5.78-13.69,12.92-13.69Z"/><path class="cls-73" d="M636.32,110.93a13.53,13.53,0,0,1,10,13.33,13.77,13.77,0,0,1-7.79,12.56,13.58,13.58,0,0,1-10-13.33,13.74,13.74,0,0,1,7.79-12.56Z"/><path class="cls-70" d="M786.24,478.68h0a1.47,1.47,0,0,1,1.42,1.49v44.1l-2.83-1.7v-42.4a1.47,1.47,0,0,1,1.41-1.49Z"/><path class="cls-71" d="M788.64,478.68h0a1,1,0,0,0-1,1v44.56l2-1.2V479.71a1,1,0,0,0-1-1Z"/><path class="cls-72" d="M786.89,444.09c12.61,0,22.82,10.81,22.82,24.17s-10.21,24.13-22.82,24.13-22.84-10.81-22.84-24.13,10.23-24.17,22.84-24.17Z"/><path class="cls-73" d="M792.09,444.74c10.09,2.49,17.62,12.08,17.62,23.52A24.24,24.24,0,0,1,796,490.43c-10.09-2.5-17.62-12.08-17.62-23.54a24.21,24.21,0,0,1,13.76-22.15Z"/><path class="cls-70" d="M737,470.1h0a1.19,1.19,0,0,1,1.15,1.22v36.36l-2.3-1.41V471.32A1.18,1.18,0,0,1,737,470.1Z"/><path class="cls-71" d="M739,470.1h0a.84.84,0,0,0-.81.86v36.72l1.63-1V471a.83.83,0,0,0-.82-.86Z"/><path class="cls-72" d="M737.56,441.6c10.41,0,18.82,8.92,18.82,19.92s-8.41,19.89-18.82,19.89-18.81-8.91-18.81-19.89,8.41-19.92,18.81-19.92Z"/><path class="cls-73" d="M741.85,442.13c8.32,2,14.53,9.95,14.53,19.39A20,20,0,0,1,745,479.78c-8.32-2.06-14.52-9.94-14.52-19.39a20,20,0,0,1,11.33-18.26Z"/><path class="cls-70" d="M761.8,421.71h0a1.19,1.19,0,0,1,1.15,1.22v36.36l-2.3-1.41V422.93a1.18,1.18,0,0,1,1.15-1.22Z"/><path class="cls-71" d="M763.76,421.71h0a.84.84,0,0,0-.81.86v36.72l1.63-1V422.57a.83.83,0,0,0-.82-.86Z"/><path class="cls-72" d="M762.32,393.21c10.41,0,18.82,8.91,18.82,19.92S772.73,433,762.32,433s-18.81-8.92-18.81-19.89,8.43-19.92,18.81-19.92Z"/><path class="cls-73" d="M766.61,393.74c8.32,2,14.53,9.94,14.53,19.39a20,20,0,0,1-11.34,18.26c-8.32-2.06-14.52-9.95-14.52-19.39a20,20,0,0,1,11.33-18.26Z"/><path class="cls-70" d="M561.63,163h0a.37.37,0,0,1,.36.36v11.24l-.72-.43V163.37a.37.37,0,0,1,.36-.36Z"/><path class="cls-71" d="M562.23,163h0a.26.26,0,0,0-.24.27v11.33l.5-.31v-11a.26.26,0,0,0-.26-.27Z"/><path class="cls-72" d="M561.8,154.22a6.14,6.14,0,1,1-5.82,6.13,6,6,0,0,1,5.82-6.13Z"/><path class="cls-73" d="M563.12,154.36a6.26,6.26,0,0,1,1,11.62,6.06,6.06,0,0,1-4.48-6,6.2,6.2,0,0,1,3.5-5.66Z"/><path class="cls-70" d="M553.58,171h0a.3.3,0,0,1,.29.29V180l-.55-.36v-8.39a.29.29,0,0,1,.26-.29Z"/><path class="cls-71" d="M554.06,171h0a.21.21,0,0,0-.19.22V180l.38-.24v-8.58a.2.2,0,0,0-.19-.22Z"/><path class="cls-72" d="M553.72,164.16a4.78,4.78,0,1,1-4.53,4.77,4.64,4.64,0,0,1,4.53-4.77Z"/><path class="cls-73" d="M554.75,164.28a4.73,4.73,0,0,1,3.48,4.65,4.83,4.83,0,0,1-2.71,4.39,4.86,4.86,0,0,1-.77-9Z"/><path class="cls-70" d="M538.62,173.68h0a.46.46,0,0,1,.46.48v14.33l-.91-.55V174.16a.47.47,0,0,1,.45-.48Z"/><path class="cls-71" d="M539.41,173.68h0a.34.34,0,0,0-.33.33v14.48l.64-.38V174a.34.34,0,0,0-.31-.33Z"/><path class="cls-72" d="M538.84,162.46a7.85,7.85,0,1,1-7.41,7.84,7.61,7.61,0,0,1,7.41-7.84Z"/><path class="cls-73" d="M540.52,162.65a8,8,0,1,1-4.46,7.22,7.89,7.89,0,0,1,4.46-7.22Z"/></g><g id="Blue_Car" data-name="Blue Car"><polygon class="cls-74" points="525.89 298.6 527 298 525.89 297.55 525.89 298.6"/><polygon class="cls-75" points="458.01 305.48 478.2 317.8 478.2 330.15 458.04 317.83 458.01 305.48"/><polygon class="cls-76" points="458.01 305.51 505.74 276.34 525.89 288.66 478.17 317.8 458.01 305.51"/><path class="cls-75" d="M492.46,309.08v6.52a6.48,6.48,0,0,0-2.64.55,12,12,0,0,0-6.88,10.16c0,.31,0,.63.05.91l-4.79,2.93V317.8Z"/><polygon class="cls-77" points="466.57 300.33 469.14 286.43 489.27 298.72 486.73 312.6 466.57 300.33"/><path class="cls-75" d="M492.46,309.1l33.44-20.44V301l-29.37,18a4.11,4.11,0,0,0-4.1-3.31Z"/><path class="cls-74" d="M527,298v3.79l-5.32,3.26-.48-1.2a5.12,5.12,0,0,0-1.27-1.91Z"/><polygon class="cls-78" points="469.11 286.43 488.36 274.68 508.47 286.98 489.25 298.72 469.11 286.43"/><polygon class="cls-77" points="508.47 286.95 516.55 294.36 486.71 312.55 489.25 298.7 508.47 286.95"/><polygon class="cls-74" points="458.04 312.55 455.76 314.95 455.76 317.75 478.2 331.49 478.2 327.32 478.25 327.34 458.06 315.02 458.04 312.55"/><polygon class="cls-74" points="478.2 331.49 482.94 328.71 482.94 324.97 478.25 327.34 478.2 327.32 478.2 331.49"/><path class="cls-39" d="M511.18,315.07l-4.87-2.13,1.25-.77V312c0-2.06,3.55-8.89,7-10.33s5.68-.29,6.64,2.2L519.33,305Z"/><path class="cls-39" d="M482.94,327.63l3.5,1.82,1.87-5.94,5.2-2.71,3-1.89-.21-.68a4.07,4.07,0,0,0-3.86-2.63h0a6.45,6.45,0,0,0-2.61.55,12,12,0,0,0-6.88,10.11v1.37Zm9.52-13.54v-.43h0Z"/><polygon class="cls-40" points="467.87 299.8 470 288.25 487.98 299.23 485.84 310.76 467.87 299.8"/><path class="cls-40" d="M508.06,288.66l6.33,5.73-13.13,8V292.8Zm-8.2,14.59-11.48,7,1.95-10.76,9.53-5.82Z"/><polygon class="cls-43" points="472.08 289.54 470.53 301.22 476.11 304.84 475.54 291.65 472.08 289.54"/><polygon class="cls-43" points="477.86 293.07 478.94 306.56 482.1 308.48 479.63 294.15 477.86 293.07"/><path class="cls-44" d="M514.56,303.23c3-1.27,5.51.31,5.51,3.52a9.59,9.59,0,0,1-5.51,8.13c-3,1.27-5.52-.29-5.52-3.53a9.57,9.57,0,0,1,5.52-8.12Z"/><path class="cls-44" d="M489.82,317.61c3.05-1.27,5.51.31,5.51,3.52a9.56,9.56,0,0,1-5.51,8.13c-3,1.27-5.49-.31-5.49-3.52a9.61,9.61,0,0,1,5.49-8.13Z"/><path class="cls-45" d="M489.82,321a1.54,1.54,0,0,1,2.33,1.48,4,4,0,0,1-2.33,3.45,1.53,1.53,0,0,1-2.3-1.48,4.07,4.07,0,0,1,2.3-3.45Z"/><path class="cls-45" d="M514.56,306.2a1.8,1.8,0,0,1,2.71,1.73,4.73,4.73,0,0,1-2.71,4,1.78,1.78,0,0,1-2.69-1.73,4.71,4.71,0,0,1,2.69-4Z"/><polygon class="cls-45" points="464.61 312.39 470.05 315.72 470.05 319.14 464.61 315.84 464.61 312.39"/><path class="cls-79" d="M460.05,308.55a1.44,1.44,0,0,1,.75,1.32c0,.6-.34,1-.75.81a1.44,1.44,0,0,1-.74-1.31c0-.6.34-1,.74-.82Z"/><path class="cls-31" d="M462,309.77a1.45,1.45,0,0,1,.74,1.32c0,.6-.33,1-.74.82a1.46,1.46,0,0,1-.75-1.32c0-.6.34-1,.75-.82Z"/><path class="cls-31" d="M474.12,317.16a1.41,1.41,0,0,1,.75,1.31c0,.58-.34,1-.75.82a1.42,1.42,0,0,1-.72-1.32c0-.6.31-1,.72-.81Z"/><path class="cls-79" d="M476.09,318.38a1.43,1.43,0,0,1,.74,1.32c0,.6-.34,1-.74.81a1.43,1.43,0,0,1-.74-1.32c0-.6.33-1,.74-.81Z"/><polygon class="cls-19" points="465.21 313.13 469.47 315.72 469.47 318.43 465.21 315.81 465.21 313.13"/></g><g id="Ice_Cream_Car" data-name="Ice Cream Car"><polygon class="cls-80" points="883.25 287.79 863.06 300.12 863.06 312.43 883.22 300.14 883.25 287.79"/><polygon class="cls-81" points="883.22 287.77 832.45 256.75 812.3 269.07 863.06 300.09 883.22 287.77"/><path class="cls-82" d="M812.3,269.1v12.29l5,3.05c.94-2.5,3.55-3.5,6.62-2.21a12.2,12.2,0,0,1,7,10.33v.2l32.16,19.67V300.09Zm0-12.37V269.1l44.41,27.06-2.54-13.86Z"/><polygon class="cls-80" points="876.82 283.91 874.26 270.03 854.12 282.33 856.66 296.21 876.82 283.91"/><polygon class="cls-81" points="874.28 270.03 832.41 244.46 812.3 256.75 854.15 282.31 874.28 270.03"/><polygon class="cls-32" points="883.22 294.67 885.5 297.09 885.5 298.72 863.09 312.43 863.09 309.44 863.02 309.49 883.2 297.17 883.22 294.67"/><path class="cls-39" d="M827.28,295.66l4.86-2.14-1.24-.76v-.2a12.2,12.2,0,0,0-7-10.33c-3.07-1.29-5.68-.29-6.62,2.21l1.85,1.15Z"/><polygon class="cls-40" points="875.53 283.41 873.42 271.85 855.44 282.83 857.55 294.36 875.53 283.41"/><polygon class="cls-32" points="863.09 312.43 856.3 308.45 856.3 305.87 863.02 309.49 863.09 309.44 863.09 312.43"/><polygon class="cls-40" points="842.83 276.82 842.83 286.43 855.2 293.98 853.26 283.19 842.83 276.82"/><polygon class="cls-41" points="881.42 292.37 877.78 294.67 877.78 297.84 881.42 295.7 881.42 292.37"/><polygon class="cls-41" points="869.46 299.68 865.84 301.96 865.84 305.12 869.46 302.99 869.46 299.68"/><polygon class="cls-42" points="876.44 294.24 870.76 297.72 870.76 302.61 876.44 299.16 876.44 294.24"/><polygon class="cls-43" points="871.31 273.15 872.87 284.82 867.28 288.44 867.86 275.24 871.31 273.15"/><polygon class="cls-43" points="865.53 276.65 864.45 290.17 861.29 292.08 863.76 277.75 865.53 276.65"/><path class="cls-44" d="M823.9,283.82c-3-1.28-5.51.31-5.51,3.52a9.56,9.56,0,0,0,5.51,8.12c3,1.27,5.51-.28,5.51-3.52a9.58,9.58,0,0,0-5.51-8.12Z"/><path class="cls-45" d="M823.9,286.79a1.78,1.78,0,0,0-2.69,1.72,4.66,4.66,0,0,0,2.69,4,1.77,1.77,0,0,0,2.68-1.72,4.67,4.67,0,0,0-2.68-4Z"/><polygon class="cls-15" points="815.37 263.68 815.37 274.78 839.89 289.73 839.89 278.66 815.37 263.68"/><polygon class="cls-12" points="813.88 259.65 841.08 276.26 834.18 280.48 806.98 263.87 813.88 259.65"/><polygon class="cls-83" points="806.98 263.87 806.98 265.81 834.23 282.45 834.21 280.48 806.98 263.87"/><polygon class="cls-84" points="841.08 276.26 841.11 278.25 834.23 282.45 834.21 280.48 841.08 276.26"/><polygon class="cls-16" points="817.24 261.72 810.33 265.94 813.06 267.61 820.06 263.35 817.24 261.72"/><polygon class="cls-16" points="823.06 265.26 816.13 269.48 818.89 271.16 825.86 266.89 823.06 265.26"/><polygon class="cls-16" points="828.86 268.81 821.93 273.03 824.69 274.71 831.66 270.44 828.86 268.81"/><polygon class="cls-16" points="834.56 272.29 827.64 276.5 830.39 278.18 837.37 273.92 834.56 272.29"/><polygon class="cls-85" points="821.96 273.03 821.96 274.97 824.71 276.65 824.71 274.68 821.96 273.03"/><polygon class="cls-85" points="827.66 276.5 827.66 278.45 830.42 280.12 830.42 278.16 827.66 276.5"/><path class="cls-12" d="M832.14,255.89c3.19-1.7,8.56-1.46,12,.55a7.24,7.24,0,0,1,1.54,1.18l-5.54,2.95-5.56,2.94a11.46,11.46,0,0,1-2-.93c-3.4-2-3.57-5-.36-6.69Z"/><polygon class="cls-86" points="858.41 271.3 852.42 264.66 846.4 258.02 840.82 260.97 835.24 263.94 846.81 267.61 858.41 271.3"/><path class="cls-87" d="M829.8,258.07c2.51-1.32,6.73-1.12,9.41.43a5.38,5.38,0,0,1,1.2.94l-4.36,2.3-4.36,2.32a9,9,0,0,1-1.58-.71c-2.69-1.59-2.81-3.93-.31-5.28Z"/><path class="cls-88" d="M837.94,255.15a7.57,7.57,0,0,1,6.69.31,3.34,3.34,0,0,1,.84.65l-3.09,1.63-3.09,1.65a6.53,6.53,0,0,1-1.13-.5c-1.92-1.13-2-2.81-.22-3.74Z"/><polygon class="cls-85" points="810.36 265.96 810.36 267.88 813.09 269.55 813.09 267.61 810.36 265.96"/><polygon class="cls-85" points="816.16 269.48 816.16 271.42 818.91 273.1 818.91 271.14 816.16 269.48"/><path class="cls-39" d="M857.65,309.25l-3.5,2.08-1.87-5.94-5.2-2.71-3-1.87.21-.67a4.05,4.05,0,0,1,3.86-2.66h0c.8,0,.24-.43,2.62.55s6.85,6.09,6.88,10.11v1.11Z"/><path class="cls-44" d="M850.77,299.49c-3-1.27-5.52.31-5.52,3.52a9.57,9.57,0,0,0,5.52,8.13c3,1.27,5.49-.29,5.49-3.52a9.6,9.6,0,0,0-5.49-8.13Z"/><path class="cls-45" d="M850.77,302.87a1.53,1.53,0,0,0-2.33,1.49,4,4,0,0,0,2.33,3.42,1.53,1.53,0,0,0,2.3-1.48,4,4,0,0,0-2.3-3.43Z"/></g><g id="Building"><polygon class="cls-89" points="355.62 307.26 355.62 186.07 430.14 140.56 430.14 261.88 355.62 307.26"/><polygon class="cls-90" points="355.62 186.07 281.22 140.63 281.22 261.86 355.62 307.26 355.62 186.07"/><polygon class="cls-91" points="281.22 140.84 355.67 94.99 430.16 140.56 355.62 186.07 281.22 140.84"/><polygon class="cls-92" points="295.12 140.48 355.67 103.5 416.21 140.46 355.64 177.47 295.12 140.48"/><polygon class="cls-12" points="355.67 103.5 355.72 110.95 410.65 143.86 416.21 140.46 355.67 103.5"/><polygon class="cls-93" points="355.67 103.5 355.72 110.93 300.68 143.86 295.12 140.48 355.67 103.5"/><polygon class="cls-57" points="372.83 189.72 372.83 200.76 383.81 194.08 383.81 183.03 372.83 189.72"/><polygon class="cls-57" points="388.05 180.44 388.05 191.47 399.03 184.78 399.03 173.73 388.05 180.44"/><polygon class="cls-94" points="431.15 166.06 355.62 212.29 355.62 219.03 431.1 172.36 431.15 166.06"/><polygon class="cls-91" points="431.15 166.06 430.14 165.63 355.62 211.07 355.62 212.29 431.15 166.06"/><polygon class="cls-57" points="372.83 215.75 372.83 226.79 383.81 220.11 383.81 209.06 372.83 215.75"/><polygon class="cls-57" points="388.05 206.45 388.05 217.5 399.03 210.81 399.03 199.76 388.05 206.45"/><polygon class="cls-94" points="431.15 192.09 355.62 238.32 355.62 245.06 431.1 198.39 431.15 192.09"/><polygon class="cls-91" points="431.15 192.09 430.14 191.66 355.62 237.08 355.62 238.32 431.15 192.09"/><polygon class="cls-94" points="431.15 141.68 355.62 187.92 355.62 194.65 431.1 147.96 431.15 141.68"/><polygon class="cls-91" points="431.15 141.68 430.14 141.25 355.62 186.67 355.62 187.92 431.15 141.68"/><polygon class="cls-94" points="280.1 166.06 355.62 212.29 355.62 219.03 280.14 172.36 280.1 166.06"/><polygon class="cls-91" points="280.1 166.06 281.1 165.63 355.62 211.07 355.62 212.29 280.1 166.06"/><polygon class="cls-94" points="280.1 192.09 355.62 238.32 355.62 245.06 280.14 198.39 280.1 192.09"/><polygon class="cls-91" points="280.1 192.09 281.1 191.66 355.62 237.08 355.62 238.32 280.1 192.09"/><polygon class="cls-94" points="280.1 141.68 355.62 187.92 355.62 194.65 280.14 147.96 280.1 141.68"/><polygon class="cls-91" points="280.1 141.68 281.1 141.25 355.62 186.67 355.62 187.92 280.1 141.68"/><polygon class="cls-57" points="338.8 189.72 338.8 200.76 327.82 194.08 327.82 183.03 338.8 189.72"/><polygon class="cls-57" points="323.57 180.44 323.57 191.47 312.6 184.78 312.6 173.73 323.57 180.44"/><polygon class="cls-57" points="308.33 171.12 308.33 182.17 297.38 175.48 297.38 164.43 308.33 171.12"/><polygon class="cls-57" points="338.8 215.75 338.8 226.79 327.82 220.11 327.82 209.06 338.8 215.75"/><polygon class="cls-57" points="323.57 206.45 323.57 217.5 312.6 210.81 312.6 199.76 323.57 206.45"/><polygon class="cls-57" points="308.33 197.15 308.33 208.19 297.38 201.51 297.38 190.46 308.33 197.15"/><polygon class="cls-94" points="430.14 217.62 434.74 220.42 360.3 265.36 355.62 263.06 430.14 217.62"/><polygon class="cls-94" points="430.14 229.1 434.74 231.9 360.3 276.87 355.62 274.54 430.14 229.1"/><polygon class="cls-95" points="281.1 217.62 276.5 220.42 350.97 265.36 355.62 263.06 281.1 217.62"/><polygon class="cls-95" points="281.1 229.1 276.5 231.9 350.97 276.87 355.62 274.54 281.1 229.1"/><polygon class="cls-95" points="281.1 240.6 276.5 243.41 350.97 288.35 355.62 286.05 281.1 240.6"/><polygon class="cls-96" points="380.4 292.83 380.4 270.95 412.31 251.46 412.31 273.46 380.4 292.83"/><polygon class="cls-97" points="396.58 283.05 396.37 261.19 380.33 270.97 380.62 292.83 396.58 283.05"/></g><g id="Welcome_Board" data-name="Welcome Board"><polygon class="cls-98" points="280.24 377.27 280.24 510.68 271.15 505.19 271.15 382.83 280.24 377.27"/><polygon class="cls-76" points="280.24 510.68 298.43 499.63 298.43 366.15 280.24 377.27 280.24 510.68"/><polygon class="cls-76" points="352.98 243.91 207.52 332.78 207.52 421.78 352.98 332.83 352.98 243.91"/><polygon class="cls-98" points="198.43 327.27 198.43 416.27 207.52 421.8 207.52 332.78 198.43 327.27"/><polygon class="cls-99" points="221.16 346.73 339.35 274.44 339.35 318.88 221.16 391.22 221.16 346.73"/><polygon class="cls-100" points="337.02 278.59 221.16 349.37 221.16 346.73 339.25 274.51 337.02 278.59"/><polygon class="cls-100" points="339.35 318.88 221.16 391.22 221.16 388.56 337.02 317.78 339.35 318.88"/><polygon class="cls-101" points="352.98 243.86 343.9 238.35 198.43 327.27 207.52 332.78 352.98 243.86"/><polygon class="cls-102" points="339.25 274.51 337.02 278.59 337.02 320.32 339.35 318.88 339.25 274.51"/></g><g id="Traffic_Light" data-name="Traffic Light"><polygon class="cls-103" points="607.56 199.4 589.36 188.25 571.17 199.4 589.36 210.5 607.56 199.4"/><polygon class="cls-104" points="607.56 199.42 607.56 266.15 589.36 277.22 589.36 210.54 607.56 199.42"/><polygon class="cls-105" points="571.17 199.4 571.17 266.13 589.36 277.22 589.36 210.5 571.17 199.4"/><path class="cls-106" d="M579.46,212.56c2.91.72,5.81,1.24,5.81,4.77s-2.35,5.8-5.25,5.1-5.23-4.15-5.23-7.67,1.8-2.9,4.67-2.2Z"/><polygon class="cls-11" points="572.95 212.63 582.51 218.48 587.3 215.55 577.74 209.7 572.95 212.63"/><path class="cls-107" d="M579.46,233.7c2.91.69,5.81,1.22,5.81,4.74s-2.35,5.83-5.25,5.11-5.23-4.13-5.23-7.65,1.8-2.92,4.67-2.2Z"/><polygon class="cls-11" points="572.95 233.74 582.51 239.59 587.3 236.67 577.74 230.84 572.95 233.74"/><path class="cls-108" d="M579.46,255.72c2.91.7,5.81,1.23,5.81,4.75s-2.35,5.82-5.25,5.11-5.23-4.13-5.23-7.65,1.8-2.93,4.67-2.21Z"/><polygon class="cls-11" points="572.95 255.77 582.51 261.62 587.3 258.7 577.74 252.87 572.95 255.77"/><polygon class="cls-109" points="589.36 321.66 598.47 316.13 598.45 271.69 589.36 277.22 589.36 321.66"/><polygon class="cls-110" points="580.28 271.69 580.28 316.1 589.36 321.73 589.36 277.22 580.28 271.69"/></g><path class="cls-111" d="M638.11,603.1c-17.87,10.32-46.85,10.32-64.73,0s-17.87-27.05,0-37.37,46.86-10.32,64.73,0S656,592.78,638.11,603.1Z"/><path class="cls-112" d="M705.31,421.51c0,55-99.56,162.91-99.56,162.91S506.19,476.5,506.19,421.51a99.56,99.56,0,1,1,199.12,0Z"/><path class="cls-113" d="M680.35,420.55a74.6,74.6,0,1,1-74.6-74.61A74.6,74.6,0,0,1,680.35,420.55Z"/><path class="cls-114" d="M671.59,420.55a65.85,65.85,0,1,1-65.84-65.85A65.84,65.84,0,0,1,671.59,420.55Z"/><path class="cls-115" d="M663.35,420.55a57.61,57.61,0,1,1-57.6-57.61A57.6,57.6,0,0,1,663.35,420.55Z"/></g></g></svg>