<svg xmlns="http://www.w3.org/2000/svg" viewBox="0 0 1095.96 1113.39"><defs><style>.cls-1{fill:#9ace50;}.cls-1,.cls-2,.cls-3{fill-rule:evenodd;}.cls-2{fill:#7aa343;}.cls-3{fill:#5b8e17;}.cls-4{fill:#82827d;}.cls-5{fill:#8a8384;}.cls-6{fill:#b5201c;}.cls-7{fill:#cc2522;}.cls-8{fill:#e98988;}.cls-9{fill:#ab4242;}.cls-10{fill:#e5a09f;}.cls-11{fill:#e9b26d;}.cls-12{fill:#bc8d56;}.cls-13{fill:#add0f1;}.cls-14{fill:#d2a364;}.cls-15{fill:#ef2c28;}.cls-16{fill:none;}.cls-17{fill:#7c7c76;}.cls-18{fill:#5c5c58;}.cls-19{fill:#9c9c90;}.cls-20{fill:#b6b6a9;}.cls-21{fill:#8a8a83;}.cls-22{fill:#6a6a65;}.cls-23{fill:#a6b5c7;}</style></defs><title>3Asset 2</title><g id="Layer_2" data-name="Layer 2"><g id="Layer_1-2" data-name="Layer 1"><path class="cls-1" d="M548,1095.42,1096,779Q822,620.66,548,462.24L0,779Z"/><polygon class="cls-2" points="1095.96 779.04 547.97 1095.34 547.97 1113.39 1095.96 794.78 1095.96 779.04"/><polygon class="cls-3" points="0 779.04 547.97 1095.34 547.97 1113.39 0 794.78 0 779.04"/><polygon class="cls-4" points="731.52 824.29 728.52 822.63 728.52 784.04 731.52 785.77 731.52 824.29"/><polygon class="cls-5" points="731.52 824.29 734.51 822.63 734.51 784.04 731.52 785.77 731.52 824.29"/><polygon class="cls-4" points="766.49 844.41 763.5 842.75 763.5 804.16 766.49 805.89 766.49 844.41"/><polygon class="cls-5" points="766.49 844.41 769.48 842.75 769.48 804.16 766.49 805.89 766.49 844.41"/><polygon class="cls-4" points="801.47 824.29 798.47 822.63 798.47 784.04 801.47 785.77 801.47 824.29"/><polygon class="cls-5" points="801.47 824.29 804.46 822.63 804.46 784.04 801.47 785.77 801.47 824.29"/><path class="cls-6" d="M766.47,757.61l-38,21.93v4.52l38,22,37.93-21.9v-4.6Z"/><polygon class="cls-7" points="728.52 779.52 766.47 757.61 804.46 779.51 766.45 801.41 728.52 779.52"/><polygon class="cls-8" points="324 118.67 324 771.37 529.54 890.04 529.54 237.34 324 118.67"/><polygon class="cls-9" points="529.54 237.34 735.09 118.67 735.08 771.37 529.54 890.04 529.54 237.34"/><polygon class="cls-10" points="324 118.67 529.54 0 735.09 118.67 529.54 237.34 324 118.67"/><polygon class="cls-9" points="339.9 118.67 528.32 9.89 716.74 118.67 529.54 227.45 339.9 118.67"/><polygon class="cls-8" points="529.54 9.89 529.54 59.34 675.14 143.39 717.96 118.67 529.54 9.89"/><polygon class="cls-10" points="529.54 59.34 383.34 143.75 529.54 227.45 673.91 143.39 529.54 59.34"/><polygon class="cls-11" points="324 593.36 324 771.37 529.54 890.04 529.54 712.03 324 593.36"/><path class="cls-12" d="M379.73,803.53s2.1-65.25.84-90.7C373,669.12,327.84,666.44,327,687.38c-.84,21.41-.35,85.5-.35,85.5Z"/><path class="cls-13" d="M334.62,768.41c-.07-11.67-.36-64.23.37-83,.25-6.5,6.45-8.81,12.15-8.81,13.14,0,29.16,10.81,33.36,34.55,1,20.32-.17,66.14-.66,83.39Z"/><polygon class="cls-14" points="529.54 890.04 529.54 712.03 735.08 593.36 735.08 771.37 529.54 890.04"/><polygon class="cls-12" points="655.79 698.67 655.79 757.91 542.5 823.32 542.5 763.98 655.79 698.67"/><polygon class="cls-13" points="648.45 753.66 648.45 702.9 542.5 763.98 542.5 814.83 648.45 753.66"/><polygon class="cls-6" points="529.54 712.03 735.08 593.36 786.48 682.36 580.95 801.01 529.54 712.03"/><polygon class="cls-6" points="786.48 682.36 580.95 801.01 580.95 814.3 786.48 694 786.48 682.36"/><polygon class="cls-12" points="403.41 698.64 403.41 757.88 516.7 823.28 516.7 763.95 403.41 698.64"/><polygon class="cls-13" points="410.75 753.63 410.75 702.87 516.7 763.94 516.7 814.81 410.75 753.63"/><polygon class="cls-15" points="529.54 712.03 324 593.36 298.31 637.92 503.67 756.56 529.54 712.03"/><polygon class="cls-15" points="298.31 637.92 503.67 756.56 503.67 769.86 298.31 649.55 298.31 637.92"/><polygon class="cls-4" points="587.2 904.37 584.21 902.72 584.21 864.13 587.2 865.86 587.2 904.37"/><polygon class="cls-5" points="587.2 904.37 590.19 902.72 590.19 864.13 587.2 865.86 587.2 904.37"/><polygon class="cls-4" points="622.17 924.49 619.18 922.84 619.18 884.24 622.17 885.98 622.17 924.49"/><polygon class="cls-5" points="622.17 924.49 625.16 922.84 625.16 884.24 622.17 885.98 622.17 924.49"/><polygon class="cls-4" points="657.14 904.37 654.15 902.72 654.15 864.13 657.14 865.86 657.14 904.37"/><polygon class="cls-5" points="657.14 904.37 660.13 902.72 660.13 864.13 657.14 865.86 657.14 904.37"/><path class="cls-6" d="M622.15,837.69l-37.94,21.94v4.52l38,21.94,37.93-21.89v-4.61Z"/><polygon class="cls-7" points="584.21 859.61 622.15 837.69 660.13 859.59 622.13 881.5 584.21 859.61"/><polygon class="cls-4" points="661.58 861.39 658.58 859.75 658.58 821.15 661.58 822.88 661.58 861.39"/><polygon class="cls-5" points="661.58 861.39 664.57 859.75 664.57 821.15 661.58 822.88 661.58 861.39"/><polygon class="cls-4" points="696.55 881.52 693.55 879.86 693.55 841.27 696.55 843.01 696.55 881.52"/><polygon class="cls-5" points="696.55 881.52 699.54 879.86 699.54 841.27 696.55 843.01 696.55 881.52"/><polygon class="cls-4" points="731.52 861.39 728.52 859.75 728.52 821.15 731.52 822.88 731.52 861.39"/><polygon class="cls-5" points="731.52 861.39 734.51 859.75 734.51 821.15 731.52 822.88 731.52 861.39"/><path class="cls-6" d="M696.52,794.72l-37.94,21.93v4.53l38,21.93,37.92-21.89v-4.6Z"/><polygon class="cls-7" points="658.58 816.63 696.52 794.72 734.51 816.62 696.51 838.53 658.58 816.63"/><polygon class="cls-9" points="375.38 207.67 375.38 326.38 478.21 385.63 478.16 267.01 375.38 207.67"/><polygon class="cls-13" points="380.27 323.56 380.26 210.51 478.15 267.03 478.2 379.99 380.27 323.56"/><polygon class="cls-9" points="375.38 445.18 375.38 563.88 478.21 623.13 478.16 504.52 375.38 445.18"/><polygon class="cls-13" points="380.27 561.06 380.26 448.01 478.15 504.53 478.2 617.49 380.27 561.06"/><polygon class="cls-8" points="580.91 267.02 683.68 207.68 683.72 326.35 580.91 385.69 580.91 267.02"/><polygon class="cls-13" points="580.91 267.08 678.79 210.56 678.82 323.59 580.91 380.1 580.91 267.08"/><polygon class="cls-8" points="580.91 504.49 683.68 445.14 683.72 563.82 580.91 623.16 580.91 504.49"/><polygon class="cls-13" points="580.91 504.54 678.79 448.03 678.82 561.05 580.91 617.57 580.91 504.54"/><line class="cls-16" x1="684.93" y1="310.31" x2="728.93" y2="335.87"/><line class="cls-16" x1="651.61" y1="424.72" x2="693.31" y2="453.97"/><polygon class="cls-17" points="683.7 296.25 724.88 319.94 724.89 323.22 683.7 299.5 683.7 296.25"/><polygon class="cls-18" points="722.66 321.37 724.88 322.88 725.08 356.14 722.66 354.75 722.66 321.37"/><polygon class="cls-18" points="719.12 319.24 721.36 320.74 721.54 353.56 719.12 352.17 719.12 319.24"/><polygon class="cls-18" points="715.58 317.11 717.84 318.6 718 350.97 715.58 349.59 715.58 317.11"/><polygon class="cls-18" points="712.05 314.98 714.32 316.46 714.46 348.39 712.05 347.01 712.05 314.98"/><polygon class="cls-18" points="708.51 312.85 710.8 314.32 710.92 345.81 708.51 344.43 708.51 312.85"/><polygon class="cls-18" points="704.97 310.72 707.28 312.18 707.39 343.23 704.97 341.86 704.97 310.72"/><polygon class="cls-18" points="701.43 308.59 703.76 310.04 703.85 340.65 701.43 339.28 701.43 308.59"/><polygon class="cls-18" points="697.9 306.46 700.24 307.9 700.31 338.07 697.9 336.7 697.9 306.46"/><polygon class="cls-18" points="694.36 304.33 696.72 305.76 696.77 335.49 694.36 334.12 694.36 304.33"/><polygon class="cls-18" points="690.82 302.2 693.2 303.62 693.24 332.9 690.82 331.54 690.82 302.2"/><polygon class="cls-18" points="687.28 300.07 689.68 301.48 689.7 330.32 687.28 328.96 687.28 300.07"/><polygon class="cls-18" points="683.75 297.95 686.16 299.34 686.16 327.74 683.75 326.39 683.75 297.95"/><polygon class="cls-19" points="678.89 323.5 580.91 380.05 580.91 385.65 627.34 412.43 725.05 356.02 725.05 350.15 678.89 323.5"/><polygon class="cls-20" points="580.91 380.05 678.89 323.5 725.05 350.15 627.2 406.76 580.91 380.05"/><polygon class="cls-4" points="580.91 349.1 627.33 376.21 627.34 379.51 580.91 352.36 580.91 349.1"/><polygon class="cls-4" points="624.93 378.01 627.34 379.41 627.34 412.43 624.93 411.04 624.93 378.01"/><polygon class="cls-4" points="620.93 375.67 623.34 377.07 623.34 410.12 620.93 408.74 620.93 375.67"/><polygon class="cls-4" points="616.93 373.33 619.34 374.73 619.34 407.82 616.93 406.43 616.93 373.33"/><polygon class="cls-4" points="612.93 370.99 615.34 372.39 615.34 405.51 612.93 404.13 612.93 370.99"/><polygon class="cls-4" points="608.93 368.65 611.34 370.05 611.34 403.2 608.93 401.82 608.93 368.65"/><polygon class="cls-4" points="604.93 366.31 607.34 367.71 607.34 400.89 604.93 399.52 604.93 366.31"/><polygon class="cls-4" points="600.93 363.97 603.34 365.37 603.34 398.59 600.93 397.22 600.93 363.97"/><polygon class="cls-4" points="596.93 361.63 599.34 363.03 599.34 396.28 596.93 394.91 596.93 361.63"/><polygon class="cls-4" points="592.93 359.29 595.34 360.69 595.34 393.97 592.93 392.61 592.93 359.29"/><polygon class="cls-4" points="588.93 356.95 591.34 358.35 591.34 391.67 588.93 390.3 588.93 356.95"/><polygon class="cls-4" points="584.93 354.61 587.34 356.01 587.34 389.36 584.93 388 584.93 354.61"/><polygon class="cls-4" points="580.93 352.26 583.34 353.67 583.34 387.05 580.93 385.69 580.93 352.26"/><polygon class="cls-21" points="627.34 379.88 724.86 323.58 724.86 319.9 627.34 376.2 627.34 379.88"/><line class="cls-16" x1="723.65" y1="340.3" x2="623.09" y2="398.19"/><polygon class="cls-22" points="722.45 324.57 722.45 357.42 724.86 356.02 724.86 323.19 722.45 324.57"/><polygon class="cls-22" points="718.93 326.6 718.92 359.46 721.33 358.06 721.33 325.23 718.93 326.6"/><polygon class="cls-22" points="715.4 328.64 715.4 361.49 717.8 360.1 717.8 327.27 715.4 328.64"/><polygon class="cls-22" points="711.88 330.67 711.88 363.53 714.28 362.13 714.28 329.31 711.88 330.67"/><polygon class="cls-22" points="708.36 332.71 708.36 365.57 710.75 364.17 710.75 331.34 708.36 332.71"/><polygon class="cls-22" points="704.84 334.74 704.83 367.61 707.22 366.21 707.22 333.38 704.84 334.74"/><polygon class="cls-22" points="701.31 336.78 701.31 369.64 703.69 368.25 703.69 335.42 701.31 336.78"/><polygon class="cls-22" points="697.79 338.81 697.79 371.68 700.16 370.28 700.16 337.45 697.79 338.81"/><polygon class="cls-22" points="694.27 340.85 694.26 373.72 696.63 372.32 696.63 339.49 694.27 340.85"/><polygon class="cls-22" points="690.75 342.88 690.74 375.76 693.1 374.36 693.1 341.53 690.75 342.88"/><polygon class="cls-22" points="687.22 344.92 687.22 377.79 689.57 376.4 689.57 343.57 687.22 344.92"/><polygon class="cls-22" points="683.7 346.95 683.7 379.83 686.04 378.43 686.04 345.61 683.7 346.95"/><polygon class="cls-22" points="680.18 348.99 680.17 381.87 682.52 380.47 682.52 347.64 680.18 348.99"/><polygon class="cls-22" points="676.65 351.02 676.65 383.91 678.99 382.51 678.99 349.68 676.65 351.02"/><polygon class="cls-22" points="673.13 353.06 673.13 385.94 675.46 384.55 675.46 351.72 673.13 353.06"/><polygon class="cls-22" points="669.61 355.09 669.61 387.98 671.93 386.58 671.93 353.76 669.61 355.09"/><polygon class="cls-22" points="666.09 357.12 666.09 390.02 668.4 388.62 668.4 355.79 666.09 357.12"/><polygon class="cls-22" points="662.57 359.16 662.56 392.06 664.87 390.66 664.87 357.83 662.57 359.16"/><polygon class="cls-22" points="659.04 361.19 659.04 394.09 661.34 392.7 661.34 359.87 659.04 361.19"/><polygon class="cls-22" points="655.52 363.23 655.52 396.13 657.81 394.73 657.81 361.91 655.52 363.23"/><polygon class="cls-22" points="652 365.26 652 398.17 654.28 396.77 654.28 363.94 652 365.26"/><polygon class="cls-22" points="648.47 367.3 648.47 400.21 650.76 398.81 650.76 365.98 648.47 367.3"/><polygon class="cls-22" points="644.95 369.33 644.95 402.24 647.23 400.85 647.23 368.02 644.95 369.33"/><polygon class="cls-22" points="641.43 371.37 641.43 404.28 643.7 402.88 643.7 370.06 641.43 371.37"/><polygon class="cls-22" points="637.91 373.4 637.91 406.32 640.17 404.92 640.17 372.1 637.91 373.4"/><polygon class="cls-22" points="634.38 375.44 634.38 408.36 636.64 406.96 636.64 374.13 634.38 375.44"/><polygon class="cls-22" points="630.86 377.47 630.86 410.39 633.11 409 633.11 376.17 630.86 377.47"/><polygon class="cls-22" points="627.34 379.51 627.34 412.43 629.58 411.03 629.58 378.21 627.34 379.51"/><polygon class="cls-19" points="380.19 323.5 478.17 380.05 478.17 385.65 431.74 412.43 334.02 356.02 334.02 350.15 380.19 323.5"/><polygon class="cls-20" points="478.17 380.05 380.19 323.5 334.02 350.15 431.88 406.76 478.17 380.05"/><polygon class="cls-17" points="375.38 296.25 334.2 319.94 334.19 323.22 375.38 299.5 375.38 296.25"/><polygon class="cls-18" points="336.42 321.37 334.2 322.88 334.01 356.14 336.42 354.75 336.42 321.37"/><polygon class="cls-18" points="339.96 319.24 337.72 320.74 337.55 353.56 339.96 352.17 339.96 319.24"/><polygon class="cls-18" points="343.5 317.11 341.24 318.6 341.09 350.97 343.5 349.59 343.5 317.11"/><polygon class="cls-18" points="347.03 314.98 344.76 316.46 344.62 348.39 347.03 347.01 347.03 314.98"/><polygon class="cls-18" points="350.57 312.85 348.28 314.32 348.16 345.81 350.57 344.43 350.57 312.85"/><polygon class="cls-18" points="354.11 310.72 351.8 312.18 351.7 343.23 354.11 341.86 354.11 310.72"/><polygon class="cls-18" points="357.64 308.59 355.32 310.04 355.24 340.65 357.64 339.28 357.64 308.59"/><polygon class="cls-18" points="361.18 306.46 358.84 307.9 358.77 338.07 361.18 336.7 361.18 306.46"/><polygon class="cls-18" points="364.72 304.33 362.36 305.76 362.31 335.49 364.72 334.12 364.72 304.33"/><polygon class="cls-18" points="368.26 302.2 365.88 303.62 365.85 332.9 368.26 331.54 368.26 302.2"/><polygon class="cls-18" points="371.8 300.07 369.4 301.48 369.39 330.32 371.8 328.96 371.8 300.07"/><polygon class="cls-18" points="375.33 297.95 372.92 299.34 372.92 327.74 375.33 326.39 375.33 297.95"/><polygon class="cls-21" points="478.17 349.1 431.75 376.21 431.74 379.51 478.17 352.36 478.17 349.1"/><polygon class="cls-22" points="434.15 378.01 431.74 379.41 431.74 412.43 434.15 411.04 434.15 378.01"/><polygon class="cls-22" points="438.15 375.67 435.74 377.07 435.74 410.12 438.15 408.74 438.15 375.67"/><polygon class="cls-22" points="442.15 373.33 439.74 374.73 439.74 407.82 442.15 406.43 442.15 373.33"/><polygon class="cls-22" points="446.15 370.99 443.74 372.39 443.74 405.51 446.15 404.13 446.15 370.99"/><polygon class="cls-22" points="450.15 368.65 447.74 370.05 447.74 403.2 450.15 401.82 450.15 368.65"/><polygon class="cls-22" points="454.15 366.31 451.73 367.71 451.73 400.89 454.15 399.52 454.15 366.31"/><polygon class="cls-22" points="458.15 363.97 455.73 365.37 455.73 398.59 458.15 397.22 458.15 363.97"/><polygon class="cls-22" points="462.15 361.63 459.73 363.03 459.73 396.28 462.15 394.91 462.15 361.63"/><polygon class="cls-22" points="466.15 359.29 463.73 360.69 463.73 393.97 466.15 392.61 466.15 359.29"/><polygon class="cls-22" points="470.15 356.95 467.73 358.35 467.73 391.67 470.15 390.3 470.15 356.95"/><polygon class="cls-22" points="474.15 354.61 471.73 356.01 471.73 389.36 474.15 388 474.15 354.61"/><polygon class="cls-22" points="478.15 352.26 475.73 353.67 475.73 387.05 478.15 385.69 478.15 352.26"/><polygon class="cls-4" points="431.74 379.88 334.22 323.58 334.22 319.9 431.74 376.2 431.74 379.88"/><line class="cls-4" x1="335.42" y1="340.3" x2="435.99" y2="398.19"/><polygon class="cls-4" points="336.63 324.57 336.63 357.42 334.22 356.02 334.22 323.19 336.63 324.57"/><polygon class="cls-4" points="340.15 326.6 340.16 359.46 337.75 358.06 337.75 325.23 340.15 326.6"/><polygon class="cls-4" points="343.67 328.64 343.68 361.49 341.27 360.1 341.27 327.27 343.67 328.64"/><polygon class="cls-4" points="347.2 330.67 347.2 363.53 344.8 362.13 344.8 329.31 347.2 330.67"/><polygon class="cls-4" points="350.72 332.71 350.72 365.57 348.33 364.17 348.33 331.34 350.72 332.71"/><polygon class="cls-4" points="354.24 334.74 354.25 367.61 351.86 366.21 351.86 333.38 354.24 334.74"/><polygon class="cls-4" points="357.76 336.78 357.77 369.64 355.39 368.25 355.39 335.42 357.76 336.78"/><polygon class="cls-4" points="361.29 338.81 361.29 371.68 358.92 370.28 358.92 337.45 361.29 338.81"/><polygon class="cls-4" points="364.81 340.85 364.81 373.72 362.45 372.32 362.45 339.49 364.81 340.85"/><polygon class="cls-4" points="368.33 342.88 368.33 375.76 365.98 374.36 365.98 341.53 368.33 342.88"/><polygon class="cls-4" points="371.85 344.92 371.86 377.79 369.51 376.4 369.51 343.57 371.85 344.92"/><polygon class="cls-4" points="375.38 346.95 375.38 379.83 373.04 378.43 373.04 345.61 375.38 346.95"/><polygon class="cls-4" points="378.9 348.99 378.9 381.87 376.56 380.47 376.56 347.64 378.9 348.99"/><polygon class="cls-4" points="382.42 351.02 382.42 383.91 380.09 382.51 380.09 349.68 382.42 351.02"/><polygon class="cls-4" points="385.94 353.06 385.95 385.94 383.62 384.55 383.62 351.72 385.94 353.06"/><polygon class="cls-4" points="389.47 355.09 389.47 387.98 387.15 386.58 387.15 353.76 389.47 355.09"/><polygon class="cls-4" points="392.99 357.12 392.99 390.02 390.68 388.62 390.68 355.79 392.99 357.12"/><polygon class="cls-4" points="396.51 359.16 396.51 392.06 394.21 390.66 394.21 357.83 396.51 359.16"/><polygon class="cls-4" points="400.03 361.19 400.04 394.09 397.74 392.7 397.74 359.87 400.03 361.19"/><polygon class="cls-4" points="403.56 363.23 403.56 396.13 401.27 394.73 401.27 361.91 403.56 363.23"/><polygon class="cls-4" points="407.08 365.26 407.08 398.17 404.8 396.77 404.8 363.94 407.08 365.26"/><polygon class="cls-4" points="410.6 367.3 410.6 400.21 408.32 398.81 408.32 365.98 410.6 367.3"/><polygon class="cls-4" points="414.12 369.33 414.12 402.24 411.85 400.85 411.85 368.02 414.12 369.33"/><polygon class="cls-4" points="417.65 371.37 417.65 404.28 415.38 402.88 415.38 370.06 417.65 371.37"/><polygon class="cls-4" points="421.17 373.4 421.17 406.32 418.91 404.92 418.91 372.1 421.17 373.4"/><polygon class="cls-4" points="424.69 375.44 424.69 408.36 422.44 406.96 422.44 374.13 424.69 375.44"/><polygon class="cls-4" points="428.21 377.47 428.21 410.39 425.97 409 425.97 376.17 428.21 377.47"/><polygon class="cls-4" points="431.74 379.51 431.74 412.43 429.5 411.03 429.5 378.21 431.74 379.51"/><polygon class="cls-19" points="380.23 560.9 478.21 617.46 478.21 623.05 431.78 649.83 334.06 593.42 334.06 587.55 380.23 560.9"/><polygon class="cls-20" points="478.21 617.46 380.23 560.9 334.06 587.55 431.92 644.16 478.21 617.46"/><polygon class="cls-17" points="375.41 533.65 334.23 557.33 334.22 560.63 375.41 536.9 375.41 533.65"/><polygon class="cls-17" points="336.46 558.77 334.23 560.28 334.05 593.54 336.46 592.14 336.46 558.77"/><polygon class="cls-17" points="340 556.64 337.75 558.14 337.58 590.96 340 589.57 340 556.64"/><polygon class="cls-17" points="343.54 554.51 341.27 556 341.12 588.38 343.54 586.99 343.54 554.51"/><polygon class="cls-17" points="347.07 552.38 344.79 553.86 344.66 585.79 347.07 584.41 347.07 552.38"/><polygon class="cls-17" points="350.61 550.25 348.31 551.72 348.2 583.21 350.61 581.83 350.61 550.25"/><polygon class="cls-17" points="354.15 548.12 351.83 549.58 351.73 580.63 354.15 579.25 354.15 548.12"/><polygon class="cls-17" points="357.69 545.99 355.36 547.44 355.27 578.05 357.69 576.68 357.69 545.99"/><polygon class="cls-17" points="361.22 543.86 358.88 545.3 358.81 575.47 361.22 574.1 361.22 543.86"/><polygon class="cls-17" points="364.76 541.73 362.4 543.16 362.35 572.89 364.76 571.52 364.76 541.73"/><polygon class="cls-17" points="368.3 539.61 365.92 541.02 365.88 570.3 368.3 568.94 368.3 539.61"/><polygon class="cls-17" points="371.83 537.48 369.44 538.88 369.42 567.72 371.83 566.37 371.83 537.48"/><polygon class="cls-17" points="375.37 535.35 372.96 536.75 372.96 565.14 375.37 563.79 375.37 535.35"/><polygon class="cls-21" points="478.21 586.5 431.78 613.62 431.78 616.91 478.21 589.76 478.21 586.5"/><polygon class="cls-22" points="434.19 615.41 431.78 616.81 431.78 649.83 434.19 648.44 434.19 615.41"/><polygon class="cls-22" points="438.19 613.07 435.78 614.47 435.78 647.52 438.19 646.14 438.19 613.07"/><polygon class="cls-22" points="442.19 610.73 439.77 612.13 439.77 645.22 442.19 643.83 442.19 610.73"/><polygon class="cls-22" points="446.19 608.39 443.77 609.79 443.77 642.91 446.19 641.53 446.19 608.39"/><polygon class="cls-22" points="450.19 606.05 447.77 607.45 447.77 640.6 450.19 639.23 450.19 606.05"/><polygon class="cls-22" points="454.19 603.71 451.77 605.11 451.77 638.3 454.19 636.92 454.19 603.71"/><polygon class="cls-22" points="458.19 601.37 455.77 602.77 455.77 635.99 458.19 634.62 458.19 601.37"/><polygon class="cls-22" points="462.19 599.03 459.77 600.43 459.77 633.68 462.19 632.31 462.19 599.03"/><polygon class="cls-22" points="466.19 596.69 463.77 598.09 463.77 631.38 466.19 630.01 466.19 596.69"/><polygon class="cls-22" points="470.19 594.35 467.77 595.75 467.77 629.07 470.19 627.7 470.19 594.35"/><polygon class="cls-22" points="474.19 592.01 471.77 593.41 471.77 626.76 474.19 625.4 474.19 592.01"/><polygon class="cls-22" points="478.19 589.67 475.77 591.07 475.77 624.45 478.19 623.1 478.19 589.67"/><polygon class="cls-4" points="431.78 617.28 334.26 560.98 334.26 557.29 431.78 613.6 431.78 617.28"/><line class="cls-4" x1="335.46" y1="577.7" x2="436.03" y2="635.59"/><polygon class="cls-4" points="336.67 561.97 336.67 594.82 334.26 593.42 334.26 560.59 336.67 561.97"/><polygon class="cls-4" points="340.19 564 340.2 596.86 337.79 595.46 337.79 562.63 340.19 564"/><polygon class="cls-4" points="343.71 566.04 343.72 598.89 341.31 597.49 341.31 564.67 343.71 566.04"/><polygon class="cls-4" points="347.23 568.07 347.24 600.93 344.84 599.53 344.84 566.71 347.23 568.07"/><polygon class="cls-4" points="350.76 570.11 350.76 602.97 348.37 601.57 348.37 568.74 350.76 570.11"/><polygon class="cls-4" points="354.28 572.14 354.29 605.01 351.9 603.61 351.9 570.78 354.28 572.14"/><polygon class="cls-4" points="357.8 574.18 357.81 607.04 355.43 605.64 355.43 572.82 357.8 574.18"/><polygon class="cls-4" points="361.32 576.21 361.33 609.08 358.96 607.68 358.96 574.86 361.32 576.21"/><polygon class="cls-4" points="364.85 578.25 364.85 611.12 362.49 609.72 362.49 576.89 364.85 578.25"/><polygon class="cls-4" points="368.37 580.28 368.37 613.16 366.02 611.76 366.02 578.93 368.37 580.28"/><polygon class="cls-4" points="371.89 582.32 371.9 615.19 369.55 613.79 369.55 580.97 371.89 582.32"/><polygon class="cls-4" points="375.41 584.35 375.42 617.23 373.07 615.83 373.07 583.01 375.41 584.35"/><polygon class="cls-4" points="378.94 586.39 378.94 619.27 376.6 617.87 376.6 585.04 378.94 586.39"/><polygon class="cls-4" points="382.46 588.42 382.46 621.31 380.13 619.91 380.13 587.08 382.46 588.42"/><polygon class="cls-4" points="385.98 590.46 385.99 623.35 383.66 621.95 383.66 589.12 385.98 590.46"/><polygon class="cls-4" points="389.5 592.49 389.51 625.38 387.19 623.98 387.19 591.16 389.5 592.49"/><polygon class="cls-4" points="393.03 594.52 393.03 627.42 390.72 626.02 390.72 593.2 393.03 594.52"/><polygon class="cls-4" points="396.55 596.56 396.55 629.46 394.25 628.06 394.25 595.23 396.55 596.56"/><polygon class="cls-4" points="400.07 598.6 400.07 631.5 397.78 630.1 397.78 597.27 400.07 598.6"/><polygon class="cls-4" points="403.6 600.63 403.6 633.53 401.31 632.13 401.31 599.31 403.6 600.63"/><polygon class="cls-4" points="407.12 602.66 407.12 635.57 404.83 634.17 404.83 601.35 407.12 602.66"/><polygon class="cls-4" points="410.64 604.7 410.64 637.61 408.36 636.21 408.36 603.38 410.64 604.7"/><polygon class="cls-4" points="414.16 606.73 414.16 639.64 411.89 638.25 411.89 605.42 414.16 606.73"/><polygon class="cls-4" points="417.69 608.77 417.69 641.68 415.42 640.28 415.42 607.46 417.69 608.77"/><polygon class="cls-4" points="421.21 610.8 421.21 643.72 418.95 642.32 418.95 609.5 421.21 610.8"/><polygon class="cls-4" points="424.73 612.84 424.73 645.76 422.48 644.36 422.48 611.53 424.73 612.84"/><polygon class="cls-4" points="428.25 614.87 428.25 647.79 426.01 646.4 426.01 613.57 428.25 614.87"/><polygon class="cls-4" points="431.78 616.91 431.78 649.83 429.54 648.43 429.54 615.61 431.78 616.91"/><polygon class="cls-17" points="683.7 533.68 724.88 557.37 724.89 560.66 683.7 536.94 683.7 533.68"/><polygon class="cls-18" points="722.66 558.8 724.88 560.31 725.08 593.57 722.66 592.18 722.66 558.8"/><polygon class="cls-18" points="719.12 556.67 721.36 558.17 721.54 590.99 719.12 589.6 719.12 556.67"/><polygon class="cls-18" points="715.58 554.54 717.84 556.03 718 588.41 715.58 587.02 715.58 554.54"/><polygon class="cls-18" points="712.05 552.41 714.32 553.89 714.46 585.83 712.05 584.45 712.05 552.41"/><polygon class="cls-18" points="708.51 550.28 710.8 551.75 710.92 583.24 708.51 581.87 708.51 550.28"/><polygon class="cls-18" points="704.97 548.15 707.28 549.61 707.39 580.66 704.97 579.29 704.97 548.15"/><polygon class="cls-18" points="701.43 546.02 703.76 547.47 703.85 578.08 701.43 576.71 701.43 546.02"/><polygon class="cls-18" points="697.9 543.89 700.24 545.34 700.31 575.5 697.9 574.13 697.9 543.89"/><polygon class="cls-18" points="694.36 541.77 696.72 543.2 696.77 572.92 694.36 571.55 694.36 541.77"/><polygon class="cls-18" points="690.82 539.64 693.2 541.06 693.24 570.34 690.82 568.98 690.82 539.64"/><polygon class="cls-18" points="687.28 537.51 689.68 538.92 689.7 567.75 687.28 566.4 687.28 537.51"/><polygon class="cls-18" points="683.75 535.38 686.16 536.78 686.16 565.17 683.75 563.82 683.75 535.38"/><polygon class="cls-19" points="678.89 560.93 580.91 617.48 580.91 623.08 627.34 649.86 725.05 593.46 725.05 587.58 678.89 560.93"/><polygon class="cls-20" points="580.91 617.48 678.89 560.93 725.05 587.58 627.2 644.19 580.91 617.48"/><polygon class="cls-4" points="580.91 586.54 627.33 613.65 627.34 616.93 580.91 589.79 580.91 586.54"/><polygon class="cls-4" points="624.93 615.44 627.34 616.85 627.34 649.86 624.93 648.47 624.93 615.44"/><polygon class="cls-4" points="620.93 613.1 623.34 614.5 623.34 647.56 620.93 646.17 620.93 613.1"/><polygon class="cls-4" points="616.93 610.76 619.34 612.16 619.34 645.25 616.93 643.86 616.93 610.76"/><polygon class="cls-4" points="612.93 608.42 615.34 609.82 615.34 642.94 612.93 641.56 612.93 608.42"/><polygon class="cls-4" points="608.93 606.08 611.34 607.48 611.34 640.63 608.93 639.25 608.93 606.08"/><polygon class="cls-4" points="604.93 603.74 607.34 605.14 607.34 638.33 604.93 636.95 604.93 603.74"/><polygon class="cls-4" points="600.93 601.4 603.34 602.8 603.34 636.02 600.93 634.65 600.93 601.4"/><polygon class="cls-4" points="596.93 599.06 599.34 600.46 599.34 633.71 596.93 632.34 596.93 599.06"/><polygon class="cls-4" points="592.93 596.72 595.34 598.12 595.34 631.4 592.93 630.04 592.93 596.72"/><polygon class="cls-4" points="588.93 594.38 591.34 595.78 591.34 629.1 588.93 627.74 588.93 594.38"/><polygon class="cls-4" points="584.93 592.04 587.34 593.44 587.34 626.79 584.93 625.43 584.93 592.04"/><polygon class="cls-4" points="580.93 589.7 583.34 591.1 583.34 624.48 580.93 623.13 580.93 589.7"/><polygon class="cls-21" points="627.34 617.31 724.86 561.01 724.86 557.33 627.34 613.63 627.34 617.31"/><line class="cls-16" x1="723.65" y1="577.74" x2="623.09" y2="635.63"/><polygon class="cls-22" points="722.45 562 722.45 594.85 724.86 593.45 724.86 560.63 722.45 562"/><polygon class="cls-22" points="718.93 564.04 718.92 596.88 721.33 595.49 721.33 562.66 718.93 564.04"/><polygon class="cls-22" points="715.4 566.07 715.4 598.92 717.8 597.53 717.8 564.7 715.4 566.07"/><polygon class="cls-22" points="711.88 568.11 711.88 600.96 714.28 599.57 714.28 566.74 711.88 568.11"/><polygon class="cls-22" points="708.36 570.14 708.36 603 710.75 601.6 710.75 568.78 708.36 570.14"/><polygon class="cls-22" points="704.84 572.17 704.83 605.04 707.22 603.64 707.22 570.81 704.84 572.17"/><polygon class="cls-22" points="701.31 574.21 701.31 607.07 703.69 605.68 703.69 572.85 701.31 574.21"/><polygon class="cls-22" points="697.79 576.24 697.79 609.11 700.16 607.72 700.16 574.89 697.79 576.24"/><polygon class="cls-22" points="694.27 578.28 694.26 611.15 696.63 609.75 696.63 576.93 694.27 578.28"/><polygon class="cls-22" points="690.75 580.31 690.74 613.19 693.1 611.79 693.1 578.96 690.75 580.31"/><polygon class="cls-22" points="687.22 582.35 687.22 615.22 689.57 613.83 689.57 581 687.22 582.35"/><polygon class="cls-22" points="683.7 584.38 683.7 617.26 686.04 615.87 686.04 583.04 683.7 584.38"/><polygon class="cls-22" points="680.18 586.42 680.17 619.3 682.52 617.9 682.52 585.08 680.18 586.42"/><polygon class="cls-22" points="676.65 588.45 676.65 621.34 678.99 619.94 678.99 587.11 676.65 588.45"/><polygon class="cls-22" points="673.13 590.49 673.13 623.38 675.46 621.98 675.46 589.15 673.13 590.49"/><polygon class="cls-22" points="669.61 592.52 669.61 625.41 671.93 624.02 671.93 591.19 669.61 592.52"/><polygon class="cls-22" points="666.09 594.55 666.09 627.45 668.4 626.05 668.4 593.23 666.09 594.55"/><polygon class="cls-22" points="662.57 596.59 662.56 629.49 664.87 628.09 664.87 595.26 662.57 596.59"/><polygon class="cls-22" points="659.04 598.62 659.04 631.53 661.34 630.13 661.34 597.3 659.04 598.62"/><polygon class="cls-22" points="655.52 600.66 655.52 633.56 657.81 632.17 657.81 599.34 655.52 600.66"/><polygon class="cls-22" points="652 602.69 652 635.6 654.28 634.2 654.28 601.38 652 602.69"/><polygon class="cls-22" points="648.47 604.73 648.47 637.64 650.76 636.24 650.76 603.42 648.47 604.73"/><polygon class="cls-22" points="644.95 606.76 644.95 639.68 647.23 638.28 647.23 605.45 644.95 606.76"/><polygon class="cls-22" points="641.43 608.8 641.43 641.71 643.7 640.32 643.7 607.49 641.43 608.8"/><polygon class="cls-22" points="637.91 610.83 637.91 643.75 640.17 642.35 640.17 609.53 637.91 610.83"/><polygon class="cls-22" points="634.38 612.87 634.38 645.79 636.64 644.39 636.64 611.57 634.38 612.87"/><polygon class="cls-22" points="630.86 614.9 630.86 647.83 633.11 646.43 633.11 613.6 630.86 614.9"/><polygon class="cls-22" points="627.34 616.93 627.34 649.86 629.58 648.47 629.58 615.64 627.34 616.93"/><polygon class="cls-23" points="678.73 210.56 580.91 267.02 580.91 308.44 678.73 251.98 678.73 210.56"/><polygon class="cls-23" points="380.32 210.56 478.14 267.02 478.14 280.8 380.32 224.34 380.32 210.56"/><polygon class="cls-23" points="380.24 447.8 478.05 504.26 478.05 528.9 380.24 472.44 380.24 447.8"/><polygon class="cls-23" points="678.73 448.03 580.91 504.49 580.91 569.67 678.73 513.21 678.73 448.03"/></g></g></svg>