<svg xmlns="http://www.w3.org/2000/svg" viewBox="0 0 291.26 54.09"><defs><style>.cls-1{fill:#0fa3b1;}</style></defs><title>5Asset 4</title><g id="Layer_2" data-name="Layer 2"><g id="Elements"><g id="_Group_" data-name="&lt;Group&gt;"><path id="_Path_" data-name="&lt;Path&gt;" class="cls-1" d="M290.64,14.74c-1.23,0-2.62-1-3.72-1-.07-.18,2.35-.53,1.18-1.14s-5.35-.23-6.83-.42c-.84-.11-7-.64-6.93-1.11.34-2.44,13.44.26,14.69-.95-1.49-1.15-4.31-.76-6.47-.76,0-1.19-1.17-.19-2.15-.79.31-.1.45-.25.41-.45-8.61,0-16.92-.54-25.26-1.25-3.86-.34-5.51-2.83-9.87-3.46-9-1.31-17.9-2.5-26.18-2.88C215,.38,210.07-.16,205.9.05c-5.34.26-11.77.56-17.73.31-4-.17-8.63.32-13.06.37-3.93.05-9.23,0-13.45.85-1.91-1.37-4.65-.16-6.26-.13-3,.06-4.76-.16-7.67.14-4,.4-9.13-.33-13,0-8.3.72-16.68-.48-25.7.09-2.79.18-6.64.63-10.61.85-2.83.16-4.5.43-6.82.64-2.64.24-5.42.42-8,.77C65,6.42,46,4.07,27.26,5.06c-4.18.22-8.28.27-12.33.61-2.65.22-7.1.24-9.53,1.09-4.89,1.73,0,3.69,1.89,5.63C7,12.58,6,12.94,6,13.2c-.37,1.73,1,.38-.71,1.54-2.37,1.59-3.76.31-2.33,3.32.17.35,1.81,2.27,1.65,2.7a2.5,2.5,0,0,1-1.42.85c-.09.24-1,.31-1.1.46-.65,1,1.06,1.21,1.29,1.91a18.3,18.3,0,0,0,.88,2.47c.08.2,1.52,2.72,1.37,2.53.36.45,2.14,1.81,2.13,2.18-.06,1.38.24.21-1.58.42-1.67.2-4.34-1.49-5.77-.18-1.21,1.11.73,1.64,1.23,2.37.72,1,2.09,2.21,2.18,3.41,0,.27-1.48,1.67-1.29,2.23.33,1,1.9,1.26,2.78,1.83A22.57,22.57,0,0,0,16.76,45c2.87.25,5.91.47,8.67,1,1,.18.22,1.06,1.22,1.21.54.09,5.37,0,5.69,0a53.3,53.3,0,0,1,8.79,0c2.1.13,5.14.83,7.35.94,3.11.16,8.13-.15,12,0,.63,0,2.65-.12,3.16,0-.12,0,2.23.73,1.64.79s3.62.06,1.72-.45c1.29.34.19-.4,1.94,1.23.78-.19,1.16-.5,1.12-.95.65,0,1.92,1.29,3,1.25,1.93-.06,3.39-3.41,6.22-1.38-1,.66-2.42,1-1.32,2,.34.32,4.15-.37,4.77-.31,3.61.31,4.63,2.75,5-.21.06-.45-2.86-.13-.79-1.1,1.53-.71,1.15-.38,2.32.61,1.66,1.4.35,1.55,2.47,1.89.2,0,2.77-.35,3.63-.26,0,0,.76,1.21,1.21,1.25a5.8,5.8,0,0,0,2.28-.93c.83-.56-.14-2.21,1.3-1.41.28.16-.14,1.4-.36,1.2.23.2.16,1.35.36,1.46h2.82c.67-.87,1.33-.82,2,.16,1.18.06,1.61.61,3.06-.3-.43-.58-2.49-2.05.43-2.05.4,1.14-1.07,1.05,1,2.19,1.14.63,2.59,1.32,4,.35,1.45.77.63.72,2.34.4.41-.08,2.18-1.16,2.71-1.07,0,2.22,6.32,1.11,7.4,1.09.73,0,4.54.44,6.75.48,6.18.1,13.48-.75,19.18-1a258.3,258.3,0,0,0,37-4.37c6.48-1.19,13-1.6,19.66-2.53,2.85-.4,6.25-1,9.31-1.2s6.38-.13,9.2-.79c2-.46,2.93-1.21,4.73-1.4a4.55,4.55,0,0,0,1.63-.31c1-.31.42,1,2.08.3.63-.26-.23-1.1.54-1.28,3.23-.77,6.61-1.39,9.69-1.83,5.51-.8,9.8-.87,14.19-2.14,1.49-.43,3.34,0,5.49-.37.23,0,2.27-1,2.31-1,.69-.51-.95-.77-.55-1.11a2.47,2.47,0,0,1,3.38.07c-.43.18-.57.44-.43.79,5.25,0,1-.32,1.39-.84,1.16-1.64,4.38,1.21,2.68-1.66-.23-.38-2.39.18-2.32-.63s2.53-.85,2.54-.82a7.71,7.71,0,0,0-1.24-.43c-.1,0,1.75-.46,2.18-.62-.09,0,1.57.31,1.48.31,1.55-.62-1.1-.62-1-.62,0-2.73.17-.08,1.29-1.41-3.11-2.46,8-.73,7.42-2,.11-.4-4.26-.6-4.59-.63-1.35-.12-3.77,0-5-.31-1-.27-.48-1.18-1.26-1.56a10.32,10.32,0,0,0-2.66-.31c-.14-.35,9.5-2,10.89-3.44,1.54-1.63-.47-.88-.28-1.56.38-1.42,1.11-.41,2.85-1.69-.57-.43-2.13.18-2.13-.81,2,0,1.7-1.38,3-1.75,1-.28,5.61.53,6.15,0l-.62-.44C290.5,14.73,290.85,14.89,290.64,14.74Z"/></g></g></g></svg>