<svg xmlns="http://www.w3.org/2000/svg" id="Capa_1" viewBox="0 0 512 512">
	<g id="g10" fill="#0fa3b1">
		<g id="g8">
			<path class="st0" d="M256 0C114.8 0 0 114.8 0 256s114.8 256 256 256 256-114.8 256-256S397.2 0 256 0zm0 478.4A222.7 222.7 0 0 1 33.6 256c0-122.6 99.8-222.4 222.4-222.4S478.4 133.4 478.4 256A222.7 222.7 0 0 1 256 478.4z" id="path4"/>
			<path class="st0" d="M348.7 172.2l-132 132-53.4-53.4a16.7 16.7 0 1 0-23.7 23.7l65.2 65.2c3.3 3.3 7.6 4.9 11.9 4.9 4.3 0 8.6-1.6 11.9-4.9l143.8-143.8a16.7 16.7 0 0 0 0-23.7 16.7 16.7 0 0 0-23.7 0z" id="path6"/>
		</g>
	</g>
</svg>
