<svg xmlns="http://www.w3.org/2000/svg" viewBox="0 0 181.7 32.1">
	<path d="M0 5.1h8.7v26.5h6.1V5.1h8.3V0H0zm84.1 4.4h-6.8l-7.9 9.4V.7l-5.9 2.1v28.8h5.9V20.8l7.7 10.8h7l-8.7-11.9zm19.3 2.6c-.9-1-2.1-1.8-3.4-2.3-1.3-.5-2.8-.8-4.4-.8-1.6 0-3 .3-4.4.8-1.3.5-2.5 1.3-3.4 2.3-1 1-1.7 2.2-2.2 3.6-.5 1.4-.8 3.1-.8 4.9 0 1.8.3 3.3.8 4.8.5 1.4 1.2 2.6 2.2 3.6.9 1 2.1 1.8 3.4 2.3 1.3.5 2.8.8 4.4.8 1.6 0 3-.3 4.4-.8 1.3-.5 2.5-1.3 3.4-2.3 1-1 1.7-2.2 2.3-3.6.5-1.4.8-3.1.8-4.9 0-1.7-.3-3.3-.8-4.7-.6-1.5-1.4-2.7-2.3-3.7m-3.3 11.1c-.2.8-.5 1.5-.9 2.2-.4.6-.9 1.1-1.5 1.4-.6.3-1.3.5-2.1.5-1.6 0-2.8-.6-3.7-1.8-.8-1.2-1.3-2.9-1.3-5.1 0-1.9.4-3.5 1.2-4.8.8-1.3 2-1.9 3.6-1.9 1.7 0 2.9.6 3.7 1.9.8 1.3 1.3 2.9 1.3 4.9.1 1 0 1.9-.3 2.7M29.1 0c-1 0-1.8.3-2.5 1s-1 1.5-1 2.4c0 .9.3 1.7 1 2.4s1.5 1 2.5 1c.9 0 1.8-.3 2.5-1s1-1.5 1-2.4c0-.9-.3-1.7-1-2.4-.8-.7-1.6-1-2.5-1m-3 9.5H32v22.1h-5.9zm24.2-.2c-4.3-.3-6.7 2-6.7 2V9.5h-5.9v22.1h5.9V18.4c0-2.2 1.9-4.1 4.2-4.1 2.3 0 4.2 1.8 4.2 4.1v13.2h5.9V18.5c-.1-6.9-4.1-9-7.6-9.2M112 9v.4h-3.5v4.5h3.5v17.6h5.9V13.9h3.5V9.4h-3.5v-.5c0-3 1.4-4.5 4.2-4.1l.9-4.6c-8.9-1-11 3.8-11 8.8m15.3 0v.4h-3.5v4.5h3.5v17.6h5.9V13.9h3.5V9.4h-3.5v-.5c0-3 1.4-4.5 4.2-4.1l.9-4.6c-8.9-1-11 3.8-11 8.8M8.7 5.1v26.5M140.8 31.9c-.7 0-1.3-.2-1.9-.7-.5-.5-.8-1.1-.8-1.9 0-.8.3-1.4.8-1.9s1.1-.7 1.8-.7 1.3.3 1.8.8.7 1.1.7 1.9c0 .8-.2 1.4-.7 1.9-.4.4-1 .6-1.7.6zm19.7-18.5c-.5-.1-1.1-.2-1.5-.2-.5-.1-1-.1-1.4-.1-3.6 0-5.4 2-5.4 5.9v12.6h-4V9.4h4v3h.1c.6-1.2 1.5-2 2.6-2.6 1.1-.5 2.2-.8 3.4-.8 1 0 2 .2 3.1.5zm3.4-4h4v13.1c0 1.9.4 3.4 1.1 4.4.7 1 1.9 1.5 3.6 1.5 1.3 0 2.3-.4 3.1-1.1.8-.7 1.4-1.7 1.7-2.9.2-.6.3-1.3.3-2.1v-13h4v22.1h-4v-2.9h-.1c-.8 1.2-1.8 2-2.9 2.5-1.1.5-2.2.8-3.3.8-5 0-7.5-2.8-7.5-8.4z" fill="#636c7a"/>
</svg>
