<svg xmlns="http://www.w3.org/2000/svg" version="1" width="248" height="273">
    <path fill="#0e9eab" d="M195 118c-3 0-5-2-5-5l-1-16c-4-27-26-49-53-54l-12-1c-3-1-6-1-7-4 0-3 2-5 5-5h2c35 1 2 0 0 0 37 1 66 25 73 61l2 19c0 3-1 5-4 5m-47-52c-4-2-9-4-14-4l-6-1c-3-1-4-2-4-5 0-2 2-4 4-4 9 1 17 3 24 7 16 8 24 20 27 37v11c-1 4-6 4-8 1v-4c0-7-2-15-6-22s-10-13-17-16m9 38h-1c-2 0-4-2-4-5l-1-5c-1-4-3-8-6-10l-5-2-7-1c-2-1-4-3-3-5 0-2 2-4 4-4 14 1 25 9 26 25v4a4 4 0 0 1-3 3m36 65c-4 8-10 15-18 20l-8 2-9-2c-28-12-53-27-74-50-11-13-20-27-28-43L46 73c-3-7 2-14 6-19s9-9 15-12c5-2 9 0 12 3 8 9 14 17 19 27 4 6 3 13-3 17l-4 3-3 3c-2 3-2 6-1 8 7 20 20 36 40 44 3 1 6 3 10 3 6-1 8-8 12-12 5-3 10-3 15 0l13 9 13 10c4 3 5 7 3 12M192 7c-45-9-91-9-136 0-20 4-45 28-50 47-8 37-8 75 0 112 5 19 30 43 50 48l1 2v54c0 3 4 4 5 2l26-26 25-25 1-1c26 1 52-1 78-6 20-5 45-29 50-48 8-37 8-75 0-112-5-19-30-43-50-47"/>
</svg>
