<svg xmlns="http://www.w3.org/2000/svg" viewBox="0 0 47.834 14.725">
	<path d="M19.153.245l-2.431 14.266h3.888L23.043.245zm-5.691.016L9.654 9.99l-.406-1.469c-.751-1.77-2.883-4.312-5.386-5.914l3.482 11.897 4.114-.007L17.581.258z" fill="#636c7a"/>
	<path d="M7.772 1.282C7.546.413 6.891.154 6.078.123H.05L0 .407c4.691 1.138 7.795 3.88 9.083 7.177zM30.923 2.98a7.178 7.178 0 0 1 2.91.546l.351.165.526-3.092C33.94.31 32.733 0 31.227 0c-3.842 0-6.55 1.935-6.571 4.708-.025 2.049 1.929 3.193 3.405 3.876 1.515.7 2.023 1.145 2.016 1.77-.012.955-1.208 1.393-2.325 1.393-1.557 0-2.384-.215-3.661-.747l-.501-.228-.547 3.193c.91.399 2.589.742 4.332.76 4.087 0 6.743-1.912 6.771-4.875.017-1.621-1.02-2.858-3.267-3.873-1.36-.662-2.192-1.102-2.184-1.77 0-.593.706-1.227 2.228-1.227zM44.688.261h-3.004c-.933 0-1.627.254-2.037 1.184l-5.773 13.074h4.083s.666-1.758.817-2.143l4.979.006c.116.498.474 2.137.474 2.137h3.607zm-4.795 9.195c.32-.819 1.549-3.987 1.549-3.987-.021.039.317-.825.518-1.362l.262 1.23.901 4.119z" fill="#636c7a"/>
</svg>
