<svg xmlns="http://www.w3.org/2000/svg" viewBox="0 0 512 512" id="wallet">
	<path d="M509.4 238.5h-24.6v-113c0-27.1-22-49.1-49.1-49.1h-33.3l-34-61.2a29.4 29.4 0 0 0-40.1-11.5L197.7 76.4h-146c-27.1 0-49.1 22-49.1 49.1v337.4c0 27.1 22 49.1 49.1 49.1h384c27.1 0 49.1-22 49.1-49.1v-99.1h24.6V238.5zM435.7 96a29.5 29.5 0 0 1 29.2 26.2H428L413.4 96h22.3zm-97.8-75.1a10 10 0 0 1 13.4 3.8l54.2 97.5H155.6L337.9 20.9zm127.3 442a29.5 29.5 0 0 1-29.5 29.5h-384a29.5 29.5 0 0 1-29.5-29.5V125.5A29.5 29.5 0 0 1 51.7 96h110.6l-47.1 26.2H57.8a9.8 9.8 0 0 0 0 19.6h407.3v96.6h-71.9a60.6 60.6 0 0 0-60.5 60.5v4.2a60.6 60.6 0 0 0 60.5 60.5h71.9l.1 99.3zm24.6-118.8h-96.4a41 41 0 0 1-40.9-40.9V299a41 41 0 0 1 40.9-40.9h96.4v86zM423.5 302a21.7 21.7 0 1 1-43.4 0 21.7 21.7 0 0 1 43.4 0z"/>
</svg>
