<?xml version="1.0" encoding="UTF-8" standalone="no"?>
<!-- Generator: Adobe Illustrator 19.2.0, SVG Export Plug-In . SVG Version: 6.00 Build 0)  -->

<svg
   xmlns:dc="http://purl.org/dc/elements/1.1/"
   xmlns:cc="http://creativecommons.org/ns#"
   xmlns:rdf="http://www.w3.org/1999/02/22-rdf-syntax-ns#"
   xmlns:svg="http://www.w3.org/2000/svg"
   xmlns="http://www.w3.org/2000/svg"
   xmlns:sodipodi="http://sodipodi.sourceforge.net/DTD/sodipodi-0.dtd"
   xmlns:inkscape="http://www.inkscape.org/namespaces/inkscape"
   version="1.1"
   id="Capa_1"
   x="0px"
   y="0px"
   viewBox="0 0 34 30.4"
   style="enable-background:new 0 0 34 30.4;"
   xml:space="preserve"
   sodipodi:docname="web-log-out.svg"
   inkscape:version="0.92.1 r15371"><metadata
   id="metadata17"><rdf:RDF><cc:Work
       rdf:about=""><dc:format>image/svg+xml</dc:format><dc:type
         rdf:resource="http://purl.org/dc/dcmitype/StillImage" /><dc:title></dc:title></cc:Work></rdf:RDF></metadata><defs
   id="defs15">
	
</defs><sodipodi:namedview
   pagecolor="#ffffff"
   bordercolor="#666666"
   borderopacity="1"
   objecttolerance="10"
   gridtolerance="10"
   guidetolerance="10"
   inkscape:pageopacity="0"
   inkscape:pageshadow="2"
   inkscape:window-width="1227"
   inkscape:window-height="745"
   id="namedview13"
   showgrid="false"
   inkscape:zoom="7.763158"
   inkscape:cx="17"
   inkscape:cy="15.2"
   inkscape:window-x="2230"
   inkscape:window-y="150"
   inkscape:window-maximized="0"
   inkscape:current-layer="Capa_1" />
<style
   type="text/css"
   id="style2">
	.st0{fill:#0FA3B1;}
</style>
<g
   id="g8">
		<path
   style="fill:#0fa3b1"
   inkscape:connector-curvature="0"
   id="path4"
   d="M 0.82711875,0 H 24.827119 c 0.5,0 0.8,0.4 0.8,0.8 0,0.5 -0.4,0.8 -0.8,0.8 H 1.6271187 V 28.8 H 24.827119 c 0.5,0 0.8,0.4 0.8,0.8 0,0.5 -0.4,0.8 -0.8,0.8 H 0.82711875 c -0.5,0 -0.8,-0.4 -0.8,-0.8 V 0.8 c 0,-0.4 0.4,-0.8 0.8,-0.8 z"
   class="st0" />
		<path
   style="fill:#0fa3b1"
   inkscape:connector-curvature="0"
   id="path6"
   d="m 27.442373,20.2 c -0.3,0.3 -0.3,0.8 0,1.2 0.2,0.2 0.4,0.2 0.6,0.2 0.2,0 0.4,-0.1 0.6,-0.2 l 5.1,-5.1 c 0.3,-0.3 0.3,-0.8 0,-1.2 l -5.1,-5.1 c -0.3,-0.3 -0.8,-0.3 -1.2,0 -0.3,0.3 -0.3,0.8 0,1.2 l 3.7,3.7 h -15.4 c -0.5,0 -0.8,0.4 -0.8,0.8 0,0.5 0.4,0.8 0.8,0.8 h 15.4 z"
   class="st0" />
	</g>
</svg>