<?xml version="1.0" encoding="utf-8"?>
<!-- Generator: Adobe Illustrator 19.2.0, SVG Export Plug-In . SVG Version: 6.00 Build 0)  -->
<svg version="1.1" id="Capa_1" xmlns="http://www.w3.org/2000/svg" xmlns:xlink="http://www.w3.org/1999/xlink" x="0px" y="0px"
	 viewBox="0 0 34 30.4" style="enable-background:new 0 0 34 30.4;" xml:space="preserve">
<style type="text/css">
	.st0{fill:#0FA3B1;}
</style>
<g>
	<g>
		<path class="st0" d="M33.2,0h-24C8.7,0,8.4,0.4,8.4,0.8c0,0.5,0.4,0.8,0.8,0.8h23.2v27.2H9.2c-0.5,0-0.8,0.4-0.8,0.8
			c0,0.5,0.4,0.8,0.8,0.8h24c0.5,0,0.8-0.4,0.8-0.8V0.8C34,0.4,33.6,0,33.2,0z"/>
		<path class="st0" d="M12.5,20.2c-0.3,0.3-0.3,0.8,0,1.2c0.2,0.2,0.4,0.2,0.6,0.2c0.2,0,0.4-0.1,0.6-0.2l5.1-5.1
			c0.3-0.3,0.3-0.8,0-1.2l-5.1-5.1c-0.3-0.3-0.8-0.3-1.2,0c-0.3,0.3-0.3,0.8,0,1.2l3.7,3.7H0.8c-0.5,0-0.8,0.4-0.8,0.8
			c0,0.5,0.4,0.8,0.8,0.8h15.4L12.5,20.2z"/>
	</g>
</g>
</svg>
