<svg id="cash" xmlns="http://www.w3.org/2000/svg" viewBox="0 0 512 512"><path d="M512 0H0v270h512V0zM410.4 240H101.6c-10.2-34-37.8-60.7-71.6-70.7v-68.7C63.8 90.7 91.4 64 101.6 30h308.8c10.2 34 37.8 60.7 71.6 70.7v68.7c-33.8 9.9-61.4 36.6-71.6 70.6zM482 68.8c-17.6-7.6-31.9-21.6-39.6-38.8H482v38.8zM69.6 30c-7.7 17.2-22 31.2-39.6 38.8V30h39.6zM30 201.2c17.6 7.6 31.9 21.6 39.6 38.8H30v-38.8zM442.4 240c7.7-17.2 22.1-31.2 39.6-38.8V240h-39.6z"/><path d="M361 120h60v30h-60v-30zM91 120h60v30H91v-30zM256 60c-41.4 0-75 33.6-75 75s33.6 75 75 75 75-33.6 75-75-33.6-75-75-75zm0 120c-24.8 0-45-20.2-45-45s20.2-45 45-45 45 20.2 45 45-20.2 45-45 45zM241 300h30v152h-30V300zM181 300h30v122h-30V300zM301 300h30v122h-30V300zM301 452h30v30h-30v-30zM361 300h30v62h-30v-62zM361 392h30v30h-30v-30zM241 482h30v30h-30v-30zM181 452h30v30h-30v-30zM121 300h30v62h-30v-62zM121 392h30v30h-30v-30z"/></svg>