<svg id="clock" xmlns="http://www.w3.org/2000/svg" viewBox="0 0 512 512"><path d="M256 512c141 0 256-115.1 256-256C512 115 396.9 0 256 0 115 0 0 115.1 0 256c0 141 115.1 256 256 256zm0-482c124.6 0 226 101.4 226 226S380.6 482 256 482 30 380.6 30 256 131.4 30 256 30z"/><path d="M256 452c107.6 0 195-88.3 195-196 0-107.5-87.5-195-195-195S61 148.5 61 256c0 107.6 87.3 196 195 196zm0-361c91 0 165 74 165 165 0 91.5-74 166-165 166S91 347.5 91 256c0-91 74-165 165-165z"/><path d="M256 301c19.6 0 36.2-12.5 42.4-30H361v-30h-62.6c-4.5-12.8-14.7-22.9-27.4-27.4V121h-30v92.6c-17.5 6.2-30 22.9-30 42.4 0 24.8 20.2 45 45 45zm0-60c8.3 0 15 6.7 15 15s-6.7 15-15 15-15-6.7-15-15 6.7-15 15-15z"/></svg>