<svg id="loan" xmlns="http://www.w3.org/2000/svg" viewBox="0 0 512 512"><path d="M390.7 91H421V0H91v91h30.3c.4 10.6 1.4 20.6 2.8 30H0v270h124.1c-1.4 9.4-2.4 19.4-2.8 30H91v91h330v-91h-30.3c-.4-10.6-1.4-20.6-2.8-30H512V121H387.9c1.4-9.4 2.3-19.4 2.8-30zM121 30h270v31H121V30zm239.7 61c-1.2 26.2-5.5 45.4-11.6 60H162.9c-6.1-14.6-10.4-33.8-11.6-60h209.4zm-89.4 158.5L256 264.8l-15.3-15.3c-2.5-26.4-20.2-39.2-36-50.6-7.3-5.3-14.9-10.7-22-17.9h146.6c-7.1 7.2-14.7 12.7-22 17.9-15.8 11.4-33.5 24.2-36 50.6zM256 393c13.3 7.5 28.1 18.1 37 28h-74c8.9-9.9 23.7-20.5 37-28zM69.6 151c-7.7 17.2-22.1 31.2-39.6 38.8V151h39.6zM30 322.2c17.6 7.6 31.9 21.6 39.6 38.8H30v-38.8zm71.6 38.8c-10.2-34.1-37.9-60.7-71.6-70.7v-68.7c33.7-9.9 61.4-36.6 71.6-70.7H131c11.5 35.7 30.1 53.5 56.1 72.3 17 12.3 23.9 17.8 23.9 32.8 0 15-6.9 20.5-23.8 32.7-26 18.7-44.6 36.5-56.1 72.3h-29.5zm103.1-47.9c10.5-7.6 21.8-15.7 29-28.2l7.3 7.3v74.9c-21.1 12.1-48.3 31.4-57.1 53.9h-32.6c3.2-71.8 29.8-90.9 53.4-107.9zM391 482H121v-31h270v31zm-62.9-61c-8.8-22.6-36-41.9-57.1-53.9v-74.9l7.3-7.3c7.2 12.4 18.5 20.6 29 28.2 23.6 17 50.2 36.2 53.4 107.9h-32.6zm114.3-60c7.7-17.2 22.1-31.2 39.6-38.8V361h-39.6zM482 189.8c-17.6-7.6-31.9-21.6-39.6-38.8H482v38.8zM410.4 151c10.2 34.1 37.9 60.7 71.6 70.7v68.7c-33.7 9.9-61.4 36.6-71.6 70.7H381c-11.5-35.7-30.1-53.5-56.1-72.3-17-12.3-23.9-17.8-23.9-32.8 0-15 6.9-20.5 23.8-32.7 26-18.7 44.6-36.5 56.1-72.3h29.5z"/><path d="M91 241h60v30H91v-30zM361 241h60v30h-60v-30z"/></svg>