<svg id="logo" xmlns="http://www.w3.org/2000/svg" viewBox="0 0 283.9 92.8"><path d="M12 39.1c1.5 0 2.8-.1 3.9-.3 1.1-.2 1.9-.5 2.5-.9.6-.4 1.1-1 1.3-1.7.3-.7.4-1.6.4-2.6 0-1.1-.1-1.9-.4-2.6-.2-.7-.7-1.3-1.3-1.7-.6-.4-1.4-.7-2.4-.9-1-.2-2.3-.3-3.8-.3-.6 0-1.3 0-2.1.1s-1.5.1-2 .2v10.4c.4.1.9.2 1.5.2.7 0 1.5.1 2.4.1z"/><path d="M92.6 30.6c-4.8 0-8.4 1.2-10.8 3.5V1.2c0-.7-.6-1.2-1.3-1.2h-53C14.7 0 4 8.7.9 20.4c3.2-.2 6.2-.4 9.1-.4 3.6 0 6.8.3 9.4.8 2.6.5 4.8 1.3 6.5 2.4 1.7 1.1 2.9 2.5 3.8 4.2.8 1.7 1.2 3.7 1.2 6.1 0 5.6-2.5 9.4-7.6 11.6l9.4 14.3H21L14.1 47c-.6.1-1.2.1-1.8.1H9.4c-.3 0-.5 0-.7-.1h-.4v12.5H0v32c0 .7.6 1.3 1.3 1.3.4 0 .8-.2 1-.5l.1-.1c5-6.3 12.8-10.4 21.5-10.4h27.4c-.3 0-.5-.1-.8-.1.8.1 1.6.1 2.4.1h1.4c14.5 0 26.4-11.2 27.4-25.5 2.4 2.3 6 3.5 10.9 3.5 1.6 0 3.1-.1 4.6-.2 1.5-.2 2.8-.4 4-.7v-6.8c-1.3.2-2.5.4-3.7.4-1.2.1-2.6.1-4.2.1-2.4 0-4.1-.6-5.1-1.7-1-1.2-1.5-3.1-1.5-5.8 0-2.7.5-4.6 1.5-5.8 1-1.1 2.7-1.7 5.1-1.7 2.4 0 5 .2 7.8.6v-6.9c-1.2-.3-2.5-.5-4.1-.7h-4.4zM66.1 59.4H36.3V20.5h29.4v8.1H46.8v7.2h17V44h-17v7.4h19.4v8zM119.9 30.5c-4.9 0-8.7 1.3-11.3 3.8-2.6 2.5-3.9 6.2-3.9 11s1.3 8.4 3.9 11c2.6 2.5 6.4 3.8 11.3 3.8s8.7-1.3 11.2-3.8c2.6-2.5 3.8-6.2 3.8-11s-1.3-8.4-3.8-11c-2.5-2.5-6.3-3.8-11.2-3.8zm5.9 18.5c-.2 1-.6 1.9-1.1 2.5-.5.6-1.1 1.1-1.9 1.3-.8.3-1.8.4-2.9.4-1.2 0-2.1-.1-2.9-.4-.8-.3-1.5-.7-2-1.3-.5-.6-.9-1.5-1.1-2.5-.2-1-.3-2.3-.3-3.8s.1-2.8.3-3.8c.2-1 .6-1.8 1.1-2.5.5-.6 1.2-1.1 2-1.3.8-.3 1.8-.4 2.9-.4 1.2 0 2.1.1 2.9.4.8.3 1.5.7 1.9 1.3.5.6.8 1.5 1.1 2.5.2 1 .3 2.3.3 3.8.1 1.5 0 2.8-.3 3.8zM160.4 30.5c-1.6 0-3.4.3-5.3.9-1.9.6-4.2 1.6-6.8 2.9h-.4l-.5-3.3H140v28.4h8.8v-20c1.3-.6 2.7-1.1 4-1.4 1.3-.3 2.5-.5 3.5-.5 1.1 0 1.9.3 2.5.9.5.6.8 1.6.8 3v18.1h8.8v-21c0-2.5-.7-4.5-2.1-5.8-1.4-1.5-3.4-2.2-5.9-2.2zM195 30.5c-1.6 0-3.4.3-5.3.9-1.9.6-4.2 1.6-6.8 2.9h-.4L182 31h-7.4v28.4h8.8v-20c1.3-.6 2.7-1.1 4-1.4 1.3-.3 2.5-.5 3.5-.5 1.1 0 1.9.3 2.5.9.5.6.8 1.6.8 3v18.1h8.8v-21c0-2.5-.7-4.5-2.1-5.8-1.5-1.5-3.4-2.2-5.9-2.2zM222.6 30.6c-4.9 0-8.5 1.3-11 3.8s-3.7 6.2-3.7 11.1c0 9.6 4.9 14.4 14.7 14.4 1.9 0 3.9-.1 5.9-.4 2-.3 3.8-.7 5.5-1.2l-.3-6.3c-.7.2-1.5.3-2.4.5-.9.2-1.8.3-2.7.4l-2.7.3c-.9.1-1.7.1-2.5.1-1.2 0-2.1-.1-3-.3-.8-.2-1.5-.5-2-.9s-.9-1-1.2-1.7c-.3-.7-.5-1.7-.6-2.8h18c.3-1.3.5-2.7.5-4.4 0-8.4-4.2-12.6-12.5-12.6zm-6 12.4c.2-2.2.7-3.8 1.6-4.8.9-1 2.2-1.4 4-1.4 1.8 0 3.1.5 3.9 1.4s1.2 2.6 1.3 4.8h-10.8zM253.4 30.6c-9.7 0-14.6 4.9-14.6 14.7 0 5 1.2 8.7 3.6 11.1 2.4 2.4 6 3.6 11 3.6 1.6 0 3.1-.1 4.6-.2 1.5-.2 2.8-.4 4-.7v-6.8c-1.3.2-2.5.4-3.7.4-1.2.1-2.6.1-4.2.1-2.4 0-4.1-.6-5.1-1.7-1-1.2-1.5-3.1-1.5-5.8 0-2.7.5-4.6 1.5-5.8 1-1.1 2.7-1.7 5.1-1.7 2.4 0 5 .2 7.8.6v-6.9c-1.2-.3-2.5-.5-4.1-.7-1.4-.2-2.9-.2-4.4-.2zM280.6 53.4c-1.5 0-2.5-.3-3.1-1-.6-.7-.9-1.8-.9-3.4V38.4h7.2V31h-7.3v-8.9l-6.8.7-1.9.2v28c0 3 .8 5.2 2.5 6.8 1.7 1.5 4.1 2.3 7.4 2.3 1.1 0 2.2-.1 3.4-.2 1.1-.1 2.1-.3 2.9-.6v-6.5c-1.3.4-2.4.6-3.4.6z"/></svg>