<svg id="mastercard" xmlns="http://www.w3.org/2000/svg" viewBox="0 0 200 155.6"><path d="M0 0v-.1h.2C.1 0 .1 0 0 0zm.1.1h.1V0v-.1H.1l.1-.1H0v-.1h-.1v.4h.2zm0-.5h.1s.1 0 .1.1l.1.1V0S.4.1.3.1.2.2.2.2H.1 0S-.1.2-.1.1-.2 0-.2 0v-.1-.1s0-.1.1-.1L0-.4h.1m0 .7h.2C.4.3.4.2.4.2L.5.1v-.2-.2C.5-.4.4-.4.4-.4L.3-.5h-.4c-.1 0-.1.1-.1.1l-.1.1v.4c0 .1.1.1.1.1l.1.1h.2m-39 1.5c0 .7.5 1.3 1.3 1.3s1.3-.6 1.3-1.3-.5-1.3-1.3-1.3c-.8-.1-1.3.5-1.3 1.3m3.4 0v2.1h-.9v-.5c-.3.3-.7.6-1.3.6-1.2 0-2.1-.9-2.1-2.2 0-1.3.9-2.2 2.1-2.2.6 0 1 .2 1.3.6v-.5h.9v2.1zm30.7 0c0 .7.5 1.3 1.3 1.3s1.3-.6 1.3-1.3S-2.7.5-3.5.5c-.8-.1-1.3.5-1.3 1.3m3.4 0v3.8h-.9V3.4c-.3.3-.8.6-1.4.6-1.2 0-2.1-.9-2.1-2.2 0-1.3.9-2.2 2.1-2.2.6 0 1 .2 1.3.6v-.5h.9v2.1zm-22.8 1.4c.6 0 1-.4 1.1-1h-2.2c0 .5.4 1 1.1 1m0 .8c-1.2 0-2.1-.9-2.1-2.2 0-1.3.9-2.2 2.1-2.2.6 0 1.2.2 1.7.6l-.4.7c-.4-.3-.8-.4-1.2-.4-.6 0-1.1.3-1.2 1h3.1v.3c0 1.3-.9 2.2-2 2.2m10.9-2.2c0 .7.5 1.3 1.3 1.3s1.3-.6 1.3-1.3S-11.2.5-12 .5c-.8-.1-1.3.5-1.3 1.3m3.4 0v2.1h-.9v-.5c-.3.3-.7.6-1.3.6-1.2 0-2.1-.9-2.1-2.2 0-1.3.9-2.2 2.1-2.2.6 0 1 .2 1.3.6v-.5h.9v2.1zm-8.5 0c0-1.3.9-2.2 2.2-2.2.6 0 1 .1 1.5.5l-.4.7c-.3-.2-.7-.4-1.1-.4-.7 0-1.3.5-1.3 1.3S-17 3-16.2 3c.4 0 .8-.1 1.1-.4l.4.7c-.4.5-.8.7-1.5.7-1.3 0-2.2-1-2.2-2.2M-6.7 4c-.5 0-.9-.2-1.1-.6v.5h-.9V-.3h.9V2c0 .7.3 1.1.9 1.1.2 0 .4 0 .6-.1l.3.9c-.2 0-.5.1-.7.1M-31 3.5c-.4.3-1 .4-1.7.4-1.1 0-1.7-.5-1.7-1.3 0-.7.5-1.1 1.4-1.2l.4-.1c.5-.1.7-.2.7-.4 0-.3-.3-.5-1-.5-.6 0-1.1.2-1.4.4l-.4-.7c.5-.4 1.1-.5 1.8-.5 1.2 0 1.9.6 1.9 1.4 0 .7-.5 1.1-1.5 1.2l-.4.1c-.4.1-.7.1-.7.4 0 .3.3.5.8.5s1-.2 1.3-.4l.5.7zm11.7.5c-.5 0-.9-.2-1.1-.6v.5h-.9V-.3h.9V2c0 .7.3 1.1.9 1.1.2 0 .4 0 .6-.1l.3.9c-.3 0-.5.1-.7.1m-7.8-.1h-1.5v1.3h-.9V3.9h-.8V3h.8V1.1c0-1 .4-1.5 1.5-1.5.4 0 .8.1 1.1.3l-.3.8c-.3-.2-.6-.2-.8-.2-.5 0-.6.3-.6.7V3h1.5v.9zM-40.6-.3v2.6c0 1-.6 1.7-1.6 1.7-.5 0-1.1-.2-1.5-.7-.3.4-.8.7-1.4.7-.4 0-.9-.1-1.2-.6v.5h-.9V-.3h.9V2c0 .7.4 1.1 1 1.1s.9-.4.9-1.1V-.3h.9V2c0 .7.4 1.1 1 1.1s.9-.4.9-1.1V-.3h1z" transform="matrix(3.9296 0 0 -3.9296 195.93 153.396)"/><path d="M0 0v.6h-.2L-.4.2l-.2.4h-.2V0h.1v.5l.2-.4h.1l.2.4V0H0zm-1 0v.5h.2v.1h-.5V.5h.2V0h.1z" transform="matrix(3.9296 0 0 -3.9296 198.13 100.048)"/><path d="M1080.6 714h-17.2v-30.9h17.2V714z" transform="translate(-3270 -2134.4) scale(3.1437)"/><path d="M0 0c0 5 2.3 9.5 6 12.4-2.7 2.1-6.1 3.4-9.7 3.4-8.7 0-15.7-7-15.7-15.7s7-15.7 15.7-15.7c3.7 0 7 1.3 9.7 3.4C2.3-9.5 0-5 0 0" transform="matrix(3.9296 0 0 -3.9296 76.469 61.757)"/><path d="M0 0c0-8.7-7-15.7-15.7-15.7-3.7 0-7 1.3-9.7 3.4 3.7 2.9 6 7.3 6 12.4s-2.3 9.5-6 12.4c2.7 2.1 6.1 3.4 9.7 3.4C-7 15.7 0 8.7 0 0" transform="matrix(3.9296 0 0 -3.9296 200.016 61.757)"/></svg>