<svg id="profile" xmlns="http://www.w3.org/2000/svg" viewBox="0 0 512 512"><path d="M256 69.7C153.3 69.7 69.7 153.3 69.7 256S153.3 442.3 256 442.3 442.3 358.7 442.3 256 358.7 69.7 256 69.7zM172.4 388v-48.7c0-33.3 27.1-60.5 60.5-60.5h46.3c33.3 0 60.5 27.1 60.5 60.5V388c-24.2 15.4-52.9 24.3-83.6 24.3s-59.5-9-83.7-24.3zM256 248.8c-23.4 0-42.4-19-42.4-42.4s19-42.4 42.4-42.4 42.4 19 42.4 42.4-19 42.4-42.4 42.4zm113.6 114.4v-23.9c0-39-24.8-72.2-59.4-85 11.3-12.8 18.2-29.5 18.2-47.9 0-39.9-32.5-72.4-72.4-72.4s-72.4 32.5-72.4 72.4c0 18.4 6.9 35.1 18.2 47.9-34.6 12.7-59.4 46-59.4 85v23.9c-26.4-28-42.7-65.7-42.7-107.2 0-86.2 70.1-156.3 156.3-156.3S412.3 169.8 412.3 256c0 41.5-16.3 79.2-42.7 107.2z"/><path d="M437 75C388.7 26.6 324.4 0 256 0S123.3 26.6 75 75 0 187.6 0 256s26.6 132.7 75 181 112.6 75 181 75 132.7-26.6 181-75 75-112.6 75-181-26.6-132.7-75-181zM256 482C131.4 482 30 380.6 30 256S131.4 30 256 30s226 101.4 226 226-101.4 226-226 226z"/></svg>