<svg id="skype" xmlns="http://www.w3.org/2000/svg" viewBox="0 0 512 512"><path d="M493.9 310.4c3.6-16.6 5.6-33.9 5.6-51.7 0-133-107.8-240.8-240.8-240.8-14 0-27.8 1.2-41.2 3.5C196 7.9 170.5 0 143.2 0 66.1 0 3.6 62.5 3.6 139.6c0 25.8 7 49.9 19.2 70.6-3.2 15.6-4.9 31.8-4.9 48.4 0 133 107.8 240.8 240.8 240.8 15.1 0 29.8-1.4 44.1-4 19.7 10.6 42.1 16.6 66 16.6 77.1 0 139.6-62.5 139.6-139.6 0-22.3-5.2-43.4-14.5-62zm-111.7 63.4c-11.1 15.8-27.6 28.3-48.9 37.1-21.1 8.8-46.4 13.2-75.2 13.2-34.6 0-63.6-6.1-86.2-18.1-16.2-8.7-29.5-20.6-39.6-35.2-10.2-14.8-15.4-29.4-15.4-43.5 0-8.8 3.4-16.5 10-22.7 6.6-6.2 15-9.3 25.1-9.3 8.3 0 15.4 2.5 21.2 7.4 5.5 4.7 10.3 11.6 14.1 20.6 4.3 9.8 8.9 18 13.8 24.5 4.7 6.3 11.5 11.5 20.2 15.6s20.5 6.2 35 6.2c19.9 0 36.2-4.2 48.5-12.6 12-8.2 17.8-18 17.8-30 0-9.5-3-17-9.3-22.8-6.6-6.1-15.2-10.9-25.7-14.2-10.9-3.4-25.8-7.1-44.2-10.9-24.9-5.3-46.1-11.7-62.9-18.8-.1 0-.1-.1-.2-.1-17.3-7.3-31.2-17.5-41.4-30.3-10.3-12.9-15.6-29.2-15.6-48.3 0-18.2 5.5-34.6 16.3-48.7 10.8-14 26.5-25 46.7-32.4 20-7.4 43.8-11.1 70.6-11.1 21.5 0 40.4 2.5 56.2 7.4 15.9 4.9 29.3 11.6 39.8 19.8 10.6 8.3 18.5 17.1 23.4 26.3 5 9.3 7.5 18.5 7.5 27.5 0 8.6-3.3 16.4-9.9 23.2-6.6 6.9-14.9 10.3-24.7 10.3-8.9 0-15.9-2.2-20.7-6.5-4.5-4-9.2-10.2-14.4-19.1-6-11.4-13.3-20.4-21.6-26.7-8.1-6.2-21.6-9.3-40.2-9.3-17.3 0-31.3 3.5-41.7 10.3-10 6.6-14.9 14.1-14.9 23.1 0 5.5 1.6 10.1 4.8 14 3.4 4.2 8.2 7.9 14.3 10.9 6.3 3.2 12.8 5.7 19.4 7.5 6.7 1.9 17.9 4.6 33.3 8.2 16.2 3.5 31.3 7.3 45.1 11.4 2.8.8 5.5 1.7 8.1 2.5 16 5.1 29.9 11.5 41.2 18.8 11.5 7.5 20.7 17.2 27.1 28.7 6.5 11.6 9.8 25.8 9.8 42.4.2 19.8-5.4 37.8-16.6 53.7z" /></svg>