<svg id="tinkoff" xmlns="http://www.w3.org/2000/svg" viewBox="0 0 182 33"><path d="M0 6.1h8.6v26.4h6.2V6.1h8.3V.9H0v5.2M84 10.5h-6.7l-8 9.4V1.6l-5.8 2.1v28.8h5.8V21.7l7.8 10.8h7l-8.7-11.9L84 10.5M103.4 13c-.9-1-2.1-1.8-3.4-2.3-1.3-.5-2.8-.8-4.4-.8s-3 .3-4.4.8c-1.3.5-2.5 1.3-3.4 2.3-1 1-1.7 2.2-2.2 3.6-.5 1.4-.8 3.1-.8 4.9 0 1.8.3 3.3.8 4.8.5 1.4 1.2 2.6 2.2 3.6.9 1 2.1 1.8 3.4 2.3 1.3.5 2.8.8 4.4.8 1.6 0 3-.3 4.4-.8 1.3-.5 2.5-1.3 3.4-2.3 1-1 1.7-2.2 2.3-3.6.5-1.4.8-3.1.8-4.9 0-1.7-.3-3.3-.8-4.7-.7-1.5-1.4-2.7-2.3-3.7m-3.3 11.1c-.2.8-.5 1.5-.9 2.2-.4.6-.9 1.1-1.5 1.4-.6.3-1.3.5-2.1.5-1.6 0-2.8-.6-3.7-1.8-.8-1.2-1.3-2.9-1.3-5.1 0-1.9.4-3.5 1.2-4.8.8-1.3 2-1.9 3.6-1.9 1.7 0 2.9.6 3.7 1.9.8 1.3 1.3 2.9 1.3 4.9 0 1-.1 1.9-.3 2.7M29 .9c-1 0-1.8.3-2.5 1s-1 1.5-1 2.4c0 .9.3 1.7 1 2.4s1.5 1 2.5 1c.9 0 1.8-.3 2.5-1s1-1.5 1-2.4c0-.9-.3-1.7-1-2.4-.7-.6-1.5-1-2.5-1M26.1 10.4H32v22.1h-5.9zM50.3 10.2c-4.3-.3-6.7 2-6.7 2v-1.8h-5.9v22.1h5.9V19.3c0-2.2 1.9-4.1 4.2-4.1 2.3 0 4.2 1.8 4.2 4.1v13.2h5.9V19.4c-.1-6.9-4.1-8.9-7.6-9.2M112 10v.4h-3.5v4.5h3.5v17.6h5.9V14.9h3.5v-4.5h-3.5v-.5c0-3 1.4-4.5 4.2-4.1l.9-4.6c-8.9-1-11 3.7-11 8.8M127.3 10v.4h-3.5v4.5h3.5v17.6h5.9V14.9h3.5v-4.5h-3.5v-.5c0-3 1.4-4.5 4.2-4.1l.9-4.6c-9-1-11 3.7-11 8.8"/><path fill="#e8eef5" d="M8.6 6.1v26.4"/><path d="M140.7 32.9c-.7 0-1.3-.2-1.9-.7-.5-.5-.8-1.1-.8-1.9 0-.8.3-1.4.8-1.9s1.1-.7 1.8-.7 1.3.3 1.8.8.7 1.1.7 1.9c0 .8-.2 1.4-.7 1.9-.3.3-1 .6-1.7.6M160.5 14.4c-.5-.1-1.1-.2-1.5-.2-.5-.1-1-.1-1.4-.1-3.6 0-5.4 2-5.4 5.9v12.6h-4V10.4h4v3h.1c.6-1.2 1.5-2 2.6-2.6 1.1-.5 2.2-.8 3.4-.8 1 0 2 .2 3.1.5l-.9 3.9M163.9 10.4h4v13.1c0 1.9.4 3.4 1.1 4.4.7 1 1.9 1.5 3.6 1.5 1.3 0 2.3-.4 3.1-1.1.8-.7 1.4-1.7 1.7-2.9.2-.6.3-1.3.3-2.1v-13h4v22.1h-4v-2.9h-.1c-.8 1.2-1.8 2-2.9 2.5-1.1.5-2.2.8-3.3.8-5 0-7.5-2.8-7.5-8.4v-14"/></svg>