<svg id="whatsapp" xmlns="http://www.w3.org/2000/svg" viewBox="0 0 512 512"><g ><path d="M378.9 294.2c-1-.5-38.3-18.9-45-21.2-2.7-1-5.6-1.9-8.7-1.9-5 0-9.3 2.5-12.6 7.4-3.7 5.5-15 18.7-18.5 22.7-.5.5-1.1 1.1-1.4 1.1-.3 0-6.1-2.4-7.9-3.1-40-17.4-70.4-59.2-74.6-66.3-.6-1-.6-1.5-.6-1.5.1-.5 1.5-1.9 2.2-2.6 2-2 4.2-4.7 6.4-7.2l3-3.6c3.1-3.6 4.5-6.4 6.1-9.6l.8-1.7c3.9-7.7.6-14.3-.5-16.4-.9-1.8-16.6-39.8-18.3-43.8-4-9.6-9.4-14.1-16.8-14.1-.7 0 0 0-2.9.1-3.5.1-22.6 2.7-31 8-9 5.6-24.1 23.6-24.1 55.3 0 28.5 18.1 55.4 25.8 65.6.2.3.5.8 1.1 1.5 29.7 43.4 66.7 75.5 104.3 90.5 36.1 14.4 53.3 16.1 63 16.1 4.1 0 7.4-.3 10.2-.6l1.8-.2c12.5-1.1 39.9-15.3 46.2-32.7 4.9-13.7 6.2-28.6 2.9-34-2.2-3.6-6.1-5.5-10.9-7.8z"/><path d="M260.5 0C121.9 0 9.1 112 9.1 249.6c0 44.5 11.9 88.1 34.5 126.2L.4 503.2c-.8 2.4-.2 5 1.6 6.8 1.3 1.3 3 2 4.7 2 .7 0 1.4-.1 2-.3l132.9-42.2c36.4 19.4 77.4 29.7 119 29.7 138.7 0 251.5-112 251.5-249.6C512 112 399.2 0 260.5 0zm0 447.2c-39.1 0-77-11.3-109.6-32.7-1.1-.7-2.4-1.1-3.6-1.1-.7 0-1.4.1-2 .3l-66.6 21.2 21.5-63.4c.7-2.1.3-4.3-.9-6.1-24.8-33.9-37.9-73.9-37.9-115.8 0-109 89.4-197.6 199.2-197.6 109.8 0 199.2 88.6 199.2 197.6-.1 108.9-89.4 197.6-199.3 197.6z"/></g></svg>