<?xml version="1.0" standalone="no"?>
<!DOCTYPE svg PUBLIC "-//W3C//DTD SVG 20010904//EN"
 "http://www.w3.org/TR/2001/REC-SVG-20010904/DTD/svg10.dtd">
<svg version="1.0" xmlns="http://www.w3.org/2000/svg"
 width="700.000000pt" height="700.000000pt" viewBox="0 0 700.000000 700.000000"
 preserveAspectRatio="xMidYMid meet">
<metadata>
Created by potrace 1.11, written by Peter Selinger 2001-2013
</metadata>
<g transform="translate(0.000000,700.000000) scale(0.100000,-0.100000)"
fill="#000000" stroke="none">
<path d="M2285 6989 c-54 -7 -175 -27 -215 -34 -138 -28 -334 -96 -485 -170
-290 -141 -546 -350 -741 -605 -142 -186 -251 -395 -319 -610 -14 -47 -28 -91
-31 -98 -3 -10 13 -12 69 -8 424 30 844 28 1107 -4 127 -16 324 -57 415 -86
150 -48 331 -149 411 -230 78 -79 154 -188 185 -267 50 -122 61 -186 64 -357
5 -226 -18 -351 -87 -493 -46 -93 -97 -164 -169 -233 -65 -62 -185 -144 -256
-174 -29 -12 -53 -25 -53 -27 0 -5 267 -414 564 -865 75 -114 136 -209 136
-211 0 -2 -196 -3 -436 -3 l-435 1 -31 55 c-17 30 -44 80 -61 110 -16 30 -62
114 -102 185 -40 72 -86 155 -102 185 -17 30 -72 129 -122 219 -50 91 -91 167
-91 171 0 3 -101 6 -225 6 l-225 0 0 -466 0 -466 -302 1 c-167 0 -309 -1 -316
-3 -9 -3 -12 -256 -12 -1219 0 -1125 1 -1217 17 -1244 18 -30 31 -38 75 -45
40 -7 77 16 147 96 129 145 246 250 391 352 246 172 592 307 876 343 27 4 60
9 74 12 14 4 340 8 725 10 1652 8 2001 10 2025 15 14 3 48 9 75 13 77 11 84
12 175 34 703 170 1263 689 1490 1381 39 120 60 210 87 380 3 19 7 995 8 2169
l2 2133 -23 27 -22 26 -2099 1 c-1154 1 -2125 -2 -2158 -7z m3070 -1538 c21
-1 21 -6 20 -303 l0 -303 -705 0 c-388 0 -707 -3 -710 -7 -3 -4 -5 -127 -5
-275 l0 -268 640 -3 640 -2 0 -303 0 -302 -620 -2 c-341 -1 -629 -2 -640 -2
-19 -1 -20 -8 -20 -276 l0 -275 732 0 733 0 -3 -307 -2 -308 -1127 -1 c-1015
0 -1127 1 -1130 15 -3 13 -1 2905 1 2921 1 4 2100 5 2196 1z"/>
<path d="M1104 4860 c-33 -4 -65 -10 -72 -14 -8 -4 -10 -118 -9 -393 2 -435
-8 -387 82 -398 55 -6 366 -8 396 -1 13 3 53 8 89 11 89 8 106 13 173 48 119
62 158 141 163 327 4 136 -17 230 -63 288 -47 59 -160 111 -273 127 -98 13
-379 16 -486 5z"/>
</g>
</svg>
